<svg width="212" height="183" viewBox="0 0 212 183" fill="none" xmlns="http://www.w3.org/2000/svg">
<ellipse cx="102.745" cy="103.845" rx="78.7453" ry="79.1442" fill="white"/>
<mask id="mask0_5502_15875" style="mask-type:alpha" maskUnits="userSpaceOnUse" x="0" y="0" width="212" height="176">
<path fill-rule="evenodd" clip-rule="evenodd" d="M212 0H0V105H31.0866C31.9092 144.289 63.8548 175.884 103.143 175.884C142.43 175.884 174.376 144.289 175.199 105H212V0Z" fill="#C4C4C4"/>
</mask>
<g mask="url(#mask0_5502_15875)">
<ellipse cx="103.143" cy="103.446" rx="72.0723" ry="72.4374" fill="url(#paint0_linear_5502_15875)"/>
<path d="M157.723 30.7976C157.809 30.6302 157.946 30.4941 158.114 30.4085C158.282 30.3229 158.473 30.2922 158.659 30.3207C158.761 30.343 158.857 30.3853 158.943 30.4449C159.029 30.5046 159.102 30.5806 159.158 30.6686C159.214 30.7565 159.252 30.8547 159.27 30.9574C159.289 31.0602 159.286 31.1655 159.264 31.2674C159.236 31.394 159.185 31.5145 159.114 31.6233C156.979 34.855 155.58 36.7307 153.551 36.3072C151.982 35.9797 151.128 34.5276 151.722 31.6803C151.936 30.6588 152.405 29.0002 152.961 27.153C151.647 26.8702 150.303 26.7506 148.96 26.7971C147.565 30.94 145.401 34.8017 142.653 34.2286C141.009 33.8727 140.162 32.4491 140.518 30.6375C141.059 28.0428 143.365 25.7045 147.309 25.0887C147.636 24.0032 147.932 22.8785 148.163 21.7752C148.569 19.8212 148.245 19.3514 147.586 19.2126C146.426 18.9705 145.618 20.6683 144.775 20.4903C144.678 20.4741 144.585 20.438 144.503 20.3842C144.42 20.3305 144.35 20.2603 144.296 20.178C144.243 20.0958 144.206 20.0033 144.19 19.9063C144.174 19.8094 144.178 19.7101 144.202 19.6148C144.454 18.4082 146.515 17.102 148.302 17.4793C150.16 17.8672 150.772 19.4048 150.177 22.2556C149.999 23.1027 149.782 24.0139 149.523 24.9392C150.762 24.9552 151.998 25.0947 153.21 25.3557L153.48 25.4126C154.1 23.3875 154.751 21.3054 155.221 19.718C155.286 19.4619 155.45 19.2418 155.676 19.1053C155.903 18.9688 156.174 18.9268 156.431 18.9883C156.565 19.0097 156.693 19.0584 156.807 19.1314C156.921 19.2045 157.019 19.3002 157.094 19.4128C157.17 19.5254 157.221 19.6523 157.246 19.7856C157.27 19.9189 157.266 20.0559 157.235 20.1878C157.16 20.5437 156.32 23.181 155.473 25.9536C155.769 26.0461 156.068 26.1458 156.374 26.2561C157.007 26.4875 157.214 26.9359 157.136 27.3239C157.1 27.4479 157.039 27.5635 156.958 27.6639C156.877 27.7643 156.777 27.8474 156.663 27.9084C156.549 27.9695 156.425 28.0071 156.296 28.0192C156.167 28.0313 156.038 28.0175 155.915 27.9788C155.719 27.9361 155.381 27.8293 154.943 27.7011C154.416 29.4807 153.954 31.1144 153.754 32.0611C153.345 34.0186 153.58 34.4707 154.064 34.5525C155.004 34.7483 156.74 32.3387 157.712 30.8296L157.723 30.7976ZM146.647 27.1103C144.173 27.7759 142.771 29.2921 142.436 30.8866C142.262 31.7301 142.522 32.2889 143.127 32.4135C144.159 32.6306 145.518 30.2424 146.647 27.1103Z" fill="#B7516F"/>
<path d="M166.628 32.6534C166.715 32.4892 166.849 32.3555 167.014 32.2708C167.179 32.1861 167.366 32.1544 167.55 32.18C167.758 32.2276 167.938 32.3553 168.052 32.5352C168.166 32.7152 168.205 32.9329 168.159 33.141C168.134 33.2603 168.087 33.3739 168.02 33.4755C165.703 37.0988 163.34 38.5189 160.71 37.9708C158.079 37.4227 156.645 35.2338 157.264 32.2761C157.951 29.0053 160.443 27.3823 162.863 27.8806C164.721 28.2685 165.71 29.7562 165.354 31.4219C164.998 33.0876 163.19 34.3226 161.137 33.8955C160.416 33.7517 159.734 33.4529 159.14 33.02C158.887 34.7996 159.692 35.91 161.275 36.2232C163.735 36.7357 165.675 34.0877 166.632 32.632L166.628 32.6534ZM162.542 29.6601C161.475 29.4359 160.257 30.0623 159.585 31.4824C160.138 31.864 160.761 32.1326 161.418 32.2726C162.457 32.4897 163.272 31.9558 163.45 31.1087C163.498 30.9537 163.512 30.7902 163.491 30.6293C163.47 30.4684 163.414 30.3139 163.328 30.1764C163.242 30.0389 163.127 29.9216 162.992 29.8325C162.856 29.7434 162.703 29.6846 162.542 29.6601Z" fill="#B7516F"/>
<path d="M174.043 34.1979C174.13 34.0367 174.267 33.9073 174.432 33.8281C174.598 33.7488 174.784 33.7238 174.964 33.7566C175.065 33.7762 175.161 33.8155 175.247 33.8723C175.333 33.9292 175.406 34.0023 175.463 34.0877C175.521 34.173 175.56 34.2688 175.58 34.3696C175.6 34.4704 175.6 34.5741 175.58 34.6749C175.553 34.8019 175.503 34.9226 175.431 35.0308C173.178 38.4654 171.345 40.1239 169.103 39.6577C167.024 39.227 165.714 37.2908 166.704 32.5394C168.508 23.8728 171.081 22.168 173.256 22.62C174.509 22.8834 175.235 23.9903 174.929 25.4673C174.342 28.2826 172.146 31.3791 168.419 34.141C168.152 36.0736 168.419 37.661 169.636 37.9173C171.135 38.2305 173.007 35.7818 174.043 34.2015V34.1979ZM168.985 31.4965C171.306 29.4073 172.608 27.2612 172.993 25.414C173.156 24.6416 172.993 24.4067 172.687 24.3462C171.964 24.1932 170.327 26.0119 168.985 31.4965Z" fill="#B7516F"/>
<path d="M181.439 35.7455C181.526 35.5835 181.662 35.4534 181.828 35.3741C181.994 35.2947 182.18 35.2702 182.361 35.3041C182.462 35.3233 182.558 35.3622 182.643 35.4187C182.729 35.4751 182.802 35.548 182.86 35.6331C182.917 35.7181 182.957 35.8137 182.977 35.9142C182.997 36.0148 182.997 36.1183 182.977 36.2188C182.95 36.3452 182.9 36.4657 182.831 36.5747C180.578 40.0093 178.745 41.6679 176.499 41.2016C174.424 40.7674 173.114 38.8312 174.1 34.0833C175.908 25.4168 178.478 23.712 180.653 24.164C181.909 24.4273 182.635 25.5342 182.325 27.0113C181.738 29.8301 179.542 32.9266 175.816 35.6849C175.549 37.6176 175.816 39.2049 177.037 39.4612C178.531 39.7744 180.403 37.3257 181.439 35.7455ZM176.364 33.0405C178.684 30.9513 179.987 28.8051 180.371 26.9579C180.535 26.1856 180.371 25.9507 180.065 25.8902C179.375 25.7442 177.734 27.5558 176.375 33.0405H176.364Z" fill="#B7516F"/>
<path d="M191.735 37.8881C191.822 37.7257 191.958 37.5947 192.123 37.5136C192.288 37.4325 192.475 37.4054 192.657 37.4361C192.759 37.4556 192.856 37.4953 192.942 37.5528C193.029 37.6103 193.103 37.6845 193.16 37.7711C193.217 37.8576 193.257 37.9547 193.276 38.0567C193.296 38.1587 193.294 38.2636 193.273 38.3651C193.247 38.492 193.198 38.6129 193.127 38.721C192.611 39.588 191.857 40.2889 190.955 40.7406C190.053 41.1923 189.04 41.3758 188.037 41.2693C187.512 41.9084 186.821 42.3903 186.04 42.6622C185.259 42.9341 184.418 42.9854 183.609 42.8104C180.951 42.2552 180.207 39.9097 180.687 37.6141C181.275 34.7917 183.716 32.0227 186.709 32.6491C187.278 32.7609 187.818 32.9861 188.297 33.3111C189.535 34.1048 190.055 36.0623 189.66 37.938C189.534 38.5366 189.338 39.1183 189.076 39.6713C189.624 39.5904 190.146 39.3888 190.606 39.081C191.066 38.7732 191.452 38.367 191.735 37.8917V37.8881ZM186.04 40.5148C185.363 40.0164 184.841 39.3363 184.535 38.5532C184.229 37.7701 184.151 36.9163 184.311 36.0908C184.421 35.5566 184.613 35.0428 184.88 34.5674C183.748 35.1583 182.869 36.5997 182.577 37.9985C182.221 39.778 182.876 40.8066 184.001 41.038C184.363 41.1056 184.735 41.0938 185.092 41.0035C185.449 40.9132 185.783 40.7464 186.069 40.5148H186.04ZM187.137 34.7668C186.606 34.6564 186.144 35.29 185.969 36.1335C185.834 36.713 185.872 37.3196 186.08 37.8774C186.288 38.4351 186.655 38.9192 187.137 39.2691C187.441 38.712 187.659 38.112 187.784 37.4895C188.069 36.137 187.888 34.9412 187.165 34.7917L187.137 34.7668Z" fill="#B7516F"/>
<path d="M193.677 43.5574C193.734 43.2999 193.864 43.0646 194.053 42.8809C194.242 42.6972 194.481 42.5732 194.74 42.5244C194.999 42.4756 195.267 42.5042 195.51 42.6065C195.752 42.7088 195.96 42.8804 196.106 43.0998C196.252 43.3193 196.33 43.5768 196.33 43.8404C196.331 44.1039 196.254 44.3618 196.109 44.5818C195.963 44.8018 195.757 44.9742 195.514 45.0775C195.272 45.1807 195.004 45.2103 194.745 45.1626C194.568 45.1313 194.398 45.0644 194.247 44.9658C194.096 44.8671 193.967 44.7389 193.867 44.5888C193.768 44.4387 193.699 44.2699 193.667 44.0926C193.634 43.9153 193.638 43.7332 193.677 43.5574ZM194.898 39.6423C195.144 38.4571 195.706 36.738 196.429 33.2607C196.785 31.5452 197.066 29.965 197.222 28.7406C197.329 27.8544 197.902 27.5198 198.411 27.6266C198.92 27.7334 199.294 28.2139 199.187 28.972C199.023 30.2497 198.717 31.9474 198.326 33.8338C197.913 35.8127 197.407 37.998 196.82 40.0943C196.803 40.2327 196.757 40.366 196.685 40.4854C196.613 40.6049 196.517 40.7078 196.402 40.7875C196.288 40.8672 196.158 40.922 196.021 40.9481C195.884 40.9743 195.743 40.9713 195.607 40.9394C195.472 40.9075 195.344 40.8473 195.233 40.7628C195.122 40.6783 195.03 40.5714 194.963 40.4491C194.896 40.3267 194.856 40.1916 194.845 40.0526C194.834 39.9136 194.852 39.7738 194.898 39.6423Z" fill="#B7516F"/>
<path opacity="0.6" d="M203.779 17.0422L133.955 2.80555C131.61 2.32669 129.17 2.79898 127.173 4.11854C125.176 5.4381 123.785 7.49686 123.306 9.842L118.612 32.8484C118.134 35.1935 118.606 37.6324 119.926 39.6292C121.245 41.626 123.303 43.0173 125.648 43.4973L154.246 49.3308C155.055 52.2489 155.083 55.3283 154.328 58.2607C153.825 60.1582 152.997 61.9539 151.879 63.5674C153.303 63.3503 159.239 62.2861 163.115 57.0115C164.289 55.4059 165.152 53.5953 165.66 51.6727L195.471 57.7553C197.817 58.2342 200.256 57.7619 202.253 56.4423C204.25 55.1228 205.641 53.064 206.12 50.7189L210.815 27.7089C211.055 26.5464 211.063 25.3481 210.839 24.1824C210.615 23.0168 210.163 21.9068 209.509 20.916C208.856 19.9252 208.013 19.073 207.03 18.4083C206.046 17.7436 204.942 17.2793 203.779 17.0422Z" fill="url(#paint1_radial_5502_15875)"/>
<path d="M210.814 27.6885L210.373 29.8631C210.433 27.7388 209.742 25.6612 208.421 23.9964C207.1 22.3316 205.234 21.1864 203.152 20.7624L133.325 6.52576C129.079 5.65732 124.647 7.92806 122.914 11.7506L123.302 9.85357C123.538 8.69265 124.001 7.58971 124.664 6.60773C125.327 5.62576 126.177 4.78401 127.165 4.13057C128.153 3.47713 129.261 3.02481 130.424 2.79944C131.587 2.57408 132.783 2.58008 133.944 2.81712L203.771 17.0537C206.114 17.5315 208.172 18.9198 209.493 20.9138C210.814 22.9078 211.289 25.3444 210.814 27.6885Z" fill="url(#paint2_radial_5502_15875)" fill-opacity="0.6"/>
<path opacity="0.6" d="M206.217 50.2174L206.117 50.6979C205.88 51.8588 205.418 52.9618 204.755 53.9437C204.092 54.9257 203.242 55.7674 202.254 56.4209C201.266 57.0743 200.158 57.5266 198.995 57.752C197.832 57.9774 196.636 57.9714 195.475 57.7343L165.66 51.6482C165.153 53.5711 164.29 55.382 163.115 56.9869C159.239 62.2616 153.313 63.3258 151.875 63.5429C152.995 61.9297 153.824 60.134 154.328 58.2362C155.083 55.3037 155.055 52.2244 154.246 49.3063L125.648 43.4728C123.303 42.9927 121.245 41.6014 119.926 39.6046C118.606 37.6079 118.134 35.1689 118.612 32.8238L118.711 32.3291C118.871 36.5218 122.057 40.444 126.267 41.3088L156.299 47.4555L156.63 48.6763C157.554 52.0121 157.586 55.5319 156.723 58.8839C156.673 59.069 156.62 59.2399 156.566 59.4356C158.212 58.5816 159.66 57.3903 160.815 55.9393C161.969 54.4884 162.805 52.8104 163.268 51.0147L163.806 48.9788L196.094 55.5704C198.14 55.9872 200.268 55.6815 202.113 54.7054C203.959 53.7293 205.409 52.1431 206.217 50.2174Z" fill="url(#paint3_radial_5502_15875)"/>
<path opacity="0.3" d="M200.28 22.4599L135.798 9.01243C131.744 8.16689 127.772 10.7682 126.926 14.8226C126.081 18.8771 128.682 22.8493 132.736 23.6948L197.218 37.1423C201.273 37.9878 205.245 35.3865 206.09 31.3321C206.936 27.2777 204.335 23.3055 200.28 22.4599Z" fill="white"/>
<path d="M32.4884 93.2507C32.4189 92.9948 32.4266 92.7242 32.5105 92.4726C32.5943 92.2211 32.7506 92 32.9597 91.837C33.1688 91.674 33.4214 91.5764 33.6858 91.5565C33.9501 91.5366 34.2145 91.5953 34.4456 91.7251C34.6768 91.855 34.8644 92.0502 34.985 92.2863C35.1055 92.5224 35.1536 92.7889 35.1233 93.0523C35.0929 93.3157 34.9854 93.5642 34.8142 93.7667C34.643 93.9691 34.4159 94.1165 34.1612 94.1903C33.9897 94.242 33.8095 94.2586 33.6314 94.2391C33.4534 94.2195 33.2811 94.1642 33.1249 94.0765C32.9687 93.9887 32.8318 93.8704 32.7224 93.7285C32.6131 93.5866 32.5335 93.4241 32.4884 93.2507Z" fill="#B7516F"/>
<path d="M41.251 90.7891C41.1809 90.5333 41.1879 90.2625 41.2712 90.0107C41.3545 89.7589 41.5104 89.5374 41.7192 89.3739C41.928 89.2104 42.1806 89.1123 42.445 89.0919C42.7094 89.0715 42.974 89.1297 43.2055 89.2592C43.4369 89.3887 43.6249 89.5837 43.7459 89.8198C43.8668 90.0558 43.9152 90.3224 43.8852 90.5859C43.8551 90.8494 43.7478 91.0981 43.5767 91.3008C43.4057 91.5036 43.1785 91.6512 42.9238 91.7252C42.7526 91.7765 42.5727 91.7928 42.395 91.7732C42.2173 91.7537 42.0453 91.6986 41.8893 91.6113C41.7332 91.524 41.5963 91.4062 41.4867 91.265C41.3771 91.1238 41.2969 90.9619 41.251 90.7891Z" fill="#B7516F"/>
<path d="M50.008 88.322C49.9385 88.0661 49.9461 87.7954 50.03 87.5439C50.1138 87.2924 50.2701 87.0713 50.4792 86.9083C50.6883 86.7453 50.9409 86.6477 51.2053 86.6278C51.4697 86.6079 51.734 86.6666 51.9652 86.7964C52.1963 86.9262 52.3839 87.1215 52.5045 87.3576C52.6251 87.5937 52.6732 87.8602 52.6428 88.1236C52.6124 88.387 52.5049 88.6355 52.3337 88.8379C52.1626 89.0404 51.9354 89.1878 51.6808 89.2616C51.5092 89.3133 51.3291 89.3299 51.151 89.3104C50.9729 89.2908 50.8006 89.2355 50.6444 89.1478C50.4882 89.06 50.3513 88.9417 50.242 88.7998C50.1326 88.6579 50.053 88.4954 50.008 88.322Z" fill="#B7516F"/>
<path opacity="0.6" d="M83.2364 77.1449C77.7411 57.6158 55.1511 46.8921 32.7783 53.1811C10.4055 59.4701 -3.27948 80.4086 2.2123 99.9377C7.14172 117.463 25.8344 127.891 45.787 125.311C46.745 126.514 47.8525 127.591 49.0828 128.514C55.1333 133.073 62.0808 132.276 63.7465 132.041C61.9646 130.625 60.4434 128.909 59.2513 126.969C58.3791 125.535 57.6982 123.993 57.2261 122.382C76.8549 114.722 88.3474 95.3179 83.2364 77.1449Z" fill="url(#paint4_radial_5502_15875)"/>
<path opacity="0.3" d="M45.7054 99.7886C62.5434 95.0529 73.5336 81.7569 70.2526 70.0912C66.9717 58.4256 50.662 52.8077 33.8239 57.5434C16.9859 62.2791 5.99569 75.5751 9.27666 87.2407C12.5576 98.9064 28.8673 104.524 45.7054 99.7886Z" fill="white"/>
<path d="M84.2769 82.6239C84.0895 81.5443 83.8451 80.4682 83.5437 79.3957C78.0484 59.8667 55.4584 49.1429 33.0856 55.4284C12.7984 61.123 -0.341972 78.8796 1.47676 96.7146C-1.72648 78.1607 11.6346 59.1442 32.776 53.2004C55.1488 46.9042 77.7387 57.6351 83.2341 77.1677C83.7356 78.9536 84.0845 80.7789 84.2769 82.6239Z" fill="url(#paint5_radial_5502_15875)" fill-opacity="0.6"/>
<path opacity="0.6" d="M57.2257 122.387C57.7026 124.001 58.3894 125.546 59.2687 126.981C60.46 128.922 61.9813 130.64 63.7639 132.057C62.0982 132.295 55.165 133.089 49.1002 128.53C47.87 127.606 46.7624 126.53 45.8044 125.326C25.8376 127.893 7.14491 117.464 2.21548 99.9389C1.90581 98.8389 1.65396 97.7233 1.46094 96.5969C1.5511 96.9599 1.6472 97.323 1.74923 97.686C6.8139 115.702 26.3287 126.28 46.8544 123.009L47.5662 123.899C48.4091 124.957 49.3826 125.904 50.4634 126.718C52.8096 128.453 55.5742 129.535 58.475 129.854C58.0693 129.313 57.6849 128.75 57.329 128.17C56.3483 126.563 55.5813 124.836 55.0476 123.031L54.4852 121.152C73.1672 114.987 85.2434 98.4548 84.1721 81.5986C86.4108 98.3943 75.2529 115.329 57.2257 122.387Z" fill="url(#paint6_radial_5502_15875)"/>
<path d="M131.307 58.7798L134.486 58.1284L139.073 57.1924L142.497 56.4272L142.138 54.8291L138.472 55.6406L134.276 56.4699L130.172 57.2707L131.307 58.7798Z" fill="#4B0E2F"/>
<path d="M86.8743 97.2836C87.07 97.5292 103.898 125.686 110.564 127.266C117.23 128.846 120.761 121.66 122.099 118.147C123.437 114.634 122.672 95.3083 122.672 95.3083C122.672 95.3083 118.558 97.9385 116.604 96.5433C115.949 96.0735 115.426 95.3474 115.241 93.9095C115.178 93.3543 115.158 92.7951 115.18 92.2368C115.217 90.2398 115.508 88.2557 116.045 86.3321L100.855 80.8154C100.855 80.8154 100.855 81.9437 101.211 88.6135C101.282 89.8062 101.275 91.0023 101.189 92.194C100.897 95.8137 99.6552 96.6643 98.0892 96.5469C97.2267 96.4992 96.3778 96.3104 95.5764 95.9881C95.5764 95.9881 86.6785 97.0487 86.8743 97.2836Z" fill="#F9A0A9"/>
<g style="mix-blend-mode:multiply" opacity="0.6">
<path d="M101.179 92.1999C103.728 93.652 106.625 94.645 109.316 94.766C112.095 94.8906 113.989 94.4528 115.242 93.9154C115.179 93.3602 115.159 92.8009 115.181 92.2426C115.218 90.2457 115.509 88.2616 116.046 86.338L100.855 80.8213C100.855 80.8213 100.855 81.9495 101.211 88.6194C101.279 89.8123 101.268 91.0084 101.179 92.1999Z" fill="#F1C5BD"/>
</g>
<g style="mix-blend-mode:multiply" opacity="0.6">
<path d="M118.473 100.437C117.534 100.11 113.622 102.676 114.071 103.064C114.519 103.452 118.082 101.594 118.979 101.348C119.876 101.103 119.189 100.686 118.473 100.437Z" fill="#E5A898"/>
</g>
<g style="mix-blend-mode:multiply" opacity="0.6">
<path d="M102.233 101.048C103.394 100.692 108.319 103.091 107.775 103.489C107.23 103.888 102.756 102.179 101.632 101.969C100.507 101.759 101.361 101.322 102.233 101.048Z" fill="#E5A898"/>
</g>
<path d="M77.294 63.4433C78.6963 68.7429 82.8036 71.8287 84.4444 72.6544C86.0851 73.4801 87.0781 73.7221 88.1637 73.1705C89.2492 72.6188 91.9221 71.0065 92.5236 71.2556C95.371 72.4373 97.8624 86.9942 116.37 90.3576C119.42 90.9093 128.048 86.7059 134.596 77.4236C136.02 75.3914 136.579 72.6152 136.931 70.6007C137.079 69.7927 137.174 68.9759 137.216 68.1556C137.226 67.8287 137.212 67.5016 137.173 67.1768C137.084 66.2337 136.686 65.0413 136.372 63.8526C136.319 63.6462 136.266 63.4397 136.219 63.2297C136.219 63.1906 136.202 63.1443 136.194 63.1087C135.939 62.1957 135.874 61.2399 136.002 60.3006C136.38 58.1829 137.985 54.371 138.109 51.9899C138.234 49.7477 139.013 41.0776 136.522 35.4221C136.369 35.0662 136.166 34.7102 136.006 34.3543C132.642 27.4887 124.261 26.9442 124.261 26.9442C122.865 29.0227 121.605 29.5957 121.605 29.5957C109.423 21.4097 97.6915 29.069 94.4598 32.8737C80.3727 49.4629 93.6448 56.478 90.6159 65.0983C90.0678 66.6714 86.1634 51.5272 79.9954 53.6414C77.4435 54.5276 75.9024 58.133 77.294 63.4433Z" fill="#FEAEB4"/>
<path d="M111.859 39.2696C111.592 40.1416 109.4 39.2981 106.236 39.6469C103.071 39.9957 100.334 42.2629 99.16 43.804C97.9855 45.3451 97.4658 46.6869 97.0245 46.4662C96.5832 46.2456 97.6189 41.7005 101.484 38.8176C105.349 35.9347 112.656 36.6465 111.859 39.2696Z" fill="#B7516F"/>
<g style="mix-blend-mode:multiply">
<path d="M90.8476 32.4174C90.602 32.7733 88.6836 40.7209 88.6836 40.7209L90.7088 46.0596C90.7088 46.0596 90.1642 38.9769 94.5384 34.4105C97.2362 31.5988 98.5389 31.8373 98.5389 31.8373C98.5389 31.8373 96.6241 41.0021 106.109 43.2052C106.109 43.2052 101.482 40.3401 102.141 34.8163C102.799 29.2925 109.732 28.271 109.732 28.271C112.32 29.8612 115.232 30.8501 118.253 31.1646C121.89 31.5205 123.14 30.3104 123.14 30.3104C124.418 31.3969 126 32.063 127.671 32.2181C130.376 32.4245 132.066 31.4351 132.066 31.4351C132.066 31.4351 136.732 36.4179 138.195 42.1125C139.658 47.8072 136.02 25.8757 135.664 25.9825C138.206 25.2279 114.025 19.576 117.086 20.5263L100.966 22.7045L90.8476 32.4174Z" fill="#E5C5BD"/>
</g>
<path opacity="0.88" d="M110.135 73.6943C111.677 70.4707 108.669 65.8197 103.415 63.3058C98.161 60.792 92.6516 61.3673 91.1092 64.5909C89.5668 67.8145 92.5755 72.4656 97.8293 74.9794C103.083 77.4933 108.593 76.9179 110.135 73.6943Z" fill="url(#paint7_radial_5502_15875)"/>
<path opacity="0.88" d="M134.583 77.4238C136.1 74.5591 136.993 71.4051 137.202 68.17C137.213 67.8432 137.198 67.516 137.16 67.1913C137.071 66.2481 136.672 65.0557 136.359 63.867C136.305 63.6606 136.252 63.4541 136.206 63.2441C134.232 64.6669 132.774 66.6931 132.052 69.0171C130.863 72.8111 131.985 76.2849 134.583 77.4238Z" fill="url(#paint8_radial_5502_15875)"/>
<path d="M84.3781 61.2262C83.7141 60.3974 82.9741 59.6324 82.1678 58.9412C81.2211 58.1618 79.7405 58.4323 79.4558 59.9734C79.0998 61.963 79.4237 63.4186 79.1639 62.9666C78.1602 61.2582 78.3916 58.3397 79.5198 57.4179C80.4844 56.6385 81.7372 56.7061 83.079 57.9731C83.6685 58.6271 84.1852 59.3431 84.6201 60.1086C85.5206 61.6925 85.7448 62.6641 84.3781 61.2262Z" fill="#CB6275"/>
<path d="M85.7978 71.1278C86.6332 71.1278 87.3104 70.4506 87.3104 69.6152C87.3104 68.7798 86.6332 68.1025 85.7978 68.1025C84.9624 68.1025 84.2852 68.7798 84.2852 69.6152C84.2852 70.4506 84.9624 71.1278 85.7978 71.1278Z" fill="white"/>
<path d="M115.079 57.993C115.307 58.1175 115.584 58.687 115.663 57.3061C115.741 55.9251 115.549 52.7859 114.1 50.7928C112.652 48.7997 110.114 47.3511 106.505 47.8636C102.896 48.3761 101.696 49.2659 100.262 52.5226C99.5525 54.0811 99.3185 55.8144 99.5895 57.5054C99.5895 57.5054 97.2938 57.7154 97.3365 58.3703C97.3792 59.0251 101.462 60.1498 102.003 59.9826C102.544 59.8153 115.079 57.993 115.079 57.993Z" fill="#7F2636"/>
<path d="M104.86 65.2729C105.115 65.46 105.392 65.6154 105.685 65.7356C106.127 65.927 106.586 66.0748 107.056 66.177C108.853 66.5685 111.138 66.4261 112.75 65.006C115.014 63.0236 115.598 60.0837 115.455 57.2328C115.348 54.898 113.377 50.8762 108.75 50.627C107.307 50.498 105.863 50.8618 104.653 51.6592C103.585 52.403 102.817 53.6025 102.301 54.8624C102.212 55.0938 102.126 55.3322 102.051 55.5743C101.945 55.9302 101.838 56.311 101.763 56.6918C101.688 57.0727 101.713 57.5958 101.667 57.9945C101.649 58.2009 101.717 58.3504 101.717 58.5461C101.692 61.543 103.457 64.255 104.86 65.2729Z" fill="white"/>
<path d="M107.056 51.8542C109.576 51.7866 112.452 53.8082 112.719 57.7837C113.014 62.2006 110.84 64.838 107.708 65.2758C104.682 65.6993 101.803 63.5424 101.618 59.122C101.454 55.4632 102.881 51.9645 107.056 51.8542Z" fill="black"/>
<path d="M104.919 54.8378C104.82 54.7638 104.705 54.7149 104.583 54.6953C104.461 54.6756 104.336 54.6859 104.22 54.7251C104.103 54.7643 103.997 54.8313 103.912 54.9204C103.826 55.0094 103.764 55.1179 103.73 55.2364C103.495 55.9126 104.068 56.3041 104.644 56.0657C105.072 55.8842 105.31 55.1794 104.919 54.8378Z" fill="white"/>
<path d="M138.217 45.3199C138.075 45.7364 137.954 43.7326 136.139 41.8177C135.039 40.661 133.683 40.5436 132.224 40.8674C129.355 41.5116 129.675 39.6858 129.985 39.3797C131.138 38.2265 133.38 37.803 135.47 38.828C138.132 40.1093 138.505 44.4444 138.217 45.3199Z" fill="#B7516F"/>
<path d="M139.944 58.8658C139.894 59.9514 136.385 61.8271 135.203 61.1117C134.021 60.3963 135.171 55.9794 133.37 54.7052C131.569 53.431 127.54 56.0826 127.11 56.0043C126.679 55.926 126.658 52.3668 128.444 51.1959C130.231 50.0249 132.003 48.8967 134.897 50.7296C137.314 52.2529 137.68 56.6876 137.623 58.033C137.623 58.0294 139.969 58.2821 139.944 58.8658Z" fill="#7F2636"/>
<path d="M131.358 51.8354C133.547 52.3052 135.078 54.5581 135.274 57.4339C135.469 60.3097 134.918 64.6697 132.028 65.7624C128.486 67.1042 126.956 64.2889 126.845 59.5872C126.746 55.4871 127.959 51.1093 131.358 51.8354Z" fill="white"/>
<path d="M126.179 55.6923C126.179 55.6923 127.019 52.6813 129.877 53.2009C132.062 53.6102 133.333 55.7137 133.497 58.7994C133.66 61.8852 132.322 64.6329 129.831 65.1774C125.994 66.021 125.264 61.9457 126.179 55.6923Z" fill="black"/>
<path d="M129.275 54.8234C129.167 54.7616 129.046 54.7272 128.923 54.7231C128.799 54.719 128.676 54.7453 128.564 54.7997C128.453 54.8542 128.357 54.9351 128.284 55.0354C128.211 55.1357 128.164 55.2523 128.147 55.375C128.001 56.0869 128.62 56.3787 129.161 56.0869C129.577 55.8377 129.72 55.1045 129.275 54.8234Z" fill="white"/>
<path d="M116.979 76.1315C116.709 76.3237 117.783 78.6229 119.47 79.5732C121.158 80.5235 123.542 80.285 124.809 79.5127C125.834 78.8969 126.688 77.7758 126.468 77.6619C126.247 77.548 125.493 78.5766 124.044 78.8862C122.511 79.16 120.931 78.8893 119.577 78.121C118.029 77.249 117.303 75.8966 116.979 76.1315Z" fill="#CB6275"/>
<path d="M110.468 71.0557C112.184 69.6321 114.028 69.3509 116.006 69.4897C117.985 69.6285 121.733 72.7214 126.111 72.5221C127.89 72.4402 128.563 73.8497 128.912 74.5259C129.261 75.2021 129.328 76.9248 127.752 80.0283C125.99 83.4914 121.662 85.335 118.957 85.2995C116.11 85.2639 113.479 84.4702 111.187 81.9432C108.895 79.4162 108.696 74.5401 109.408 72.9955C109.691 72.3127 110.046 71.6624 110.468 71.0557Z" fill="#E76F83"/>
<path d="M127.798 79.4879C126.253 81.8903 123.039 83.7161 120.124 83.8371C119.925 83.8371 119.722 83.8371 119.516 83.8371C119.016 83.8143 118.518 83.7644 118.024 83.6877C115.298 83.2606 112.308 81.8867 110.401 78.6301C110.121 78.1655 109.883 77.6772 109.689 77.1708C109.477 76.6122 109.332 76.0304 109.258 75.4375C108.931 72.9461 110.009 70.985 111.436 70.3408C111.812 70.1685 112.206 70.0384 112.611 69.9529C112.714 69.9315 112.821 69.9102 112.921 69.8959L113.259 69.8532C115.209 69.6966 116.91 70.7644 119.281 71.914C119.314 71.9278 119.346 71.9444 119.377 71.9638C119.889 72.2058 120.445 72.455 121.021 72.7041C121.121 72.7468 121.224 72.786 121.334 72.8251C121.346 72.8339 121.359 72.84 121.374 72.8429C125.463 74.473 126.759 73.0921 128.115 73.6117C128.217 73.6482 128.315 73.696 128.406 73.7541C128.531 73.8249 128.643 73.9163 128.737 74.0246C129.57 74.9677 129.282 77.1851 127.798 79.4879Z" fill="#550C1A"/>
<path d="M118.024 83.6885C115.298 83.2614 112.308 81.8876 110.4 78.631C110.121 78.1664 109.882 77.6781 109.688 77.1717C109.477 76.6131 109.332 76.0312 109.258 75.4384C109.37 75.4242 109.484 75.4242 109.596 75.4384C110.927 75.5381 114.49 77.1148 116.508 80.3251C117.18 81.3636 117.691 82.4975 118.024 83.6885Z" fill="#B14355"/>
<path d="M119.869 74.807C117.115 74.0649 114.753 72.2906 113.273 69.8526C115.227 69.6996 116.932 70.7638 119.303 71.9134L119.392 71.9596C119.929 72.2351 120.48 72.4833 121.043 72.7035C121.143 72.7462 121.246 72.7854 121.353 72.8245C121.365 72.833 121.378 72.8401 121.392 72.8459C124.46 74.0631 125.955 73.5933 127.087 73.5007C127.45 73.4723 124.962 76.2484 119.869 74.807Z" fill="white"/>
<path d="M57.5349 43.5943C58.1044 39.0421 60.9695 34.6501 65.2156 33.0307C66.6539 32.5322 67.9447 31.6819 68.9705 30.5571C63.2367 29.1548 65.1052 23.9371 65.1052 23.9371C66.0057 26.2327 67.2407 26.9232 68.5291 26.7488L68.7818 26.6313C72.4193 25.0012 70.3336 22.0578 75.708 16.4913C79.623 12.4303 86.3391 12.3983 87.0439 12.5762C85.8614 12.1086 84.8886 11.2279 84.3061 10.0976C83.7236 8.96724 83.5709 7.66398 83.8762 6.42958C89.699 9.83569 96.3332 3.85276 104.235 1.71727C108.178 0.649519 112.421 0.535625 117.048 3.04483C117.067 3.05076 117.085 3.06043 117.101 3.0733C117.215 3.13381 117.339 3.20143 117.457 3.27261L117.496 3.29397L117.727 3.42922C119.17 4.30331 120.532 5.30507 121.795 6.42247L121.831 6.39755C122.367 6.06117 122.965 5.8338 123.589 5.72843C124.863 5.45437 126.828 5.40099 129.526 6.31213C134.801 8.09171 138.217 14.0248 138.114 19.5344C138.129 19.5512 138.147 19.5645 138.168 19.5735C138.502 19.8749 138.816 20.1983 139.107 20.5416C139.106 20.5475 139.106 20.5535 139.107 20.5594C140.691 22.4858 141.748 24.79 142.175 27.2471C143.599 34.9313 141.406 38.0313 140.175 40.1454C140.175 40.1454 143.086 47.4346 137.812 53.6702C137.812 53.6702 139.075 41.5691 135.562 35.2231C134.21 32.7887 133.22 31.5999 132.558 31.0233C132.3 30.7497 131.963 30.5631 131.594 30.4895C131.57 30.4842 131.546 30.4842 131.523 30.4895C131.523 30.4895 128.803 32.8954 122.927 29.3754C122.01 29.9056 120.978 30.2038 119.92 30.2439C118.934 30.2867 117.949 30.1504 117.012 29.8417C114.816 29.1299 113.011 27.7311 110.314 27.1581L110.064 27.1083C108.176 26.7682 106.237 26.8216 104.37 27.2649C103.585 27.4311 102.819 27.678 102.085 28.0016C101.765 28.1369 101.455 28.2899 101.149 28.4536C100.225 28.9573 99.3541 29.5535 98.5506 30.2332C96.5432 31.9238 94.212 33.9881 92.5748 36.1628C92.5356 36.2161 92.5 36.2695 92.4609 36.3194C91.5789 37.4336 90.9455 38.7236 90.603 40.1027C90.5303 40.4542 90.491 40.8117 90.4856 41.1705C90.4856 41.5264 90.4856 41.836 90.5105 42.1599C90.7916 47.4987 93.3934 51.0329 93.4254 54.6953C93.4301 55.2765 93.3644 55.8561 93.2297 56.4215C93.1025 56.9526 92.9175 57.4682 92.678 57.959C90.6244 62.23 90.8521 65.1236 90.7454 66.5259C90.6386 67.9282 89.2754 65.3443 86.93 59.0517C86.7662 58.6139 86.574 58.2046 86.3997 57.8202C86.1408 57.2846 85.8396 56.7705 85.4992 56.2826C83.6164 53.6168 81.0752 52.8694 79.0108 54.1472C76.9465 55.4249 75.8076 59.9664 78.2314 65.1521C80.7228 70.4338 84.3531 72.9039 86.243 73.0498C90.1403 73.3559 88.4319 69.4302 91.9057 70.7186C94.1586 71.555 96.5326 78.1394 100.925 82.6417L101.092 86.265C101.092 86.265 99.7785 84.1829 94.1764 84.4854C83.8193 85.0264 78.6122 78.0255 78.4485 77.8048C78.6015 77.8369 82.3315 78.7302 83.353 77.2318C83.6164 76.8474 78.0926 76.7905 75.021 73.0178C74.416 72.2811 73.423 69.7042 73.0244 69.2131C72.1097 68.0741 71.5046 67.7111 71.3729 67.6435C71.3624 67.6409 71.3514 67.6409 71.3409 67.6435C70.8456 67.5165 70.3676 67.3301 69.9172 67.0882C68.2942 66.2518 65.6818 64.2872 64.0909 59.9023C62.4181 55.2754 63.0587 50.5204 63.6211 48.0147C63.6673 47.8083 63.71 47.6126 63.7599 47.4346C63.945 46.6587 64.1158 46.2209 64.1158 46.2209C63.8658 46.2903 63.6198 46.3735 63.379 46.4701C61.8273 47.0894 58.4639 48.9223 59.706 52.9086C59.5169 52.7373 59.3452 52.5478 59.1935 52.3427C58.3642 51.2856 56.8978 48.6127 57.5349 43.5943Z" fill="#9740E5"/>
<path d="M78.3194 28.709C78.3194 28.709 78.4831 34.4784 75.0485 37.1015C71.614 39.7246 66.1507 40.0449 64.3711 42.3583C64.3711 42.3583 64.727 40.4933 69.0443 39.0234C72.4361 37.8667 76.0344 36.1583 78.3194 28.709Z" fill="#7D1EBF"/>
<path d="M101.06 18.8182C101.06 18.8182 96.163 14.9458 91.3332 15.5224C86.5711 16.0919 84.4107 17.8038 83.0084 18.7256C81.7199 19.5692 80.9227 20.4269 79.6094 21.637C79.6094 21.637 81.2039 20.5693 83.3607 19.3948C85.5781 18.1882 88.251 16.9817 91.141 16.8322C94.0311 16.6827 99.2595 17.6757 101.06 18.8182Z" fill="#7D1EBF"/>
<path d="M101.989 10.8292C101.989 10.8292 108.456 7.43016 115.513 10.0639C122.571 12.6977 124.326 16.3316 124.326 16.3316C124.326 16.3316 123.813 13.1711 122.24 10.8897C122.24 10.8897 123.746 12.4486 124.063 13.0465C124.063 13.0465 122.24 6.4336 114.545 3.2873C106.85 0.141012 98.038 5.46551 95.8242 7.96759C95.8242 7.96759 106.954 1.45078 115.933 7.50846C115.951 7.50846 108.039 5.2484 101.989 10.8292Z" fill="#B65BED"/>
<path d="M104.246 1.72124C106.034 1.69025 107.821 1.82248 109.585 2.1163C112.66 2.61102 117.298 3.67877 121.586 8.66158C124.119 11.5619 125.398 15.3476 125.145 19.1896C125.569 16.9524 125.496 14.6496 124.932 12.4437C124.368 10.2378 123.327 8.18251 121.882 6.42288C121.874 6.41421 121.866 6.40466 121.86 6.39441C120.747 5.11865 119.365 4.10499 117.814 3.42607C117.715 3.38739 117.618 3.34221 117.525 3.29082L117.486 3.26947L117.13 3.07015C117.114 3.05728 117.096 3.04761 117.077 3.04168C112.443 0.539599 108.19 0.64993 104.246 1.72124Z" fill="#B65BED"/>
<path d="M95.445 40.0527C96.9102 41.5793 98.6836 42.7765 100.647 43.5645C102.611 44.3524 104.72 44.7131 106.834 44.6226C100.649 40.672 98.8903 34.7211 99.652 31.5855C101.827 22.6449 109.308 26.204 109.472 26.325C108.621 25.0686 102.428 16.9075 93.7865 24.6771C91.9072 26.3606 91.3235 29.2329 91.5442 31.9592C91.7649 34.6855 92.9714 37.4687 95.445 40.0527Z" fill="#9740E5"/>
<path d="M78.0273 41.8467C76.2228 47.7228 72.2116 46.8864 68.2609 46.7441C65.8656 46.6658 64.5096 47.043 63.7835 47.431C63.9757 46.6551 64.1394 46.2173 64.1394 46.2173C63.8905 46.2864 63.6457 46.3696 63.4062 46.4665C63.4165 46.4508 63.4298 46.4375 63.4454 46.4273C64.1288 45.897 67.2466 44.8969 71.546 45.0392C72.8033 45.0667 74.0487 44.7909 75.1769 44.2352C76.305 43.6794 77.2827 42.8602 78.0273 41.8467Z" fill="#7D1EBF"/>
<path opacity="0.6" d="M76.892 70.1241C75.6249 69.7462 74.3351 69.449 73.0304 69.2343C72.1157 68.0953 71.5106 67.7323 71.3789 67.6647C71.4086 67.6248 71.4407 67.5868 71.475 67.5508C71.475 67.5508 75.9951 68.4548 76.892 70.1241Z" fill="#7D1EBF"/>
<path d="M124.909 19.5694C126.689 11.1307 121.812 6.42548 121.812 6.42548C122.356 6.07057 122.969 5.8341 123.61 5.73145C129.525 12.7715 124.909 19.5694 124.909 19.5694Z" fill="#7D1EBF"/>
<path d="M139.125 20.5586C138.947 24.7335 136.402 26.5879 136.402 26.5879C138.182 23.6444 138.15 20.0639 138.136 19.5479C138.494 19.8552 138.826 20.1934 139.125 20.5586Z" fill="#7D1EBF"/>
<path d="M135.337 24.4492C135.337 24.4492 135.009 28.6241 132.586 31.023C132.329 30.7474 131.991 30.5605 131.621 30.4891L131.646 30.4677C133.306 28.7587 134.566 26.7033 135.337 24.4492Z" fill="#7D1EBF"/>
<path d="M96.4425 61.7556C96.8512 62.7838 97.3805 63.7599 98.0192 64.6634C99.0474 66.0797 100.387 67.2414 101.934 68.0589C104.012 69.1713 106.36 69.6781 108.711 69.5217C109.149 69.4967 109.569 69.4576 109.967 69.4078C110.195 69.3757 110.419 69.3508 110.633 69.3152C115.221 68.6248 117.242 66.6103 118.552 64.6599C119.709 62.9372 120.349 59.5133 120.371 56.7514C120.371 56.6233 120.371 56.5023 120.371 56.3777C120.366 55.7823 120.322 55.1878 120.239 54.5981C120.239 54.5732 120.239 54.5412 120.221 54.5163C119.944 52.6691 119.445 51.313 117.427 49.8146C115.221 48.1596 111.583 47.6008 108.12 47.6969C106.412 47.7229 104.708 47.8549 103.016 48.092C101.579 48.281 100.174 48.6654 98.8414 49.2345C96.9586 50.0816 96.0937 51.8291 95.6381 53.6016C95.5031 54.1482 95.3985 54.7019 95.3249 55.2601C95.3267 55.2898 95.3267 55.3195 95.3249 55.3491C95.1185 56.9436 95.4886 59.4101 96.4425 61.7556ZM98.2683 61.809C97.2006 59.5845 96.7664 57.0753 96.9657 55.584C97.3216 52.8826 98.1117 51.3913 99.5176 50.7578C100.298 50.4196 101.112 50.162 101.945 49.989C102.361 49.8965 102.799 49.8182 103.265 49.747C104.891 49.5185 106.529 49.3902 108.17 49.3626C109.871 49.2928 111.575 49.4424 113.238 49.8075C114.387 50.0307 115.478 50.4887 116.441 51.1529C117.997 52.3167 118.353 53.2029 118.605 54.8651C118.721 55.7236 118.751 56.5916 118.694 57.4561C118.591 59.7945 118.047 62.4639 117.185 63.738C116.117 65.3468 114.448 67.073 110.391 67.6851C109.971 67.7456 109.526 67.8026 109.06 67.8382C108.914 67.8382 108.764 67.8667 108.611 67.8738C106.889 67.992 105.162 67.6993 103.575 67.0196C101.899 66.3123 100.444 65.1664 99.3646 63.7024C98.9421 63.1061 98.5752 62.4723 98.2683 61.809Z" fill="#5B1336"/>
<path d="M133.901 50.445C134.876 50.445 135.919 50.5127 136.816 50.5803C140.176 50.8366 141.361 53.303 141.044 59.3821C140.82 63.7207 138.197 68.1162 133.634 68.1162H133.392C130.189 68.0201 128.473 65.5714 127.889 64.5251C126.978 62.8843 126.466 58.6774 126.893 56.4849C127.274 54.5772 128.231 52.2673 129.512 51.4025C130.473 50.7511 131.865 50.4486 133.89 50.4486M133.89 48.7936C131.854 48.7936 130.014 49.0676 128.587 50.0322C126.619 51.3633 125.611 54.4526 125.273 56.161C124.764 58.713 125.337 63.3399 126.444 65.3294C127.622 67.4436 129.939 69.668 133.342 69.7713H133.623C139.339 69.7713 142.425 64.4325 142.685 59.4675C142.916 55.0043 142.685 49.3702 136.93 48.9324C135.887 48.8541 134.865 48.79 133.89 48.79V48.7936Z" fill="#5B1336"/>
<path d="M123.976 59.1143C123.449 59.1854 123.656 61.506 124.467 62.7553C125.279 64.0045 125.823 64.5348 125.613 65.3214C125.356 66.1982 124.766 66.9393 123.969 67.3857C123.222 67.7416 122.232 67.941 122.392 68.3431C122.552 68.7453 124.14 68.6421 125.652 67.585C127.165 66.528 127.283 65.4496 127.076 64.6203C126.87 63.791 125.546 62.3709 124.998 61.4847C124.58 60.7299 124.238 59.9359 123.976 59.1143Z" fill="#CB6275"/>
<path d="M85.5039 56.314C85.8444 56.8018 86.1455 57.3159 86.4044 57.8515L88.0772 57.4956L92.6614 56.5631L93.2344 56.4314L96.0817 55.7979L95.7258 54.1963L93.4301 54.7052L92.0634 55.0113L87.8636 55.8371L85.5039 56.314Z" fill="#5B1336"/>
<path d="M126.408 56.2537C125.842 53.7623 124.29 53.2889 123.319 53.2319C122.347 53.175 121.539 53.3316 120.471 54.2997C120.107 54.6408 119.795 55.0342 119.546 55.4671C119.609 56.4729 119.593 57.4821 119.496 58.4852C119.655 58.3768 119.774 58.2192 119.834 58.0368C119.984 57.5777 120.567 56.1362 121.222 55.5454C122.041 54.8336 122.496 54.7909 123.148 54.8336C123.45 54.8514 124.65 54.8051 125.105 56.7946C125.13 56.9532 125.216 57.0959 125.344 57.1923C125.472 57.2887 125.633 57.3312 125.792 57.3107C126.116 57.1043 126.493 56.6238 126.408 56.2537Z" fill="#5B1336"/>
<path d="M137.091 25.1291C137.091 25.1291 138.038 18.0962 134.226 12.4122C130.414 6.72826 123.609 5.7317 123.609 5.7317C124.88 5.45765 126.845 5.40782 129.542 6.31541C134.814 8.09498 138.234 14.0281 138.131 19.5377C138.13 20.4209 138.06 21.3028 137.921 22.175C137.73 23.1817 137.452 24.1701 137.091 25.1291Z" fill="#B65BED"/>
<path d="M132.039 25.7455C132.039 25.7455 137.161 18.7767 134.573 10.8754L130.035 8.30566C130.035 8.30566 135.829 13.1141 132.039 25.7455Z" fill="#B65BED"/>
<path d="M63.8192 35.7452C60.4594 38.0943 56.3664 44.3655 59.05 51.9714C59.0927 52.0996 59.1496 52.2312 59.1923 52.3523C58.3702 51.2845 56.9038 48.6116 57.5373 43.5932C58.1032 39.041 60.9684 34.6526 65.218 33.0261C66.2302 32.6566 67.1788 32.1318 68.0297 31.4707C68.0297 31.4707 67.1684 33.3962 63.8192 35.7452Z" fill="#B65BED"/>
<path d="M70.1587 67.1631L69.9345 67.0955C68.3115 66.2591 65.6991 64.298 64.1082 59.906C62.4354 55.2791 63.0796 50.5276 63.6384 48.022C63.6553 47.9755 63.6755 47.9303 63.6989 47.8867C63.6989 47.8867 63.5423 54.6491 65.7489 60.1872C67.9556 65.7252 70.1587 67.1631 70.1587 67.1631Z" fill="#B65BED"/>
<path d="M140.204 40.1584C143.949 30.9829 139.308 21.0457 139.137 20.583C140.721 22.5079 141.78 24.8109 142.208 27.2671C143.632 34.9442 141.429 38.0442 140.204 40.1584Z" fill="#B65BED"/>
<path d="M100.953 28.5277C101.017 28.5063 101.085 28.4814 101.152 28.4636C101.459 28.2999 101.768 28.1468 102.088 28.0116C102.823 27.6879 103.588 27.441 104.373 27.2748C106.241 26.8315 108.179 26.7782 110.068 27.1182C108.506 26.1799 106.678 25.7856 104.868 25.9971C103 26.1929 101.544 27.6699 100.953 28.5277Z" fill="#7D1EBF"/>
<path d="M90.6081 40.1093C90.9495 38.7304 91.5817 37.4405 92.4624 36.3259C92.5016 36.2761 92.5372 36.2227 92.5763 36.1693C90.0849 30.3466 92.0638 23.335 99.1074 21.4131C99.1074 21.4131 88.5189 21.5519 89.1951 35.2475C89.2954 36.9536 89.7783 38.6153 90.6081 40.1093Z" fill="#7D1EBF"/>
<path d="M102.476 21.9263C102.476 21.9263 97.2158 20.8585 93.9343 25.4107C90.6527 29.9628 93.0018 35.4688 93.0018 35.4688C93.0018 35.4688 92.144 29.9628 95.7138 26.0228C99.2837 22.0829 102.476 21.9263 102.476 21.9263Z" fill="#B65BED"/>
<path d="M149.52 163.512C143.529 164.971 134.546 162.782 131.087 154.514C130.36 152.743 129.91 150.87 129.752 148.962C129.724 153.002 129.848 156.247 129.848 156.247C129.848 156.247 122.958 159.924 117.565 160.914C112.173 161.903 97.6128 162.433 97.3352 159.326C97.0576 156.219 95.2424 146.567 93.7084 140.779C92.4983 136.209 91.7367 133.398 91.3238 131.882C91.0569 130.913 90.9358 130.486 90.9358 130.486C90.8753 130.711 90.8148 130.938 90.765 131.177C90.8148 139.822 92.6763 147.549 93.3276 157.668C93.9932 168.046 87.277 175.723 83.5257 177.069C74.5104 180.307 68.5381 176.656 66.1321 175.139C64.1995 173.922 61.7223 171.53 59.2914 167.665C56.8605 163.8 56.7039 157.198 59.2701 150.88C61.8362 144.563 68.0541 137.224 70.9975 130.262C73.9409 123.3 74.4926 123.606 76.5391 109.509C78.5037 95.9839 81.739 94.6919 85.1415 93.8306C89.5763 92.7059 95.8938 96.0195 95.5663 95.9661C95.0431 95.9127 95.2745 97.2154 95.8724 100.027C96.4703 102.839 108.123 121.955 116.921 119.35C123.513 117.392 121.036 99.9025 120.968 98.1692C120.9 96.4359 119.601 96.7278 119.601 96.7278C121.384 95.0067 123.628 93.8396 126.061 93.3679C130.005 92.6561 133.325 94.2791 135.593 98.7814C139.447 106.441 142.536 121.991 144.448 124.952C144.448 124.952 145.896 122.649 153.702 125.432C161.507 128.216 164.112 136.092 164.578 141.449C165.322 149.752 159.823 160.992 149.52 163.512Z" fill="#FF2ED2"/>
<path d="M37.4646 219.006L34.991 222.974C39.4542 221.846 43.5009 217.817 45.0029 216.176C45.4051 215.742 45.6222 215.464 45.6222 215.464H45.7147C45.8251 215.464 56.9901 213.354 58.1006 213.144C59.211 212.934 59.7307 214.596 57.7447 218.397C57.169 219.446 56.8671 220.624 56.8671 221.821C56.8671 223.018 57.169 224.195 57.7447 225.245C57.7447 225.245 60.2361 221.255 62.4997 217.977C63.7637 216.21 64.8746 214.338 65.8204 212.382C66.4168 211.197 66.7724 209.905 66.8668 208.581C66.8922 207.114 67.0278 205.65 67.2725 204.203C67.4259 203.276 67.6826 202.368 68.0377 201.498C68.835 199.633 78.2418 172.406 78.2418 172.406C78.2418 172.406 77.2168 169.761 72.6824 168.437C67.995 167.067 65.7492 169.299 65.7492 169.299C65.7492 169.299 63.902 187.991 61.6633 195.465C60.4817 199.413 59.8268 201.26 59.0972 202.363C58.9809 202.54 58.8524 202.709 58.7128 202.868C58.154 203.513 57.4991 203.89 56.5203 204.506C53.9613 206.129 48.7471 207.631 47.5904 208.606C47.416 208.755 47.2345 208.933 47.0138 209.122C46.7932 209.311 46.5333 209.585 46.302 209.834C45.8856 210.247 45.4834 210.663 45.1702 210.994C44.857 211.325 44.615 211.585 44.558 211.649C44.558 211.649 42.7357 212.08 42.6254 212.147C40.433 213.46 33.9375 218.198 33.9375 218.198C35.2864 219.265 38.1017 217.998 38.1017 217.998L38.0697 218.052L37.4646 219.006Z" fill="#FEAEB4"/>
<path d="M155.603 101.846L152.464 131.451C152.464 131.451 151.162 134.654 146.075 133.644C141.506 132.725 141.271 129.6 141.271 129.6L148.154 100.159C148.154 100.159 145.357 97.0591 143.566 91.6171C141.776 86.1752 139.594 79.9218 140.288 79.726C142.068 79.2242 143.819 81.7369 145.46 86.0506C147.019 90.1437 148.022 88.4353 148.46 87.4743C148.898 86.5133 149.122 84.9224 149.428 79.4164C149.784 73.1629 150.852 69.9348 151.564 69.6002C152.674 69.0628 152.774 71.2588 152.61 75.1632C152.446 79.0676 152.137 83.7763 153.091 84.2141C154.044 84.6519 155.226 81.6124 156.682 77.3094C158.137 73.0063 159.355 69.6002 160.896 69.3333C162.437 69.0664 161.853 72.412 160.54 76.7043C159.227 80.9966 159.049 81.9256 159.049 81.9256C159.049 81.9256 161.302 75.7611 162.412 73.7395C163.522 71.7179 164.192 71.0808 164.79 72.2304C165.145 72.8782 164.825 75.5796 163.348 80.1709C161.871 84.7622 160.269 86.6521 161.113 87.3604C161.956 88.0687 164.985 84.6697 167.163 82.4452C168.349 81.2387 169.915 81.2387 169.587 82.5378C168.697 86.0969 162.992 91.4356 162.366 93.1761C161.739 94.9165 159.041 99.4544 155.603 101.846Z" fill="#FEAEB4"/>
<path d="M95.3386 257.446C100.172 272.861 99.4566 286.176 98.3853 300.64C97.3139 315.105 100.072 338.809 104.888 354.248C104.888 354.248 112.437 358.284 117.345 353.045C117.345 353.045 118.683 335.057 119.288 329.964C119.288 329.964 119.644 328.541 120.242 326.01C122.708 315.493 129.165 285.827 130.151 259.386C130.151 259.386 131.161 254.674 135.429 231.123C139.696 207.572 141.643 183.316 130.82 158.933C130.82 158.933 111.672 165.104 97.4207 160.641C97.4207 160.641 98.0009 158.893 95.78 165.033C93.559 171.173 89.7721 177.365 87.4088 189.399C85.0455 201.432 89.8682 240.007 95.3386 257.446Z" fill="#F9D64F"/>
<path d="M129.763 154.774C129.763 154.774 127.984 156.757 118.549 158.027C109.113 159.298 102.109 159.487 97.0156 157.159L97.1936 161.074C97.1936 161.074 103.397 164.804 119.435 162.694C126.436 161.768 130.824 158.928 130.824 158.928L129.763 154.774Z" fill="#5B1336"/>
<path d="M119.056 157.922C119.975 157.807 120.903 157.769 121.829 157.808C122.167 158.676 122.409 160.812 122.355 161.84C121.275 162.138 120.176 162.367 119.067 162.524C118.044 162.697 117.007 162.774 115.97 162.755C115.522 161.41 115.325 159.993 115.39 158.577C116.595 158.273 117.82 158.054 119.056 157.922ZM118.757 156.142C116.621 156.363 114.344 156.889 113.995 157.228C113.283 157.915 113.422 163.837 115.041 164.378C115.753 164.616 117.476 164.481 119.188 164.214C121.323 163.883 123.395 163.356 123.619 163.068C124.267 162.235 123.679 156.847 122.551 156.217C122.053 155.936 120.455 155.964 118.746 156.142H118.757Z" fill="#F98F23"/>
<path d="M89.8424 127.031C90.3442 128.367 90.6534 129.768 90.7607 131.191C90.8141 130.956 90.8746 130.725 90.9351 130.501C90.9351 130.501 91.0561 130.924 91.323 131.896C91.2625 130.472 91.2269 128.742 91.2839 127.6C91.4013 125.408 91.7038 119.649 91.3195 119.83C90.3941 120.257 90.5756 127.212 90.5756 127.212C89.8994 124.009 88.5789 121.396 88.166 122.058C87.7532 122.72 89.216 125.255 89.8424 127.031Z" fill="#DD00C4"/>
<path d="M139.088 128.507C135.607 130.118 132.827 132.934 131.258 136.434C131.258 137.06 131.237 137.697 131.233 138.356C131.233 143.082 130.913 149.848 131.073 154.507C130.346 152.736 129.896 150.863 129.738 148.955C129.738 144.951 129.973 137.299 130.35 131.97C130.728 126.642 131.418 118.641 131.386 116.545C131.354 114.449 132.28 116.933 132.23 121.606C132.191 125.414 131.557 129.532 131.319 134.675C132.418 132.444 134.746 129.066 139.088 128.507Z" fill="#DD00C4"/>
</g>
<defs>
<linearGradient id="paint0_linear_5502_15875" x1="48.8482" y1="12.658" x2="162.655" y2="226.597" gradientUnits="userSpaceOnUse">
<stop stop-color="#FFFAD1"/>
<stop offset="1" stop-color="#E8AA0D"/>
</linearGradient>
<radialGradient id="paint1_radial_5502_15875" cx="0" cy="0" r="1" gradientUnits="userSpaceOnUse" gradientTransform="translate(164.713 33.0833) scale(112.117 112.117)">
<stop offset="0.22" stop-color="#FDD4E8"/>
<stop offset="0.28" stop-color="#FDD6E9" stop-opacity="0.96"/>
<stop offset="0.36" stop-color="#FDDAEB" stop-opacity="0.87"/>
<stop offset="0.47" stop-color="#FEE0EF" stop-opacity="0.71"/>
<stop offset="0.59" stop-color="#FEEAF4" stop-opacity="0.49"/>
<stop offset="0.73" stop-color="#FFF6FA" stop-opacity="0.22"/>
<stop offset="0.84" stop-color="white" stop-opacity="0"/>
</radialGradient>
<radialGradient id="paint2_radial_5502_15875" cx="0" cy="0" r="1" gradientUnits="userSpaceOnUse" gradientTransform="translate(166.959 16.2387) scale(69.4498 69.4498)">
<stop offset="0.22" stop-color="#FFEFFF"/>
<stop offset="0.27" stop-color="#FFF0FF" stop-opacity="0.96"/>
<stop offset="0.36" stop-color="#FFF1FF" stop-opacity="0.87"/>
<stop offset="0.47" stop-color="#FFF4FF" stop-opacity="0.71"/>
<stop offset="0.59" stop-color="#FFF7FF" stop-opacity="0.5"/>
<stop offset="0.73" stop-color="#FFFBFF" stop-opacity="0.23"/>
<stop offset="0.84" stop-color="white" stop-opacity="0"/>
</radialGradient>
<radialGradient id="paint3_radial_5502_15875" cx="0" cy="0" r="1" gradientUnits="userSpaceOnUse" gradientTransform="translate(162.322 47.9502) scale(168.241 168.241)">
<stop offset="0.22" stop-color="#FDD4E8"/>
<stop offset="0.28" stop-color="#FDD6E9" stop-opacity="0.96"/>
<stop offset="0.36" stop-color="#FDDAEB" stop-opacity="0.87"/>
<stop offset="0.47" stop-color="#FEE0EF" stop-opacity="0.71"/>
<stop offset="0.59" stop-color="#FEEAF4" stop-opacity="0.49"/>
<stop offset="0.73" stop-color="#FFF6FA" stop-opacity="0.22"/>
<stop offset="0.84" stop-color="white" stop-opacity="0"/>
</radialGradient>
<radialGradient id="paint4_radial_5502_15875" cx="0" cy="0" r="1" gradientUnits="userSpaceOnUse" gradientTransform="translate(43.3595 93.0579) rotate(-7.86) scale(107.287 107.287)">
<stop offset="0.22" stop-color="#FDD4E8"/>
<stop offset="0.28" stop-color="#FDD6E9" stop-opacity="0.96"/>
<stop offset="0.36" stop-color="#FDDAEB" stop-opacity="0.87"/>
<stop offset="0.47" stop-color="#FEE0EF" stop-opacity="0.71"/>
<stop offset="0.59" stop-color="#FEEAF4" stop-opacity="0.49"/>
<stop offset="0.73" stop-color="#FFF6FA" stop-opacity="0.22"/>
<stop offset="0.84" stop-color="white" stop-opacity="0"/>
</radialGradient>
<radialGradient id="paint5_radial_5502_15875" cx="0" cy="0" r="1" gradientUnits="userSpaceOnUse" gradientTransform="translate(60.4054 133.243) rotate(-7.86) scale(113.811 113.811)">
<stop offset="0.22" stop-color="#FFEFFF"/>
<stop offset="0.27" stop-color="#FFF0FF" stop-opacity="0.96"/>
<stop offset="0.36" stop-color="#FFF1FF" stop-opacity="0.87"/>
<stop offset="0.47" stop-color="#FFF4FF" stop-opacity="0.71"/>
<stop offset="0.59" stop-color="#FFF7FF" stop-opacity="0.5"/>
<stop offset="0.73" stop-color="#FFFBFF" stop-opacity="0.23"/>
<stop offset="0.84" stop-color="white" stop-opacity="0"/>
</radialGradient>
<radialGradient id="paint6_radial_5502_15875" cx="0" cy="0" r="1" gradientUnits="userSpaceOnUse" gradientTransform="translate(45.8023 110.704) rotate(-7.86) scale(224.853 224.853)">
<stop offset="0.22" stop-color="#FDD4E8"/>
<stop offset="0.28" stop-color="#FDD6E9" stop-opacity="0.96"/>
<stop offset="0.36" stop-color="#FDDAEB" stop-opacity="0.87"/>
<stop offset="0.47" stop-color="#FEE0EF" stop-opacity="0.71"/>
<stop offset="0.59" stop-color="#FEEAF4" stop-opacity="0.49"/>
<stop offset="0.73" stop-color="#FFF6FA" stop-opacity="0.22"/>
<stop offset="0.84" stop-color="white" stop-opacity="0"/>
</radialGradient>
<radialGradient id="paint7_radial_5502_15875" cx="0" cy="0" r="1" gradientUnits="userSpaceOnUse" gradientTransform="translate(100.911 69.0823) rotate(43.6639) scale(9.20858 6.78286)">
<stop offset="0.45" stop-color="#FB8994"/>
<stop offset="0.51" stop-color="#FB8A95" stop-opacity="0.98"/>
<stop offset="0.57" stop-color="#FA8C97" stop-opacity="0.92"/>
<stop offset="0.65" stop-color="#FA8F9B" stop-opacity="0.81"/>
<stop offset="0.73" stop-color="#F894A0" stop-opacity="0.67"/>
<stop offset="0.82" stop-color="#F79AA7" stop-opacity="0.49"/>
<stop offset="0.91" stop-color="#F5A1B0" stop-opacity="0.27"/>
<stop offset="1" stop-color="#F3AABA" stop-opacity="0"/>
</radialGradient>
<radialGradient id="paint8_radial_5502_15875" cx="0" cy="0" r="1" gradientUnits="userSpaceOnUse" gradientTransform="translate(135.063 65.8989) rotate(107.526) scale(7.32913 4.93286)">
<stop offset="0.45" stop-color="#FB8994"/>
<stop offset="0.51" stop-color="#FB8A95" stop-opacity="0.98"/>
<stop offset="0.57" stop-color="#FA8C97" stop-opacity="0.92"/>
<stop offset="0.65" stop-color="#FA8F9B" stop-opacity="0.81"/>
<stop offset="0.73" stop-color="#F894A0" stop-opacity="0.67"/>
<stop offset="0.82" stop-color="#F79AA7" stop-opacity="0.49"/>
<stop offset="0.91" stop-color="#F5A1B0" stop-opacity="0.27"/>
<stop offset="1" stop-color="#F3AABA" stop-opacity="0"/>
</radialGradient>
</defs>
</svg>