<svg width="32" height="32" viewBox="0 0 32 32" fill="none" xmlns="http://www.w3.org/2000/svg">
<rect width="32" height="32" rx="16" fill="white"/>
<path d="M16.1999 32C8.72462 32 7.82558 32 0.353177 32C0.0350155 32 0 31.9078 0 31.6127C0 21.2012 0 10.7906 0 0.381132C0 0.0737651 0.0525318 0 0.356098 0C15.2922 0 16.702 0 31.6234 0C31.8832 0 32 -2.39999e-05 32 0.359596C31.9883 10.7855 31.9883 21.2114 32 31.6373C32 31.9447 31.9504 31.9969 31.6643 31.9969C24.1773 31.9969 23.6753 32 16.1999 32ZM16.4626 8.97203C16.5881 9.00277 16.702 8.99969 16.6407 8.8122C16.5944 8.66087 16.5265 8.51788 16.4393 8.38806C16.3575 8.26819 16.2583 8.04686 16.1065 8.13293C16.0125 8.17909 15.936 8.25729 15.8894 8.3549C15.8428 8.4525 15.8288 8.5638 15.8497 8.67082C15.8844 8.81039 15.9263 8.94788 15.9752 9.08268C16.0798 9.39759 16.1474 9.72483 16.1766 10.057C16.1941 10.2476 16.1766 10.4628 15.9781 10.5396C15.7796 10.6165 15.6658 10.4105 15.5753 10.2538C15.3873 9.83338 15.2877 9.37521 15.2834 8.91057C15.2911 8.56546 15.1883 8.22766 14.9915 7.95159C14.9058 8.05277 14.8465 8.17562 14.8194 8.30815C14.7923 8.44067 14.7983 8.57834 14.8368 8.7077C14.9466 9.11395 14.9842 9.53808 14.9477 9.95871C14.9306 10.1557 14.8469 10.3397 14.712 10.4773C14.577 10.6149 14.3997 10.697 14.2122 10.7087C13.7714 10.6749 13.8152 10.2937 13.8152 9.98328C13.8152 9.62366 13.856 9.26096 13.8823 8.89827C13.8823 8.7661 13.8823 8.61551 13.751 8.5694C13.6196 8.5233 13.5642 8.66775 13.5029 8.75689C13.2382 9.18011 13.0226 9.63519 12.8607 10.1124C12.8082 10.2507 12.7965 10.4689 12.6068 10.4628C12.417 10.4566 12.3616 10.2599 12.2974 10.1001C12.1631 9.75583 12.236 9.39008 12.166 9.03968C12.06 9.28451 12.0138 9.55335 12.0317 9.82176C12.0495 10.0902 12.1308 10.3496 12.2681 10.5765C12.3849 10.7702 12.4842 11.0253 12.7469 10.9976C13.0096 10.9699 13.0388 10.6902 13.1205 10.4781C13.2049 10.1503 13.3389 9.83894 13.5174 9.55604C13.5174 9.86341 13.5174 10.0755 13.5174 10.2907C13.5174 10.6595 13.57 11.0376 13.9436 11.2128C14.3172 11.388 14.6266 11.1298 14.9069 10.9054C14.9591 10.8578 15.0026 10.8004 15.0353 10.7363C15.1375 10.558 15.2221 10.5826 15.3272 10.7363C15.5286 10.9699 15.7679 11.1728 16.0832 11.0191C16.2154 10.9392 16.3244 10.8229 16.3984 10.6826C16.4725 10.5423 16.5088 10.3834 16.5035 10.223C16.5146 9.83123 16.4663 9.44006 16.3605 9.06426L16.4626 8.97203ZM8.26341 8.63394C8.2926 8.32657 7.97152 8.41569 7.86352 8.27738C7.61542 8.66159 7.63294 8.21283 7.5045 8.12062C7.44904 8.36651 7.45197 8.6155 7.69132 8.60628C7.88491 8.63187 8.08029 8.63905 8.2751 8.62778C8.17448 8.7624 8.11573 8.92644 8.10685 9.0975C8.09797 9.26856 8.13938 9.43832 8.22547 9.58369C8.31329 9.77753 8.3705 9.98518 8.39478 10.1984C8.41814 10.3767 8.567 10.638 8.28679 10.7148C8.00657 10.7917 7.84894 10.598 7.76721 10.3368C7.66925 10.0037 7.6258 9.6555 7.63876 9.30709C7.64884 9.17247 7.62305 9.03756 7.56426 8.91755C7.50547 8.79754 7.41601 8.69717 7.306 8.62778C7.13087 9.12879 7.30602 9.57141 7.3644 10.0171C7.41986 10.3706 7.38191 10.472 7.07251 10.6872C7.07251 10.0939 6.86525 9.52836 7.05206 8.929C7.12503 8.68925 6.92654 8.43723 6.79227 8.219C6.71054 8.08683 6.64052 8.15444 6.57047 8.24357C6.53156 8.30248 6.5067 8.3704 6.49806 8.44157C6.48943 8.51274 6.49724 8.58508 6.52083 8.6524C6.66007 9.36058 6.7363 10.0809 6.74852 10.804C6.45663 10.7517 6.39822 10.5489 6.31941 10.346C6.16471 9.95256 6.31943 9.57754 6.37781 9.1964C6.407 9.03657 6.45079 8.85215 6.27858 8.77531C6.10636 8.69847 6.00417 8.87678 5.92536 9.0028C5.69526 9.40013 5.56099 9.85069 5.53424 10.3152C5.51381 10.4874 5.53425 10.7701 5.32993 10.7824C5.12561 10.7947 5.0789 10.4996 5.03804 10.3183C4.96799 9.94024 4.94171 9.55605 4.88917 9.07041C4.68224 9.74602 4.72388 10.4788 5.0059 11.1236C5.0526 11.2435 5.12269 11.3726 5.25696 11.3849C5.39123 11.3972 5.49631 11.2558 5.54885 11.1267C5.65019 10.8887 5.71612 10.6358 5.74439 10.3767C5.76661 10.1011 5.84743 9.83427 5.98084 9.596C5.98084 9.99865 5.98084 10.2876 5.98084 10.5765C5.99835 10.9238 6.083 11.308 6.41868 11.3941C6.75435 11.4802 6.83024 11.723 6.85067 12.0334C6.8711 12.3439 6.90904 12.6973 6.95575 13.0293C6.98494 13.2383 6.9178 13.4719 7.06667 13.6901C7.16744 13.5347 7.21857 13.3495 7.21261 13.1614C7.19218 12.6666 7.18341 12.1717 7.12503 11.6861C7.10679 11.5142 7.13393 11.3403 7.20346 11.1836C7.27298 11.0269 7.38221 10.8934 7.51911 10.7978C7.63879 11.1052 7.76722 11.3726 8.10289 11.3326C8.23422 11.3233 8.36036 11.2751 8.46676 11.1935C8.57316 11.112 8.65545 11.0003 8.70417 10.8716C8.78281 10.6684 8.79513 10.4436 8.7392 10.2323C8.68374 9.96486 8.54362 9.65131 8.62243 9.43308C8.84135 8.96281 8.55238 8.81836 8.26341 8.63394V8.63394ZM9.50103 9.67592C9.73162 9.59907 9.6791 9.4085 9.6324 9.24559C9.55651 8.98433 9.46309 8.72614 9.36385 8.47102C9.33174 8.38496 9.33758 8.24053 9.22082 8.2313C9.10407 8.22208 9.0457 8.35115 8.97272 8.43106C8.89975 8.51098 8.89973 8.66776 8.91432 8.79993C9.01649 9.82346 9.11865 10.847 9.20621 11.8736C9.22373 12.0488 9.30547 12.2486 9.07196 12.3623C8.83844 12.476 8.82094 12.2117 8.71586 12.1164C8.54072 11.9566 8.42397 11.7199 8.13208 11.7721C7.84019 11.8244 7.54827 12.4791 7.67087 12.9586C7.77887 13.3889 8.09412 13.266 8.37725 13.1891C8.47066 13.1676 8.59033 13.0324 8.66915 13.1707C8.69227 13.2322 8.69738 13.2996 8.68386 13.3642C8.67034 13.4289 8.63879 13.4878 8.59325 13.5334C8.35115 13.8474 8.05383 14.1094 7.71758 14.3049C7.1338 14.6368 6.67553 14.394 6.59381 13.6901C6.58066 13.4629 6.58066 13.235 6.59381 13.0078C6.40234 13.3223 6.32176 13.6976 6.36612 14.0682C6.43618 14.8274 6.94991 15.1778 7.65045 14.9442C8.52612 14.6368 8.98149 14.0713 9.05154 13.1369C9.05154 13.0938 9.05154 13.0477 9.05154 13.0047C9.05291 12.9868 9.0578 12.9695 9.0659 12.9537C9.074 12.9379 9.08512 12.9241 9.09857 12.9131C9.11203 12.9021 9.12752 12.8942 9.14404 12.8899C9.16056 12.8855 9.17778 12.8848 9.19456 12.8879C9.22083 12.8879 9.24709 12.9709 9.25877 13.017C9.46601 14.0774 9.09241 14.8366 8.14084 15.2546C7.90008 15.3624 7.64976 15.4447 7.39358 15.5005C6.67845 15.6511 6.22603 15.2639 6.15889 14.4893C6.12386 14.1328 6.19976 13.7793 6.15889 13.3428C5.97925 13.6588 5.891 14.023 5.90495 14.3909C5.83781 15.8478 6.43908 16.3734 7.77886 16.0353C9.1887 15.6757 9.65865 15.0456 9.65282 13.5211V12.6328C9.70728 12.704 9.77537 12.7624 9.85267 12.8041C9.92997 12.8458 10.0148 12.8699 10.1015 12.8748C10.1882 12.8798 10.275 12.8654 10.3561 12.8327C10.4372 12.8 10.5108 12.7497 10.5723 12.6851C10.7357 12.5375 10.8145 12.6266 10.9517 12.7127C11.2845 12.9279 11.5355 12.7988 11.6172 12.4053C11.6373 12.232 11.6441 12.0573 11.6377 11.8828C11.6377 11.7937 11.6143 11.6892 11.5122 11.6923C11.41 11.6953 11.3691 11.7937 11.375 11.9105C11.375 12.098 11.4946 12.3807 11.2173 12.4053C10.9401 12.4299 10.9605 12.1195 10.8992 11.9197C10.8992 11.8798 10.8992 11.8029 10.8262 11.806C10.6598 12.058 10.6336 12.4975 10.2599 12.476C9.88632 12.4545 10.0848 11.9965 9.93302 11.7599L9.574 11.9873C9.52438 11.2005 9.4806 10.4689 9.4339 9.7343L9.50103 9.67592ZM13.8794 14.7106C14.0322 15.1104 14.2859 15.4587 14.6131 15.7176C14.9404 15.9766 15.3286 16.1364 15.7358 16.1798C15.9576 16.2136 16.1912 16.3212 16.3196 15.9616C16.448 15.6019 16.1445 15.6143 15.9781 15.5159C15.8117 15.4175 15.5402 15.3161 15.5519 15.0395C15.5636 14.7628 15.8117 14.7321 16.0014 14.6553C16.5695 14.4281 17.1556 14.2543 17.7528 14.1358C17.8113 14.1266 17.8675 14.105 17.9179 14.0724C17.9683 14.0398 18.012 13.9968 18.0464 13.946C18.0807 13.8952 18.1049 13.8377 18.1177 13.7769C18.1304 13.716 18.1314 13.653 18.1206 13.5918C18.0914 13.3459 17.8491 13.4688 17.7061 13.478C16.9559 13.5242 16.2087 13.5334 15.3709 13.5088C15.736 13.2792 16.1287 13.1025 16.5385 12.9832C16.8292 12.9019 17.0961 12.7455 17.315 12.5283C17.4013 12.4576 17.4653 12.361 17.4986 12.2513C17.532 12.1416 17.5331 12.0239 17.5018 11.9136C17.4023 11.7229 17.2549 11.5646 17.0757 11.4562C16.8966 11.3478 16.6926 11.2934 16.486 11.2988C16.3033 11.3681 16.1518 11.5067 16.0611 11.6875C15.9703 11.8683 15.947 12.0783 15.9956 12.2762C16.0569 12.5221 15.946 12.5344 15.8001 12.5836C15.4264 12.7281 15.0499 12.8725 14.6879 13.0416C14.5593 13.1001 14.4538 13.2037 14.3894 13.3348C14.325 13.4659 14.3057 13.6164 14.3348 13.7608C14.3756 13.9944 14.6617 13.8838 14.8368 13.9207C15.0119 13.9576 15.1287 13.9207 15.2922 13.9483C15.5101 13.9512 15.7188 14.0413 15.8759 14.2004C15.7288 14.258 15.5945 14.347 15.4815 14.4617C15.3685 14.5765 15.2792 14.7146 15.2192 14.8674C15.0791 15.3192 15.0061 15.3345 14.6354 15.0395C14.4725 14.9039 14.3541 14.7179 14.2968 14.5077C14.1963 14.1158 14.1202 13.7175 14.0691 13.3151C13.9403 12.5618 13.6969 11.8352 13.3482 11.1636C13.0563 11.6123 13.0388 11.6676 13.1614 12.0857C13.3277 12.6389 13.497 13.1891 13.6546 13.7424C13.6867 13.8469 13.7685 13.9545 13.7043 14.0744C13.3598 14.7321 12.9424 15.3223 12.2448 15.6112C12.0113 15.7096 11.7369 15.7679 11.5822 15.4759C11.3954 15.1255 11.7632 15.101 11.9062 14.9473C11.9646 14.8858 12.0346 14.8366 12.0989 14.7813C12.7965 14.1973 13.1701 13.4996 12.7877 12.5436C12.7682 12.5001 12.7599 12.452 12.7635 12.404C12.767 12.3561 12.7825 12.3099 12.8082 12.2701C12.8811 12.1225 12.5163 11.5539 12.3733 11.5632C12.1427 11.5632 12.1573 11.8244 12.0814 11.9781C12.0055 12.1318 12.1456 12.1994 12.201 12.31C12.3966 12.7096 12.7702 13.0938 12.5279 13.5856C12.312 13.9315 12.0208 14.2181 11.6786 14.4216C11.556 14.1973 11.7048 13.9913 11.4976 13.7362C11.3458 15.1778 10.1432 15.396 9.19164 16.0661C9.95056 16.0046 10.5197 15.6757 11.121 15.4514C11.3691 16.2167 11.6756 16.4165 12.2886 16.2198C12.5112 16.1417 12.7167 16.0173 12.8928 15.854C13.2597 15.514 13.5878 15.1303 13.8706 14.7106H13.8794ZM7.69716 22.5423C7.9097 22.8428 8.22269 23.0472 8.57283 23.114C9.13843 23.243 9.71638 23.3018 10.295 23.2892C14.002 23.3384 17.709 23.2523 21.416 23.1908C21.6641 23.1908 21.9794 23.1171 21.7079 23.572C21.632 23.7011 21.74 23.824 21.8218 23.9162C21.9035 24.0084 21.9735 23.8916 22.0465 23.8425C22.2698 23.7319 22.5227 23.7069 22.7616 23.7718C22.8696 23.7718 22.9368 23.9132 23.0915 23.8271C23.2395 23.7394 23.4071 23.6948 23.5769 23.698C23.7468 23.7013 23.9127 23.7522 24.0576 23.8455C24.0954 23.8718 24.1383 23.8889 24.1832 23.8956C24.228 23.9023 24.2737 23.8985 24.3169 23.8844C24.3602 23.8703 24.4 23.8462 24.4334 23.814C24.4667 23.7818 24.493 23.7422 24.5101 23.698C24.5843 23.5859 24.6279 23.4545 24.6361 23.318C24.6443 23.1816 24.6169 23.0454 24.5566 22.9243C24.4964 22.8032 24.4058 22.7018 24.2947 22.6312C24.1835 22.5606 24.0561 22.5235 23.9263 22.5239C23.3892 22.5239 22.8521 22.5239 22.3121 22.5454C22.0903 22.5454 21.8509 22.5854 22.0436 22.2134C22.0741 22.1474 22.0812 22.072 22.0635 22.001C22.0459 21.93 22.0046 21.8679 21.9473 21.8262C21.9382 21.8151 21.927 21.8062 21.9144 21.8002C21.9018 21.7941 21.8881 21.7909 21.8743 21.7909C21.8604 21.7909 21.8468 21.7941 21.8342 21.8002C21.8216 21.8062 21.8104 21.8151 21.8013 21.8262C21.705 21.9307 21.5941 22.0659 21.6758 22.2073C21.9123 22.6099 21.6349 22.5638 21.4102 22.5638C18.1994 22.5638 15.0178 22.6038 11.8187 22.5638C10.4584 22.5239 9.10115 22.5423 7.6884 22.5423H7.69716ZM24.0168 9.34705C23.9642 9.2825 23.8767 9.22101 23.8854 9.17798C23.9701 8.68005 23.4914 8.58475 23.3016 8.27738C23.2859 8.24497 23.2606 8.21881 23.2296 8.20275C23.1985 8.18669 23.1634 8.18162 23.1294 8.18827C23.036 8.21286 23.0594 8.29891 23.0535 8.36653C23.0262 8.53769 23.0342 8.71306 23.077 8.88067C23.1198 9.04828 23.1964 9.2042 23.3016 9.33782C23.5673 9.64519 23.7979 9.99865 24.046 10.3275C24.1405 10.4316 24.2 10.5655 24.2153 10.7087C24.2707 11.6799 24.3729 12.6481 24.367 13.6225C24.367 13.9299 24.367 14.3079 24.0314 14.4401C23.6957 14.5723 23.5673 14.2188 23.3921 14.0129C23.1265 13.7055 23.0185 13.7055 22.8084 14.0621C22.5982 14.4186 22.426 14.7966 22.2246 15.1624C22.1399 15.3192 22.0874 15.562 21.8655 15.522C21.6437 15.4821 21.6378 15.2515 21.5736 15.0794C21.451 14.7505 21.5182 14.3848 21.416 14.0436C21.2951 14.3656 21.2241 14.706 21.2058 15.0518C21.1942 15.2313 21.2274 15.4109 21.3022 15.5727C21.3769 15.7344 21.4907 15.8728 21.632 15.9739C21.8977 16.1952 22.099 16.1983 22.2683 15.8725C22.4727 15.479 22.677 15.0856 22.8842 14.6952C22.9776 14.5139 23.0681 14.4124 23.2316 14.6522C23.3359 14.8354 23.4974 14.9749 23.6886 15.0467C23.8797 15.1184 24.0886 15.118 24.2795 15.0456C24.6852 14.8766 24.7932 14.4586 24.7932 14.0344C24.7932 13.6102 24.7582 13.1123 24.7465 12.642C24.7348 12.1717 24.7465 11.8029 24.7465 11.4125C25.6747 12.1687 25.555 13.3029 25.6222 14.4862C25.8907 13.9084 25.7448 13.4227 25.8207 12.8818L26.8102 14.3663C26.8644 14.0497 26.8106 13.7232 26.6584 13.4442C26.4044 13.0109 26.1388 12.5897 25.8761 12.1625C25.7865 12.053 25.7261 11.9204 25.701 11.7783C25.6543 11.0836 25.6134 10.386 25.5375 9.69438C25.5113 9.46078 25.7827 9.32861 25.6543 9.07964C25.5651 8.83631 25.4957 8.58539 25.447 8.32965C25.4149 8.22821 25.4062 8.06532 25.269 8.07147C25.1318 8.07761 25.1143 8.21898 25.0647 8.32042C25.0066 8.41979 24.98 8.53607 24.9888 8.6524C25.0384 9.06734 25.0851 9.48842 25.1026 9.90644C25.1201 10.3245 25.2661 10.6595 25.1989 11.0714C24.9599 10.9001 24.7746 10.6579 24.6665 10.3755C24.5584 10.0931 24.5324 9.78331 24.5918 9.48535C24.6823 9.03967 24.5072 8.72306 24.4079 8.3573C24.3846 8.26509 24.3612 8.13293 24.2474 8.13908C24.1335 8.14523 24.1043 8.26509 24.0664 8.3573C24.0297 8.42707 24.0075 8.50433 24.0015 8.58385C23.9955 8.66337 24.0056 8.74331 24.0314 8.81835C24.0651 8.90274 24.0805 8.99403 24.0765 9.08549C24.0724 9.17696 24.0491 9.26632 24.008 9.34705H24.0168ZM18.5438 15.3407C19.113 14.1112 18.7043 12.8818 18.6927 11.5386C19.3043 12.4661 19.8357 13.4495 20.2806 14.477C20.3364 14.2587 20.3167 14.0267 20.2251 13.8223C19.8689 12.8171 19.3859 11.8671 18.789 10.9976C18.6722 10.8264 18.5965 10.6278 18.5685 10.419C18.5406 10.2103 18.5611 9.99745 18.6285 9.79887C18.8094 9.387 18.6285 9.13494 18.538 8.81835C18.5173 8.73436 18.4858 8.65374 18.4446 8.57863C18.3774 8.44954 18.3803 8.20364 18.1848 8.27126C17.9892 8.33888 18.0126 8.55096 17.995 8.72001C18.0013 8.8055 18.02 8.88945 18.0505 8.96896C18.1133 9.20727 18.1133 9.4591 18.0505 9.69741C17.998 9.48226 17.5368 9.39005 17.8666 9.08268C17.8841 9.06424 17.8374 8.9413 17.7937 8.89519C17.5485 8.64315 17.3003 8.39113 17.0464 8.14831C16.953 8.06225 16.8246 8.01919 16.8071 8.20361C16.7837 8.44643 16.7312 8.74153 16.9034 8.91673C17.2741 9.29479 17.4872 9.7835 17.8374 10.1831C18.1081 10.5314 18.2638 10.9629 18.2811 11.4125C18.3979 12.6943 18.6927 13.9975 18.5351 15.3407H18.5438ZM25.4704 16.0046C25.5229 16.0599 25.5404 16.0999 25.5609 16.0999C25.9545 16.0865 26.3337 15.9409 26.643 15.6843C26.9524 15.4277 27.1756 15.0735 27.2801 14.6737C27.6012 13.5426 27.4114 12.3992 27.3356 11.2589C27.2947 10.6656 27.0729 10.0294 27.2246 9.4915C27.3589 9.01201 27.1721 8.7108 27.0379 8.34811C26.9999 8.2436 26.9707 8.08374 26.854 8.08374C26.7372 8.08374 26.6846 8.2436 26.6175 8.34811C26.5504 8.45261 26.5854 8.60014 26.6 8.72616C26.743 10.1554 26.8919 11.5847 27.0291 13.0139C27.1429 14.1112 26.8773 15.021 25.9374 15.6327C25.7681 15.7372 25.6368 15.8755 25.4616 16.0046H25.4704ZM18.7802 16.2382C19.258 16.3038 19.741 16.1677 20.1238 15.8596C20.5066 15.5515 20.7581 15.0965 20.8235 14.5938C20.9724 13.5764 20.8439 12.5682 20.7768 11.5539C20.7359 10.9392 20.5404 10.2906 20.6775 9.70972C20.7637 9.34547 20.7506 8.96301 20.6396 8.60628C20.6016 8.47104 20.6075 8.20977 20.4324 8.24973C20.3408 8.28345 20.2598 8.34322 20.1985 8.42243C20.1372 8.50164 20.0979 8.59719 20.085 8.69847C20.0849 8.77028 20.0947 8.84175 20.1142 8.91057C20.3544 10.6197 20.5045 12.3416 20.5637 14.0682C20.5704 14.3005 20.531 14.5317 20.4481 14.7471C20.3652 14.9625 20.2405 15.1574 20.0821 15.3192C19.7216 15.7319 19.2721 16.0471 18.7715 16.2382H18.7802ZM21.7925 15.1255C22.1691 14.7167 22.2479 14.1666 22.137 13.3305C21.9881 12.1963 21.8714 11.056 21.7546 9.91567C21.7546 9.80809 21.6554 9.58984 21.8101 9.58677C22.2946 9.58677 21.9765 9.32552 21.9327 9.18106C21.8626 8.96283 21.7663 8.75076 21.6816 8.53867C21.6145 8.37577 21.6262 8.08375 21.4364 8.09297C21.2467 8.10219 21.1679 8.40034 21.1095 8.59705C21.0848 8.72483 21.0848 8.85656 21.1095 8.98434C21.4102 11.013 21.7459 13.0385 21.7838 15.1255H21.7925ZM10.1169 10.2722C10.8933 10.2015 11.7924 9.28558 11.8508 8.54175C11.8508 8.37577 11.8507 8.2067 11.6873 8.14216C11.607 8.11548 11.5202 8.12154 11.444 8.15912C11.3677 8.19669 11.3077 8.26304 11.2757 8.34503C11.2171 8.41757 11.1801 8.50664 11.1692 8.60118C11.1583 8.69573 11.174 8.79157 11.2144 8.87677C11.372 9.11344 11.2319 9.23944 11.1064 9.39005C10.8029 9.73123 10.4176 9.94331 10.0936 10.2722H10.1169ZM5.68895 15.3223C5.53425 15.2792 5.51965 15.5958 5.35911 15.479C5.29799 15.4205 5.25357 15.3452 5.23088 15.2616C5.20819 15.178 5.20811 15.0893 5.23066 15.0057C5.26569 14.7413 5.30364 14.4801 5.34158 14.2188C4.98548 14.6706 5.00299 15.1901 5.04969 15.7065C5.05458 15.7728 5.08109 15.8354 5.12469 15.8835C5.1683 15.9317 5.22636 15.9625 5.28906 15.9708C5.35728 15.9847 5.42796 15.9726 5.48842 15.9365C5.54888 15.9004 5.59515 15.8428 5.6189 15.7741C5.68871 15.6353 5.70539 15.4736 5.66558 15.3223H5.68895ZM23.2024 11.4218C23.2559 11.1854 23.2765 10.9421 23.2637 10.6994C23.2637 10.5919 23.2199 10.4382 23.3688 10.4075C23.5176 10.3767 23.6023 10.389 23.5176 10.2138C23.4884 10.1523 23.4359 10.0724 23.3863 10.0632C23.2549 10.0448 23.2053 10.1646 23.1557 10.2661C23.0535 10.4689 23.2082 10.6964 23.1031 10.9085C22.9455 10.8285 22.9484 10.6411 22.858 10.5243C22.7675 10.4075 22.7704 10.3306 22.6536 10.349C22.6186 10.349 22.5748 10.432 22.5719 10.4812C22.5573 10.5919 22.5223 10.7886 22.6215 10.7886C22.9514 10.8193 22.9105 11.2189 23.1674 11.4218H23.2024ZM5.33866 12.7127C5.7765 12.7127 6.13846 12.4361 6.5296 12.2732C6.54797 12.2626 6.5641 12.2483 6.57706 12.231C6.59002 12.2137 6.5995 12.1939 6.60496 12.1726C6.61041 12.1513 6.61173 12.1291 6.60881 12.1073C6.60588 12.0855 6.59879 12.0645 6.58796 12.0457C6.53542 11.9351 6.45662 11.9935 6.37781 12.0211C5.96836 12.1485 5.5979 12.387 5.30363 12.7127H5.33866ZM17.89 15.7433C17.7586 15.6511 17.6652 15.7433 17.566 15.771C17.3558 15.8509 17.2741 15.771 17.3325 15.5435C17.3558 15.4452 17.4667 15.3069 17.312 15.2516C17.1573 15.1962 17.0026 15.3407 17.0201 15.4022C17.0201 15.5804 17.1165 15.7464 17.1106 15.9431C17.1106 16.0384 17.2303 16.0845 17.3354 16.0814H17.3762C17.4728 16.0643 17.5646 16.0253 17.6453 15.9669C17.726 15.9084 17.7936 15.8321 17.8433 15.7433H17.89ZM22.7208 12.6174L22.82 12.7404C23.1294 12.3316 23.792 12.3346 23.9467 11.7445L23.8562 11.6369L22.7208 12.6174ZM26.2906 9.98328C26.3912 9.60765 26.38 9.2086 26.2585 8.83989C26.2205 8.7446 26.2089 8.57553 26.0717 8.63086C26.0425 8.6426 26.0163 8.66121 25.9951 8.68526C25.9738 8.70932 25.9581 8.73819 25.9491 8.76965C25.9401 8.8011 25.938 8.83429 25.943 8.86671C25.9481 8.89913 25.9602 8.92993 25.9783 8.95669C26.0914 9.29132 26.1801 9.63449 26.2439 9.98328H26.2906ZM24.6151 15.5804C24.694 15.4329 24.7086 15.3192 24.5568 15.2731C24.466 15.2493 24.3701 15.2591 24.2853 15.3008C24.1715 15.3776 24.2474 15.4667 24.3174 15.5435C24.4429 15.6788 24.3466 15.7741 24.2561 15.8509C24.1656 15.9278 24.1335 15.9831 24.1919 16.0692C24.2503 16.1552 24.3408 16.1153 24.4196 16.0968C24.6852 16.0353 24.7319 15.9401 24.6268 15.685C24.6006 15.6549 24.5807 15.6192 24.5684 15.5804H24.6151ZM19.4954 9.36239C19.5862 9.20942 19.6344 9.0326 19.6344 8.85215C19.6344 8.67171 19.5862 8.49493 19.4954 8.34195C19.4487 8.25282 19.4136 8.08375 19.2735 8.17596C19.2416 8.19063 19.2135 8.21332 19.1918 8.24207C19.1701 8.27083 19.1554 8.30475 19.1491 8.34086C19.1428 8.37697 19.1449 8.41417 19.1554 8.44919C19.1659 8.48421 19.1844 8.51601 19.2093 8.54175C19.3846 8.77368 19.4701 9.06683 19.4487 9.36239H19.4954ZM11.2903 10.0939C10.9751 10.4228 10.8788 10.6533 10.9722 10.8531C11.0305 10.9761 11.1181 11.0775 11.2641 11.0406C11.3575 11.0209 11.4429 10.9714 11.5087 10.8989C11.5745 10.8263 11.6175 10.7341 11.6318 10.6349C11.4421 10.6503 11.3399 10.8869 11.2144 10.7486C10.978 10.5427 11.2378 10.3552 11.2436 10.0939H11.2903ZM14.6821 11.806C14.7405 11.9535 14.7171 12.1994 14.8835 12.2148C15.0973 12.213 15.3075 12.1571 15.4965 12.0519C15.5899 12.0088 15.6074 11.8551 15.5403 11.7445C15.5403 11.7445 15.4556 11.7445 15.4468 11.7445C15.26 12.0949 15.2484 11.7199 15.155 11.6646C15.1258 11.6461 15.1141 11.6277 15.082 11.6646C15.0499 11.7015 15.0119 11.8552 14.9798 11.9504C14.7989 11.9812 14.8164 11.7414 14.6354 11.806H14.6821ZM19.9361 9.94332C19.7583 10.0299 19.5724 10.0969 19.3815 10.1431C19.329 10.1431 19.2473 10.0417 19.2502 10.1923C19.2449 10.2347 19.2529 10.2777 19.2729 10.3148C19.2929 10.352 19.3239 10.3812 19.3611 10.3982C19.7026 10.5273 19.9274 10.3368 19.8982 9.94332H19.9361ZM23.7716 13.5272C23.8766 13.4068 23.9373 13.2507 23.9427 13.0872C23.948 12.9238 23.8977 12.7637 23.8008 12.6359C23.7482 12.5529 23.6753 12.4699 23.5673 12.559C23.4593 12.6482 23.4563 12.7619 23.5673 12.8418C23.7278 12.9863 23.7365 13.2106 23.7336 13.518L23.7716 13.5272ZM10.8875 13.7301C10.8671 13.5641 10.9079 13.352 10.6774 13.3336C10.6462 13.3313 10.615 13.3375 10.5869 13.3516C10.5587 13.3658 10.5345 13.3874 10.5166 13.4143C10.4986 13.4412 10.4876 13.4725 10.4846 13.5052C10.4816 13.538 10.4866 13.571 10.4993 13.601C10.5548 13.7608 10.6511 13.9852 10.7737 14.0221C10.8963 14.059 10.8204 13.8254 10.8496 13.7301H10.8875ZM14.5682 8.98434C14.4573 8.7323 14.5683 8.44646 14.3756 8.23438C14.3756 8.23438 14.2793 8.23436 14.2705 8.2528C14.1538 8.53558 14.4077 8.72306 14.4486 8.96896C14.4803 8.97641 14.5125 8.98156 14.5449 8.98434H14.5682ZM5.81152 8.2743C5.79401 8.16058 5.7911 8.02536 5.64224 8.03458C5.49337 8.04381 5.38245 8.14524 5.41455 8.27126C5.44666 8.39728 5.61596 8.37268 5.70645 8.44952C5.79693 8.52636 5.75899 8.34807 5.78818 8.2743H5.81152Z" fill="#019530"/>
<path d="M13.8704 14.7106C13.5837 15.1355 13.2506 15.5234 12.878 15.8663C12.7018 16.0296 12.4964 16.154 12.2737 16.2321C11.6578 16.4288 11.3513 16.2321 11.1062 15.4637C10.5049 15.6788 9.93859 16.0077 9.17676 16.0784C10.1283 15.4083 11.3309 15.1901 11.4827 13.7486C11.6899 14.0037 11.5411 14.2096 11.6637 14.434C12.006 14.2305 12.2972 13.9439 12.5131 13.598C12.7554 13.1062 12.3817 12.722 12.1862 12.3224C12.1307 12.2117 11.9994 12.138 12.0665 11.9904C12.1336 11.8429 12.1219 11.5878 12.3584 11.5755C12.5102 11.5755 12.8663 12.1349 12.7933 12.2824C12.7676 12.3222 12.7522 12.3684 12.7486 12.4163C12.745 12.4643 12.7534 12.5124 12.7729 12.556C13.1553 13.5119 12.7728 14.2096 12.084 14.7936C12.0198 14.8489 11.9497 14.8981 11.8914 14.9596C11.7483 15.1133 11.3806 15.1379 11.5674 15.4883C11.7221 15.7803 11.9964 15.7219 12.2299 15.6235C12.9188 15.3346 13.3362 14.7444 13.6894 14.0867C13.7536 13.9668 13.6719 13.8592 13.6398 13.7547C13.4822 13.2015 13.3128 12.6513 13.1465 12.098C13.0239 11.6923 13.0356 11.637 13.3333 11.1759C13.682 11.8476 13.9254 12.5741 14.0542 13.3275C14.1054 13.7298 14.1814 14.1282 14.2819 14.5201C14.3392 14.7302 14.4576 14.9162 14.6205 15.0518C14.9766 15.3592 15.0496 15.3315 15.2043 14.8797C15.2643 14.7269 15.3536 14.5888 15.4666 14.4741C15.5796 14.3593 15.7139 14.2703 15.8611 14.2127C15.7039 14.0537 15.4952 13.9635 15.2773 13.9606C15.1255 13.9606 14.9854 13.9606 14.8219 13.933C14.6585 13.9053 14.3607 14.0067 14.3199 13.7731C14.2909 13.6288 14.3102 13.4782 14.3746 13.3471C14.4389 13.216 14.5444 13.1124 14.6731 13.0539C15.035 12.8849 15.4116 12.7465 15.7852 12.5959C15.9311 12.5375 16.042 12.5252 15.9808 12.2886C15.9322 12.0906 15.9555 11.8807 16.0462 11.6999C16.1369 11.5191 16.2884 11.3804 16.4711 11.3111C16.6777 11.3057 16.8817 11.3601 17.0608 11.4686C17.24 11.577 17.3874 11.7352 17.4869 11.9259C17.5182 12.0362 17.5171 12.154 17.4837 12.2637C17.4504 12.3733 17.3864 12.4699 17.3001 12.5406C17.0812 12.7578 16.8144 12.9142 16.5237 12.9955C16.1139 13.1148 15.7211 13.2916 15.3561 13.5211C16.1967 13.5457 16.944 13.5211 17.6912 13.4904C17.8343 13.4904 18.0765 13.3582 18.1057 13.6041C18.1165 13.6654 18.1156 13.7283 18.1028 13.7892C18.0901 13.85 18.0658 13.9076 18.0315 13.9583C17.9971 14.0091 17.9535 14.0521 17.9031 14.0847C17.8526 14.1173 17.7964 14.1389 17.7379 14.1482C17.1407 14.2666 16.5547 14.4404 15.9866 14.6676C15.7968 14.7444 15.5487 14.7905 15.5371 15.0518C15.5254 15.3131 15.7735 15.4145 15.9632 15.5282C16.153 15.642 16.4303 15.5897 16.3047 15.9739C16.1792 16.3581 15.9545 16.2259 15.721 16.1921C15.3135 16.1466 14.9256 15.9845 14.5993 15.7233C14.2731 15.4621 14.021 15.1119 13.8704 14.7106ZM16.9848 12.2025C16.7192 12.1041 16.6112 11.8951 16.4011 12.015C16.369 12.0365 16.3777 12.2056 16.4215 12.2548C16.5879 12.4207 16.7163 12.2886 16.9848 12.2025V12.2025Z" fill="#F3F9F5"/>
<path d="M7.68848 22.5423C9.10123 22.5423 10.4644 22.5239 11.8246 22.5423C15.0354 22.5945 18.2199 22.5577 21.4161 22.5423C21.6409 22.5423 21.9181 22.5884 21.6817 22.1857C21.6 22.0443 21.7109 21.9091 21.8072 21.8046C21.8163 21.7936 21.8275 21.7847 21.8401 21.7786C21.8527 21.7725 21.8664 21.7694 21.8802 21.7694C21.8941 21.7694 21.9077 21.7725 21.9203 21.7786C21.9329 21.7847 21.9441 21.7936 21.9532 21.8046C22.0105 21.8464 22.0518 21.9084 22.0694 21.9795C22.0871 22.0505 22.08 22.1259 22.0495 22.1919C21.8568 22.5638 22.0962 22.53 22.318 22.5239C22.858 22.5239 23.3951 22.487 23.9322 22.5023C24.062 22.5019 24.1894 22.5391 24.3006 22.6097C24.4118 22.6803 24.5023 22.7817 24.5626 22.9028C24.6228 23.0239 24.6503 23.1601 24.6421 23.2965C24.6338 23.4329 24.5902 23.5644 24.516 23.6765C24.4989 23.7207 24.4727 23.7602 24.4393 23.7925C24.4059 23.8247 24.3661 23.8487 24.3229 23.8628C24.2796 23.8769 24.2339 23.8808 24.1891 23.8741C24.1442 23.8674 24.1014 23.8503 24.0635 23.824C23.9186 23.7307 23.7527 23.6798 23.5828 23.6765C23.413 23.6733 23.2454 23.7178 23.0974 23.8056C22.9427 23.8916 22.8756 23.7626 22.7676 23.7503C22.5286 23.6854 22.2757 23.7104 22.0524 23.821C21.9794 23.8701 21.9386 24.0207 21.8277 23.8947C21.7167 23.7687 21.638 23.6796 21.7138 23.5505C21.9795 23.0956 21.6642 23.1632 21.422 23.1693C17.7149 23.2308 14.0079 23.3169 10.3009 23.2677C9.72231 23.2802 9.14435 23.2215 8.57876 23.0925C8.22642 23.0348 7.90812 22.8381 7.68848 22.5423V22.5423ZM22.9602 23.1171C22.7553 23.1154 22.5506 23.1277 22.3472 23.1539C22.2246 23.1755 21.997 23.0402 21.9941 23.3015C21.9911 23.5627 22.21 23.5628 22.391 23.5412C22.7769 23.4706 23.1709 23.4644 23.5586 23.5228C23.5994 23.5259 23.6404 23.5259 23.6812 23.5228C23.8709 23.5228 23.8446 23.3722 23.8651 23.2554C23.9001 23.0464 23.7483 23.1048 23.6549 23.1017C23.4243 23.1109 23.1908 23.1171 22.9602 23.1171V23.1171Z" fill="#F7FBF8"/>
<path d="M24.0075 9.34701C24.0477 9.26645 24.0703 9.17751 24.0738 9.08662C24.0774 8.99573 24.0617 8.90513 24.028 8.82139C24.0022 8.74635 23.9921 8.6664 23.9981 8.58689C24.0041 8.50737 24.0263 8.43011 24.063 8.36034C24.1009 8.26813 24.1447 8.14827 24.244 8.14212C24.3432 8.13597 24.3812 8.26813 24.4045 8.36034C24.5038 8.7261 24.6789 9.04271 24.5884 9.48839C24.529 9.78635 24.555 10.0962 24.6631 10.3785C24.7712 10.6609 24.9565 10.9031 25.1955 11.0744C25.2627 10.6625 25.1167 10.2906 25.0992 9.90948C25.0817 9.52834 25.035 9.07038 24.9854 8.65544C24.9766 8.53911 25.0032 8.42283 25.0613 8.32345C25.1109 8.22202 25.1517 8.07758 25.2656 8.07451C25.3794 8.07143 25.4115 8.23125 25.4436 8.33268C25.4923 8.58842 25.5617 8.83931 25.6509 9.08264C25.7793 9.34698 25.5079 9.47915 25.5341 9.69738C25.61 10.389 25.6509 11.0867 25.6976 11.7813C25.7227 11.9235 25.7831 12.056 25.8727 12.1655C26.1354 12.5928 26.401 13.0139 26.655 13.4473C26.8072 13.7262 26.861 14.0528 26.8068 14.3694L25.8173 12.8848C25.7414 13.4257 25.8873 13.9114 25.6188 14.4893C25.5575 13.3059 25.6771 12.1717 24.7431 11.4156C24.7431 11.8059 24.7431 12.224 24.7431 12.6451C24.7431 13.0661 24.7927 13.5671 24.7898 14.0374C24.7869 14.5077 24.6818 14.8796 24.2761 15.0487C24.0852 15.1211 23.8763 15.1215 23.6852 15.0497C23.4941 14.9779 23.3325 14.8385 23.2282 14.6552C23.0647 14.4155 22.9743 14.5169 22.8808 14.6982C22.6736 15.0886 22.4693 15.4821 22.2649 15.8755C22.0956 16.2013 21.8942 16.1828 21.6286 15.9769C21.4873 15.8758 21.3736 15.7375 21.2988 15.5757C21.224 15.4139 21.1908 15.2343 21.2025 15.0548C21.2207 14.7091 21.2917 14.3686 21.4126 14.0466C21.5148 14.3878 21.4476 14.7536 21.5702 15.0825C21.6344 15.2546 21.6636 15.4882 21.8621 15.5251C22.0606 15.562 22.1365 15.3222 22.2212 15.1655C22.4197 14.7997 22.5948 14.4216 22.805 14.0651C23.0151 13.7085 23.126 13.7024 23.3887 14.0159C23.5639 14.2218 23.6806 14.5753 24.028 14.4431C24.3753 14.311 24.3636 13.9452 24.3636 13.6255C24.3636 12.6512 24.2673 11.683 24.2119 10.7117C24.1966 10.5686 24.1371 10.4347 24.0426 10.3306C23.7945 10.0017 23.5639 9.65437 23.2982 9.34086C23.193 9.20724 23.1164 9.05132 23.0736 8.88371C23.0308 8.7161 23.0228 8.54073 23.0501 8.36957C23.0501 8.30195 23.0326 8.2159 23.126 8.19131C23.16 8.18466 23.1951 8.18973 23.2262 8.20579C23.2572 8.22185 23.2825 8.24801 23.2982 8.28042C23.4763 8.58779 23.955 8.68309 23.882 9.18102C23.8674 9.21483 23.955 9.28246 24.0075 9.34701Z" fill="#F3F9F5"/>
<path d="M9.43634 9.73431C9.48305 10.4689 9.52682 11.2005 9.57644 11.9873L9.93546 11.7599C10.0872 11.9966 9.87709 12.4515 10.2624 12.476C10.6477 12.5006 10.6623 12.058 10.8287 11.806C10.9162 11.806 10.89 11.8798 10.9016 11.9197C10.9629 12.1195 10.9571 12.4269 11.2198 12.4054C11.4825 12.3838 11.3862 12.098 11.3774 11.9105C11.3774 11.7937 11.3978 11.6954 11.5146 11.6923C11.6314 11.6892 11.6401 11.7937 11.6401 11.8828C11.6466 12.0573 11.6397 12.232 11.6197 12.4054C11.5496 12.8049 11.2869 12.934 10.9542 12.7127C10.817 12.6267 10.7382 12.5375 10.5747 12.6851C10.5133 12.7497 10.4396 12.8 10.3585 12.8327C10.2774 12.8654 10.1907 12.8798 10.1039 12.8748C10.0172 12.8699 9.93242 12.8458 9.85512 12.8041C9.77782 12.7624 9.70973 12.704 9.65526 12.6328V13.518C9.65526 15.0549 9.19114 15.6696 7.78131 16.0323C6.44153 16.3704 5.84026 15.8448 5.90739 14.3879C5.89345 14.0199 5.9817 13.6557 6.16134 13.3398C6.20512 13.7762 6.12923 14.1297 6.16134 14.4862C6.23723 15.2608 6.6809 15.6481 7.39603 15.4975C7.65221 15.4417 7.90249 15.3593 8.14325 15.2516C9.09481 14.8336 9.46846 14.0744 9.26122 13.0139C9.26122 12.9678 9.22328 12.8848 9.19701 12.8848C9.18023 12.8818 9.163 12.8825 9.14648 12.8868C9.12996 12.8912 9.11447 12.8991 9.10102 12.91C9.08756 12.921 9.07645 12.9349 9.06834 12.9506C9.06024 12.9664 9.05532 12.9838 9.05395 13.0016C9.05395 13.0447 9.05395 13.0908 9.05395 13.1338C8.98389 14.0559 8.5344 14.643 7.65289 14.9411C6.95819 15.1747 6.43862 14.8243 6.36857 14.0651C6.3242 13.6945 6.40479 13.3192 6.59625 13.0047C6.58311 13.2319 6.58311 13.4598 6.59625 13.6871C6.67798 14.3817 7.13916 14.6246 7.72002 14.3018C8.05628 14.1063 8.35359 13.8444 8.5957 13.5303C8.64124 13.4847 8.67278 13.4258 8.68631 13.3612C8.69983 13.2966 8.69471 13.2292 8.67159 13.1676C8.58986 13.0293 8.47019 13.1676 8.3797 13.1861C8.08781 13.2537 7.78131 13.3859 7.67331 12.9556C7.55072 12.4761 7.81928 11.8306 8.13452 11.7691C8.44976 11.7076 8.54025 11.9535 8.7183 12.1134C8.82338 12.2087 8.81754 12.4853 9.0744 12.3592C9.33126 12.2332 9.22617 12.0519 9.20866 11.8705C9.11234 10.847 9.01017 9.82347 8.91677 8.79687C8.91677 8.6647 8.87009 8.53558 8.97517 8.428C9.08025 8.32043 9.10651 8.21902 9.22327 8.22825C9.34002 8.23747 9.33418 8.3819 9.36629 8.46796C9.46553 8.72308 9.55895 8.98127 9.63484 9.24253C9.68155 9.40544 9.73407 9.59601 9.50347 9.67286L9.45095 9.62367L9.43634 9.73431ZM8.47309 12.6297C8.41471 12.4299 8.31839 12.3008 8.14909 12.3224C8.02942 12.3408 8.04402 12.4976 8.08196 12.5713C8.18413 12.7773 8.32714 12.6389 8.47309 12.6297V12.6297Z" fill="#F3F9F5"/>
<path d="M8.263 8.63395C8.55489 8.81837 8.84679 8.96285 8.66581 9.45156C8.587 9.66979 8.72712 9.9833 8.78258 10.2507C8.83851 10.462 8.82619 10.6869 8.74755 10.89C8.69884 11.0188 8.61651 11.1304 8.51011 11.212C8.40371 11.2936 8.27756 11.3418 8.14624 11.3511C7.79889 11.391 7.67046 11.1236 7.56246 10.8163C7.42556 10.9118 7.31636 11.0454 7.24684 11.2021C7.17732 11.3588 7.15018 11.5326 7.16841 11.7045C7.22679 12.1902 7.23556 12.6851 7.25599 13.1799C7.26195 13.368 7.21083 13.5532 7.11005 13.7086C6.96118 13.4904 7.02832 13.2568 6.99913 13.0477C6.95243 12.7158 6.9174 12.3838 6.89405 12.0519C6.87362 11.7445 6.84152 11.5078 6.46206 11.4126C6.0826 11.3173 6.04174 10.9423 6.02422 10.595C6.02422 10.306 6.02422 10.0171 6.02422 9.61447C5.89081 9.85275 5.80999 10.1195 5.78777 10.3952C5.75951 10.6542 5.69353 10.9072 5.59219 11.1452C5.5309 11.2743 5.45209 11.4126 5.3003 11.4033C5.14852 11.3941 5.09598 11.262 5.04928 11.1421C4.76726 10.4973 4.72558 9.76446 4.93252 9.08885C4.98506 9.57449 5.01133 9.95872 5.08139 10.3368C5.11641 10.5181 5.13393 10.8132 5.37328 10.8009C5.61263 10.7886 5.55719 10.4935 5.57762 10.3337C5.60437 9.86917 5.73864 9.41857 5.96875 9.02124C6.04756 8.89522 6.14387 8.71388 6.32192 8.79379C6.49998 8.87371 6.45038 9.05505 6.42119 9.21488C6.35114 9.59602 6.20809 9.971 6.36279 10.3644C6.4416 10.5673 6.50873 10.7702 6.79186 10.8224C6.77964 10.0993 6.70345 9.37902 6.56421 8.67084C6.54063 8.60352 6.53281 8.53122 6.54145 8.46005C6.55009 8.38888 6.5749 8.32095 6.61381 8.26205C6.68387 8.17292 6.75392 8.10527 6.83565 8.23744C6.96992 8.45567 7.16841 8.70773 7.09544 8.94747C6.90863 9.56221 7.12465 10.1124 7.11589 10.7056C7.40778 10.4904 7.44865 10.3983 7.40778 10.0356C7.34065 9.58988 7.17425 9.14727 7.34938 8.64626C7.45939 8.71565 7.54885 8.81598 7.60764 8.93599C7.66643 9.056 7.69222 9.19091 7.68214 9.32553C7.66918 9.67394 7.71263 10.0221 7.81059 10.3552C7.89232 10.6165 8.05867 10.807 8.33013 10.7333C8.60159 10.6595 8.46148 10.3952 8.43813 10.2169C8.41384 10.0037 8.35667 9.79601 8.26885 9.60217C8.18276 9.4568 8.14135 9.287 8.15023 9.11594C8.15911 8.94488 8.21786 8.78088 8.31848 8.64626L8.263 8.63395Z" fill="#F3F9F5"/>
<path d="M16.3892 9.03662C16.495 9.41242 16.5433 9.80355 16.5322 10.1954C16.5376 10.3558 16.5013 10.5147 16.4272 10.6549C16.3531 10.7952 16.2441 10.9116 16.1119 10.9915C15.7967 11.1452 15.5573 10.9423 15.3559 10.7087C15.2362 10.5642 15.1516 10.5396 15.064 10.7087C15.0314 10.7728 14.9878 10.8301 14.9356 10.8777C14.6437 11.1175 14.3518 11.3788 13.9724 11.1851C13.5929 10.9915 13.5608 10.638 13.5462 10.263C13.5462 10.0479 13.5462 9.82962 13.5462 9.5284C13.3676 9.8113 13.2336 10.1227 13.1492 10.4505C13.0616 10.6564 13.047 10.9423 12.7756 10.9699C12.5041 10.9976 12.4137 10.7425 12.2969 10.5488C12.1595 10.322 12.0782 10.0625 12.0604 9.79412C12.0425 9.52571 12.0887 9.25683 12.1947 9.012C12.2648 9.3624 12.1947 9.72819 12.3261 10.0724C12.3903 10.2323 12.4487 10.432 12.6355 10.4351C12.8223 10.4382 12.8369 10.223 12.8894 10.0847C13.0513 9.60751 13.2669 9.15247 13.5316 8.72925C13.5929 8.64011 13.6483 8.49873 13.7797 8.54176C13.911 8.58479 13.9198 8.73846 13.911 8.87063C13.8848 9.23332 13.8439 9.59602 13.8439 9.95564C13.8439 10.263 13.8001 10.6472 14.2409 10.681C14.4284 10.6693 14.6057 10.5872 14.7407 10.4496C14.8757 10.312 14.9593 10.128 14.9764 9.93103C15.0129 9.5104 14.9753 9.08631 14.8655 8.68006C14.827 8.5507 14.821 8.41303 14.8481 8.28051C14.8752 8.14798 14.9345 8.02513 15.0202 7.92395C15.217 8.20002 15.3199 8.53782 15.3121 8.88293C15.3165 9.34757 15.416 9.80574 15.604 10.2261C15.6945 10.3829 15.7879 10.5919 16.0068 10.512C16.2257 10.432 16.2228 10.2046 16.2053 10.0294C16.1762 9.69719 16.1085 9.36995 16.0039 9.05504C15.955 8.92024 15.9131 8.78276 15.8784 8.64318C15.8575 8.53617 15.8715 8.42486 15.9181 8.32726C15.9647 8.22965 16.0412 8.15145 16.1352 8.10529C16.287 8.01922 16.3863 8.24051 16.468 8.36039C16.5552 8.4902 16.6231 8.63323 16.6694 8.78456C16.7307 8.97205 16.6169 8.97513 16.4914 8.94439L16.4096 8.90443L16.3892 9.03662Z" fill="#F3F9F5"/>
<path d="M18.5354 15.3407C18.693 13.9975 18.3982 12.6943 18.2727 11.3787C18.2553 10.9291 18.0996 10.4976 17.829 10.1492C17.4933 9.74967 17.2656 9.26096 16.8949 8.8829C16.7227 8.7077 16.7752 8.41261 16.7986 8.16979C16.8161 7.98537 16.9446 8.02842 17.038 8.11448C17.2919 8.3573 17.54 8.60932 17.7852 8.86136C17.829 8.90747 17.8757 9.03041 17.8582 9.04885C17.5283 9.38081 17.9895 9.4638 18.0421 9.66359C18.1049 9.42527 18.1049 9.17344 18.0421 8.93513C18.0116 8.85562 17.9929 8.77167 17.9866 8.68618C18.0041 8.51713 18.0041 8.2835 18.1763 8.2374C18.3485 8.19129 18.369 8.43104 18.4361 8.54476C18.4774 8.61988 18.5088 8.70053 18.5295 8.78452C18.6054 9.09189 18.801 9.35317 18.62 9.76504C18.5527 9.96362 18.5321 10.1764 18.5601 10.3852C18.588 10.594 18.6637 10.7925 18.7805 10.9637C19.3774 11.8332 19.8605 12.7833 20.2167 13.7885C20.3083 13.9929 20.3279 14.2249 20.2721 14.4432C19.8273 13.4157 19.2959 12.4323 18.6842 11.5047C18.6959 12.8725 19.1046 14.1327 18.5354 15.3407Z" fill="#F3F9F5"/>
<path d="M25.4619 16.0047C25.6225 15.8756 25.7538 15.7373 25.9289 15.6327C26.8688 15.018 27.1344 14.0959 27.0206 13.014C26.8688 11.5847 26.7287 10.1555 26.5915 8.72621C26.5915 8.60019 26.5273 8.47418 26.609 8.34816C26.6908 8.22214 26.7141 8.08072 26.8455 8.08379C26.9768 8.08686 26.9914 8.24365 27.0294 8.34816C27.1636 8.71085 27.3505 9.01206 27.2162 9.49156C27.0644 10.0448 27.2862 10.6657 27.3271 11.2589C27.403 12.3993 27.5927 13.5427 27.2716 14.6738C27.1671 15.0736 26.9439 15.4277 26.6346 15.6843C26.3252 15.941 25.946 16.0866 25.5524 16.1C25.5319 16.1 25.5145 16.06 25.4619 16.0047Z" fill="#F3F9F5"/>
<path d="M18.7715 16.2382C19.2745 16.0471 19.7261 15.7308 20.0879 15.3161C20.2464 15.1543 20.371 14.9595 20.454 14.7441C20.5369 14.5287 20.5762 14.2975 20.5695 14.0651C20.5104 12.3385 20.3603 10.6166 20.12 8.90751C20.1005 8.83869 20.0907 8.76726 20.0908 8.69545C20.1037 8.59416 20.143 8.49862 20.2043 8.41941C20.2656 8.3402 20.3466 8.28039 20.4382 8.24666C20.6133 8.20671 20.6075 8.46798 20.6454 8.60322C20.7564 8.95995 20.7696 9.34241 20.6834 9.70666C20.5462 10.2999 20.7418 10.9361 20.7826 11.5509C20.8498 12.5652 20.9782 13.5733 20.8293 14.5907C20.7974 14.8414 20.7187 15.083 20.5979 15.3016C20.4771 15.5201 20.3165 15.7114 20.1253 15.8645C19.9341 16.0176 19.7161 16.1294 19.4838 16.1935C19.2515 16.2577 19.0094 16.2728 18.7715 16.2382Z" fill="#F3F9F5"/>
<path d="M21.7837 15.1255C21.7457 13.0385 21.41 11.0129 21.1035 8.97813C21.0788 8.85036 21.0788 8.71862 21.1035 8.59085C21.1619 8.38799 21.2057 8.09598 21.4305 8.08676C21.6552 8.07754 21.6085 8.36956 21.6757 8.53247C21.7603 8.74455 21.8566 8.95662 21.9267 9.17485C21.9705 9.31932 22.2886 9.56827 21.8041 9.58056C21.6494 9.58056 21.737 9.80189 21.7486 9.90947C21.8654 11.0498 21.9821 12.1901 22.131 13.3243C22.239 14.1665 22.1602 14.7167 21.7837 15.1255Z" fill="#F3F9F5"/>
<path d="M10.0938 10.2722C10.4177 9.94327 10.803 9.73119 11.0833 9.39001C11.2088 9.2394 11.3489 9.1134 11.1913 8.87673C11.1508 8.79153 11.1351 8.69569 11.146 8.60114C11.1569 8.5066 11.1939 8.41753 11.2525 8.34499C11.2845 8.263 11.3446 8.19665 11.4208 8.15908C11.497 8.1215 11.5839 8.11544 11.6641 8.14212C11.8422 8.20667 11.8422 8.37573 11.8276 8.54171C11.7692 9.28554 10.8702 10.2015 10.0938 10.2722Z" fill="#F3F9F5"/>
<path d="M5.66565 15.3223C5.70191 15.4752 5.68103 15.637 5.60728 15.7741C5.58354 15.8429 5.53726 15.9005 5.4768 15.9366C5.41634 15.9726 5.34566 15.9848 5.27744 15.9709C5.21474 15.9626 5.15669 15.9317 5.11308 15.8836C5.06947 15.8354 5.04299 15.7729 5.03811 15.7065C4.97973 15.1901 4.96222 14.6707 5.33 14.2189C5.29205 14.4801 5.25411 14.7414 5.21908 15.0057C5.19653 15.0894 5.19657 15.178 5.21926 15.2616C5.24195 15.3453 5.28637 15.4206 5.34749 15.4791C5.49636 15.5959 5.51094 15.2793 5.66565 15.3223Z" fill="#F3F9F5"/>
<path d="M23.1671 11.4218C22.9102 11.2189 22.9511 10.807 22.5833 10.807C22.4841 10.807 22.5191 10.6042 22.5337 10.4997C22.5337 10.4505 22.5804 10.3705 22.6154 10.3675C22.7322 10.349 22.7613 10.4658 22.8197 10.5427C22.8781 10.6195 22.9073 10.85 23.0649 10.9269C23.17 10.7148 23.0153 10.4873 23.1175 10.2845C23.1671 10.183 23.2167 10.0632 23.3481 10.0816C23.3977 10.0816 23.4502 10.1708 23.4794 10.2322C23.5641 10.4074 23.4502 10.3982 23.3305 10.4259C23.2109 10.4535 23.2371 10.6103 23.2255 10.7179C23.2376 10.9542 23.2179 11.1912 23.1671 11.4218V11.4218Z" fill="#F3F9F5"/>
<path d="M5.30371 12.7127C5.5882 12.3924 5.946 12.1543 6.34286 12.0212C6.42167 11.9935 6.50047 11.9351 6.55301 12.0457C6.56384 12.0646 6.57093 12.0855 6.57386 12.1073C6.57678 12.1291 6.57547 12.1514 6.57001 12.1726C6.56455 12.1939 6.55507 12.2138 6.54211 12.231C6.52915 12.2483 6.51302 12.2626 6.49465 12.2732C6.10351 12.4361 5.74155 12.7004 5.30371 12.7127Z" fill="#F3F9F5"/>
<path d="M17.8434 15.7433C17.7872 15.8395 17.7099 15.9202 17.6179 15.9785C17.526 16.0368 17.4222 16.071 17.3151 16.0783H17.2742C17.1691 16.0783 17.0436 16.0353 17.0495 15.94C17.0495 15.7433 16.9619 15.5773 16.959 15.3991C16.959 15.3376 17.1458 15.2054 17.2509 15.2484C17.356 15.2915 17.2946 15.4421 17.2713 15.5404C17.2246 15.7648 17.2947 15.8478 17.5048 15.7679C17.6187 15.731 17.7121 15.6511 17.8434 15.7433Z" fill="#F3F9F5"/>
<path d="M22.6738 12.6174L23.8093 11.637L23.8998 11.7445C23.7451 12.3347 23.0825 12.3316 22.7731 12.7404L22.6738 12.6174Z" fill="#F3F9F5"/>
<path d="M26.2438 9.98329C26.1648 9.63316 26.0604 9.28996 25.9315 8.95669C25.9134 8.92994 25.9013 8.89914 25.8963 8.86672C25.8912 8.8343 25.8932 8.80111 25.9023 8.76966C25.9113 8.7382 25.927 8.70933 25.9483 8.68527C25.9695 8.66122 25.9957 8.64261 26.0249 8.63087C26.1621 8.57554 26.1737 8.74461 26.2117 8.83989C26.3331 9.20861 26.3443 9.60766 26.2438 9.98329V9.98329Z" fill="#F3F9F5"/>
<path d="M24.568 15.5804C24.5588 15.6229 24.5588 15.667 24.568 15.7095C24.6731 15.9646 24.6264 16.0599 24.3608 16.1214C24.282 16.1398 24.1886 16.1767 24.1331 16.0937C24.0777 16.0107 24.1331 15.937 24.1973 15.8755C24.2615 15.814 24.3842 15.6911 24.2586 15.5681C24.1886 15.4913 24.1127 15.4021 24.2265 15.3253C24.3113 15.2836 24.4071 15.2739 24.498 15.2976C24.6614 15.3192 24.6468 15.4329 24.568 15.5804Z" fill="#F3F9F5"/>
<path d="M19.4484 9.36244C19.4554 9.05946 19.3508 8.76543 19.1565 8.54179C19.1317 8.51605 19.1132 8.48425 19.1027 8.44923C19.0922 8.41421 19.09 8.37702 19.0963 8.3409C19.1027 8.30479 19.1173 8.27087 19.139 8.24211C19.1607 8.21336 19.1888 8.19067 19.2207 8.176C19.3609 8.08379 19.3959 8.25286 19.4426 8.34199C19.5343 8.49439 19.5835 8.67089 19.5846 8.85133C19.5856 9.03178 19.5384 9.20888 19.4484 9.36244V9.36244Z" fill="#F3F9F5"/>
<path d="M11.2432 10.0939C11.2432 10.3551 10.9776 10.5426 11.1644 10.7486C11.2928 10.8869 11.392 10.6502 11.5818 10.6348C11.5674 10.734 11.5244 10.8262 11.4586 10.8988C11.3928 10.9714 11.3074 11.0209 11.214 11.0405C11.0709 11.0774 10.9834 10.976 10.9221 10.8531C10.8316 10.6533 10.9279 10.4228 11.2432 10.0939Z" fill="#F3F9F5"/>
<path d="M14.6357 11.8061C14.8167 11.7415 14.7992 11.9659 14.9276 11.9567C14.9597 11.8614 14.9977 11.7538 15.0298 11.6708C15.0619 11.5878 15.0736 11.6401 15.1028 11.6708C15.1874 11.7261 15.1991 12.1011 15.3947 11.7507C15.3947 11.7507 15.4793 11.7507 15.488 11.7507C15.5552 11.8644 15.5377 12.0181 15.4443 12.0581C15.2553 12.1633 15.0451 12.2192 14.8313 12.221C14.6707 12.1995 14.6941 11.9536 14.6357 11.8061Z" fill="#F3F9F5"/>
<path d="M8.27565 8.62777C8.08084 8.63904 7.88546 8.63185 7.69187 8.60627C7.45252 8.60627 7.4496 8.3665 7.50506 8.12061C7.63349 8.21282 7.61597 8.66158 7.86408 8.27737C7.98083 8.41568 8.29316 8.31426 8.26397 8.63392L8.27565 8.62777Z" fill="#F3F9F5"/>
<path d="M19.8984 9.94336C19.9276 10.3368 19.7029 10.5274 19.3146 10.3983C19.2774 10.3813 19.2465 10.352 19.2265 10.3148C19.2065 10.2777 19.1985 10.2347 19.2037 10.1923C19.2037 10.0417 19.2825 10.1524 19.3351 10.1432C19.529 10.0975 19.7178 10.0305 19.8984 9.94336V9.94336Z" fill="#F3F9F5"/>
<path d="M23.7339 13.518C23.7339 13.1861 23.7339 12.9771 23.5296 12.8326C23.4187 12.7527 23.4158 12.642 23.5296 12.5498C23.6434 12.4576 23.7106 12.5498 23.7631 12.6267C23.86 12.7545 23.9104 12.9146 23.905 13.078C23.8997 13.2415 23.839 13.3976 23.7339 13.518V13.518Z" fill="#F3F9F5"/>
<path d="M10.8501 13.7301C10.8209 13.8377 10.888 14.0651 10.7362 14.0375C10.5844 14.0098 10.5173 13.7762 10.4619 13.6164C10.4492 13.5863 10.4441 13.5534 10.4471 13.5207C10.4502 13.488 10.4612 13.4566 10.4791 13.4297C10.497 13.4028 10.5212 13.3812 10.5494 13.3671C10.5776 13.3529 10.6088 13.3467 10.6399 13.349C10.8705 13.352 10.8296 13.5641 10.8501 13.7301Z" fill="#F3F9F5"/>
<path d="M14.5449 8.98439C14.5051 8.98796 14.465 8.98796 14.4252 8.98439C14.3843 8.7385 14.1333 8.55102 14.2471 8.26824C14.2471 8.24673 14.3376 8.23441 14.3522 8.24978C14.5449 8.4465 14.4194 8.73235 14.5449 8.98439Z" fill="#F3F9F5"/>
<path d="M5.78762 8.27423C5.78762 8.34799 5.78764 8.51092 5.69423 8.44945C5.60083 8.38797 5.40234 8.37262 5.40234 8.27119C5.40234 8.16976 5.49864 8.04066 5.62999 8.03451C5.76134 8.02836 5.75552 8.1605 5.78762 8.27423Z" fill="#F3F9F5"/>
<path d="M16.9849 12.2025C16.7164 12.2855 16.5763 12.4207 16.4333 12.2547C16.3895 12.2056 16.3807 12.0365 16.4129 12.015C16.6113 11.8828 16.7193 12.1041 16.9849 12.2025Z" fill="#019530"/>
<path d="M22.9603 23.1171C23.1909 23.1171 23.4244 23.1171 23.655 23.1171C23.7484 23.1171 23.9002 23.0618 23.8652 23.2708C23.8447 23.3876 23.8652 23.5474 23.6813 23.5382C23.6405 23.5413 23.5995 23.5413 23.5587 23.5382C23.171 23.4798 22.777 23.486 22.3911 23.5567C22.2101 23.5782 21.9941 23.5751 21.9941 23.3169C21.9941 23.0587 22.2247 23.1909 22.3473 23.1694C22.5507 23.1431 22.7554 23.1308 22.9603 23.1325V23.1171Z" fill="#019530"/>
<path d="M8.47404 12.6296C8.3281 12.6296 8.18216 12.7772 8.08292 12.5774C8.04497 12.5036 8.03037 12.3469 8.15005 12.3284C8.31935 12.2885 8.41566 12.4299 8.47404 12.6296Z" fill="#019530"/>
<path d="M9.43652 9.73428V9.62671L9.48908 9.6759L9.43652 9.73428Z" fill="#019530"/>
<path d="M16.3896 9.03666V8.93213L16.4714 8.97209L16.3896 9.03666Z" fill="#019530"/>
</svg>