<svg width="32" height="32" viewBox="0 0 32 32" fill="none" xmlns="http://www.w3.org/2000/svg">
<path d="M31.0836 10.669H0.912109C2.01467 7.54898 4.05741 4.84753 6.75916 2.93678C9.46092 1.02603 12.6887 0 15.9979 0C19.307 0 22.5348 1.02603 25.2366 2.93678C27.9383 4.84753 29.981 7.54898 31.0836 10.669Z" fill="#06B8E3"/>
<path d="M31.0836 21.3406C29.9788 24.4585 27.9352 27.1574 25.2337 29.0662C22.5322 30.975 19.3057 31.9999 15.9979 31.9999C12.6901 31.9999 9.46351 30.975 6.76203 29.0662C4.06056 27.1574 2.01692 24.4585 0.912109 21.3406H31.0836Z" fill="#3D9B37"/>
<path d="M32 16.0024C32.0016 17.8211 31.6915 19.6267 31.0833 21.3407H0.911775C-0.303925 17.8873 -0.303925 14.1224 0.911775 10.6691H31.0833C31.691 12.3815 32.0011 14.1853 32 16.0024Z" fill="#EC2938"/>
<path d="M15.4267 19.9975C14.765 19.9985 14.1134 19.8351 13.5305 19.522C12.9476 19.2089 12.4516 18.7559 12.087 18.2038C11.7224 17.6516 11.5007 17.0176 11.4417 16.3586C11.3827 15.6995 11.4884 15.0361 11.7491 14.428C12.0099 13.8199 12.4175 13.286 12.9356 12.8744C13.4536 12.4628 14.0658 12.1863 14.7171 12.0698C15.3684 11.9532 16.0386 12.0003 16.6672 12.2067C17.2959 12.4131 17.8634 12.7724 18.3189 13.2524C17.7339 12.4158 16.8973 11.7875 15.9307 11.4588C14.9642 11.1302 13.9181 11.1183 12.9443 11.425C11.9706 11.7317 11.12 12.3409 10.5162 13.164C9.91241 13.9872 9.58691 14.9815 9.58691 16.0024C9.58691 17.0233 9.91241 18.0176 10.5162 18.8407C11.12 19.6639 11.9706 20.2731 12.9443 20.5798C13.9181 20.8865 14.9642 20.8746 15.9307 20.546C16.8973 20.2173 17.7339 19.589 18.3189 18.7524C17.9465 19.1453 17.498 19.4582 17.0008 19.6723C16.5036 19.8863 15.968 19.997 15.4267 19.9975Z" fill="white"/>
<path d="M19.7205 13.3063L20.2352 14.7573L21.6274 14.0956L20.9656 15.4877L22.4166 16.0024L20.9656 16.522L21.6274 17.9093L20.2352 17.2475L19.7205 18.6985L19.2009 17.2475L17.8136 17.9093L18.4754 16.522L17.0244 16.0024L18.4754 15.4877L17.8136 14.0956L19.2009 14.7573L19.7205 13.3063Z" fill="white"/>
</svg>