<svg width="33" height="32" viewBox="0 0 33 32" fill="none" xmlns="http://www.w3.org/2000/svg">
<path d="M15.9828 0C12.675 0.00384828 9.44933 1.03113 6.74846 2.94088C4.04758 4.85064 2.00379 7.54934 0.897461 10.6667H31.0682C29.9619 7.54934 27.9181 4.85064 25.2172 2.94088C22.5163 1.03113 19.2907 0.00384828 15.9828 0Z" fill="white"/>
<path d="M15.9828 31.9999C19.2907 31.9961 22.5163 30.9688 25.2172 29.059C27.9181 27.1493 29.9619 24.4506 31.0682 21.3333H0.897461C2.00379 24.4506 4.04758 27.1493 6.74846 29.059C9.44933 30.9688 12.675 31.9961 15.9828 31.9999Z" fill="#D52612"/>
<path d="M31.0877 10.6667H0.916993C-0.305664 14.1172 -0.305664 17.883 0.916993 21.3334H31.0877C32.3104 17.883 32.3104 14.1172 31.0877 10.6667Z" fill="#00956E"/>
</svg>