<svg width="32" height="32" viewBox="0 0 32 32" fill="none" xmlns="http://www.w3.org/2000/svg">
<path d="M32.0002 15.9976H18.5969L3.5459 26.0316C5.04122 27.8938 6.93532 29.3967 9.08864 30.4297C11.242 31.4626 13.5996 31.9993 15.9879 32C20.2325 31.9987 24.303 30.3126 27.3054 27.3122C30.3077 24.3117 31.9963 20.2422 32.0002 15.9976Z" fill="#D7141A"/>
<path d="M3.5459 5.96845L18.5969 15.9976H32.0002C31.995 11.7564 30.3078 7.69033 27.3088 4.69133C24.3098 1.69234 20.2438 0.0051929 16.0026 1.67952e-06C13.6119 -0.00109474 11.2515 0.534645 9.09553 1.56765C6.93954 2.60066 5.04301 4.10458 3.5459 5.96845Z" fill="white"/>
<path d="M18.5968 15.9976L3.54575 5.96844C1.24775 8.80542 -0.00422246 12.3467 1.06997e-05 15.9976C-0.00335253 19.6498 1.24846 23.1923 3.54575 26.0316L18.5968 15.9976Z" fill="#11457E"/>
</svg>