<svg width="32" height="32" viewBox="0 0 32 32" fill="none" xmlns="http://www.w3.org/2000/svg">
<path d="M31.997 15.9986C31.9973 16.7631 31.9449 17.5268 31.84 18.2841C31.29 22.0926 29.3862 25.5754 26.4773 28.0944C23.5683 30.6135 19.8492 32 16.0011 32C12.1531 32 8.43392 30.6135 5.52499 28.0944C2.61607 25.5754 0.712171 22.0926 0.162188 18.2841C-0.423801 14.1837 0.600895 10.0157 3.02128 6.6544C5.44167 3.29311 9.06964 0.999714 13.1442 0.255311C15.26 -0.127087 17.4311 -0.0795062 19.5281 0.395225C21.625 0.869956 23.6049 1.76212 25.3496 3.01849C27.0944 4.27487 28.5682 5.86974 29.6833 7.70798C30.7984 9.54623 31.5319 11.5902 31.84 13.718C31.9447 14.4737 31.9972 15.2357 31.997 15.9986Z" fill="#C60C30"/>
<path d="M31.9966 15.9987C31.997 16.7632 31.9445 17.5268 31.8396 18.2841H13.1439V31.7468C11.5476 31.4571 10.0047 30.9263 8.56806 30.1725V18.2841H0.161831C-0.0539437 16.7698 -0.0539437 15.2325 0.161831 13.7181H8.56806V1.8346C10.0036 1.07717 11.5468 0.544555 13.1439 0.255371V13.7181H31.8396C31.9443 14.4738 31.9968 15.2358 31.9966 15.9987Z" fill="white"/>
</svg>