<svg width="33" height="32" viewBox="0 0 33 32" fill="none" xmlns="http://www.w3.org/2000/svg">
<path d="M16.0024 0C12.6943 0.00313422 9.4684 1.03013 6.76739 2.93998C4.06637 4.84984 2.0227 7.54891 0.916992 10.6667H31.0877C29.9814 7.54931 27.9376 4.85064 25.2367 2.94088C22.5359 1.03113 19.3102 0.00384828 16.0024 0Z" fill="black"/>
<path d="M32.0048 16.0024C32.0068 14.1844 31.6966 12.3796 31.0877 10.6666H0.916993C-0.305664 14.1171 -0.305664 17.8828 0.916993 21.3333H31.0877C31.6958 19.6218 32.006 17.8187 32.0048 16.0024Z" fill="#DC0201"/>
<path d="M0.916992 21.3334C2.02085 24.452 4.06414 27.1519 6.76565 29.0615C9.46717 30.971 12.6941 31.9963 16.0024 31.9963C19.3106 31.9963 22.5376 30.971 25.2391 29.0615C27.9406 27.1519 29.9839 24.452 31.0877 21.3334H0.916992Z" fill="#FECD17"/>
</svg>