<svg width="32" height="32" viewBox="0 0 32 32" fill="none" xmlns="http://www.w3.org/2000/svg">
<path d="M31.9024 17.782C31.7691 18.994 31.4942 20.1863 31.0833 21.3345H0.917596C0.506721 20.1863 0.231886 18.994 0.0986328 17.782H31.9024Z" fill="white"/>
<path d="M31.0876 21.3345C30.6439 22.5887 30.0441 23.7822 29.3025 24.8869H2.71192C1.96674 23.7835 1.36521 22.5897 0.921875 21.3345H31.0876Z" fill="#115EAD"/>
<path d="M29.2977 24.887C28.3967 26.226 27.3008 27.4234 26.0462 28.4394H5.93899C4.68321 27.4247 3.58715 26.2271 2.6875 24.887H29.2977Z" fill="white"/>
<path d="M26.0467 28.4395C23.2032 30.743 19.6537 32 15.9931 32C12.3324 32 8.78292 30.743 5.93945 28.4395H26.0467Z" fill="#115EAD"/>
<path d="M26.0467 3.56712H5.93945C8.78355 1.2725 12.3277 0.0189534 15.9832 0.0146484H16.0568C19.6948 0.0257282 23.2197 1.27921 26.0467 3.56712Z" fill="#115EAD"/>
<path d="M32 16.0033C31.9995 16.5975 31.9668 17.1913 31.9019 17.782H0.0982104C-0.0327368 16.5998 -0.0327368 15.4068 0.0982104 14.2246H31.9019C31.9668 14.8153 31.9995 15.4091 32 16.0033Z" fill="#115EAD"/>
<path d="M29.2976 7.11968H2.70703C3.46928 5.97889 4.37774 4.94273 5.40925 4.0376C5.5858 3.87591 5.77216 3.71911 5.95852 3.54761H26.0657C27.3159 4.56993 28.4054 5.77405 29.2976 7.11968Z" fill="white"/>
<path d="M31.0877 10.6721H0.912109C1.35925 9.41908 1.96231 8.2272 2.70706 7.12451H29.2976C30.0376 8.22923 30.6388 9.4207 31.0877 10.6721Z" fill="#115EAD"/>
<path d="M31.9024 14.2246H0.0986328C0.233129 13.0132 0.506237 11.8213 0.912687 10.6721H31.0882C31.4947 11.8213 31.7679 13.0132 31.9024 14.2246Z" fill="white"/>
<path d="M16.0761 0.0146998V17.782H0.0982104C-0.0327368 16.5998 -0.0327368 15.4068 0.0982104 14.2246C0.376559 11.681 1.27214 9.2438 2.70722 7.12455C3.46947 5.98376 4.37793 4.9476 5.40944 4.04247C5.58599 3.88077 5.77235 3.72397 5.95871 3.55248C8.80281 1.25786 12.3469 0.00430501 16.0025 0L16.0761 0.0146998Z" fill="#115EAD"/>
<path d="M16.0759 7.12451V10.6721H0.912109C1.35925 9.41908 1.96231 8.2272 2.70706 7.12451H16.0759Z" fill="white"/>
<path d="M8.96473 1.65125V17.7819H5.40918V4.06203C5.58573 3.90033 5.77209 3.74353 5.95845 3.57203C6.8851 2.82092 7.89357 2.17659 8.96473 1.65125Z" fill="white"/>
</svg>