<svg width="32" height="33" viewBox="0 0 32 33" fill="none" xmlns="http://www.w3.org/2000/svg">
<path d="M10.6805 0.926514V9.75004L3.42188 6.11769C5.3009 3.73452 7.81815 1.93426 10.6805 0.926514Z" fill="#04247B"/>
<path d="M28.5838 6.12743L21.3252 9.74998V0.926453C24.1881 1.9381 26.7052 3.74164 28.5838 6.12743Z" fill="#04247B"/>
<path d="M10.6805 22.2451V31.0686C7.81602 30.055 5.29863 28.2479 3.42188 25.8579L10.6805 22.2451Z" fill="#04247B"/>
<path d="M28.5838 25.8776C26.7052 28.2656 24.1884 30.0723 21.3252 31.0884V22.2648L28.5838 25.8776Z" fill="#04247B"/>
<path d="M31.9998 16.0049C32.0051 17.8187 31.6967 19.6198 31.0882 21.3284H26.6085L30.2991 23.1765C29.8182 24.1314 29.2435 25.0362 28.5837 25.8774L21.325 22.2451V31.0686C20.6334 31.3189 19.924 31.5172 19.2028 31.6618C17.091 32.0932 14.9138 32.0932 12.8019 31.6618C12.0806 31.5178 11.3712 31.3195 10.6797 31.0686V22.2451L3.42106 25.8774C3.1956 25.5931 2.97995 25.299 2.77901 24.9951L10.1308 21.3284H5.34722L1.70565 23.152C0.103123 19.9516 -0.37843 16.3058 0.338214 12.799C0.485818 12.079 0.682319 11.3698 0.926354 10.6765H5.38153L1.71054 8.84314C2.19426 7.88299 2.77218 6.9733 3.43576 6.12745L10.6797 9.75V0.926473C11.3712 0.675578 12.0806 0.477298 12.8019 0.333333C14.9138 -0.09809 17.091 -0.09809 19.2028 0.333333C19.924 0.477944 20.6334 0.676211 21.325 0.926473V9.75L28.5837 6.11765C28.8042 6.39706 29.015 6.68628 29.2159 6.9804L21.8642 10.6667H26.6428L30.3089 8.83334C30.9432 10.0842 31.4065 11.4148 31.6861 12.7892C31.8961 13.8482 32.0012 14.9253 31.9998 16.0049Z" fill="white"/>
<path d="M5.368 10.6765H0.912109C1.13423 10.0493 1.3962 9.43692 1.69643 8.84314L5.368 10.6765Z" fill="#CE152A"/>
<path d="M31.0888 21.3286C30.8633 21.9599 30.5997 22.5771 30.2996 23.1766L26.6084 21.3286H31.0888Z" fill="#CE152A"/>
<path d="M30.3041 8.84311L26.638 10.6765H21.8594L29.2111 6.99017C29.6168 7.58249 29.9819 8.20155 30.3041 8.84311Z" fill="#CE152A"/>
<path d="M10.1166 21.3284L2.76481 24.9951C2.36059 24.4062 1.99706 23.7904 1.67676 23.152L5.31833 21.3284H10.1166Z" fill="#CE152A"/>
<path d="M31.9998 16.0049C31.9987 17.0781 31.892 18.1486 31.6812 19.201H19.2176V31.6813C17.1057 32.1128 14.9285 32.1128 12.8166 31.6813V19.201H0.323515C-0.107838 17.0888 -0.107838 14.9112 0.323515 12.799H12.8019V0.323506C14.9138 -0.107917 17.091 -0.107917 19.2028 0.323506V12.799H31.6812C31.8922 13.8546 31.9989 14.9284 31.9998 16.0049Z" fill="#CE152A"/>
</svg>