<svg width="32" height="32" viewBox="0 0 32 32" fill="none" xmlns="http://www.w3.org/2000/svg">
<path d="M32 15.9976C32.0011 14.1813 31.6909 12.3783 31.0829 10.6667H0.916995C-0.305665 14.1172 -0.305665 17.883 0.916995 21.3334H31.0878C31.6946 19.6201 32.0031 17.8153 32 15.9976Z" fill="black"/>
<path d="M15.9975 0C12.6905 0.00485973 9.4659 1.03261 6.76599 2.9423C4.06609 4.85199 2.02304 7.55011 0.916992 10.6667H31.0878C29.9812 7.54853 27.9366 4.84929 25.2348 2.93947C22.5329 1.02964 19.3062 0.00283644 15.9975 0Z" fill="#0A72CC"/>
<path d="M0.916992 21.3334C2.02085 24.452 4.06414 27.1519 6.76566 29.0615C9.46718 30.971 12.6941 31.9964 16.0024 31.9964C19.3106 31.9964 22.5376 30.971 25.2391 29.0615C27.9406 27.1519 29.9839 24.452 31.0878 21.3334H0.916992Z" fill="white"/>
</svg>