<svg width="32" height="32" viewBox="0 0 32 32" fill="none" xmlns="http://www.w3.org/2000/svg">
<g clip-path="url(#clip0_710_93)">
<path d="M31.9557 10.4324C31.7972 10.4324 31.5998 10.3668 31.534 10.608C31.516 10.6855 31.4114 10.7212 31.3785 10.6676C31.0794 10.2 30.6397 10.4859 30.2718 10.4413C29.9039 10.3966 29.3536 10.2894 29.1293 10.4859C28.7075 10.8552 28.5311 10.2715 28.1692 10.4025C27.8073 10.5336 27.3945 10.4025 27.0057 10.4353C26.7934 10.4353 26.5092 10.3043 26.4075 10.6408C26.3902 10.6561 26.3696 10.6672 26.3474 10.6734C26.3251 10.6796 26.3017 10.6807 26.2789 10.6765C25.6239 10.1196 24.8552 10.5723 24.1553 10.4324C24.1263 10.4229 24.0956 10.4196 24.0652 10.4228C24.0348 10.4259 24.0054 10.4353 23.9789 10.4505C23.9524 10.4657 23.9293 10.4862 23.9113 10.5108C23.8933 10.5353 23.8806 10.5634 23.8742 10.5931C23.8473 10.6914 23.7815 10.7063 23.6828 10.6497C23.1294 10.3519 21.7686 10.3311 21.29 10.6348C21.2302 10.6765 21.1853 10.7034 21.1165 10.6527C20.4316 10.1464 19.657 10.5038 18.9332 10.474C18.7388 10.474 18.5384 10.614 18.335 10.4413C18.2692 10.3906 18.1316 10.4145 18.0359 10.4413C17.3839 10.5514 16.669 10.1762 16.0708 10.6914C15.4906 10.1554 14.7877 10.5544 14.1536 10.4472C13.9832 10.4204 13.7289 10.3311 13.6362 10.6259C13.6081 10.6609 13.5672 10.6834 13.5226 10.6885C12.9782 10.1494 12.2993 10.5842 11.7071 10.4324C11.3272 10.3371 11.0221 10.7301 10.5645 10.477C10.2056 10.2864 9.66727 10.4204 9.20367 10.4442C8.9644 10.4442 8.64437 10.2834 8.49782 10.6557C8.4797 10.6693 8.45865 10.6786 8.43633 10.6827C8.41401 10.6868 8.39102 10.6857 8.36919 10.6795C7.71118 10.1375 6.94551 10.5753 6.24264 10.4413C6.21352 10.4329 6.18296 10.4307 6.15293 10.4349C6.12291 10.439 6.0941 10.4495 6.06841 10.4655C6.04272 10.4815 6.0207 10.5028 6.00383 10.5279C5.98695 10.5529 5.97557 10.5813 5.97046 10.611C5.96813 10.6279 5.96159 10.6438 5.95143 10.6575C5.94128 10.6711 5.92782 10.682 5.91233 10.6891C5.89684 10.6962 5.87981 10.6994 5.86279 10.6982C5.84576 10.697 5.82929 10.6917 5.81492 10.6825C5.15991 10.1315 4.39124 10.5783 3.69137 10.4413C3.66248 10.4318 3.6319 10.4287 3.6017 10.4321C3.57149 10.4354 3.54238 10.4452 3.5163 10.4607C3.49021 10.4762 3.46777 10.4972 3.45051 10.5221C3.43324 10.547 3.42156 10.5753 3.41622 10.6051C3.39529 10.6855 3.30556 10.7272 3.26368 10.6855C2.70139 10.1375 2.01347 10.5604 1.39435 10.4472C1.20891 10.4174 0.951689 10.3311 0.832052 10.6408C0.784197 10.7629 0.700426 10.6587 0.619671 10.5753C0.433004 10.4865 0.228333 10.4417 0.0214844 10.4442V21.5735H0.0813249C0.287699 21.5735 0.574829 21.7105 0.679512 21.3621C0.679512 21.3382 0.793147 21.3144 0.808101 21.3293C1.28964 21.8803 1.91476 21.4753 2.46509 21.5616C2.71334 21.6003 3.08422 21.7522 3.2547 21.3472C3.2547 21.3293 3.35637 21.3204 3.38329 21.3472C4.05625 21.8862 4.83988 21.5348 5.55172 21.5259C5.80296 21.5259 6.04226 21.5556 6.29051 21.5705C6.86776 21.6063 7.44798 21.5705 8.02822 21.5705C8.14487 21.5705 8.27946 21.5944 8.32731 21.4335C8.34526 21.3621 8.40509 21.2727 8.45294 21.3204C9.01524 21.8505 9.69716 21.4574 10.3103 21.5675C10.6902 21.636 11.0251 21.3442 11.4738 21.5378C11.8596 21.7045 12.3711 21.5884 12.8377 21.5646C13.059 21.5646 13.367 21.7224 13.4837 21.3531C13.501 21.339 13.5214 21.3293 13.5432 21.3246C13.5651 21.32 13.5877 21.3205 13.6093 21.3263C14.2793 21.8832 15.0629 21.4246 15.7747 21.5675C15.7996 21.5757 15.8259 21.5782 15.8518 21.575C15.8777 21.5718 15.9026 21.5628 15.9246 21.5489C15.9466 21.5349 15.9653 21.5163 15.9792 21.4943C15.9931 21.4722 16.0019 21.4474 16.0051 21.4216C16.026 21.3174 16.0978 21.2757 16.1845 21.3383C16.8814 21.8475 17.68 21.4216 18.4038 21.5795C18.5922 21.6212 18.5413 20.9451 18.8315 21.4812C18.9421 21.6837 20.9251 21.6033 21.1136 21.4246C21.1584 21.3799 21.2003 21.2757 21.2482 21.3204C21.8075 21.8475 22.4894 21.4663 23.1055 21.5646C23.5003 21.6301 23.8592 21.368 24.3019 21.5378C24.7446 21.7075 25.277 21.5824 25.7705 21.5675C25.935 21.5675 26.1622 21.6748 26.231 21.3889C26.249 21.3144 26.3537 21.2757 26.3866 21.3293C26.6647 21.8147 27.1164 21.511 27.4813 21.5616C27.8462 21.6122 28.3995 21.7224 28.6268 21.5288C29.0485 21.1714 29.2519 21.7195 29.6078 21.5974C29.9637 21.4752 30.3855 21.5973 30.7773 21.5675C30.9837 21.5675 31.2708 21.7045 31.3755 21.3561C31.3755 21.3323 31.4891 21.3085 31.5041 21.3234C31.5672 21.4056 31.6464 21.4744 31.7368 21.5256C31.8273 21.5768 31.9271 21.6093 32.0305 21.6212V10.4413L31.9557 10.4324ZM11.4349 14.8995C11.734 13.6904 12.7898 12.6004 13.7708 12.4604C11.8357 14.423 11.6443 16.5851 12.9513 18.9379C11.5875 17.8777 11.0221 16.5464 11.4349 14.8966V14.8995ZM18.4965 18.1755C18.0961 18.7619 17.5764 19.2581 16.9711 19.6318C17.5693 19.9057 18.1256 19.8909 18.7926 19.8968C18.2473 20.1517 17.6399 20.2448 17.0429 20.1649C16.904 20.1282 16.7569 20.1374 16.6236 20.1911C16.4904 20.2448 16.3783 20.3401 16.3041 20.4627C16.1666 20.7069 16.0051 20.7069 15.8615 20.4627C15.691 20.1649 15.4368 20.1381 15.1257 20.1649C14.5415 20.2422 13.9472 20.1566 13.4089 19.9177C14.04 19.87 14.6202 19.9177 15.2035 19.6199C14.6633 19.3153 14.1952 18.8987 13.8309 18.3982C13.4665 17.8977 13.2145 17.3251 13.0919 16.7192C12.7928 15.2301 13.1158 13.9019 14.2344 12.8119C14.2613 12.7851 14.3092 12.7315 14.3182 12.7374C14.333 12.7461 14.3453 12.7584 14.3541 12.7732C14.3541 12.8089 14.3331 12.8446 14.3092 12.8804C13.9299 13.5699 13.7278 14.3422 13.721 15.1284C13.7142 15.9146 13.9029 16.6903 14.2703 17.3863C14.4891 17.8017 14.7705 18.1814 15.1048 18.512C15.2244 18.6311 15.353 18.7383 15.4786 18.8545C15.6701 18.7324 15.5803 18.5567 15.5803 18.4316C15.5624 16.7162 15.5325 15.0038 15.5085 13.2913C15.5085 12.9101 15.3829 12.4872 15.9213 12.2698C15.362 12.1954 14.9193 12.0822 14.9193 11.4628C15.6524 11.7544 16.4672 11.7693 17.2104 11.5045C17.2702 12.0018 17.1087 12.1358 16.1785 12.243C16.3589 12.3237 16.5063 12.4634 16.596 12.6389C16.6858 12.8144 16.7126 13.0152 16.672 13.208C16.6182 14.9204 16.6092 16.6328 16.5823 18.3482C16.5823 18.509 16.5823 18.6728 16.5823 18.8575C17.9103 18.1159 19.2382 15.5011 17.8594 12.9012C17.8265 12.8535 17.7727 12.8059 17.8594 12.7582C17.8594 12.7582 17.9133 12.8059 17.9402 12.8327C18.292 13.1472 18.575 13.5304 18.7717 13.9584C18.873 14.1776 18.956 14.4047 19.0199 14.6375C19.1155 14.9943 19.1677 15.3612 19.1754 15.7304C19.2043 16.5971 18.9675 17.452 18.4965 18.1814V18.1755ZM19.1934 18.8217C20.7158 16.2873 20.0368 14.015 18.3709 12.4575C19.4476 12.4575 20.6888 14.0031 20.8563 15.5368C20.9999 16.8859 20.1176 18.6341 19.1934 18.8277V18.8217Z" fill="#FDFCFC"/>
<path d="M0.287375 9.73556C0.224565 9.6611 0.101937 9.68793 -0.0117188 9.68793V9.91424C0.106492 9.89876 0.22345 9.87488 0.338234 9.84277C0.302342 9.76236 0.296347 9.74747 0.287375 9.73556Z" fill="#239F40"/>
<path d="M1.39124 8.88973C1.49293 8.88973 1.61554 8.88971 1.63049 9.02075C1.65143 9.21433 1.48694 9.17264 1.38226 9.17562C0.921655 9.17562 0.461053 9.17562 0.000449169 9.17562V9.38709C0.0901772 9.38709 0.19487 9.40794 0.272634 9.38709C0.529855 9.35135 0.628547 9.45261 0.637519 9.7266C0.637519 10.0631 0.574716 10.2388 0.194867 10.1882H0.000449169V10.4354C0.207298 10.4328 0.411969 10.4776 0.598636 10.5664C0.679391 10.6498 0.763126 10.754 0.81098 10.6319C0.930618 10.3341 1.18784 10.4086 1.37328 10.4383C1.9924 10.5515 2.68032 10.1405 3.24261 10.6766C3.28448 10.7183 3.37422 10.6766 3.39515 10.5962C3.40049 10.5664 3.4122 10.5381 3.42947 10.5132C3.44674 10.4883 3.46918 10.4674 3.49526 10.4519C3.52135 10.4363 3.55046 10.4265 3.58066 10.4232C3.61086 10.4198 3.64145 10.423 3.67033 10.4324C4.37021 10.5694 5.13887 10.1346 5.79389 10.6736C5.80826 10.6828 5.82473 10.6882 5.84175 10.6893C5.85877 10.6905 5.8758 10.6874 5.8913 10.6803C5.90679 10.6732 5.92024 10.6623 5.9304 10.6486C5.94056 10.635 5.94709 10.619 5.94942 10.6022C5.95454 10.5724 5.96591 10.544 5.98279 10.519C5.99967 10.4939 6.02165 10.4727 6.04734 10.4566C6.07303 10.4406 6.10184 10.4302 6.13186 10.426C6.16189 10.4218 6.19249 10.424 6.22161 10.4324C6.92448 10.5664 7.69015 10.1346 8.34816 10.6706C8.36998 10.6769 8.39294 10.6779 8.41526 10.6738C8.43758 10.6697 8.45863 10.6604 8.47674 10.6468C8.6233 10.2746 8.94333 10.4502 9.1826 10.4354C9.6432 10.4115 10.1846 10.2775 10.5435 10.4682C11.0011 10.7094 11.3062 10.3282 11.686 10.4235C12.2842 10.5754 12.9572 10.1257 13.5015 10.6796C13.5462 10.6745 13.5871 10.652 13.6152 10.6171C13.7079 10.3192 13.9621 10.4115 14.1326 10.4383C14.7667 10.5456 15.4696 10.1405 16.0498 10.6826C16.648 10.1674 17.3628 10.5426 18.0148 10.4324C18.1135 10.4145 18.2511 10.3907 18.3139 10.4324C18.5323 10.6051 18.7327 10.4562 18.9121 10.4652C19.6359 10.495 20.4076 10.1376 21.0955 10.6438C21.1643 10.6945 21.2092 10.6677 21.269 10.626C21.7326 10.3282 23.0934 10.3282 23.6617 10.6409C23.7604 10.6975 23.8262 10.6825 23.8531 10.5843C23.8596 10.5545 23.8722 10.5265 23.8903 10.5019C23.9083 10.4773 23.9313 10.4568 23.9578 10.4416C23.9843 10.4265 24.0137 10.417 24.0441 10.4139C24.0745 10.4108 24.1052 10.414 24.1343 10.4235C24.8342 10.5634 25.6029 10.1256 26.2579 10.6677C26.2806 10.6718 26.304 10.6708 26.3263 10.6646C26.3486 10.6584 26.3691 10.6472 26.3865 10.6319C26.4971 10.2954 26.7813 10.4354 26.9846 10.4265C27.3735 10.4056 27.8042 10.5188 28.1481 10.3937C28.4921 10.2686 28.6865 10.8463 29.1082 10.4771C29.3325 10.2805 29.8649 10.3848 30.2508 10.4324C30.6366 10.4801 31.0673 10.1912 31.3574 10.6587C31.3903 10.7123 31.495 10.6766 31.5129 10.5992C31.5787 10.3579 31.7761 10.4235 31.9347 10.4235H31.9825V10.1882C31.9466 10.1853 31.9106 10.1853 31.8748 10.1882C31.6804 10.218 31.474 10.1882 31.5219 9.91717C31.5518 9.72955 31.3753 9.43769 31.7432 9.39898C31.8229 9.39443 31.9028 9.39443 31.9825 9.39898V9.18158H30.6754C30.1969 9.18158 29.7214 9.18158 29.2428 9.18158C29.1351 9.18158 28.9766 9.2203 28.9766 9.03863C28.9766 8.9076 29.1022 8.89569 29.2069 8.89569H31.9825V0.00598145H-0.0205078V8.89569L1.39124 8.88973ZM28.9975 9.53898C29.0274 9.35135 29.2069 9.40195 29.3325 9.39898C29.5538 9.39898 29.7752 9.39898 29.9965 9.39898C30.1341 9.39898 30.2777 9.39897 30.2956 9.58362C30.3554 10.2477 30.7712 9.71169 30.9626 9.93505C30.9626 9.8874 30.9925 9.83976 31.0045 9.79509C30.9938 9.76614 30.9787 9.739 30.9596 9.71467C30.831 9.62235 30.5469 9.79805 30.5439 9.55384C30.5409 9.30964 30.8011 9.41982 30.9506 9.39898C31.1839 9.36919 31.3185 9.4258 31.3335 9.71766C31.3514 10.0869 31.2557 10.2567 30.8579 10.2001C30.6588 10.1858 30.4589 10.1858 30.2597 10.2001C30.1281 10.2001 30.0055 10.1733 30.0234 10.0125C30.0534 9.71467 29.9038 9.69085 29.6616 9.68192C29.4193 9.67299 29.2608 9.74445 29.2757 10.0423C29.2757 10.1971 29.1291 10.2597 29.0424 10.1346C28.9547 9.94824 28.9387 9.73628 28.9975 9.53898ZM27.4692 8.99395C27.4692 8.93439 27.5499 8.88971 27.6277 8.91056C27.7055 8.93141 27.7324 9.0297 27.7414 9.11309C27.7164 9.41487 27.7519 9.71858 27.846 10.0065C27.9487 9.72877 27.9865 9.43138 27.9567 9.1369C27.9567 9.03266 27.9567 8.91354 28.1003 8.91056C28.2438 8.90758 28.2438 9.02376 28.2528 9.12799C28.2244 9.43004 28.2611 9.73466 28.3605 10.0214C28.4573 9.75573 28.4941 9.472 28.4681 9.19052C28.4681 9.07437 28.4681 8.91951 28.6237 8.92844C28.7792 8.93738 28.7583 9.09226 28.7643 9.20543C28.7643 9.23819 28.7643 9.27391 28.7643 9.30667C28.7912 10.2358 28.5848 10.4026 27.6546 10.215C27.5739 10.1971 27.5051 10.1912 27.4572 10.0959C27.2329 9.64917 27.2299 9.65214 26.7035 9.79807L26.7693 9.87551C26.8889 10.0065 27.2239 9.807 27.2 10.0929C27.179 10.3222 26.9218 10.1852 26.7693 10.212C26.5091 10.2567 26.4104 10.1465 26.4164 9.87252C26.4223 9.59854 26.4164 9.37813 26.8142 9.40494C27.0953 9.40792 27.5081 9.55087 27.4692 8.99395ZM24.1163 8.88973H26.9757C27.0803 8.88973 27.203 8.88972 27.212 9.02671C27.212 9.21433 27.0594 9.17264 26.9547 9.17562H25.5251C25.0645 9.17562 24.6039 9.17562 24.1433 9.17562C24.0386 9.17562 23.8741 9.21433 23.883 9.02969C23.889 8.89567 24.0117 8.88973 24.1163 8.88973ZM24.3347 9.39898C24.6727 9.46152 25.1692 9.15774 25.2499 9.84271C25.2499 9.97375 25.6656 9.92015 25.9258 9.84271C25.9095 9.80568 25.8905 9.76986 25.869 9.73551C25.7494 9.59256 25.4174 9.81296 25.4264 9.53599C25.4354 9.25903 25.6985 9.41684 25.8511 9.396C26.1023 9.36026 26.2519 9.45556 26.204 9.73252C26.1741 9.90228 26.3296 10.1793 25.9827 10.1912C25.6836 10.1912 25.4024 10.1912 25.1153 10.1912C24.9747 10.1912 24.873 10.1405 24.894 9.98864C24.9299 9.69083 24.7414 9.69083 24.5171 9.69083C24.2928 9.69083 24.1164 9.72063 24.1552 10.0125C24.1552 10.1018 24.1313 10.1852 24.0236 10.1912C23.9159 10.1971 23.8741 10.0899 23.8651 9.98569C23.8502 9.63428 23.8262 9.3007 24.3347 9.39898ZM22.3338 9.10116C22.3338 8.99693 22.3547 8.88378 22.4923 8.89569C22.6298 8.9076 22.6179 9.03269 22.6269 9.13097C22.6015 9.39854 22.6279 9.66844 22.7046 9.92611C22.9409 9.65808 22.8003 9.38111 22.8422 9.13988C22.8422 9.0416 22.8422 8.91356 22.9678 8.89867C23.1503 8.8808 23.1323 9.02969 23.1353 9.14286C23.129 9.38779 23.151 9.63264 23.2011 9.87252C23.4254 9.66406 23.3237 9.41089 23.3536 9.1786C23.3686 9.06841 23.3208 8.91058 23.4913 8.89867C23.6617 8.88676 23.6408 9.04162 23.6468 9.15479C23.6497 9.20636 23.6497 9.25808 23.6468 9.30965C23.6617 10.1644 23.3477 10.4115 22.5042 10.1822C22.4175 10.1584 22.3368 10.1346 22.3338 10.0333C22.3338 9.40196 21.8941 9.75337 21.583 9.69083C21.5973 9.73882 21.6153 9.78564 21.6369 9.83083C21.7415 9.9976 22.1334 9.75042 22.0736 10.0899C22.0407 10.2716 21.7745 10.1614 21.6189 10.1852C21.3198 10.2299 21.2839 10.0423 21.3198 9.81294C21.3557 9.58362 21.248 9.37517 21.589 9.38411C21.7236 9.38411 21.8612 9.38411 21.9958 9.38411C22.1932 9.41091 22.3547 9.39303 22.3338 9.11309V9.10116ZM19.0228 8.8778H21.8343C21.9509 8.8778 22.1064 8.87781 22.0945 9.03565C22.0825 9.19349 21.921 9.16075 21.8133 9.16373C21.3377 9.16373 20.8592 9.16373 20.3837 9.16373C19.9081 9.16373 19.4864 9.16373 19.0527 9.16373C18.948 9.16373 18.7865 9.21435 18.7536 9.04161C18.7207 8.86888 18.9091 8.88973 19.0228 8.88973V8.8778ZM19.2082 9.39007C19.5372 9.45559 20.0457 9.11607 20.1265 9.82188C20.1265 9.9559 20.5571 9.93207 20.7994 9.82188C20.7575 9.75636 20.7486 9.72062 20.7246 9.70573C20.596 9.61937 20.3209 9.79209 20.3089 9.5449C20.2969 9.29772 20.5362 9.40195 20.6708 9.396C20.8652 9.396 21.0865 9.33049 21.0985 9.66702C21.1105 10.0035 21.0805 10.2626 20.6229 10.1971C20.4239 10.1801 20.2238 10.1801 20.0247 10.1971C19.8931 10.1971 19.7735 10.1614 19.7944 10.0035C19.8363 9.65213 19.606 9.70574 19.3787 9.68192C19.1514 9.6581 19.0288 9.74148 19.0557 9.97973C19.0557 10.0899 19.0258 10.1852 18.8852 10.1674C18.7446 10.1495 18.7686 10.0631 18.7656 9.97675C18.7416 9.67 18.6758 9.29474 19.2082 9.40196V9.39007ZM17.2521 8.95822C17.2521 8.93737 17.3329 8.89271 17.3748 8.89569C17.4765 8.89569 17.5004 8.98801 17.5094 9.07735C17.4876 9.36129 17.5119 9.64685 17.5812 9.92313C17.8294 9.66105 17.6829 9.38409 17.7247 9.14286C17.7457 9.02969 17.7247 8.8808 17.8952 8.89867C18.0657 8.91654 18.0148 9.0416 18.0208 9.13988C17.9987 9.40743 18.0251 9.67677 18.0986 9.93505C18.3139 9.70574 18.2033 9.47938 18.2392 9.28581C18.2631 9.14881 18.1584 8.91059 18.3708 8.90761C18.631 8.90761 18.5233 9.16074 18.5293 9.30667C18.5532 10.1703 18.2302 10.4086 17.3957 10.1822C17.309 10.1614 17.2252 10.1405 17.2222 10.0363C17.2222 9.39898 16.7826 9.75635 16.4775 9.69083C16.5134 9.80102 16.5134 9.81594 16.5224 9.83083C16.627 10.0006 17.0278 9.75339 16.959 10.0869C16.9172 10.2895 16.633 10.1644 16.4596 10.1822C16.1156 10.215 16.2083 9.9529 16.1904 9.76528C16.1724 9.57766 16.1904 9.37517 16.5074 9.37815C16.8244 9.38112 17.2701 9.56875 17.2521 8.97014V8.95822ZM13.9412 8.8778H16.6988C16.8155 8.8778 16.971 8.85698 16.98 9.0178C16.989 9.17862 16.8245 9.16373 16.7168 9.16373H13.9053C13.8006 9.16373 13.6331 9.20542 13.6541 9.01184C13.675 8.81826 13.8275 8.88973 13.9412 8.88973V8.8778ZM14.1176 9.38411H14.6799C14.8026 9.38411 14.9372 9.38409 14.9461 9.55086C14.976 10.218 15.3978 9.77424 15.658 9.75041L15.6281 9.71169C15.5054 9.58363 15.1734 9.80698 15.1974 9.51215C15.2183 9.29176 15.4785 9.40793 15.6311 9.38411C15.9032 9.34241 15.969 9.47641 15.984 9.73252C16.0049 10.0869 15.8972 10.2329 15.5323 10.1852C15.3331 10.1753 15.1334 10.1753 14.9342 10.1852C14.8145 10.1852 14.665 10.1852 14.6799 10.0214C14.7098 9.70575 14.5484 9.67297 14.2881 9.67C14.0279 9.66702 13.9083 9.7385 13.9382 10.0095C13.9429 10.0303 13.9427 10.052 13.9375 10.0727C13.9323 10.0934 13.9224 10.1126 13.9084 10.1287C13.8945 10.1449 13.8769 10.1577 13.8572 10.1659C13.8374 10.1742 13.816 10.1777 13.7946 10.1763C13.687 10.1763 13.669 10.0959 13.6481 10.0065C13.5284 9.55683 13.6451 9.40195 14.1176 9.396V9.38411ZM12.1167 8.99694C12.1167 8.92844 12.1885 8.88378 12.2663 8.89569C12.344 8.9076 12.3859 8.99695 12.3919 9.08629C12.3707 9.39604 12.4072 9.70701 12.4996 10.0035C12.5981 9.72584 12.6359 9.43033 12.6102 9.1369C12.6102 9.03564 12.6102 8.91058 12.7388 8.89867C12.9213 8.89867 12.9004 9.03565 12.9033 9.14882C12.8957 9.39229 12.9209 9.6357 12.9781 9.87252C13.1845 9.64023 13.0977 9.3722 13.1217 9.12501C13.1217 9.02376 13.1217 8.90165 13.2622 8.89569C13.4028 8.88973 13.4118 9.00587 13.4148 9.11011C13.4178 9.21434 13.4148 9.24414 13.4148 9.31263C13.4297 10.1733 13.1157 10.4205 12.2693 10.1822C12.1795 10.1584 12.1047 10.1316 12.1018 10.0274C12.1018 9.37515 11.6382 9.81593 11.381 9.74743C11.3989 9.78912 11.4109 9.85168 11.4438 9.86954C11.5784 9.944 11.8505 9.80104 11.8535 10.0482C11.8565 10.2954 11.6172 10.1703 11.4856 10.1792C11.2942 10.1792 11.0759 10.2478 11.0639 9.91124C11.0519 9.57471 11.1028 9.3156 11.5514 9.37815C11.8266 9.42579 12.1646 9.48238 12.1167 9.00886V8.99694ZM8.7938 8.8778H11.6053C11.7219 8.8778 11.8745 8.87782 11.8625 9.03863C11.8505 9.19945 11.686 9.16075 11.5634 9.16373C11.1058 9.16373 10.6452 9.16373 10.1846 9.16373C9.72399 9.16373 9.26634 9.16373 8.80574 9.16373C8.69807 9.16373 8.53656 9.21434 8.50665 9.03863C8.47674 8.86292 8.68015 8.88973 8.7938 8.88973V8.8778ZM8.99417 9.38411C9.33514 9.44367 9.81968 9.16373 9.90642 9.83381C9.92437 9.96782 10.3192 9.88741 10.6123 9.86656C10.5345 9.74744 10.5285 9.73255 10.5166 9.72064C10.3969 9.58662 10.0649 9.80699 10.0799 9.52109C10.0799 9.29475 10.3551 9.41091 10.5076 9.38709C10.7678 9.34837 10.8575 9.45857 10.8695 9.7266C10.8695 10.0661 10.8007 10.2388 10.4238 10.1882C10.2247 10.1753 10.0248 10.1753 9.82566 10.1882C9.6791 10.1882 9.52656 10.1703 9.55647 9.97675C9.59236 9.67894 9.39495 9.67894 9.17661 9.67894C8.95827 9.67894 8.78183 9.72063 8.82071 10.0065C8.82634 10.0272 8.82702 10.049 8.82268 10.07C8.81834 10.091 8.80908 10.1107 8.7957 10.1275C8.78232 10.1443 8.76516 10.1577 8.74561 10.1667C8.72605 10.1757 8.70467 10.18 8.68314 10.1792C8.53658 10.1792 8.53957 10.072 8.5306 9.97079C8.48274 9.63426 8.49169 9.30963 8.99417 9.396V9.38411ZM6.99924 9.00886C6.99924 8.93738 7.06503 8.88675 7.13681 8.89271C7.20859 8.89866 7.27438 8.97907 7.27438 9.07139C7.27438 9.33644 7.27438 9.60151 7.27438 9.86954H7.43591C7.54358 9.66107 7.46583 9.42283 7.49275 9.20245C7.49275 9.08034 7.44188 8.90463 7.65424 8.90463C7.86659 8.90463 7.77389 9.07736 7.78586 9.20245C7.81577 9.42878 7.72303 9.66999 7.88155 9.92909C8.09989 9.67595 7.96231 9.39899 8.0012 9.15777C8.0012 9.05949 8.00118 8.93141 8.12979 8.91652C8.31223 8.89865 8.28832 9.05056 8.2973 9.16373C8.2973 9.21436 8.2973 9.26499 8.2973 9.31562C8.31823 10.2091 8.04605 10.4205 7.16671 10.2091C7.07998 10.1852 6.99026 10.1733 6.99026 10.0661C6.99026 9.4228 6.54761 9.78615 6.2844 9.71766C6.26646 9.82487 6.28441 9.87848 6.36217 9.90528C6.49676 9.95591 6.75697 9.82783 6.73604 10.1078C6.73604 10.2537 6.53864 10.218 6.43694 10.2031C6.26646 10.1763 5.98828 10.343 5.96136 10.0006C5.93444 9.65808 5.88959 9.33644 6.42198 9.40494C6.68219 9.41983 7.04411 9.51214 6.99924 9.02075V9.00886ZM3.64043 8.8778H6.50274C6.61938 8.8778 6.76296 8.87783 6.74502 9.05056C6.72707 9.22329 6.59546 9.16373 6.50274 9.16373H3.64043C3.54173 9.16373 3.41607 9.1637 3.41907 9.02671C3.42206 8.88972 3.53575 8.88973 3.64043 8.88973V8.8778ZM3.8707 9.38709C4.20868 9.44963 4.70519 9.14586 4.78594 9.83083C4.80389 9.96186 5.20169 9.90826 5.4619 9.83083C5.44553 9.79379 5.42652 9.75797 5.40505 9.72362C5.28541 9.58067 4.95342 9.80104 4.9624 9.52407C4.97137 9.2471 5.23459 9.40495 5.38712 9.38411C5.64135 9.34837 5.78789 9.44367 5.74003 9.72064C5.71311 9.89039 5.86865 10.1673 5.51871 10.1792C5.21961 10.1792 4.9385 10.1792 4.65137 10.1792C4.51079 10.1792 4.41206 10.1286 4.43 9.97675C4.46589 9.67894 4.2775 9.67894 4.05318 9.67894C3.82886 9.67894 3.65237 9.70871 3.69125 10.0006C3.69125 10.0899 3.66734 10.1733 3.55967 10.1792C3.45199 10.1852 3.41012 10.078 3.40413 9.97377C3.37422 9.63426 3.36224 9.3007 3.8707 9.39898V9.38709ZM1.88176 9.01184C1.88156 8.99457 1.88514 8.97746 1.89224 8.96171C1.89934 8.94595 1.90978 8.93192 1.92287 8.92059C1.93596 8.90926 1.95138 8.9009 1.96803 8.89609C1.98469 8.89127 2.00218 8.89012 2.01933 8.89271C2.12102 8.89271 2.15092 8.97907 2.15989 9.07139C2.13846 9.37331 2.175 9.67653 2.26756 9.96483C2.36527 9.71799 2.40318 9.4517 2.37823 9.18754C2.37823 9.06544 2.3274 8.88973 2.54274 8.88973C2.70724 8.88973 2.66834 9.05948 2.67133 9.18754C2.66658 9.4172 2.68564 9.64675 2.72818 9.87252C2.9854 9.66108 2.85082 9.38409 2.8897 9.14286C2.8897 9.04458 2.88968 8.91654 3.0153 8.90165C3.19774 8.88378 3.17683 9.03268 3.1858 9.14882C3.1858 9.19945 3.1858 9.25008 3.1858 9.30071C3.20375 10.1941 2.93455 10.4056 2.05522 10.1941C1.96848 10.1703 1.87577 10.1584 1.87876 10.0512C1.87876 9.3841 1.41215 9.81892 1.17886 9.65215C1.15194 9.80999 1.17889 9.86059 1.24768 9.89037C1.38227 9.94696 1.64548 9.80402 1.62155 10.0929C1.62155 10.2388 1.42714 10.2031 1.32245 10.1882C1.14898 10.1584 0.873789 10.3282 0.84687 9.98569C0.819952 9.64321 0.772106 9.32157 1.30449 9.39007C1.5647 9.41985 1.92662 9.51513 1.88176 9.03863V9.01184Z" fill="#239F40"/>
<path d="M31.8779 9.84864C31.8937 9.86626 31.9131 9.88041 31.9347 9.89016C31.9564 9.8999 31.9798 9.90504 32.0035 9.90524V9.72656L31.8301 9.76524C31.8439 9.79418 31.8599 9.82206 31.8779 9.84864Z" fill="#239F40"/>
<path d="M31.9254 22.8095C31.9549 22.816 31.9855 22.816 32.0151 22.8095V22.6309L31.8506 22.6755C31.8655 22.7381 31.8775 22.7887 31.9254 22.8095Z" fill="#D90101"/>
<path d="M0.28113 22.6427C0.218321 22.5832 0.0987008 22.601 0 22.601V22.8214C0.107166 22.7971 0.21297 22.7673 0.31702 22.732C0.305056 22.7023 0.302067 22.6636 0.28113 22.6427Z" fill="#D90101"/>
<path d="M31.9553 23.1073C31.7638 23.1073 31.5545 23.1729 31.5276 22.8393C31.4977 22.4402 31.6113 22.2705 32.0031 22.3033V22.0888H29.1886C29.081 22.0888 28.9793 22.0501 28.9972 21.9161C29.0152 21.7821 29.1468 21.8059 29.2395 21.8059H32.0031V21.6093C31.8998 21.5974 31.7999 21.5649 31.7095 21.5138C31.6191 21.4626 31.5399 21.3938 31.4767 21.3115C31.4767 21.3115 31.3541 21.3115 31.3481 21.3443C31.2494 21.6927 30.9623 21.5438 30.7499 21.5558C30.3581 21.5766 29.9334 21.4694 29.5805 21.5855C29.2275 21.7017 29.0212 21.1597 28.5994 21.517C28.3721 21.7106 27.8398 21.6004 27.4539 21.5498C27.0681 21.4992 26.6374 21.8029 26.3592 21.3175C26.3263 21.2639 26.2216 21.3175 26.2037 21.3771C26.1349 21.6749 25.9046 21.5528 25.7431 21.5558C25.2496 21.5558 24.7082 21.6868 24.2746 21.526C23.8409 21.3652 23.458 21.6183 23.0782 21.5528C22.4621 21.4545 21.7801 21.8506 21.2208 21.3085C21.1729 21.2639 21.1311 21.3681 21.0862 21.4128C20.9068 21.5915 18.9148 21.6719 18.8041 21.4694C18.505 20.9333 18.5648 21.6093 18.3764 21.5676C17.6496 21.4098 16.854 21.8357 16.1572 21.3264C16.0704 21.2639 15.9986 21.3056 15.9777 21.4098C15.9746 21.4356 15.9657 21.4604 15.9518 21.4824C15.9379 21.5044 15.9193 21.5231 15.8972 21.5371C15.8752 21.551 15.8504 21.5599 15.8244 21.5632C15.7985 21.5664 15.7722 21.5639 15.7474 21.5558C15.0356 21.4128 14.2519 21.8714 13.582 21.3145C13.5604 21.3087 13.5377 21.3081 13.5159 21.3128C13.494 21.3175 13.4736 21.3273 13.4563 21.3413C13.3397 21.7106 13.0316 21.5409 12.8103 21.5528C12.3527 21.5766 11.8323 21.6928 11.4464 21.526C10.9978 21.3324 10.6628 21.6242 10.283 21.5558C9.68478 21.4456 8.9879 21.8535 8.4256 21.3085C8.37775 21.2609 8.31792 21.3502 8.29997 21.4217C8.26109 21.5825 8.1265 21.5587 8.00088 21.5587C7.42064 21.5587 6.84038 21.5855 6.26313 21.5587C6.01488 21.5587 5.77561 21.5111 5.52437 21.5141C4.81253 21.5141 4.02891 21.8744 3.35595 21.3354C3.32903 21.3115 3.23334 21.3354 3.22736 21.3354C3.05687 21.7404 2.68599 21.5885 2.43775 21.5498C1.88742 21.4634 1.2623 21.8684 0.780758 21.3175C0.780758 21.3175 0.658113 21.3175 0.652132 21.3502C0.553431 21.6987 0.266301 21.5498 0.0539447 21.5617H-0.00585938V21.8029H1.41783C1.51354 21.8029 1.63915 21.8029 1.63616 21.937C1.63317 22.071 1.52251 22.0858 1.41783 22.0888H0.000128335V22.2973C0.107725 22.303 0.21554 22.303 0.323136 22.2973C0.62223 22.2437 0.643166 22.4522 0.62223 22.6726C0.601293 22.8929 0.688056 23.1073 0.350081 23.0954C0.233434 23.0954 0.113778 23.0954 -0.00585938 23.0954V31.9882H31.9971V23.0954L31.9553 23.1073ZM3.18548 22.1931C3.18692 22.2099 3.18692 22.2268 3.18548 22.2437C3.15856 23.2622 3.37092 23.0895 2.2882 23.1103C2.06388 23.1103 1.90835 23.1282 1.83956 22.8125C1.7588 22.4164 1.40287 22.6755 1.11873 22.6487C1.1636 22.7351 1.17558 22.7946 1.20848 22.8155C1.34008 22.8929 1.61824 22.7232 1.62123 22.9674C1.62422 23.2116 1.36398 23.0984 1.21443 23.1193C0.987118 23.152 0.84059 23.1193 0.831617 22.8215C0.831617 22.4641 0.882441 22.2794 1.29519 22.3301C1.57335 22.3628 1.94123 22.4462 1.89338 21.934C1.89338 21.8655 1.96815 21.8297 2.04592 21.8387C2.12368 21.8476 2.16557 21.934 2.17155 22.0203C2.1538 22.3203 2.18 22.6213 2.24932 22.9138C2.43775 22.6904 2.35399 22.5266 2.39288 22.3866C2.43176 22.2467 2.23137 21.8565 2.5514 21.8536C2.79965 21.8536 2.6471 22.1841 2.68299 22.3628C2.71888 22.5415 2.64411 22.6904 2.79964 22.8989C2.95816 22.6368 2.87141 22.4015 2.90431 22.1871C2.92525 22.0591 2.81459 21.8267 3.05985 21.8387C3.3051 21.8506 3.15258 22.062 3.18548 22.1931ZM3.41875 21.8953C3.43968 21.7553 3.57429 21.791 3.66402 21.791H6.50242C6.59514 21.791 6.72974 21.7612 6.74171 21.9072C6.75367 22.0531 6.61307 22.0769 6.49343 22.0769H3.64606C3.5354 22.0888 3.39482 22.0858 3.41875 21.9101V21.8953ZM5.48849 23.0865H4.67197C4.53737 23.0865 4.41473 23.0508 4.43268 22.8959C4.47156 22.5445 4.24424 22.5981 4.01693 22.5742C3.78962 22.5504 3.66401 22.6279 3.69093 22.8721C3.69093 22.9793 3.66104 23.0805 3.52046 23.0567C3.37989 23.0329 3.41577 22.9465 3.40082 22.8632C3.31408 22.3747 3.4008 22.2675 3.90926 22.2675C4.09769 22.2675 4.28313 22.2675 4.47156 22.2675C4.57026 22.2675 4.70486 22.2675 4.70786 22.3926C4.70786 23.0537 5.15052 22.6904 5.50046 22.7589C5.47285 22.7063 5.44186 22.6556 5.40772 22.607C5.2851 22.47 4.94712 22.6696 4.96208 22.4045C4.97703 22.1395 5.26118 22.3003 5.42269 22.2675C5.65898 22.2229 5.78159 22.3301 5.73971 22.5653C5.7098 22.8095 5.87133 23.1044 5.48849 23.1103V23.0865ZM7.20827 23.0865C7.10359 23.0686 6.99592 23.0567 6.98994 22.9287C6.94209 22.2467 6.53829 22.6904 6.18835 22.5713C6.28705 22.7261 6.29904 22.7619 6.32297 22.7768C6.45457 22.8572 6.72974 22.6874 6.74171 22.9257C6.75367 23.1639 6.48745 23.0657 6.34089 23.0835C6.11657 23.1133 5.95807 23.0835 5.9491 22.7857C5.94013 22.4879 5.985 22.2407 6.40672 22.2884C6.6789 22.3211 7.06174 22.4253 7.00491 21.9012C7.00491 21.8327 7.07669 21.791 7.15146 21.797C7.22624 21.8029 7.27707 21.8893 7.28604 21.9786C7.2642 22.2869 7.29248 22.5966 7.36979 22.8959C7.57318 22.5981 7.46848 22.336 7.50437 22.1097C7.52232 21.9906 7.44157 21.794 7.65991 21.8119C7.87824 21.8297 7.7885 22.0144 7.79448 22.1335C7.79069 22.3598 7.81382 22.5857 7.86331 22.8066C8.09959 22.5683 7.97696 22.2794 8.01285 22.0203C8.01285 21.9191 8.01282 21.8029 8.16835 21.8059C8.32388 21.8089 8.30297 21.928 8.30895 22.0293C8.30895 22.0799 8.30895 22.1305 8.30895 22.1812C8.3269 23.1461 8.15939 23.286 7.20827 23.1103V23.0865ZM8.77552 21.7821H11.6229C11.7156 21.7821 11.8502 21.7493 11.8652 21.8923C11.8801 22.0352 11.7425 22.065 11.6229 22.068H8.77552C8.65588 22.068 8.51533 22.068 8.53627 21.8923C8.5572 21.7166 8.6828 21.8059 8.77552 21.8059V21.7821ZM10.6329 23.0806C10.3338 23.1014 10.0557 23.0806 9.76554 23.0806C9.62496 23.0806 9.52626 23.021 9.54421 22.8691C9.58309 22.5504 9.37671 22.5713 9.16136 22.5713C8.94601 22.5713 8.77252 22.616 8.80842 22.8989C8.81293 22.92 8.81263 22.9418 8.80747 22.9628C8.8023 22.9837 8.79243 23.0032 8.77862 23.0198C8.76481 23.0365 8.74739 23.0497 8.72769 23.0587C8.70799 23.0677 8.68651 23.0721 8.66486 23.0716C8.56316 23.0716 8.53924 22.9882 8.5183 22.8989C8.41063 22.4432 8.51829 22.2884 8.99385 22.2854H9.60701C9.65595 22.2769 9.7063 22.2868 9.7483 22.3133C9.7903 22.3397 9.82097 22.3807 9.83432 22.4283C10.0018 22.8721 10.0228 22.8751 10.5492 22.6964C10.5492 22.6666 10.5312 22.6279 10.5103 22.61C10.3847 22.4968 10.0556 22.6934 10.0796 22.4015C10.0975 22.1752 10.3577 22.3092 10.5103 22.2854C10.7107 22.2586 10.9051 22.2854 10.8542 22.5624C10.8213 22.7798 11.0068 23.0805 10.6329 23.1044V23.0806ZM12.3317 23.0806C12.2271 23.0627 12.1164 23.0567 12.1074 22.9287C12.0596 22.2735 11.6618 22.6636 11.3238 22.5772C11.3543 22.6442 11.3914 22.7081 11.4345 22.7678C11.5571 22.875 11.8741 22.6487 11.8532 22.9614C11.8382 23.158 11.6019 23.0657 11.4614 23.0776C11.243 23.1014 11.0696 23.0776 11.0666 22.7798C11.0636 22.4819 11.0845 22.2258 11.5182 22.2764C11.7814 22.3062 12.1732 22.4254 12.1164 21.8953C12.1164 21.8238 12.1852 21.7821 12.26 21.7851C12.3347 21.7881 12.3886 21.8684 12.3975 21.9578C12.3747 22.2864 12.4122 22.6164 12.5082 22.9316C12.6029 22.6315 12.6395 22.3162 12.6159 22.0025C12.6159 21.8982 12.6159 21.7851 12.7654 21.7851C12.915 21.7851 12.903 21.9042 12.912 22.0055C12.8871 22.2917 12.9134 22.5801 12.9897 22.8572C13.217 22.5594 13.0885 22.2616 13.1273 22.0055C13.1273 21.9042 13.1273 21.7881 13.2739 21.7851C13.4205 21.7821 13.4175 21.9012 13.4204 22.0025C13.4204 22.0531 13.4204 22.1037 13.4204 22.1544C13.4444 23.1401 13.2829 23.2771 12.3317 23.1103V23.0806ZM15.556 23.0806C15.3567 23.0692 15.157 23.0692 14.9578 23.0806C14.8142 23.0806 14.6587 23.0805 14.6766 22.881C14.7065 22.5832 14.5301 22.5832 14.3028 22.5832C14.0754 22.5832 13.896 22.6011 13.9379 22.9019C13.9438 22.9224 13.945 22.9441 13.9412 22.9651C13.9374 22.9862 13.9289 23.0061 13.9162 23.0234C13.9034 23.0407 13.8869 23.0548 13.8679 23.0647C13.8488 23.0746 13.8278 23.08 13.8063 23.0806C13.6627 23.0806 13.6567 22.9733 13.6478 22.8691C13.6238 22.5326 13.5999 22.2109 14.1173 22.2913C14.3165 22.3057 14.5164 22.3057 14.7155 22.2913C14.8172 22.2913 14.9428 22.2913 14.9428 22.4283C14.9428 23.1401 15.4184 22.6338 15.6188 22.8304C15.6188 22.7738 15.6517 22.7172 15.6696 22.6636C15.6594 22.6492 15.6484 22.6352 15.6367 22.6219C15.5111 22.4998 15.1731 22.6934 15.2 22.4194C15.227 22.1454 15.4992 22.3211 15.6696 22.2913C15.9687 22.2348 15.9687 22.4402 15.9687 22.6606C16.0106 23.0359 15.894 23.152 15.556 23.1163V23.0806ZM15.3167 22.0561H13.893C13.7734 22.0561 13.6328 22.0561 13.6508 21.8804C13.6687 21.7046 13.8003 21.7702 13.89 21.7702H16.7374C16.8301 21.7702 16.9647 21.7374 16.9797 21.8804C16.9946 22.0233 16.86 22.0531 16.7404 22.0561H15.3167ZM18.5319 22.1573C18.5334 22.1742 18.5334 22.1911 18.5319 22.2079C18.508 23.2265 18.7174 23.0537 17.6347 23.0746C17.4103 23.0746 17.2518 23.0925 17.183 22.7768C17.1023 22.3807 16.7464 22.6398 16.4652 22.613C16.5101 22.6993 16.519 22.7589 16.5519 22.7798C16.6835 22.8572 16.9617 22.6874 16.9677 22.9316C16.9737 23.1759 16.7075 23.0627 16.5609 23.0835C16.3306 23.1163 16.1871 23.0835 16.1751 22.7857C16.1751 22.4283 16.2259 22.2437 16.6387 22.2943C16.9169 22.3271 17.2847 22.4105 17.2369 21.8982C17.2369 21.8297 17.3117 21.794 17.3864 21.8029C17.4612 21.8119 17.506 21.8982 17.515 21.9846C17.4945 22.2844 17.5197 22.5857 17.5898 22.878C17.7812 22.6547 17.6975 22.4909 17.7364 22.3509C17.7753 22.2109 17.5719 21.8208 17.8919 21.8178C18.1431 21.8178 17.9816 22.1484 18.0265 22.3271C18.0714 22.5058 17.9577 22.6606 18.1611 22.8304C18.2987 22.6011 18.2119 22.3658 18.2448 22.1514C18.2658 22.0233 18.1551 21.791 18.4004 21.8029C18.6456 21.8148 18.499 22.062 18.5319 22.1931V22.1573ZM24.122 21.7702H26.9724C27.0621 21.7702 27.1967 21.7374 27.2116 21.8804C27.2266 22.0233 27.092 22.0531 26.9724 22.0561H24.125C24.0054 22.0561 23.8648 22.0561 23.8827 21.8804C23.9007 21.7046 24.0323 21.8059 24.122 21.8059V21.7702ZM18.9896 21.7702H20.4641C20.9217 21.7702 21.3793 21.7702 21.8369 21.7702C21.9416 21.7702 22.1031 21.7255 22.1001 21.9131C22.1001 22.0442 21.9775 22.0561 21.8728 22.0561H18.9746C18.8699 22.0561 18.7563 22.0382 18.7623 21.9012C18.7682 21.7642 18.8968 21.8059 18.9896 21.8059V21.7702ZM20.6585 23.0806C20.4593 23.0677 20.2595 23.0677 20.0603 23.0806C19.9108 23.0806 19.7612 23.0567 19.7882 22.8691C19.8241 22.5474 19.6177 22.5713 19.4053 22.5713C19.193 22.5713 19.0165 22.619 19.0524 22.9019C19.0564 22.923 19.0557 22.9448 19.0501 22.9656C19.0445 22.9864 19.0343 23.0056 19.0202 23.022C19.0061 23.0383 18.9885 23.0512 18.9687 23.0598C18.9489 23.0684 18.9274 23.0724 18.9058 23.0716C18.8041 23.0716 18.7832 22.9853 18.7623 22.8989C18.6546 22.4403 18.7622 22.2884 19.2408 22.2854C19.4262 22.2854 19.6147 22.2854 19.8001 22.2854C19.8988 22.2854 20.0005 22.2854 20.0663 22.3807C20.3205 22.8155 20.3235 22.8125 20.814 22.741C20.7811 22.6666 20.7752 22.6279 20.7542 22.61C20.6256 22.4968 20.2906 22.6904 20.3265 22.4015C20.3564 22.1692 20.6256 22.3152 20.805 22.2854C21.0683 22.2377 21.1041 22.3956 21.1041 22.6159C21.1161 22.9763 21.0443 23.1639 20.6585 23.1163V23.0806ZM23.4042 23.0806H22.5877C22.486 23.0806 22.3544 23.0805 22.3484 22.9525C22.3215 22.3062 21.9117 22.6547 21.5319 22.607L21.6485 22.75C21.7741 22.881 22.0971 22.6606 22.0882 22.9406C22.0882 23.1729 21.819 23.0567 21.6664 23.0806C21.4212 23.1133 21.3135 23.0329 21.2956 22.753C21.2716 22.3688 21.3913 22.2407 21.7771 22.2735C22.0224 22.2943 22.4022 22.4283 22.3394 21.9161C22.3394 21.8178 22.4112 21.7732 22.5099 21.7881C22.6086 21.8029 22.6176 21.9012 22.6236 21.9816C22.6016 22.2624 22.6248 22.545 22.6923 22.8185C22.9645 22.5892 22.7881 22.3062 22.8419 22.0739C22.8628 21.9667 22.7941 21.8029 22.9675 21.791C23.1918 21.7731 23.123 21.9608 23.135 22.0888C23.1109 22.369 23.1508 22.6511 23.2516 22.9138C23.3449 22.6134 23.3794 22.2979 23.3533 21.9846C23.3533 21.8982 23.3533 21.8089 23.476 21.797C23.5986 21.785 23.6464 21.8744 23.6464 21.9846C23.6464 22.2824 23.6464 22.5594 23.6464 22.8483C23.6524 23.0359 23.5747 23.1133 23.4042 23.1103V23.0806ZM25.9106 23.0806C25.6564 23.0806 25.3991 23.0806 25.1449 23.0806C25.0163 23.0806 24.8817 23.0597 24.8967 22.8989C24.9206 22.6189 24.792 22.5683 24.5408 22.5653C24.2895 22.5624 24.128 22.61 24.1489 22.9167C24.1489 23.0656 24.0113 23.1461 23.9156 23.0121C23.8308 22.8246 23.8181 22.6127 23.8797 22.4164C23.9037 22.2139 24.0891 22.2884 24.2087 22.2824C24.448 22.2824 24.6873 22.2824 24.9236 22.2824C25.0223 22.2824 25.1659 22.2645 25.1659 22.3986C25.1659 23.0537 25.6025 22.7261 25.9345 22.7678C25.9184 22.721 25.8995 22.6753 25.8777 22.6309C25.77 22.4641 25.3752 22.7113 25.435 22.3807C25.4739 22.1722 25.758 22.3062 25.9285 22.2824C26.2695 22.2347 26.2007 22.4909 26.2067 22.6844C26.2127 22.878 26.2426 23.1342 25.9106 23.1133V23.0806ZM28.764 22.1603C28.7654 22.1772 28.7654 22.1941 28.764 22.2109C28.737 23.2294 28.9494 23.0567 27.8667 23.0776C27.6424 23.0776 27.4838 23.0954 27.415 22.7798C27.3343 22.3837 26.9784 22.6428 26.6972 22.6159C26.7421 22.7023 26.7511 22.7619 26.784 22.7827C26.9156 22.8602 27.1937 22.6904 27.1967 22.9346C27.1997 23.1788 26.9395 23.0657 26.7929 23.0865C26.5626 23.1193 26.4161 23.0865 26.4071 22.7887C26.4071 22.4313 26.4579 22.2467 26.8707 22.2973C27.1488 22.3301 27.5167 22.4134 27.4689 21.9012C27.4689 21.8327 27.5436 21.797 27.6184 21.8059C27.6932 21.8148 27.7381 21.9012 27.747 21.9876C27.7265 22.2874 27.7517 22.5887 27.8218 22.881C28.0132 22.6576 27.9295 22.4938 27.9684 22.3539C28.0072 22.2139 27.8039 21.8238 28.1239 21.8208C28.3721 21.8208 28.2136 22.1514 28.2585 22.3301C28.3033 22.5087 28.1897 22.6636 28.393 22.8333C28.5306 22.604 28.4439 22.3688 28.4768 22.1544C28.4977 22.0263 28.3871 21.794 28.6323 21.8059C28.8776 21.8178 28.7311 22.062 28.764 22.1931V22.1603ZM31.07 23.0776H30.2534C30.1218 23.0776 29.9932 23.0448 30.0112 22.8899C30.0441 22.5921 29.8885 22.5713 29.6493 22.5624C29.41 22.5534 29.2365 22.6249 29.2664 22.9197C29.2664 23.015 29.2066 23.0746 29.1019 23.0597C28.9972 23.0448 29.0062 22.9823 28.9853 22.9167C28.8567 22.4879 28.9853 22.2824 29.4339 22.2794C29.6403 22.2794 29.8437 22.2794 30.0321 22.2794C30.1308 22.2794 30.2684 22.2794 30.2714 22.4015C30.2714 23.0537 30.708 22.6993 31.055 22.7649C30.9892 22.6487 30.9832 22.6338 30.9742 22.6219C30.8606 22.467 30.4807 22.7083 30.5346 22.3718C30.5675 22.1871 30.8337 22.3032 30.9862 22.2794C31.2225 22.2407 31.3481 22.336 31.3062 22.5772C31.2883 22.8065 31.4528 23.1044 31.07 23.1103V23.0776Z" fill="#D90101"/>
<path d="M18.7657 13.9496C18.5691 13.5215 18.286 13.1383 17.9342 12.8238C17.9118 12.8482 17.8878 12.871 17.8625 12.8923C19.2413 15.4952 17.9133 18.11 16.5853 18.8486C16.5853 18.6639 16.5853 18.5002 16.5853 18.3393C16.6122 16.6239 16.6212 14.9115 16.6751 13.1991C16.7099 13.0069 16.6783 12.8087 16.5854 12.6367C16.4925 12.4647 16.3438 12.3291 16.1636 12.2521C17.0938 12.1449 17.2553 12.0108 17.1955 11.5135C16.4522 11.7783 15.6374 11.7635 14.9044 11.4718C14.9044 12.0913 15.3471 12.2044 15.9064 12.2789C15.368 12.4963 15.4877 12.9192 15.4937 13.3004C15.5176 15.0128 15.5475 16.7252 15.5654 18.4406C15.5654 18.5746 15.6551 18.7384 15.4637 18.8635C15.3381 18.7474 15.2095 18.6401 15.0898 18.521C14.7556 18.1904 14.4742 17.8108 14.2554 17.3953C13.888 16.6993 13.6993 15.9237 13.7061 15.1375C13.7129 14.3513 13.915 13.579 14.2943 12.8894C14.268 12.8681 14.243 12.8452 14.2195 12.8209C13.1009 13.9109 12.7928 15.2451 13.077 16.7282C13.1996 17.3341 13.4516 17.9067 13.8159 18.4072C14.1803 18.9077 14.6484 19.3243 15.1886 19.6289C14.6143 19.9267 14.0341 19.8731 13.394 19.9267C13.9323 20.1657 14.5266 20.2512 15.1108 20.1739C15.4099 20.1501 15.6761 20.1739 15.8466 20.4717C15.9841 20.7159 16.1457 20.7159 16.2892 20.4717C16.3634 20.3491 16.4755 20.2538 16.6088 20.2001C16.742 20.1464 16.889 20.1372 17.028 20.1739C17.625 20.2538 18.2324 20.1607 18.7777 19.9058C18.1107 19.9058 17.5394 19.9058 16.9562 19.6408C17.5615 19.2671 18.0812 18.7709 18.4816 18.1845C18.9543 17.4525 19.1912 16.5942 19.1605 15.7245C19.1528 15.3553 19.1006 14.9884 19.005 14.6316C18.9442 14.3981 18.8641 14.17 18.7657 13.9496Z" fill="#DA0808"/>
<path d="M18.7651 13.9496C18.5684 13.5215 18.2854 13.1383 17.9336 12.8239C18.2854 13.1383 18.5684 13.5215 18.7651 13.9496Z" fill="#DA0808"/>
<path d="M14.3002 12.8923C13.9209 13.5819 13.7189 14.3542 13.7121 15.1404C13.7053 15.9266 13.894 16.7023 14.2614 17.3982C13.894 16.7023 13.7053 15.9266 13.7121 15.1404C13.7189 14.3542 13.9209 13.5819 14.3002 12.8923Z" fill="#DA0808"/>
<path d="M19.1751 15.7215C19.1674 15.3523 19.1151 14.9853 19.0195 14.6285C19.1151 14.9853 19.1674 15.3523 19.1751 15.7215Z" fill="#DA0808"/>
<path d="M18.3711 12.4635C20.037 14.0211 20.716 16.2934 19.1936 18.8278C20.1178 18.6342 20.9881 16.886 20.8565 15.5518C20.689 14.0091 19.4478 12.4665 18.3711 12.4635Z" fill="#DA0808"/>
<path d="M13.7711 12.4575C12.79 12.5975 11.7372 13.6875 11.4351 14.8966C11.0224 16.5465 11.5787 17.8747 12.9515 18.935C11.6445 16.5822 11.8359 14.4201 13.7711 12.4575Z" fill="#DA0808"/>
<path d="M14.3452 12.7851C14.3365 12.7704 14.3241 12.7581 14.3093 12.7494C14.3093 12.7494 14.2525 12.797 14.2256 12.8238C14.2491 12.8482 14.274 12.8711 14.3004 12.8923C14.3243 12.8566 14.3602 12.8209 14.3452 12.7851Z" fill="#DA0808"/>
<path d="M14.2998 12.8924C14.3237 12.8566 14.3596 12.8209 14.3447 12.7852C14.3596 12.8209 14.3237 12.8566 14.2998 12.8924Z" fill="#DA0808"/>
<path d="M14.3004 12.8923C14.274 12.8711 14.2491 12.8482 14.2256 12.8239C14.2491 12.8482 14.274 12.8711 14.3004 12.8923Z" fill="#DA0808"/>
<path d="M17.8686 12.7494C17.7909 12.797 17.8447 12.8447 17.8686 12.8923C17.894 12.871 17.918 12.8481 17.9404 12.8238C17.9135 12.797 17.8686 12.7434 17.8686 12.7494Z" fill="#DA0808"/>
<path d="M1.3073 9.39011C0.774916 9.32459 0.822762 9.6641 0.849681 9.98574C0.876599 10.3074 1.14876 10.1584 1.32523 10.1882C1.42692 10.2031 1.62432 10.2389 1.62432 10.0929C1.64825 9.79513 1.38505 9.947 1.25046 9.89042C1.17269 9.86064 1.15475 9.81003 1.18167 9.65219C1.41496 9.81896 1.89055 9.38415 1.88157 10.0512C1.88157 10.1585 1.97129 10.1704 2.05803 10.1942C2.93736 10.4116 3.20656 10.1942 3.18861 9.30075C3.18861 9.25013 3.18861 9.19949 3.18861 9.14887C3.18861 9.03272 3.18859 8.88383 3.01811 8.90169C2.88352 8.90169 2.90747 9.04463 2.89251 9.1429C2.85363 9.38413 2.98821 9.66112 2.73099 9.87257C2.68845 9.6468 2.66939 9.41724 2.67414 9.18758C2.67414 9.07441 2.71005 8.91062 2.54555 8.88977C2.33021 8.88977 2.39599 9.06846 2.38104 9.18758C2.40599 9.45174 2.36808 9.71803 2.27037 9.96487C2.17781 9.67657 2.14128 9.37335 2.16271 9.07143C2.16271 8.97911 2.12383 8.89871 2.02214 8.89275C2.00499 8.89016 1.9875 8.89132 1.97084 8.89613C1.95419 8.90095 1.93877 8.9093 1.92568 8.92064C1.91259 8.93197 1.90215 8.946 1.89505 8.96175C1.88795 8.97751 1.88437 8.99462 1.88457 9.01188C1.92644 9.51519 1.56452 9.41989 1.3073 9.39011Z" fill="#DAEEDF"/>
<path d="M6.42507 9.39006C5.89269 9.32454 5.93754 9.66107 5.96446 9.98569C5.99138 10.3103 6.26358 10.1614 6.44004 10.1882C6.54173 10.2031 6.73913 10.2388 6.73913 10.0929C6.76007 9.81295 6.49986 9.94099 6.36527 9.89036C6.28451 9.86356 6.26956 9.80995 6.2875 9.70274C6.5507 9.77124 6.99336 9.40494 6.99336 10.0512C6.99336 10.1584 7.08307 10.1703 7.16981 10.1941C8.04915 10.4115 8.32133 10.1941 8.30039 9.3007C8.30039 9.25007 8.30039 9.19944 8.30039 9.14881C8.30039 9.03565 8.30037 8.88377 8.13288 8.90164C7.99829 8.90164 8.01925 9.04457 8.00429 9.14285C7.96541 9.38408 8.10299 9.66104 7.88465 9.91418C7.72613 9.65508 7.81886 9.41387 7.78895 9.18753C7.78895 9.07734 7.82483 8.91057 7.65733 8.88972C7.48984 8.86887 7.51077 9.06841 7.49581 9.18753C7.46889 9.40791 7.54668 9.64616 7.439 9.85463H7.27748C7.27748 9.5866 7.27748 9.32156 7.27748 9.05651C7.27748 8.96419 7.2416 8.88375 7.13991 8.87779C7.03822 8.87184 6.99337 8.92247 7.00234 8.99395C7.04421 9.51214 6.68229 9.41984 6.42507 9.39006Z" fill="#DAEEDF"/>
<path d="M31.878 9.84859C31.86 9.82202 31.844 9.79414 31.8302 9.7652L32.0036 9.72652V9.39293C31.924 9.38839 31.8441 9.38839 31.7644 9.39293C31.3965 9.43165 31.5729 9.72354 31.543 9.91116C31.4952 10.209 31.7016 10.2089 31.896 10.1821C31.9318 10.1792 31.9678 10.1792 32.0036 10.1821V9.88433C31.9814 9.88689 31.9588 9.88505 31.9373 9.87891C31.9157 9.87278 31.8956 9.86248 31.878 9.84859Z" fill="#DAEEDF"/>
<path d="M11.5549 9.39C11.1062 9.33044 11.0584 9.55973 11.0673 9.92306C11.0763 10.2864 11.2977 10.203 11.4891 10.1911C11.6207 10.1911 11.8599 10.2834 11.857 10.0601C11.854 9.83672 11.5818 9.95582 11.4472 9.88137C11.4143 9.8635 11.4023 9.80098 11.3844 9.75929C11.6416 9.82778 12.0932 9.387 12.1052 10.0392C12.1052 10.1434 12.183 10.1703 12.2727 10.1941C13.1042 10.4323 13.4332 10.1941 13.4182 9.32446C13.4182 9.25596 13.4182 9.18748 13.4182 9.12196C13.4182 9.05645 13.4182 8.90159 13.2657 8.90755C13.1131 8.9135 13.1341 9.03558 13.1251 9.13683C13.1012 9.38402 13.1879 9.65205 12.9815 9.88435C12.9243 9.64752 12.8992 9.40415 12.9068 9.16068C12.9068 9.04751 12.9247 8.8956 12.7423 8.91049C12.6077 8.91049 12.6226 9.0475 12.6137 9.14876C12.6393 9.44219 12.6016 9.7377 12.503 10.0154C12.4107 9.71887 12.3741 9.40786 12.3953 9.09812C12.3953 9.00877 12.3744 8.92542 12.2697 8.90755C12.165 8.88968 12.1142 8.9403 12.1202 9.00879C12.165 9.48232 11.827 9.42574 11.5549 9.39Z" fill="#DAEEDF"/>
<path d="M16.5074 9.39005C16.2083 9.39005 16.1724 9.54787 16.1903 9.77718C16.2083 10.0065 16.1156 10.2269 16.4595 10.1941C16.633 10.1763 16.9171 10.3014 16.959 10.0988C17.0278 9.76529 16.627 10.0124 16.5223 9.84269C16.5223 9.84269 16.5223 9.81292 16.4775 9.70273C16.7765 9.76825 17.2132 9.40493 17.2222 10.0482C17.2222 10.1524 17.309 10.1733 17.3957 10.1941C18.2391 10.4205 18.5532 10.1941 18.5292 9.31854C18.5292 9.17261 18.6309 8.9165 18.3707 8.91948C18.1584 8.91948 18.263 9.16071 18.2391 9.29771C18.2032 9.49129 18.3139 9.71764 18.0986 9.94696C18.025 9.68867 17.9987 9.41934 18.0208 9.15178C18.0208 9.05351 18.0208 8.92543 17.8952 8.91054C17.7695 8.89565 17.7456 9.0416 17.7247 9.15476C17.6828 9.39599 17.8294 9.67296 17.5811 9.93503C17.5118 9.65876 17.4876 9.37319 17.5093 9.08925C17.5093 8.99991 17.4764 8.91653 17.3747 8.90759C17.3329 8.90759 17.2521 8.94927 17.2521 8.97012C17.27 9.56873 16.8184 9.39303 16.5074 9.39005Z" fill="#DAEEDF"/>
<path d="M21.9835 9.39889C21.8489 9.39889 21.7113 9.39889 21.5768 9.39889C21.2358 9.39889 21.3225 9.63716 21.3076 9.82776C21.2926 10.0184 21.3076 10.2447 21.6067 10.2C21.7652 10.1762 22.0284 10.2864 22.0613 10.1047C22.1211 9.7652 21.7293 10.0124 21.6246 9.84561C21.603 9.80043 21.585 9.75364 21.5708 9.70565C21.8699 9.76819 22.3065 9.40784 22.3215 10.0481C22.3215 10.1494 22.4052 10.1732 22.492 10.197C23.3264 10.4264 23.6495 10.1792 23.6345 9.32444C23.6375 9.27286 23.6375 9.22115 23.6345 9.16957C23.6345 9.0564 23.6555 8.90154 23.479 8.91346C23.3025 8.92537 23.3564 9.08323 23.3414 9.19342C23.3115 9.42571 23.4132 9.67884 23.1889 9.88731C23.1388 9.64743 23.1167 9.40261 23.1231 9.15768C23.1231 9.04452 23.138 8.89559 22.9556 8.91346C22.821 8.91346 22.8449 9.05642 22.8299 9.1547C22.7881 9.39593 22.9287 9.6729 22.6924 9.94093C22.6157 9.68326 22.5892 9.41333 22.6146 9.14576C22.6146 9.04748 22.6146 8.92537 22.48 8.91048C22.3454 8.89559 22.3125 9.01175 22.3215 9.11599C22.3544 9.39295 22.1929 9.41081 21.9835 9.39889Z" fill="#DAEEDF"/>
<path d="M26.8141 9.38714C26.4253 9.36034 26.4223 9.57177 26.4163 9.85469C26.4103 10.1376 26.509 10.2389 26.7692 10.1942C26.9218 10.1674 27.179 10.3044 27.1999 10.0751C27.2238 9.77726 26.9008 9.98871 26.7692 9.85767L26.7034 9.78024C27.2298 9.63431 27.2328 9.63133 27.4571 10.0781C27.505 10.1734 27.5738 10.1793 27.6545 10.1972C28.5847 10.3848 28.7911 10.218 28.7642 9.28884C28.7642 9.25608 28.7642 9.22035 28.7642 9.18759C28.7642 9.07442 28.7881 8.91657 28.6236 8.91061C28.4591 8.90465 28.48 9.05654 28.468 9.17269C28.494 9.45417 28.4572 9.73789 28.3604 10.0036C28.261 9.71682 28.2243 9.41221 28.2527 9.11016C28.2527 9.00592 28.2527 8.8868 28.1002 8.89276C27.9476 8.89872 27.9656 9.01487 27.9566 9.1191C27.9865 9.41358 27.9486 9.71093 27.8459 9.98869C27.7518 9.70075 27.7163 9.39703 27.7413 9.09525C27.7413 9.01187 27.7413 8.92254 27.6276 8.89276C27.514 8.86298 27.4661 8.91659 27.4691 8.97616C27.508 9.55094 27.0952 9.40799 26.8141 9.38714Z" fill="#DAEEDF"/>
<path d="M0.63707 9.73852C0.63707 9.46453 0.529405 9.36327 0.272185 9.399C0.194421 9.399 0.089728 9.399 0 9.399V9.69682C0.101692 9.69682 0.22432 9.67002 0.299093 9.74448C0.299093 9.74448 0.299082 9.77128 0.361891 9.85169C0.247108 9.8838 0.130186 9.90768 0.0119754 9.92316V10.1972H0.206357C0.574242 10.2508 0.649034 10.075 0.63707 9.73852Z" fill="#DAEEDF"/>
<path d="M3.55993 10.1822C3.6676 10.1822 3.70348 10.0928 3.69151 10.0035C3.65263 9.70569 3.81417 9.6789 4.05344 9.68187C4.29272 9.68485 4.46616 9.68187 4.43027 9.97969C4.41232 10.1316 4.51105 10.1852 4.65163 10.1822C4.95072 10.1822 5.22885 10.1822 5.51897 10.1822C5.86891 10.1822 5.71338 9.88439 5.7403 9.72357C5.78815 9.44661 5.64162 9.35131 5.38739 9.38704C5.23485 9.40789 4.97163 9.29471 4.96266 9.52701C4.95369 9.7593 5.28568 9.5836 5.40531 9.72655C5.42678 9.76091 5.44579 9.79673 5.46216 9.83376C5.20195 9.90821 4.80415 9.96182 4.78621 9.83376C4.70545 9.14879 4.20894 9.45256 3.87096 9.39002C3.3625 9.29175 3.37449 9.62826 3.4044 9.96776C3.41038 10.0809 3.41337 10.1911 3.55993 10.1822Z" fill="#DAEEDF"/>
<path d="M8.67122 10.1822C8.69274 10.183 8.71413 10.1787 8.73369 10.1697C8.75324 10.1607 8.77043 10.1472 8.78381 10.1304C8.7972 10.1136 8.80642 10.0939 8.81076 10.0729C8.8151 10.0519 8.81442 10.0302 8.80879 10.0095C8.76991 9.71168 8.91648 9.66999 9.16473 9.6819C9.41298 9.69382 9.58047 9.6819 9.54458 9.97971C9.52365 10.1733 9.66718 10.1912 9.81374 10.1912C10.0129 10.1783 10.2127 10.1783 10.4119 10.1912C10.7888 10.2418 10.8696 10.069 10.8576 9.72953C10.8576 9.4615 10.7559 9.35134 10.4957 9.39005C10.3431 9.41388 10.08 9.29772 10.068 9.52405C10.068 9.82187 10.385 9.58959 10.5047 9.7236C10.5047 9.7236 10.5226 9.7504 10.6004 9.86953C10.3013 9.89037 9.91244 9.97079 9.8945 9.83677C9.80776 9.16669 9.32325 9.44663 8.98228 9.38707C8.47981 9.30071 8.47081 9.61339 8.5067 9.96481C8.52764 10.075 8.52466 10.1882 8.67122 10.1822Z" fill="#DAEEDF"/>
<path d="M18.8703 10.1793C19.0109 10.1971 19.0528 10.1018 19.0408 9.99164C19.0139 9.74148 19.1246 9.67 19.3638 9.69383C19.6031 9.71765 19.8215 9.66407 19.7796 10.0155C19.7587 10.1733 19.8783 10.2091 20.0099 10.2091C20.2089 10.192 20.4091 10.192 20.6081 10.2091C21.0657 10.2806 21.0956 10.0274 21.0836 9.67896C21.0717 9.33052 20.8503 9.40198 20.6559 9.40794C20.5213 9.40794 20.2851 9.33051 20.294 9.55685C20.303 9.78318 20.5931 9.63131 20.7098 9.71768C20.7337 9.71768 20.7427 9.76831 20.7845 9.83383C20.5423 9.94998 20.1265 9.9738 20.1116 9.83383C20.0308 9.12801 19.5134 9.4675 19.1934 9.40198C18.661 9.29477 18.7268 9.67001 18.7358 9.9976C18.7657 10.075 18.7657 10.1674 18.8703 10.1793Z" fill="#DAEEDF"/>
<path d="M24.0233 10.1822C24.131 10.1822 24.1669 10.0928 24.1549 10.0035C24.116 9.70569 24.2775 9.6789 24.5168 9.68187C24.7561 9.68485 24.9296 9.68187 24.8937 9.97969C24.8727 10.1316 24.9744 10.1852 25.115 10.1822C25.4141 10.1822 25.6923 10.1822 25.9824 10.1822C26.3293 10.1822 26.1738 9.88439 26.2037 9.72357C26.2516 9.44661 26.102 9.35131 25.8508 9.38704C25.6982 9.40789 25.435 9.29471 25.4261 9.52701C25.4171 9.7593 25.7491 9.5836 25.8687 9.72655C25.8902 9.76091 25.9092 9.79673 25.9255 9.83376C25.6653 9.90821 25.2646 9.96182 25.2496 9.83376C25.1689 9.14879 24.6723 9.45256 24.3344 9.39002C23.8259 9.29175 23.8379 9.62826 23.8648 9.96776C23.8738 10.0809 23.8767 10.1911 24.0233 10.1822Z" fill="#DAEEDF"/>
<path d="M29.2642 10.0393C29.2642 9.74144 29.3718 9.66998 29.65 9.67891C29.9281 9.68785 30.0418 9.7206 30.0119 10.0095C29.9939 10.1703 30.1166 10.1971 30.2482 10.1971C30.4473 10.1828 30.6472 10.1828 30.8464 10.1971C31.2442 10.2537 31.3399 10.0839 31.3219 9.71465C31.3219 9.41683 31.1724 9.36619 30.9391 9.39597C30.7895 9.41681 30.5293 9.2977 30.5323 9.55084C30.5353 9.80398 30.8314 9.61934 30.948 9.71167C30.9671 9.73599 30.9822 9.76313 30.9929 9.79208C30.9929 9.83675 30.966 9.8844 30.951 9.93205C30.7596 9.70869 30.3529 10.2298 30.2841 9.58061C30.2661 9.38703 30.1226 9.39597 29.985 9.39597C29.7636 9.39597 29.5423 9.39597 29.321 9.39597C29.1954 9.39597 29.0219 9.34835 28.986 9.53597C28.9234 9.73183 28.9351 9.94375 29.0189 10.1316C29.1176 10.2567 29.2731 10.1941 29.2642 10.0393Z" fill="#DAEEDF"/>
<path d="M13.7797 10.1852C13.8011 10.1867 13.8226 10.1832 13.8423 10.1749C13.8621 10.1667 13.8796 10.1539 13.8935 10.1377C13.9075 10.1215 13.9174 10.1023 13.9226 10.0816C13.9278 10.0609 13.928 10.0393 13.9233 10.0185C13.8934 9.74747 14.01 9.67599 14.2733 9.67897C14.5365 9.68195 14.695 9.71468 14.6651 10.0304C14.6651 10.1942 14.7997 10.1942 14.9193 10.1942C15.1186 10.1842 15.3182 10.1842 15.5175 10.1942C15.8824 10.2418 15.9901 10.0959 15.9691 9.7415C15.9691 9.48538 15.8884 9.35135 15.6162 9.39304C15.4636 9.41687 15.2034 9.30074 15.1825 9.52112C15.1586 9.81893 15.4816 9.59261 15.6132 9.72067L15.6431 9.75938C15.3829 9.78321 14.9612 10.2269 14.9313 9.55983C14.9313 9.39604 14.7877 9.39304 14.6651 9.39304H14.1028C13.6302 9.39304 13.5046 9.55388 13.6183 10.0125C13.6541 10.1048 13.681 10.1852 13.7797 10.1852Z" fill="#DAEEDF"/>
<path d="M19.0644 9.17556C19.5101 9.17556 19.9617 9.17556 20.3954 9.17556C20.8291 9.17556 21.3495 9.17556 21.825 9.17556C21.9327 9.17556 22.0943 9.22323 22.1062 9.04752C22.1182 8.87181 21.9627 8.88967 21.846 8.88967H19.0345C18.9209 8.88967 18.7653 8.88968 18.7803 9.05348C18.7953 9.21728 18.9478 9.17258 19.0644 9.17556Z" fill="#DAEEDF"/>
<path d="M1.38181 9.17566C1.48649 9.17566 1.65098 9.21437 1.63004 9.0208C1.63004 8.88678 1.49248 8.88978 1.39079 8.88978H0V9.18759C0.460604 9.17865 0.921206 9.18162 1.38181 9.17566Z" fill="#DAEEDF"/>
<path d="M1.38181 9.17566C0.921206 9.17566 0.460604 9.17566 0 9.17566C0.460604 9.17864 0.921206 9.18162 1.38181 9.17566Z" fill="#DAEEDF"/>
<path d="M3.64031 9.17566H6.50262C6.59533 9.17566 6.72994 9.20544 6.7449 9.06249C6.75985 8.91954 6.61926 8.88977 6.50262 8.88977H3.64031C3.53563 8.88977 3.41895 8.88977 3.41895 9.03868C3.41895 9.18758 3.54161 9.17566 3.64031 9.17566Z" fill="#DAEEDF"/>
<path d="M13.9051 9.17565H16.7165C16.8242 9.17565 16.9917 9.21437 16.9797 9.02973C16.9678 8.84508 16.8152 8.88976 16.6986 8.88976H13.9409C13.8273 8.88976 13.6718 8.86294 13.6418 9.02376C13.6119 9.18459 13.8004 9.17565 13.9051 9.17565Z" fill="#DAEEDF"/>
<path d="M24.1489 9.17566C24.6095 9.17566 25.0701 9.17566 25.5307 9.17566H26.9603C27.065 9.17566 27.2295 9.21437 27.2176 9.02675C27.2176 8.89274 27.0859 8.88977 26.9813 8.88977H24.1219C24.0173 8.88977 23.8946 8.88976 23.8886 9.02973C23.8737 9.21438 24.0382 9.17268 24.1489 9.17566Z" fill="#DAEEDF"/>
<path d="M24.1494 9.17566C24.61 9.17566 25.0706 9.17566 25.5312 9.17566C25.0646 9.17864 24.604 9.18162 24.1494 9.17566Z" fill="#DAEEDF"/>
<path d="M30.6968 9.17855H32.0038V8.88074H29.2342C29.1295 8.88074 29.0069 8.88073 29.0039 9.02368C29.0039 9.20535 29.1624 9.16368 29.2701 9.16666C29.7427 9.18155 30.2182 9.17855 30.6968 9.17855Z" fill="#DAEEDF"/>
<path d="M8.82062 9.1756C9.28123 9.1756 9.73884 9.1756 10.1994 9.1756C10.66 9.1756 11.1206 9.1756 11.5783 9.1756C11.6859 9.1756 11.8474 9.22625 11.8773 9.05055C11.9073 8.87484 11.7368 8.88972 11.6201 8.88972H8.80865C8.69499 8.88972 8.53947 8.88973 8.55143 9.05055C8.5634 9.21136 8.71295 9.17262 8.82062 9.1756Z" fill="#DAEEDF"/>
<path d="M8.29736 22.0352C8.29736 21.9339 8.29736 21.8178 8.15679 21.8118C8.01622 21.8058 8.01621 21.925 8.00126 22.0262C7.96537 22.2853 8.08799 22.5742 7.85171 22.8124C7.80222 22.5916 7.77913 22.3657 7.78292 22.1394C7.78292 22.0203 7.85169 21.8416 7.64831 21.8178C7.44493 21.7939 7.51076 22.0054 7.49281 22.1156C7.45692 22.3419 7.56158 22.598 7.3582 22.9018C7.28089 22.6025 7.2526 22.2928 7.27444 21.9845C7.27444 21.8952 7.25053 21.8148 7.13987 21.8029C7.0292 21.7909 6.98733 21.8386 6.99331 21.9071C7.05911 22.4312 6.67627 22.327 6.39513 22.2943C5.97341 22.2466 5.92853 22.4462 5.93751 22.7916C5.94648 23.1371 6.10502 23.1281 6.32934 23.0894C6.47589 23.0716 6.73908 23.1907 6.73011 22.9316C6.72114 22.6725 6.43101 22.8631 6.31137 22.7827C6.28744 22.7827 6.2755 22.732 6.17679 22.5772C6.52673 22.6963 6.93049 22.2526 6.97834 22.9346C6.97834 23.0626 7.09199 23.0745 7.19668 23.0924C8.14779 23.2681 8.31529 23.1281 8.28837 22.1692C8.29735 22.1424 8.29736 22.0858 8.29736 22.0352Z" fill="#F8D5D5"/>
<path d="M13.4146 22.0292C13.4146 21.928 13.4146 21.8118 13.2681 21.8118C13.1215 21.8118 13.1365 21.9309 13.1215 22.0322C13.0826 22.2913 13.2113 22.5802 12.984 22.8839C12.9076 22.6068 12.8813 22.3184 12.9062 22.0322C12.9062 21.9309 12.9062 21.8148 12.7596 21.8118C12.6131 21.8088 12.6191 21.925 12.6101 22.0292C12.6337 22.3429 12.5972 22.6583 12.5024 22.9584C12.4064 22.6432 12.3689 22.3131 12.3917 21.9845C12.3917 21.8952 12.3618 21.8178 12.2541 21.8118C12.1465 21.8059 12.1046 21.8505 12.1106 21.922C12.1734 22.4521 11.7816 22.333 11.5124 22.3032C11.0787 22.2526 11.0578 22.4729 11.0608 22.8065C11.0638 23.14 11.2373 23.1311 11.4556 23.1043C11.5962 23.1043 11.8324 23.1847 11.8474 22.9882C11.8683 22.6903 11.5483 22.9018 11.4286 22.7946C11.3856 22.7348 11.3485 22.671 11.318 22.604C11.656 22.6904 12.0538 22.3062 12.1016 22.9554C12.1016 23.0835 12.2212 23.0894 12.3259 23.1073C13.277 23.2741 13.4386 23.1371 13.4116 22.1781C13.4146 22.1424 13.4176 22.0798 13.4146 22.0292Z" fill="#F8D5D5"/>
<path d="M18.3946 21.8238C18.1493 21.8238 18.26 22.0442 18.239 22.1722C18.2061 22.3866 18.2929 22.6219 18.1553 22.8512C17.9519 22.6815 18.0566 22.4998 18.0207 22.3479C17.9848 22.196 18.1374 21.8357 17.8861 21.8387C17.5661 21.8387 17.7814 22.1871 17.7306 22.3718C17.6797 22.5564 17.7755 22.6696 17.584 22.8989C17.514 22.6065 17.4888 22.3053 17.5093 22.0055C17.5093 21.9191 17.4913 21.8357 17.3806 21.8238C17.27 21.8119 17.2221 21.8506 17.2311 21.9191C17.2909 22.4313 16.932 22.3479 16.6329 22.3152C16.2201 22.2645 16.1573 22.4492 16.1693 22.8066C16.1693 23.1044 16.3248 23.149 16.5551 23.1044C16.7017 23.0835 16.9649 23.2056 16.9619 22.9525C16.9589 22.6993 16.6628 22.878 16.5461 22.8006C16.5132 22.7797 16.5043 22.7202 16.4594 22.6338C16.7406 22.6606 17.0965 22.4015 17.1772 22.7976C17.246 23.1252 17.4045 23.1133 17.6289 23.0954C18.7056 23.0746 18.4962 23.2473 18.5261 22.2288C18.5276 22.212 18.5276 22.195 18.5261 22.1782C18.4992 22.062 18.6189 21.8446 18.3946 21.8238Z" fill="#F8D5D5"/>
<path d="M23.4763 21.8178C23.3656 21.8178 23.3626 21.919 23.3537 22.0054C23.3797 22.3188 23.3452 22.6342 23.252 22.9346C23.1511 22.6719 23.1112 22.3899 23.1353 22.1096C23.1353 21.9905 23.1922 21.8118 22.9679 21.8118C22.7944 21.8118 22.8632 21.9875 22.8422 22.0947C22.7884 22.327 22.9649 22.6099 22.6927 22.8393C22.6251 22.5657 22.6019 22.2832 22.6239 22.0024C22.6239 21.922 22.6239 21.8297 22.5102 21.8088C22.3966 21.788 22.3278 21.8386 22.3397 21.9369C22.4025 22.4492 22.0227 22.3151 21.7774 22.2943C21.3916 22.2615 21.272 22.3896 21.2959 22.7737C21.3138 23.0537 21.4215 23.1341 21.6668 23.1013C21.8193 23.0775 22.0825 23.1937 22.0885 22.9614C22.0885 22.6814 21.7894 22.9018 21.6488 22.7708L21.5322 22.6278C21.912 22.6606 22.3218 22.33 22.3487 22.9733C22.3487 23.1014 22.4863 23.0984 22.588 23.1013H23.4045C23.575 23.1013 23.6528 23.0299 23.6498 22.8601C23.6498 22.5623 23.6498 22.2824 23.6498 21.9965C23.6468 21.8952 23.6199 21.7999 23.4763 21.8178Z" fill="#F8D5D5"/>
<path d="M31.5276 22.8393C31.5545 23.1729 31.7639 23.1133 31.9553 23.1074H32.0032V22.8095C31.9736 22.816 31.943 22.816 31.9134 22.8095C31.8775 22.7887 31.8656 22.7321 31.8386 22.6904L32.0032 22.6457V22.3033C31.6263 22.2705 31.4977 22.4402 31.5276 22.8393Z" fill="#F8D5D5"/>
<path d="M28.6357 21.8238C28.3905 21.8238 28.5011 22.0442 28.4802 22.1722C28.4473 22.3866 28.534 22.6219 28.3965 22.8512C28.1931 22.6815 28.2978 22.4998 28.2619 22.3479C28.226 22.196 28.3755 21.8357 28.1273 21.8387C27.8073 21.8387 28.0226 22.1871 27.9718 22.3718C27.9209 22.5564 28.0166 22.6696 27.8252 22.8989C27.7551 22.6065 27.7299 22.3053 27.7504 22.0055C27.7504 21.9191 27.7325 21.8357 27.6218 21.8238C27.5111 21.8119 27.4633 21.8506 27.4723 21.9191C27.5321 22.4313 27.1732 22.3479 26.8741 22.3152C26.4613 22.2645 26.3985 22.4492 26.4105 22.8066C26.4105 23.1044 26.566 23.149 26.7963 23.1044C26.9429 23.0835 27.2061 23.2056 27.2001 22.9525C27.1941 22.6993 26.9189 22.878 26.7873 22.8006C26.7544 22.7797 26.7455 22.7202 26.7006 22.6338C26.9818 22.6606 27.3377 22.4015 27.4184 22.7976C27.4872 23.1252 27.6457 23.1133 27.87 23.0954C28.9468 23.0746 28.7344 23.2473 28.7673 22.2288C28.7688 22.212 28.7688 22.195 28.7673 22.1782C28.7314 22.062 28.8511 21.8446 28.6357 21.8238Z" fill="#F8D5D5"/>
<path d="M3.04849 21.8238C2.80324 21.8238 2.91393 22.0442 2.89299 22.1722C2.86009 22.3866 2.9468 22.6219 2.78828 22.884C2.63275 22.6755 2.70154 22.5028 2.67163 22.3479C2.64172 22.193 2.7883 21.8357 2.54005 21.8387C2.22002 21.8387 2.43536 22.1871 2.38152 22.3718C2.32768 22.5564 2.42639 22.6696 2.23796 22.8989C2.16865 22.6064 2.14245 22.3054 2.16019 22.0055C2.16019 21.9191 2.14227 21.8357 2.0346 21.8238C1.92692 21.8119 1.87608 21.8506 1.88206 21.9191C1.94487 22.4313 1.58296 22.3479 1.28387 22.3152C0.871123 22.2645 0.805308 22.4492 0.820262 22.8066C0.820262 23.1044 0.9758 23.149 1.20311 23.1044C1.35266 23.0835 1.61585 23.2056 1.60987 22.9525C1.60389 22.6993 1.32872 22.878 1.19712 22.8006C1.16422 22.7797 1.15224 22.7202 1.10738 22.6338C1.40647 22.6606 1.74745 22.4015 1.82821 22.7976C1.897 23.1252 2.05253 23.1133 2.27684 23.0954C3.35657 23.0746 3.14422 23.2473 3.17412 22.2288C3.17557 22.212 3.17557 22.195 3.17412 22.1782C3.15319 22.062 3.27281 21.8446 3.04849 21.8238Z" fill="#F8D5D5"/>
<path d="M20.7938 22.3151C20.6263 22.3449 20.3452 22.199 20.3153 22.4313C20.2794 22.7291 20.6144 22.5266 20.743 22.6398C20.7639 22.6576 20.7699 22.6963 20.8028 22.7708C20.3123 22.8423 20.3093 22.8453 20.0551 22.4104C19.9893 22.3003 19.8876 22.3151 19.7889 22.3151C19.6035 22.3151 19.415 22.3151 19.2296 22.3151C18.76 22.3151 18.6314 22.47 18.751 22.9286C18.7719 23.015 18.7929 23.0984 18.8946 23.1014C18.9162 23.1022 18.9377 23.0982 18.9575 23.0896C18.9773 23.081 18.9949 23.068 19.009 23.0517C19.0231 23.0354 19.0333 23.0161 19.0389 22.9953C19.0444 22.9745 19.0452 22.9528 19.0412 22.9316C19.0053 22.6338 19.1398 22.5862 19.3941 22.6011C19.6483 22.6159 19.8128 22.5802 19.7769 22.8989C19.756 23.0865 19.8996 23.1103 20.0491 23.1103C20.2483 23.0974 20.4481 23.0974 20.6473 23.1103C21.0331 23.1579 21.1049 22.9703 21.0869 22.6398C21.0869 22.4402 21.057 22.2675 20.7938 22.3151Z" fill="#F8D5D5"/>
<path d="M5.74031 22.6248C5.78218 22.3776 5.65957 22.2704 5.42329 22.327C5.26178 22.3598 4.97763 22.2019 4.96267 22.464C4.94772 22.7261 5.28569 22.5295 5.40832 22.6665C5.44245 22.7151 5.47344 22.7658 5.50106 22.8184C5.15112 22.7529 4.71443 23.1162 4.70845 22.4521C4.70845 22.3151 4.57086 22.327 4.47216 22.327C4.28373 22.327 4.09829 22.327 3.90986 22.327C3.39542 22.327 3.31169 22.4223 3.40142 22.9226C3.40142 23.006 3.40142 23.1013 3.52106 23.1162C3.6407 23.1311 3.70349 23.0388 3.69153 22.9316C3.66461 22.6784 3.78124 22.6129 4.01753 22.6338C4.25381 22.6546 4.47216 22.604 4.43327 22.9554C4.41533 23.1102 4.53797 23.146 4.67256 23.146H5.48908C5.87192 23.1043 5.7104 22.8095 5.74031 22.6248Z" fill="#F8D5D5"/>
<path d="M10.8546 22.5921C10.9054 22.3122 10.711 22.2943 10.5106 22.3151C10.3581 22.339 10.0978 22.2049 10.0799 22.4313C10.056 22.7291 10.379 22.5266 10.5106 22.6398C10.5315 22.6576 10.5375 22.6963 10.5495 22.7261C10.0231 22.9048 10.0021 22.9019 9.83464 22.4581C9.82129 22.4105 9.79063 22.3694 9.74863 22.343C9.70662 22.3166 9.65628 22.3067 9.60733 22.3151H8.99418C8.52759 22.3151 8.41095 22.473 8.51863 22.9286C8.53956 23.018 8.56349 23.1014 8.66518 23.1014C8.68684 23.1018 8.70831 23.0974 8.72801 23.0885C8.74772 23.0795 8.76514 23.0662 8.77895 23.0496C8.79276 23.033 8.80263 23.0135 8.80779 22.9925C8.81295 22.9716 8.81326 22.9497 8.80874 22.9286C8.77285 22.6308 8.91045 22.5862 9.16169 22.6011C9.41292 22.6159 9.58342 22.5832 9.54453 22.8989C9.52659 23.0508 9.62529 23.1103 9.76586 23.1103C10.065 23.1103 10.3461 23.1103 10.6332 23.1103C11.0071 23.0805 10.8217 22.7797 10.8546 22.5921Z" fill="#F8D5D5"/>
<path d="M15.6667 22.3151C15.5022 22.3449 15.218 22.193 15.1971 22.4432C15.1762 22.6933 15.4962 22.5236 15.6338 22.6457C15.6455 22.659 15.6565 22.6729 15.6667 22.6874C15.6488 22.741 15.6308 22.7976 15.6158 22.8542C15.4154 22.6576 14.9399 23.152 14.9399 22.4521C14.9399 22.3121 14.8143 22.3151 14.7126 22.3151C14.5134 22.3295 14.3135 22.3295 14.1144 22.3151C13.597 22.2347 13.6209 22.5563 13.6448 22.8929C13.6448 22.9971 13.6598 23.1073 13.8034 23.1043C13.8248 23.1038 13.8459 23.0984 13.8649 23.0885C13.884 23.0786 13.9005 23.0644 13.9132 23.0472C13.9259 23.0299 13.9345 23.01 13.9383 22.9889C13.942 22.9679 13.9409 22.9462 13.9349 22.9256C13.8931 22.6278 14.0695 22.607 14.2998 22.607C14.5301 22.607 14.7036 22.607 14.6737 22.9048C14.6557 23.0954 14.8113 23.1043 14.9549 23.1043C15.1541 23.093 15.3538 23.093 15.553 23.1043C15.891 23.1401 16.0077 23.009 15.9778 22.6725C15.9628 22.464 15.9718 22.2585 15.6667 22.3151Z" fill="#F8D5D5"/>
<path d="M25.9437 22.3151C25.7732 22.3389 25.4891 22.205 25.4502 22.4134C25.3904 22.744 25.7852 22.4968 25.8929 22.6636C25.9146 22.708 25.9336 22.7538 25.9497 22.8006C25.6177 22.7589 25.184 23.0984 25.181 22.4313C25.181 22.2973 25.0375 22.3151 24.9388 22.3151C24.7025 22.3151 24.4632 22.3151 24.2239 22.3151C24.1043 22.3151 23.9248 22.2466 23.8949 22.4492C23.8333 22.6454 23.846 22.8573 23.9308 23.0448C24.0265 23.1788 24.1731 23.0984 24.1641 22.9495C24.1432 22.6517 24.2867 22.5921 24.5559 22.5981C24.8251 22.604 24.9358 22.6517 24.9119 22.9316C24.9119 23.0924 25.0315 23.1133 25.1601 23.1133C25.4143 23.1133 25.6715 23.1133 25.9258 23.1133C26.2458 23.1341 26.2249 22.9286 26.2249 22.7172C26.2249 22.5058 26.2697 22.2675 25.9437 22.3151Z" fill="#F8D5D5"/>
<path d="M31.3273 22.6218C31.3691 22.3717 31.2435 22.2764 31.0072 22.324C30.8487 22.3478 30.5885 22.2317 30.5556 22.4164C30.5018 22.7529 30.8816 22.5116 30.9953 22.6665C30.9953 22.6665 31.0102 22.6933 31.076 22.8095C30.7291 22.7588 30.3014 23.1073 30.2924 22.4461C30.2924 22.3091 30.1518 22.324 30.0531 22.324C29.8497 22.324 29.6463 22.324 29.4549 22.324C29.0212 22.324 28.8777 22.5325 29.0063 22.9613C29.0272 23.0269 29.0422 23.0924 29.1229 23.1043C29.2037 23.1162 29.2964 23.0596 29.2875 22.9643C29.2575 22.6665 29.3921 22.5951 29.6703 22.607C29.9484 22.6189 30.0651 22.6427 30.0322 22.9346C30.0142 23.0894 30.1428 23.1222 30.2744 23.1222H31.091C31.4529 23.1043 31.2884 22.8065 31.3273 22.6218Z" fill="#F8D5D5"/>
<path d="M0.28113 22.6427C0.302067 22.6635 0.305056 22.7022 0.31702 22.732C0.21297 22.7672 0.107166 22.7971 0 22.8214V23.1192C0.119637 23.1192 0.239257 23.1192 0.355904 23.1192C0.693879 23.1192 0.616125 22.8869 0.628089 22.6963C0.640053 22.5057 0.628089 22.2674 0.328995 22.321C0.221399 22.3268 0.113584 22.3268 0.00598771 22.321V22.6188C0.0987067 22.601 0.221312 22.5831 0.28113 22.6427Z" fill="#F8D5D5"/>
<path d="M16.7411 22.0918C16.8608 22.0918 17.0014 22.0918 16.9804 21.9161C16.9595 21.7404 16.8309 21.8059 16.7381 21.8059H13.8908C13.801 21.8059 13.6665 21.7731 13.6515 21.9161C13.6366 22.059 13.7741 22.0888 13.8938 22.0918H16.7411Z" fill="#F8D5D5"/>
<path d="M18.9753 22.0888H21.8735C21.9782 22.0888 22.0978 22.0888 22.1008 21.9458C22.1008 21.7582 21.9423 21.8059 21.8376 21.8029C21.38 21.8029 20.9224 21.8029 20.4648 21.8029H18.9902C18.8975 21.8029 18.7689 21.785 18.7629 21.931C18.7569 22.0769 18.8706 22.0888 18.9753 22.0888Z" fill="#F8D5D5"/>
<path d="M21.8377 21.8058C21.3801 21.8058 20.9225 21.8058 20.4648 21.8058C20.9225 21.8028 21.3801 21.7999 21.8377 21.8058Z" fill="#F8D5D5"/>
<path d="M24.1252 22.0918H26.9726C27.0922 22.0918 27.2298 22.0918 27.2119 21.9161C27.1939 21.7404 27.0623 21.8059 26.9726 21.8059H24.1222C24.0325 21.8059 23.8979 21.7731 23.883 21.9161C23.868 22.059 24.0056 22.0888 24.1252 22.0918Z" fill="#F8D5D5"/>
<path d="M1.4177 22.0918C1.52238 22.0918 1.63603 22.0739 1.63603 21.9399C1.63603 21.8059 1.51341 21.8059 1.4177 21.8059H0V22.1037L1.4177 22.0918Z" fill="#F8D5D5"/>
<path d="M3.65542 22.0918H6.50279C6.62243 22.0918 6.76299 22.0918 6.75102 21.922C6.73906 21.7523 6.60449 21.8059 6.51177 21.8059H3.6644C3.57467 21.8059 3.44006 21.7701 3.41912 21.9101C3.39818 22.0501 3.53578 22.0888 3.65542 22.0918Z" fill="#F8D5D5"/>
<path d="M29.2342 21.8059C29.1415 21.8059 29.0129 21.7732 28.992 21.9161C28.971 22.0591 29.0757 22.0888 29.1834 22.0888H31.9979V21.791H29.2342V21.8059Z" fill="#F8D5D5"/>
<path d="M8.77555 22.0918H11.6229C11.7426 22.0918 11.8832 22.0918 11.8652 21.9161C11.8473 21.7404 11.7156 21.8059 11.6229 21.8059H8.77555C8.68283 21.8059 8.55125 21.7731 8.5363 21.9161C8.52134 22.059 8.65591 22.0888 8.77555 22.0918Z" fill="#F8D5D5"/>
</g>
<defs>
<clipPath id="clip0_710_93">
<rect width="32" height="32" rx="16" fill="white"/>
</clipPath>
</defs>
</svg>