<svg width="32" height="32" viewBox="0 0 32 32" fill="none" xmlns="http://www.w3.org/2000/svg">
<path d="M32 16.011C32.0053 20.1507 30.4035 24.1309 27.5321 27.113C24.6607 30.0951 20.7439 31.8462 16.6069 31.9974H15.9988C13.151 32.0014 10.3546 31.2392 7.90266 29.7907C5.49699 28.3806 3.50196 26.3659 2.11566 23.9465C0.729365 21.5271 0 18.7871 0 15.9987C0 13.2102 0.729365 10.4703 2.11566 8.05089C3.50196 5.63148 5.49699 3.61674 7.90266 2.20673C10.3546 0.758224 13.151 -0.00398193 15.9988 1.5644e-05H16.6069C20.7452 0.150035 24.6634 1.90144 27.5352 4.88483C30.407 7.86822 32.0078 11.8504 32 15.9913V16.011Z" fill="white"/>
<path d="M32.0003 16.0109C32.0002 17.4813 31.7989 18.9448 31.402 20.3606H16.6072V31.9875H15.9991C13.1513 31.9915 10.3549 31.2293 7.90296 29.7808V20.3606H0.606091C-0.198124 17.5132 -0.198124 14.4988 0.606091 11.6514H7.90296V2.21649C10.3549 0.76799 13.1513 0.0057837 15.9991 0.00978127H16.6072V11.6514H31.402C31.799 13.0706 32.0003 14.5373 32.0003 16.0109Z" fill="#04357F"/>
</svg>