<svg width="32" height="32" viewBox="0 0 32 32" fill="none" xmlns="http://www.w3.org/2000/svg">
<path d="M0 15.9976C0.00384887 19.3055 1.03129 22.5311 2.94133 25.232C4.85138 27.9329 7.55046 29.9767 10.6683 31.083V0.91217C7.55086 2.01912 4.85218 4.06308 2.94223 6.76383C1.03228 9.46458 0.00456242 12.6899 0 15.9976Z" fill="#062493"/>
<path d="M32.0003 15.9976C31.9951 12.6901 30.9671 9.46508 29.0572 6.76446C27.1474 4.06385 24.4491 2.01973 21.332 0.91217V31.083C24.4495 29.9761 27.1482 27.9321 29.0581 25.2314C30.9681 22.5306 31.9958 19.3053 32.0003 15.9976Z" fill="#EC2938"/>
<path d="M15.9948 3.7752e-06C14.177 -0.00124482 12.3723 0.307233 10.6582 0.912191V31.083C14.1109 32.3057 17.8788 32.3057 21.3314 31.083V0.912191C19.6171 0.308067 17.8125 -0.000386392 15.9948 3.7752e-06Z" fill="white"/>
</svg>