<svg width="32" height="32" viewBox="0 0 32 32" fill="none" xmlns="http://www.w3.org/2000/svg">
<g clip-path="url(#clip0_710_191)">
<path d="M0.00976562 24.0931V8.30676H31.9915V24.0931H0.00976562ZM22.1566 19.6109C21.516 18.5077 20.9364 17.4895 20.3263 16.4682C20.2706 16.3913 20.2407 16.2991 20.2407 16.2045C20.2407 16.1099 20.2706 16.0176 20.3263 15.9408C20.8692 15.0316 21.3939 14.1224 21.9156 13.2133C22.0218 13.0957 22.0814 12.9439 22.0834 12.786H21.699C20.6527 12.786 19.6094 12.786 18.5631 12.786C18.4475 12.7971 18.3314 12.7714 18.2315 12.7125C18.1317 12.6537 18.0534 12.5648 18.0079 12.4587C17.5838 11.6889 17.1293 10.9434 16.687 10.1706L16.208 9.35837C15.5796 10.4403 14.9878 11.4556 14.396 12.4829C14.3527 12.5832 14.2779 12.6669 14.1828 12.7215C14.0877 12.7761 13.9774 12.7987 13.8683 12.786C12.7976 12.786 11.7329 12.786 10.65 12.786C10.5432 12.786 10.4151 12.7345 10.3053 12.8708C10.8971 13.8861 11.4858 14.9104 12.0868 15.9287C12.1433 16.0052 12.1737 16.0975 12.1737 16.1924C12.1737 16.2872 12.1433 16.3796 12.0868 16.456C11.5468 17.3652 11.0222 18.2744 10.4975 19.1836C10.3907 19.2995 10.331 19.4507 10.3297 19.6078H10.714C11.7604 19.6078 12.8067 19.6078 13.853 19.6078C13.9684 19.5954 14.0847 19.6206 14.1843 19.6796C14.2839 19.7387 14.3615 19.8284 14.4052 19.9351C14.8323 20.7049 15.2837 21.4504 15.7291 22.2232C15.8755 22.4778 16.0342 22.7324 16.205 23.0354C16.8151 21.9656 17.4252 20.9595 17.9956 19.9442C18.0457 19.8338 18.1295 19.7418 18.2352 19.6814C18.3409 19.621 18.4631 19.5953 18.5844 19.6078C19.7466 19.623 20.9089 19.6109 22.1566 19.6109Z" fill="#FEFEFE"/>
<path d="M31.9915 8.30681H0.00976562V3.33057C0.148333 3.3758 0.295612 3.38825 0.439881 3.36693H31.5552C31.6995 3.38836 31.8468 3.37591 31.9854 3.33057L31.9915 8.30681Z" fill="#0241C0"/>
<path d="M0.00976562 24.0931H31.9915V29.0664C31.8524 29.0235 31.7054 29.0121 31.5613 29.033H0.445988C0.301902 29.0122 0.154951 29.0236 0.015854 29.0664L0.00976562 24.0931Z" fill="#0241C0"/>
<path d="M31.9912 3.33055C31.8527 3.37589 31.7054 3.38835 31.5611 3.36691H0.445759C0.30149 3.38823 0.154193 3.37578 0.015625 3.33055C0.015625 2.42137 0.015625 1.11521 0.015625 0.206028C0.015625 0.0363152 0.0461437 -0.024304 0.220024 0.00903249C0.2728 0.0135937 0.325862 0.0135937 0.378638 0.00903249C14.7161 0.00903249 17.3151 0.00903249 31.6435 0.00903249C31.9485 0.00903249 32.0187 0.0726601 32.0095 0.372689C31.979 1.21822 31.9912 2.47289 31.9912 3.33055Z" fill="#FEFEFE"/>
<path d="M0.00930128 29.0663C0.148398 29.0236 0.295331 29.0122 0.439417 29.033H31.5548C31.6988 29.0121 31.8458 29.0235 31.9849 29.0663C31.9849 29.9755 31.9849 30.8847 31.9849 31.7939C31.9849 31.9636 31.9513 32.0272 31.7805 31.9939C31.7278 31.9878 31.6746 31.9878 31.6219 31.9939C17.2844 31.9939 14.6854 31.9939 0.357047 31.9939C0.0519945 31.9939 -0.0181527 31.9302 -0.00900113 31.6332C0.0245546 30.7786 0.00930128 29.921 0.00930128 29.0663Z" fill="#FEFEFE"/>
<path d="M22.156 19.6109C20.9083 19.6109 19.746 19.6109 18.5838 19.6109C18.4625 19.5983 18.3403 19.6241 18.2346 19.6845C18.1289 19.7449 18.0451 19.8368 17.995 19.9473C17.4246 20.9626 16.8267 21.9687 16.2044 23.0385C16.0275 22.7354 15.8749 22.4809 15.7285 22.2263C15.2831 21.4656 14.8317 20.711 14.4046 19.9382C14.3609 19.8315 14.2833 19.7418 14.1837 19.6827C14.0841 19.6237 13.9678 19.5985 13.8524 19.6109C12.8061 19.6291 11.7598 19.6109 10.7134 19.6109H10.3291C10.3304 19.4538 10.3901 19.3026 10.4969 19.1866C11.0216 18.2775 11.5462 17.3683 12.0862 16.4591C12.1427 16.3827 12.1732 16.2903 12.1732 16.1954C12.1732 16.1006 12.1427 16.0082 12.0862 15.9318C11.4761 14.9135 10.8965 13.8891 10.3047 12.8739C10.4145 12.7375 10.5426 12.7891 10.6494 12.7891C11.7232 12.7891 12.7848 12.7891 13.8677 12.7891C13.9768 12.8018 14.0871 12.7792 14.1822 12.7246C14.2773 12.67 14.3521 12.5863 14.3954 12.486C14.9781 11.4586 15.579 10.4434 16.2074 9.36145L16.6864 10.1737C17.1287 10.9343 17.5832 11.6889 18.0073 12.4617C18.0528 12.5678 18.1311 12.6568 18.2309 12.7156C18.3308 12.7745 18.4469 12.8002 18.5625 12.7891C19.6088 12.7709 20.6521 12.7891 21.6984 12.7891H22.0828C22.0808 12.947 22.0212 13.0988 21.915 13.2164C21.3933 14.1255 20.8686 15.0347 20.3257 15.9439C20.27 16.0207 20.2401 16.1129 20.2401 16.2075C20.2401 16.3022 20.27 16.3944 20.3257 16.4712C20.9297 17.4834 21.5154 18.5078 22.156 19.6109ZM16.2196 18.5078C16.6467 18.5078 17.1775 18.7017 17.5192 18.4714C17.8608 18.2411 18.0103 17.7441 18.236 17.3592C18.4618 16.9743 18.8462 16.5834 18.8462 16.1954C18.8462 15.8075 18.4648 15.4136 18.236 15.0287C18.0073 14.6438 17.8883 14.1195 17.5192 13.9255C17.1501 13.7316 16.6315 13.9255 16.1952 13.8498C15.1642 13.6649 14.5358 14.0589 14.1758 15.0165C14.0202 15.4287 13.5657 15.7984 13.5657 16.1833C13.5657 16.5682 14.008 16.9682 14.1758 17.3955C14.551 18.3259 15.1337 18.8381 16.2196 18.5078ZM12.8641 15.1105C13.1234 14.668 13.343 14.2892 13.5748 13.8982H12.1564L12.8641 15.1105ZM19.5478 15.1105L20.2524 13.8982H18.84L19.5478 15.1105ZM12.8671 17.2895L12.1503 18.5017H13.5779L12.8671 17.2895ZM20.2616 18.5199C20.0206 18.1017 19.801 17.7259 19.5447 17.2895L18.8339 18.5199H20.2616ZM16.9274 12.7618L16.2044 11.5253C15.9481 11.9708 15.7285 12.3466 15.4875 12.7618H16.9274ZM15.4845 19.6049L16.2105 20.8413C16.4667 20.3958 16.6833 20.017 16.9243 19.6049H15.4845Z" fill="#0241C0"/>
<path d="M16.2194 18.5077C15.1334 18.835 14.5507 18.3259 14.1755 17.3894C14.0078 16.9682 13.5654 16.5894 13.5654 16.1772C13.5654 15.765 14.0139 15.4226 14.1755 15.0104C14.5355 14.0528 15.1639 13.6588 16.195 13.8437C16.6312 13.9225 17.1559 13.7406 17.5189 13.9194C17.8819 14.0982 18.0039 14.6407 18.2358 15.0226C18.4676 15.4044 18.8459 15.7984 18.8459 16.1893C18.8459 16.5803 18.4676 16.9682 18.2358 17.3531C18.0039 17.738 17.8545 18.238 17.5189 18.4653C17.1833 18.6926 16.6464 18.5077 16.2194 18.5077Z" fill="#FEFEFE"/>
<path d="M12.861 15.1104L12.1533 13.8982H13.5718C13.34 14.2922 13.1203 14.668 12.861 15.1104Z" fill="#FEFEFE"/>
<path d="M19.5446 15.1104L18.8369 13.8982H20.2493L19.5446 15.1104Z" fill="#FEFEFE"/>
<path d="M12.8643 17.2894L13.5751 18.5017H12.1475L12.8643 17.2894Z" fill="#FEFEFE"/>
<path d="M20.2587 18.535H18.8311L19.5418 17.3046C19.7981 17.7258 20.0177 18.1016 20.2587 18.535Z" fill="#FEFEFE"/>
<path d="M16.9242 12.7769H15.4844C15.7254 12.3617 15.945 11.9859 16.2012 11.5404L16.9242 12.7769Z" fill="#FEFEFE"/>
<path d="M15.4814 19.62H16.9213C16.6803 20.0322 16.4637 20.411 16.2075 20.8565L15.4814 19.62Z" fill="#FEFEFE"/>
</g>
<defs>
<clipPath id="clip0_710_191">
<rect width="32" height="32" rx="16" fill="white"/>
</clipPath>
</defs>
</svg>