<svg width="32" height="32" viewBox="0 0 32 32" fill="none" xmlns="http://www.w3.org/2000/svg">
<path d="M0.00585938 10.6381C0.00585938 7.19614 0.00585938 3.75424 0.00585938 0.312324C0.00585938 0.0520365 0.0579068 0.00610352 0.312021 0.00610352C16.0426 0.00610352 15.9569 0.00610352 31.6874 0.00610352C31.9477 0.00610352 31.9936 0.0581609 31.9936 0.312324C31.9936 3.75424 31.9936 7.19614 31.9936 10.6381C31.8344 10.6381 31.6875 10.6595 31.516 10.6595H0.483452C0.324248 10.6595 0.165063 10.6472 0.00585938 10.6381Z" fill="#FE9833"/>
<path d="M31.9936 21.3588C31.9936 24.8008 31.9936 28.2437 31.9936 31.6876C31.9936 31.9479 31.9416 31.9939 31.6874 31.9939C15.9569 31.9939 16.0426 31.9939 0.312021 31.9939C0.0517836 31.9939 0.00585938 31.9418 0.00585938 31.6876C0.00585938 28.2457 0.00585938 24.8008 0.00585938 21.3588C0.165063 21.3588 0.312001 21.3374 0.483452 21.3374H31.516C31.6752 21.3374 31.8344 21.3527 31.9936 21.3588Z" fill="#138708"/>
<path d="M31.9936 21.3588C31.8344 21.3588 31.6875 21.3374 31.516 21.3374H0.483452C0.324248 21.3374 0.17731 21.3527 0.00585938 21.3588V10.6411C0.165063 10.6411 0.312001 10.6626 0.483452 10.6626H31.516C31.6752 10.6626 31.8222 10.6625 31.9936 10.6411V21.3588ZM16.2569 20.7984C17.2116 20.7918 18.1426 20.5007 18.931 19.9622C19.7194 19.4237 20.3294 18.6623 20.683 17.7753C21.0366 16.8883 21.1177 15.916 20.916 14.9827C20.7143 14.0493 20.239 13.1974 19.5508 12.5356C18.8625 11.8738 17.9926 11.4323 17.0522 11.2675C16.1119 11.1027 15.1437 11.2221 14.2715 11.6105C13.3993 11.9988 12.6627 12.6384 12.1557 13.4476C11.6488 14.2567 11.3947 15.1987 11.4257 16.1531C11.4649 17.4072 11.9939 18.5961 12.8994 19.4645C13.8049 20.333 15.0147 20.8119 16.2692 20.7984H16.2569Z" fill="#FDFDFC"/>
<path d="M16.269 20.7984C15.3219 20.8132 14.3917 20.5474 13.5953 20.0345C12.799 19.5217 12.1721 18.7847 11.7936 17.9163C11.4151 17.0479 11.3018 16.0869 11.4682 15.1543C11.6345 14.2217 12.0729 13.3591 12.7283 12.6752C13.3836 11.9912 14.2266 11.5164 15.1512 11.3106C16.0757 11.1048 17.0404 11.1771 17.924 11.5185C18.8075 11.8598 19.5703 12.455 20.1164 13.229C20.6625 14.003 20.9676 14.9213 20.9931 15.8683C21.0106 16.5033 20.9018 17.1354 20.6731 17.728C20.4445 18.3207 20.1005 18.862 19.661 19.3207C19.2215 19.7793 18.6954 20.1461 18.1132 20.3997C17.5309 20.6534 16.904 20.7889 16.269 20.7984ZM16.1434 11.768C16.0868 11.7608 16.0295 11.773 15.9806 11.8024C15.9317 11.8319 15.8942 11.8769 15.874 11.9303C15.7913 12.0987 15.6413 12.0926 15.5097 12.0007C15.2035 11.7802 14.9831 11.8629 14.83 12.1906C14.8209 12.2212 14.8054 12.2495 14.7846 12.2738C14.7638 12.298 14.7381 12.3176 14.7092 12.3312C14.6803 12.3447 14.6488 12.3521 14.6169 12.3527C14.5849 12.3532 14.5532 12.347 14.5239 12.3345C14.1565 12.1691 13.982 12.3345 13.9115 12.6713C13.909 12.7073 13.8986 12.7424 13.8812 12.7739C13.8637 12.8055 13.8395 12.8329 13.8104 12.8542C13.7812 12.8755 13.7478 12.8902 13.7123 12.8972C13.6769 12.9042 13.6404 12.9034 13.6054 12.8949C13.5419 12.8792 13.4754 12.8798 13.4122 12.8966C13.349 12.9135 13.291 12.946 13.2437 12.9912C13.1964 13.0364 13.1612 13.0927 13.1415 13.1551C13.1218 13.2175 13.1181 13.2839 13.1308 13.3481C13.1308 13.541 13.0788 13.6543 12.8889 13.6849C12.8243 13.6892 12.7617 13.7093 12.7066 13.7433C12.6514 13.7773 12.6054 13.8242 12.5725 13.88C12.5396 13.9359 12.5209 13.9989 12.5179 14.0636C12.5148 14.1283 12.5277 14.1928 12.5552 14.2514C12.6134 14.4351 12.5828 14.5576 12.3991 14.6311C12.3386 14.6496 12.2836 14.6826 12.2389 14.7274C12.1942 14.7721 12.1611 14.8271 12.1427 14.8876C12.1242 14.9481 12.1209 15.0122 12.1331 15.0743C12.1452 15.1364 12.1724 15.1945 12.2123 15.2436C12.3532 15.461 12.3317 15.5804 12.1297 15.6906C11.9888 15.7672 12.0378 15.8805 12.0501 15.9969C12.0317 16.0979 11.9919 16.2235 12.0929 16.2755C12.3562 16.4164 12.3532 16.5358 12.1848 16.7839C12.153 16.8311 12.1322 16.8849 12.1242 16.9413C12.1162 16.9977 12.1211 17.0552 12.1384 17.1094C12.1558 17.1636 12.1853 17.2132 12.2246 17.2544C12.2639 17.2956 12.3121 17.3274 12.3654 17.3473C12.4079 17.3554 12.4478 17.3734 12.4819 17.4C12.516 17.4265 12.5433 17.4608 12.5616 17.5C12.5798 17.5392 12.5885 17.5822 12.5868 17.6254C12.5852 17.6686 12.5733 17.7108 12.5522 17.7485C12.4603 18.0302 12.5246 18.2598 12.8583 18.3027C13.0573 18.3303 13.1431 18.4283 13.1369 18.6089C13.1369 18.9519 13.2655 19.1234 13.6237 19.0897C13.7982 19.0897 13.884 19.1571 13.9115 19.3347C13.9667 19.6562 14.1718 19.7909 14.4749 19.6776C14.5085 19.6578 14.5461 19.6457 14.5849 19.6422C14.6238 19.6386 14.663 19.6438 14.6996 19.6573C14.7363 19.6708 14.7694 19.6922 14.7967 19.7201C14.824 19.748 14.8448 19.7816 14.8576 19.8185C15.0107 20.1033 15.2219 20.2013 15.5158 19.993C15.5427 19.9691 15.5744 19.9511 15.6088 19.9405C15.6433 19.9299 15.6796 19.9268 15.7153 19.9314C15.751 19.9361 15.7853 19.9484 15.8159 19.9674C15.8465 19.9865 15.8725 20.012 15.8924 20.042C15.9281 20.1025 15.9792 20.1524 16.0405 20.1865C16.1018 20.2206 16.1712 20.2378 16.2413 20.2362C16.3115 20.2347 16.3799 20.2144 16.4397 20.1776C16.4994 20.1408 16.5483 20.0887 16.5813 20.0267C16.5993 19.9989 16.6232 19.9753 16.6512 19.9576C16.6793 19.9399 16.7108 19.9284 16.7436 19.9241C16.7765 19.9197 16.81 19.9225 16.8416 19.9323C16.8733 19.9421 16.9025 19.9586 16.9272 19.9808C17.2334 20.2074 17.4569 20.1278 17.61 19.8001C17.6333 19.7415 17.6774 19.6935 17.7339 19.6652C17.7903 19.637 17.8552 19.6305 17.9161 19.647C18.2651 19.7175 18.4182 19.6286 18.5284 19.2826C18.5438 19.2166 18.5845 19.1593 18.6419 19.1232C18.6992 19.0871 18.7685 19.075 18.8346 19.0897C19.1806 19.1173 19.3367 18.955 19.3122 18.6028C19.3071 18.5664 19.3094 18.5294 19.3191 18.494C19.3288 18.4586 19.3457 18.4255 19.3686 18.3968C19.3916 18.3682 19.4201 18.3445 19.4525 18.3272C19.485 18.31 19.5205 18.2996 19.5571 18.2966C19.8633 18.2231 20.0195 18.0424 19.8848 17.7025C19.868 17.6697 19.8588 17.6334 19.858 17.5966C19.8572 17.5597 19.8648 17.5231 19.8801 17.4895C19.8954 17.456 19.9181 17.4263 19.9465 17.4027C19.9748 17.3792 20.0081 17.3623 20.0439 17.3534C20.1061 17.3374 20.1633 17.3059 20.2101 17.2619C20.2568 17.2178 20.2915 17.1626 20.3111 17.1014C20.3307 17.0402 20.3344 16.975 20.322 16.912C20.3095 16.8489 20.2813 16.7901 20.2399 16.741C20.1021 16.5236 20.1174 16.4041 20.3225 16.2908C20.4634 16.2112 20.4144 16.0979 20.4021 15.9846C20.4205 15.8866 20.4603 15.7611 20.3593 15.706C20.1021 15.5682 20.0929 15.4487 20.2644 15.2038C20.297 15.1569 20.3184 15.1032 20.3272 15.0467C20.3359 14.9903 20.3317 14.9326 20.3149 14.878C20.2981 14.8235 20.2691 14.7734 20.2301 14.7317C20.1911 14.69 20.1432 14.6577 20.0899 14.6372C19.8847 14.5515 19.8204 14.4443 19.9 14.2422C19.9281 14.1861 19.9421 14.124 19.9409 14.0613C19.9398 13.9986 19.9235 13.9371 19.8934 13.882C19.8633 13.827 19.8203 13.78 19.7682 13.7451C19.716 13.7103 19.6562 13.6886 19.5939 13.6818C19.3888 13.6298 19.3122 13.5563 19.3183 13.3389C19.3311 13.274 19.327 13.2069 19.3066 13.1439C19.2862 13.081 19.2501 13.0243 19.2016 12.9792C19.1532 12.9342 19.0941 12.9022 19.0299 12.8864C18.9657 12.8705 18.8984 12.8714 18.8346 12.8887C18.802 12.8973 18.768 12.8992 18.7346 12.8942C18.7013 12.8892 18.6693 12.8775 18.6407 12.8597C18.612 12.8419 18.5873 12.8185 18.568 12.7909C18.5487 12.7632 18.5352 12.7319 18.5284 12.6989C18.4029 12.3467 18.2498 12.2549 17.9161 12.3314C17.8564 12.3506 17.7915 12.3465 17.7347 12.3198C17.6779 12.2931 17.6333 12.2458 17.61 12.1875C17.4569 11.8568 17.2426 11.7741 16.9303 11.9946C16.7986 12.0864 16.6455 12.0956 16.5659 11.9272C16.5453 11.8733 16.5073 11.8279 16.458 11.7979C16.4086 11.768 16.3508 11.7553 16.2934 11.7619L16.1434 11.768Z" fill="#0A0A6B"/>
<path d="M20.3842 16.0061C20.3842 16.1163 20.4455 16.2296 20.3046 16.3123C20.0995 16.4256 20.0842 16.545 20.222 16.7625C20.2633 16.8116 20.2916 16.8704 20.304 16.9335C20.3165 16.9965 20.3128 17.0617 20.2932 17.1228C20.2736 17.184 20.2388 17.2393 20.1921 17.2833C20.1454 17.3274 20.0882 17.3589 20.026 17.3749C19.9902 17.3838 19.9569 17.4006 19.9285 17.4242C19.9001 17.4478 19.8774 17.4774 19.8621 17.511C19.8468 17.5446 19.8393 17.5812 19.8401 17.618C19.8409 17.6549 19.85 17.6911 19.8668 17.724C20.0015 18.0639 19.8668 18.2446 19.5392 18.3181C19.5026 18.321 19.467 18.3315 19.4346 18.3487C19.4022 18.366 19.3736 18.3896 19.3507 18.4183C19.3277 18.447 19.3109 18.48 19.3012 18.5155C19.2915 18.5509 19.2892 18.5879 19.2943 18.6243C19.3188 18.9764 19.1626 19.1387 18.8167 19.1112C18.7505 19.0965 18.6812 19.1085 18.6239 19.1447C18.5666 19.1808 18.5258 19.2381 18.5105 19.3041C18.3911 19.6501 18.238 19.7389 17.8982 19.6685C17.8372 19.652 17.7724 19.6585 17.7159 19.6867C17.6595 19.7149 17.6154 19.7629 17.592 19.8216C17.4389 20.1492 17.2185 20.2289 16.9093 20.0023C16.8846 19.9801 16.8554 19.9636 16.8237 19.9538C16.792 19.944 16.7586 19.9412 16.7257 19.9455C16.6929 19.9499 16.6613 19.9614 16.6333 19.9791C16.6052 19.9968 16.5814 20.0204 16.5633 20.0482C16.5304 20.1102 16.4815 20.1623 16.4218 20.1991C16.362 20.2359 16.2935 20.2561 16.2234 20.2577C16.1532 20.2592 16.0839 20.2421 16.0226 20.208C15.9613 20.1738 15.9101 20.124 15.8744 20.0635C15.8546 20.0335 15.8285 20.008 15.7979 19.9889C15.7674 19.9698 15.7331 19.9576 15.6974 19.9529C15.6616 19.9483 15.6254 19.9514 15.5909 19.962C15.5565 19.9726 15.5248 19.9905 15.4979 20.0145C15.1917 20.2227 14.9927 20.1247 14.8396 19.84C14.8269 19.8031 14.8061 19.7695 14.7788 19.7416C14.7515 19.7137 14.7183 19.6922 14.6817 19.6788C14.645 19.6653 14.6059 19.6601 14.567 19.6636C14.5281 19.6672 14.4905 19.6793 14.4569 19.6991C14.1508 19.8124 13.9487 19.6777 13.8936 19.3562C13.866 19.1785 13.7803 19.0959 13.6058 19.1112C13.2476 19.1449 13.1067 18.9734 13.119 18.6304C13.119 18.4467 13.0394 18.3487 12.8404 18.3242C12.5067 18.2813 12.4424 18.0517 12.5342 17.7699C12.5554 17.7322 12.5673 17.69 12.5689 17.6468C12.5705 17.6036 12.5619 17.5607 12.5436 17.5215C12.5254 17.4823 12.4981 17.448 12.464 17.4215C12.4299 17.3949 12.3899 17.3769 12.3475 17.3688C12.2941 17.3489 12.246 17.3171 12.2067 17.2759C12.1674 17.2347 12.1379 17.1851 12.1205 17.1309C12.1031 17.0766 12.0983 17.0192 12.1063 16.9628C12.1143 16.9064 12.135 16.8526 12.1668 16.8053C12.3352 16.5573 12.3383 16.4379 12.075 16.297C11.974 16.245 12.0138 16.1194 12.0321 16.0183C12.8833 16.1163 13.7528 16.0367 14.6376 16.2725L13.1068 16.7808C13.6946 16.8819 14.2243 16.6032 14.8703 16.5879L13.2445 17.6964L13.1006 17.7516C13.1649 17.8434 13.2323 17.8006 13.2997 17.7516L14.8641 16.9799C14.6927 17.4392 14.2824 17.6872 14.1599 18.1588L15.2009 17.2616L15.2805 17.3198C15.0723 17.7332 14.8641 18.1435 14.6682 18.5447L14.7692 18.612C15.0659 18.2276 15.3409 17.8268 15.5928 17.4116L15.6755 17.4729C15.5714 17.9475 15.4673 18.4222 15.3693 18.8968L15.4917 18.9305C15.7489 18.3854 15.8745 17.7883 16.0857 17.2218C16.0603 17.8163 16.1075 18.4118 16.2265 18.9948C16.3423 18.4123 16.3926 17.8186 16.3766 17.2249C16.5694 17.8159 16.7317 18.4069 16.9889 19.0622C17.0624 18.4497 16.8511 17.969 16.7654 17.476L16.8511 17.4116L17.6533 18.6365C17.6533 18.1068 17.3195 17.7179 17.1083 17.2279C17.6196 17.4025 17.84 17.9445 18.3727 18.0363L17.3808 16.9339C18.0696 17.133 18.5687 17.5066 19.132 17.7362C19.1657 17.7362 19.2208 17.7699 19.2331 17.7577C19.2453 17.7454 19.2331 17.6873 19.1902 17.675L17.5339 16.5573C18.1247 16.5573 18.6544 16.8451 19.2422 16.7349L17.7818 16.2419V16.1531L20.3842 16.0061ZM13.912 18.2262C13.863 18.2629 13.765 18.2966 13.8048 18.364C13.8446 18.4314 13.9181 18.3885 13.9548 18.3211C13.9915 18.2538 14.0742 18.2813 14.0313 18.2078C13.9885 18.1343 13.9457 18.1772 13.912 18.2262ZM18.5044 18.4007C18.5044 18.3456 18.5442 18.3028 18.5289 18.2813C18.5008 18.2385 18.463 18.2028 18.4187 18.1772C18.4187 18.1772 18.3543 18.2354 18.3574 18.2354C18.405 18.2974 18.4561 18.3567 18.5105 18.413L18.5044 18.4007Z" fill="#F4F4F8"/>
<path d="M12.023 15.9908C12.023 15.8805 11.9618 15.7672 12.1026 15.6846C12.3047 15.5743 12.3261 15.4549 12.1853 15.2375C12.1454 15.1884 12.1182 15.1303 12.106 15.0682C12.0939 15.0061 12.0972 14.942 12.1156 14.8815C12.1341 14.821 12.1671 14.766 12.2118 14.7212C12.2565 14.6765 12.3116 14.6435 12.372 14.625C12.5557 14.5485 12.5864 14.4291 12.5282 14.2453C12.5006 14.1867 12.4878 14.1222 12.4908 14.0575C12.4938 13.9928 12.5126 13.9297 12.5455 13.8739C12.5784 13.8181 12.6244 13.7712 12.6795 13.7372C12.7346 13.7031 12.7973 13.6831 12.8619 13.6788C13.0517 13.639 13.113 13.5349 13.1038 13.342C13.091 13.2778 13.0947 13.2114 13.1145 13.149C13.1342 13.0866 13.1693 13.0302 13.2166 12.9851C13.264 12.9399 13.3219 12.9074 13.3851 12.8905C13.4483 12.8737 13.5148 12.8731 13.5783 12.8888C13.6134 12.8973 13.6499 12.8981 13.6853 12.8911C13.7207 12.8841 13.7542 12.8694 13.7833 12.8481C13.8125 12.8268 13.8366 12.7995 13.8541 12.7679C13.8716 12.7363 13.8819 12.7012 13.8845 12.6652C13.961 12.3161 14.1355 12.163 14.4968 12.3284C14.5262 12.3409 14.5579 12.3471 14.5898 12.3465C14.6217 12.346 14.6532 12.3386 14.6821 12.3251C14.711 12.3115 14.7367 12.2919 14.7576 12.2677C14.7784 12.2434 14.7939 12.2151 14.8029 12.1844C14.956 11.8568 15.1704 11.7741 15.4827 11.9946C15.6143 12.0865 15.7643 12.0926 15.847 11.9242C15.8671 11.8708 15.9047 11.8258 15.9536 11.7963C16.0024 11.7669 16.0598 11.7548 16.1164 11.7619C16.3123 11.8262 16.2235 11.964 16.1899 12.0681C16.1242 12.2344 16.1242 12.4193 16.1899 12.5856C16.2571 12.4196 16.2571 12.234 16.1899 12.0681C16.1592 11.9548 16.0674 11.8139 16.2633 11.7619C16.3207 11.7553 16.3785 11.768 16.4279 11.7979C16.4772 11.8279 16.5152 11.8734 16.5358 11.9272C16.6154 12.0957 16.7685 12.0865 16.9002 11.9946C17.2063 11.7741 17.4268 11.8568 17.5798 12.1875C17.6032 12.2458 17.6477 12.2931 17.7046 12.3198C17.7614 12.3465 17.8262 12.3507 17.886 12.3314C18.2258 12.2549 18.3789 12.3468 18.4983 12.6989C18.5051 12.7319 18.5186 12.7632 18.5379 12.7909C18.5572 12.8185 18.5819 12.842 18.6106 12.8597C18.6392 12.8775 18.6712 12.8893 18.7045 12.8942C18.7379 12.8992 18.7719 12.8974 18.8045 12.8888C18.8683 12.8714 18.9355 12.8706 18.9997 12.8864C19.064 12.9022 19.1231 12.9342 19.1715 12.9793C19.22 13.0243 19.2561 13.081 19.2765 13.1439C19.2969 13.2069 19.301 13.274 19.2882 13.3389C19.2882 13.5563 19.3586 13.6298 19.5638 13.6819C19.6261 13.6886 19.6859 13.7103 19.7381 13.7452C19.7902 13.78 19.8332 13.827 19.8633 13.882C19.8934 13.9371 19.9097 13.9986 19.9108 14.0613C19.912 14.1241 19.8979 14.1861 19.8699 14.2423C19.7903 14.4444 19.8699 14.5485 20.0597 14.6373C20.1131 14.6577 20.161 14.69 20.2 14.7317C20.239 14.7734 20.268 14.8235 20.2848 14.8781C20.3016 14.9326 20.3058 14.9903 20.2971 15.0468C20.2883 15.1032 20.2668 15.1569 20.2342 15.2038C20.0628 15.4488 20.072 15.5682 20.3292 15.706C20.4302 15.7611 20.3904 15.8867 20.372 15.9846L17.7697 15.8315L17.7513 15.7427L19.2821 15.2283C18.6698 15.0997 18.1217 15.4396 17.491 15.4181C18.0646 15.0792 18.6158 14.7038 19.1413 14.2943C19.1811 14.2943 19.2239 14.2759 19.1933 14.2269C19.1627 14.178 19.129 14.2269 19.0923 14.2514C18.5289 14.4658 18.0452 14.8639 17.3839 15.02C17.6901 14.6158 18.0636 14.3433 18.2411 13.9268C17.7911 14.1044 17.5554 14.5822 17.0441 14.772C17.3022 14.3566 17.5205 13.9178 17.6962 13.4614L17.5921 13.4032C17.3308 13.7911 17.0726 14.182 16.8175 14.576L16.7348 14.5117C16.8114 14.0463 17.0073 13.5931 16.8726 13.097L16.3491 14.7659C16.3483 14.1441 16.2961 13.5234 16.1929 12.9102C16.0799 13.5161 16.0225 14.1311 16.0215 14.7475C15.8724 14.165 15.679 13.5948 15.4428 13.0419L15.3204 13.0847C15.4245 13.5563 15.5316 14.0279 15.6265 14.4995L15.5439 14.5638C15.2561 14.1749 15.051 13.7186 14.6744 13.391C14.7877 13.887 15.1306 14.2759 15.2469 14.821L14.1202 13.8227L14.0437 13.9115C14.258 14.3249 14.7264 14.5638 14.9132 15.066L13.2599 14.2361C13.1926 14.1902 13.1252 14.1504 13.0609 14.2361L13.2048 14.2912L14.8581 15.4212C14.1845 15.3661 13.661 15.115 13.0854 15.213L14.4907 15.6815C13.6946 15.9632 12.8496 15.8989 12.023 15.9908ZM13.909 13.7737C13.9427 13.8197 13.9885 13.8625 14.0314 13.7921C14.0743 13.7217 13.9977 13.7033 13.9549 13.6788C13.912 13.6543 13.8538 13.5594 13.8049 13.6359C13.7559 13.7125 13.8631 13.7339 13.909 13.7737ZM18.4371 13.8227C18.4705 13.816 18.5 13.7967 18.5194 13.7687C18.5388 13.7407 18.5466 13.7063 18.5412 13.6727C18.5412 13.6298 18.4983 13.6114 18.4585 13.6513C18.419 13.6877 18.3841 13.7289 18.3544 13.7737C18.3548 13.7833 18.3575 13.7925 18.3625 13.8007C18.3674 13.8088 18.3744 13.8155 18.3827 13.8201C18.3911 13.8248 18.4005 13.8272 18.41 13.8271C18.4195 13.827 18.4288 13.8244 18.4371 13.8197V13.8227Z" fill="#F4F4F8"/>
<path d="M16.8356 14.5821C17.0928 14.1902 17.351 13.7992 17.6102 13.4093L17.7143 13.4675C17.5386 13.9239 17.3203 14.3627 17.0622 14.7781C17.5735 14.5882 17.8092 14.1105 18.2593 13.9329C18.0817 14.3494 17.7143 14.6219 17.402 15.0261C18.0633 14.8792 18.5471 14.4719 19.1104 14.2575L19.1594 14.3004C18.6339 14.7099 18.0827 15.0853 17.5092 15.4242C18.1399 15.4457 18.6879 15.118 19.3002 15.2344L17.7694 15.7488L17.7878 15.8376L20.3901 15.9907L17.7847 16.1469V16.2357L19.2451 16.7287C18.6573 16.839 18.1276 16.548 17.5367 16.5511L19.1931 17.6688C19.1721 17.6877 19.1527 17.7082 19.1349 17.7301C18.5716 17.5004 18.0725 17.1176 17.3837 16.9278L18.3756 18.0302C17.8429 17.9383 17.6225 17.3963 17.1112 17.2217C17.3224 17.7086 17.6439 18.1006 17.6561 18.6304L16.854 17.4055C16.8326 17.3289 16.8234 17.2064 16.7162 17.2738C16.609 17.3412 16.7652 17.3963 16.7683 17.4698C16.854 17.9628 17.0744 18.4405 16.9918 19.056C16.7254 18.4007 16.5631 17.8097 16.3794 17.2187C16.3955 17.8124 16.3451 18.4061 16.2294 18.9886C16.1104 18.4056 16.0631 17.8102 16.0886 17.2156C15.8773 17.7821 15.7518 18.3792 15.4946 18.9243L15.3722 18.8906C15.4732 18.416 15.5773 17.9413 15.6783 17.4667C15.7089 17.4024 15.7365 17.335 15.6783 17.2738L15.5987 17.4055C15.3469 17.8207 15.0719 18.2214 14.7752 18.6059L14.6741 18.5385C14.8793 18.1251 15.0874 17.7147 15.2865 17.3136L15.2068 17.2554L14.1659 18.1527C14.2884 17.6811 14.6986 17.433 14.8701 16.9737L13.3056 17.7454C13.2897 17.7228 13.2712 17.7023 13.2505 17.6841L14.8762 16.5756C14.2302 16.5756 13.7005 16.8818 13.1127 16.7685L14.6435 16.2602C13.7587 16.0244 12.8892 16.104 12.0381 16.006C12.8647 15.9142 13.7097 15.9754 14.5333 15.7213L13.128 15.2527C13.7036 15.1456 14.2271 15.4058 14.9007 15.461L13.2474 14.331C13.2674 14.3122 13.2859 14.2917 13.3025 14.2698L14.9558 15.0996C14.769 14.5974 14.3006 14.3586 14.0863 13.9452L14.1628 13.8564L15.2895 14.8547C15.1732 14.3096 14.8303 13.9207 14.717 13.4246C15.0936 13.7523 15.2987 14.2085 15.5865 14.5974L15.6569 14.873C15.681 14.8196 15.6934 14.7617 15.6934 14.7031C15.6934 14.6445 15.681 14.5866 15.6569 14.5331C15.5528 14.0616 15.4456 13.59 15.3507 13.1184L15.4732 13.0755C15.7094 13.6284 15.9028 14.1987 16.0519 14.7812C16.0529 14.1648 16.1102 13.5498 16.2233 12.9438C16.3264 13.557 16.3787 14.1777 16.3794 14.7995L16.903 13.1306C17.0377 13.6328 16.8417 14.0799 16.7652 14.5454C16.7652 14.6189 16.6244 14.6862 16.707 14.7414C16.7897 14.7965 16.8142 14.6587 16.8356 14.5821Z" fill="#111170"/>
<path d="M16.269 11.7681C16.0731 11.8324 16.1649 11.9732 16.1955 12.0743C16.2628 12.2402 16.2628 12.4258 16.1955 12.5918C16.1299 12.4255 16.1299 12.2405 16.1955 12.0743C16.2292 11.9579 16.318 11.8201 16.1221 11.7681H16.269Z" fill="#111170"/>
<path d="M18.5102 18.413C18.4583 18.3605 18.4093 18.3053 18.3633 18.2476C18.3633 18.2476 18.4184 18.1864 18.4245 18.1894C18.4689 18.2151 18.5067 18.2507 18.5348 18.2935C18.5501 18.3027 18.5225 18.3456 18.5102 18.413Z" fill="#111170"/>
<path d="M13.2869 17.7454C13.2195 17.7883 13.1522 17.8312 13.0879 17.7454L13.2318 17.6903C13.2522 17.7065 13.2707 17.725 13.2869 17.7454Z" fill="#111170"/>
<path d="M13.9545 18.3211C13.9178 18.3885 13.8535 18.4406 13.8045 18.364C13.7555 18.2874 13.8627 18.2629 13.9117 18.2262C13.9239 18.2568 13.9392 18.2874 13.9545 18.3211Z" fill="#111170"/>
<path d="M19.1744 17.6842C19.2172 17.6842 19.2509 17.724 19.2172 17.7669C19.1836 17.8098 19.1499 17.7669 19.1162 17.7455C19.134 17.7236 19.1534 17.7031 19.1744 17.6842Z" fill="#111170"/>
<path d="M13.9121 18.2261C13.9458 18.1771 13.9886 18.1343 14.0315 18.2078C14.0743 18.2813 14.0009 18.2935 13.9549 18.3211C13.9396 18.2874 13.9244 18.2568 13.9121 18.2261Z" fill="#111170"/>
<path d="M18.4371 13.8197C18.4287 13.8246 18.4191 13.8272 18.4093 13.8271C18.3995 13.8271 18.3899 13.8244 18.3815 13.8194C18.3731 13.8144 18.3661 13.8073 18.3614 13.7987C18.3566 13.7902 18.3543 13.7805 18.3545 13.7707C18.3841 13.7259 18.4191 13.6847 18.4586 13.6482C18.4984 13.6084 18.5321 13.6268 18.5413 13.6697C18.5467 13.7033 18.5388 13.7377 18.5194 13.7657C18.5 13.7937 18.4705 13.813 18.4371 13.8197Z" fill="#111170"/>
<path d="M13.9083 13.7738C13.8624 13.7339 13.7644 13.7003 13.8042 13.636C13.844 13.5717 13.9175 13.6084 13.9542 13.6788L13.9083 13.7738Z" fill="#111170"/>
<path d="M13.2318 14.3158L13.0879 14.2607C13.1522 14.1688 13.2195 14.2086 13.2869 14.2607C13.27 14.2804 13.2516 14.2989 13.2318 14.3158Z" fill="#111170"/>
<path d="M13.9541 13.6788C13.997 13.7033 14.0735 13.7186 14.0306 13.7921C13.9878 13.8656 13.9419 13.8197 13.9082 13.7738L13.9541 13.6788Z" fill="#111170"/>
<path d="M19.1104 14.2575C19.1471 14.2575 19.2053 14.2238 19.2114 14.233C19.2175 14.2422 19.2114 14.2943 19.1593 14.3004L19.1104 14.2575Z" fill="#111170"/>
<path d="M15.6563 14.5178C15.6804 14.5712 15.6929 14.6292 15.6929 14.6878C15.6929 14.7464 15.6804 14.8043 15.6563 14.8577L15.5859 14.5821L15.6563 14.5178Z" fill="#F4F4F8"/>
<path d="M16.8353 14.5821C16.8139 14.6587 16.8047 14.7812 16.6945 14.7138C16.5843 14.6464 16.7466 14.5913 16.7527 14.5178L16.8353 14.5821Z" fill="#F4F4F8"/>
<path d="M16.75 17.4943C16.75 17.4208 16.6123 17.3504 16.698 17.2983C16.7838 17.2462 16.8144 17.3534 16.8358 17.43L16.75 17.4943Z" fill="#F4F4F8"/>
<path d="M15.5713 17.4178L15.6509 17.2861C15.7121 17.3474 15.6846 17.4147 15.6509 17.4791L15.5713 17.4178Z" fill="#F4F4F8"/>
</svg>