<svg width="32" height="32" viewBox="0 0 32 32" fill="none" xmlns="http://www.w3.org/2000/svg">
<g clip-path="url(#clip0_710_206)">
<path d="M0.00585938 10.7102C0.00585938 7.27857 0.00585938 3.84795 0.00585938 0.418321C0.00585938 0.0712045 0.0411502 0 0.214632 0C10.7411 0.0118672 21.2686 0.0118672 31.7971 0C31.9706 0 32.0059 0.0712045 32.0059 0.418321C32.0059 3.84795 32.0059 7.27857 32.0059 10.7102C31.9006 10.6944 31.7946 10.6845 31.6883 10.6805C21.2382 10.6805 10.7872 10.6805 0.335179 10.6805C0.224935 10.6841 0.114984 10.694 0.00585938 10.7102Z" fill="#D1232C"/>
<path d="M31.9941 21.2927C31.9941 24.7224 31.9941 28.153 31.9941 31.5846C31.9941 31.9317 31.9589 32.0029 31.7854 32.0029C21.2569 31.991 10.7294 31.991 0.202895 32.0029C0.0294135 32.0029 -0.00585938 31.9317 -0.00585938 31.5846C-0.00585938 28.155 -0.00585938 24.7243 -0.00585938 21.2927C0.0999938 21.2927 0.205834 21.3224 0.311687 21.3224H31.6766C31.7824 21.3224 31.8883 21.3016 31.9941 21.2927Z" fill="#008C46"/>
<path d="M31.9941 21.2928C31.8882 21.2928 31.7824 21.3225 31.6765 21.3225H0.323424C0.217571 21.3225 0.111713 21.3017 0.00585938 21.2928V10.7102C0.111092 10.6944 0.217111 10.6845 0.323424 10.6805C10.7735 10.6805 21.2245 10.6805 31.6765 10.6805C31.7829 10.6845 31.8889 10.6944 31.9941 10.7102V21.2928Z" fill="#FEFEFE"/>
</g>
<defs>
<clipPath id="clip0_710_206">
<rect width="32" height="32" rx="16" fill="white"/>
</clipPath>
</defs>
</svg>