<svg width="32" height="32" viewBox="0 0 32 32" fill="none" xmlns="http://www.w3.org/2000/svg">
<g clip-path="url(#clip0_710_220)">
<path d="M31.9935 10.8602V21.4256C31.8952 21.4256 31.8 21.4469 31.7018 21.4469H0.294348C0.196094 21.4469 0.100911 21.4317 -0.0126953 21.4256V10.8602C0.0886288 10.9605 0.196094 10.915 0.294348 10.915H31.6772C31.7816 10.9089 31.886 10.9605 31.9935 10.8602Z" fill="#0000A9"/>
<path d="M0.00223592 21.4255C0.10049 21.4255 0.195673 21.4468 0.309279 21.4468H31.7013C31.7996 21.4468 31.8948 21.4316 31.993 21.4255C31.993 24.8116 31.993 28.1966 31.993 31.5806C31.993 31.9028 31.9746 32 31.7904 32C21.2588 31.9879 10.7283 31.9879 0.198743 32C0.0145174 32 -0.00390625 31.9028 -0.00390625 31.5806C0.00428156 28.1945 0.00632982 24.8095 0.00223592 21.4255Z" fill="#FE9800"/>
<path d="M31.9933 10.8602C31.892 10.9605 31.7814 10.9149 31.6863 10.9149H0.318762C0.211297 10.9149 0.103832 10.9605 0.0117188 10.8602C0.0117188 7.51671 0.0117188 3.75987 0.0117188 0.410327C0.0117188 0.0699014 0.0454929 0 0.217437 0C10.747 0 21.2744 0 31.7999 0C31.9749 0 32.0117 0.0699014 32.0086 0.410327C31.9902 3.75987 31.9933 7.51367 31.9933 10.8602Z" fill="#FE0000"/>
</g>
<defs>
<clipPath id="clip0_710_220">
<rect width="32" height="32" rx="16" fill="white"/>
</clipPath>
</defs>
</svg>