<svg width="32" height="32" viewBox="0 0 32 32" fill="none" xmlns="http://www.w3.org/2000/svg">
<path d="M15.9804 7.5076e-07C11.739 0.00909137 7.67438 1.70035 4.67846 4.7027C1.68254 7.70506 -9.74191e-06 11.7733 0 16.0147H32C32 13.9112 31.5856 11.8283 30.7805 9.88501C29.9754 7.9417 28.7953 6.17601 27.3077 4.68885C25.82 3.20168 24.054 2.02216 22.1104 1.21764C20.1669 0.41311 18.0839 -0.000643307 15.9804 7.5076e-07Z" fill="#CD1225"/>
<path d="M15.9804 31.995C20.2222 31.9951 24.291 30.3127 27.2941 27.3169C30.2973 24.3211 31.9896 20.2565 32 16.0146H0C0.0103579 20.2497 1.69733 24.3084 4.69199 27.3031C7.68665 30.2977 11.7453 31.9847 15.9804 31.995Z" fill="white"/>
</svg>