<svg width="32" height="32" viewBox="0 0 32 32" fill="none" xmlns="http://www.w3.org/2000/svg">
<path d="M32 16.0172C31.9961 12.7094 30.9682 9.48374 29.0574 6.78287C27.1465 4.082 24.4463 2.03821 21.3271 0.931885V31.1026C24.4463 29.9962 27.1465 27.9524 29.0574 25.2516C30.9682 22.5507 31.9961 19.3251 32 16.0172Z" fill="#CE2B37"/>
<path d="M16.0078 32C17.8252 32.0016 19.6294 31.6914 21.3418 31.0829V0.912236C17.8882 -0.304079 14.1225 -0.304079 10.6689 0.912236V31.0829C12.3831 31.6909 14.1888 32.0011 16.0078 32Z" fill="white"/>
<path d="M10.6691 0.912781C7.54865 2.01663 4.8472 4.05992 2.93656 6.76143C1.02592 9.46294 0 12.6899 0 15.9981C0 19.3064 1.02592 22.5333 2.93656 25.2348C4.8472 27.9363 7.54865 29.9796 10.6691 31.0834V0.912781Z" fill="#009246"/>
</svg>