<svg width="32" height="32" viewBox="0 0 32 32" fill="none" xmlns="http://www.w3.org/2000/svg">
<g clip-path="url(#clip0_710_71)">
<rect x="-6" width="42" height="32" fill="white"/>
<path d="M13.9165 0.00420499H18.5502C18.5435 -3.95475 18.5391 -3.91338 18.5369 0.128135C18.5369 3.07117 18.5369 10.0142 18.5369 12.9594C18.5369 13.2183 18.663 13.2073 18.8423 13.2073H27.512H33.4623V17.7811C33.3361 17.7811 33.2122 17.7811 33.0861 17.7811C28.3566 17.7811 23.6286 17.7811 18.902 17.7811C18.5922 17.7811 18.528 17.8652 18.5302 18.1595C18.5413 20.9986 18.5302 23.8376 18.5302 26.6766C18.5302 26.7806 18.5413 31.8846 18.5457 31.9886H13.9165C13.9239 31.9476 13.9291 31.9063 13.932 26.8647C13.932 23.9217 13.932 20.9787 13.932 18.0356C13.932 17.7745 13.8059 17.7856 13.6244 17.7856C10.7316 17.7856 7.84017 17.7856 4.95024 17.7856H-1V13.2161H-0.62382C4.10569 13.2161 8.83446 13.2161 13.5625 13.2161C13.8723 13.2161 13.9342 13.1298 13.932 12.8355C13.921 9.99649 13.932 3.15746 13.932 0.318433C13.932 0.212218 13.921 0.108207 13.9165 0.00420499Z" fill="#E7122E"/>
<path d="M13.9165 4.00443C13.9165 4.10843 13.932 4.21244 13.932 4.31644C13.932 7.15548 13.932 9.99451 13.932 12.8335C13.932 13.1278 13.8723 13.2141 13.5625 13.2141C8.83298 13.2023 4.10421 13.2023 -0.62382 13.2141H-1C-1 10.2291 -1 7.23956 -1 4.25669C-1 4.03541 -0.957956 4 -0.743313 4C4.14404 4.00738 9.03066 4.00886 13.9165 4.00443ZM7.24271 6.38541C6.82798 6.41529 6.41163 6.41529 5.9969 6.38541C5.69596 6.33894 5.67604 6.47392 5.72694 6.7129C5.79235 7.03996 5.8345 7.37123 5.85307 7.70424C5.86634 7.92552 5.82873 8.01847 5.57204 7.9897C5.20029 7.94544 4.82633 7.91003 4.46564 7.83922C4.33066 7.81266 4.25985 7.82375 4.26649 8.00077C4.28419 8.39687 4.28419 8.79517 4.26649 9.18905C4.26649 9.37714 4.31738 9.38818 4.48777 9.36163C4.87944 9.29967 5.27553 9.26428 5.66719 9.21339C5.83758 9.18905 5.87741 9.2532 5.87298 9.41916C5.84805 9.81434 5.803 10.208 5.738 10.5986C5.738 10.6738 5.634 10.8398 5.83094 10.8199C6.30867 10.7768 6.78932 10.7768 7.26706 10.8199C7.23165 10.3419 7.12101 9.90599 7.1011 9.45679C7.09003 9.22223 7.16747 9.16912 7.3799 9.20231C7.76051 9.25985 8.14554 9.29527 8.52614 9.35501C8.68104 9.37935 8.72972 9.35501 8.70759 9.18684C8.65558 8.80356 8.65558 8.415 8.70759 8.03173C8.74078 7.79717 8.64121 7.81047 8.46861 7.83038C8.10792 7.8857 7.74281 7.91005 7.38433 7.97422C7.12544 8.02069 7.07897 7.91669 7.10773 7.69541C7.1542 7.27497 7.1896 6.84346 7.24271 6.38541Z" fill="#FEFDFD"/>
<path d="M33.4569 13.216H27.5089H18.8347C18.6554 13.216 18.5271 13.216 18.5293 12.9682C18.5293 10.0229 18.5293 7.07988 18.5293 4.13684C18.5316 4.09533 18.536 4.05398 18.5426 4.01294C23.4241 4.01294 28.304 4.01294 33.1825 4.01294C33.4038 4.01294 33.4591 4.04391 33.4591 4.28068C33.4525 7.24142 33.4569 10.2309 33.4569 13.216ZM25.212 10.8439C25.6565 10.7818 26.107 10.7758 26.553 10.8262C26.7521 10.8571 26.7742 10.7753 26.7521 10.6049C26.6924 10.2464 26.6437 9.88573 26.6105 9.52062C26.5839 9.23296 26.6879 9.18204 26.9358 9.22187C27.2854 9.27719 27.6417 9.29932 27.9891 9.36571C28.1904 9.40554 28.2104 9.34136 28.2104 9.16655C28.1971 8.79259 28.1926 8.41642 28.2104 8.04245C28.2104 7.8433 28.1595 7.82117 27.9891 7.84551C27.6097 7.91889 27.2261 7.96915 26.8406 7.99599C26.6548 8.01148 26.6193 7.95616 26.6193 7.77471C26.6398 7.37955 26.6871 6.98622 26.761 6.59748C26.7875 6.44037 26.761 6.3762 26.5751 6.3762C26.1902 6.41382 25.8026 6.41382 25.4178 6.3762C25.2452 6.36071 25.2164 6.40941 25.2408 6.58201C25.3146 6.97094 25.3641 7.3641 25.389 7.75921C25.389 7.96279 25.3359 8.00262 25.1434 7.98049C24.7589 7.94963 24.3763 7.89868 23.9972 7.82782C23.8135 7.7902 23.7604 7.82783 23.787 8.02919C23.8345 8.40238 23.8345 8.7801 23.787 9.15329C23.7648 9.33695 23.787 9.39006 23.9905 9.35245C24.3711 9.28606 24.7562 9.2595 25.1368 9.20196C25.358 9.16877 25.3935 9.25507 25.389 9.45423C25.3647 9.9167 25.2518 10.3526 25.212 10.8394V10.8439Z" fill="#FEFDFD"/>
<path d="M-0.991211 17.786H4.95903C7.85044 17.786 10.7418 17.786 13.6332 17.786C13.8147 17.786 13.9408 17.7749 13.9408 18.036C13.9298 20.979 13.9408 23.9221 13.9408 26.8651C13.9378 26.9067 13.9327 26.948 13.9253 26.989C9.04683 26.989 4.16684 26.989 -0.71461 26.989C-0.935891 26.989 -0.991211 26.9581 -0.991211 26.7235C-0.986785 23.7495 -0.991211 20.7666 -0.991211 17.786ZM6.45932 24.5837C6.64962 24.5837 6.81779 24.5837 6.98154 24.6125C7.18954 24.639 7.27806 24.6125 7.22716 24.3602C7.15856 24.0128 7.14086 23.6565 7.09218 23.3069C7.05898 23.0723 7.11209 22.975 7.38205 23.0104C7.74496 23.0547 8.10786 23.0879 8.46634 23.1564C8.62344 23.1852 8.72081 23.1918 8.68762 22.9683C8.63672 22.585 8.63672 22.1966 8.68762 21.8133C8.71196 21.6318 8.66549 21.6031 8.49289 21.6318C8.11229 21.696 7.72725 21.7292 7.34665 21.7845C7.14971 21.811 7.07448 21.7646 7.08333 21.5433C7.10708 21.1583 7.15661 20.7754 7.23158 20.3971C7.2692 20.1758 7.19839 20.1536 7.0103 20.1758C6.64837 20.2256 6.28133 20.2256 5.91939 20.1758C5.69811 20.1404 5.67819 20.24 5.71139 20.417C5.78449 20.7954 5.83108 21.1784 5.85079 21.5632C5.85079 21.7447 5.81539 21.811 5.62951 21.7845C5.25776 21.7358 4.88158 21.7115 4.52311 21.6451C4.32174 21.6097 4.23544 21.6185 4.26421 21.8664C4.28745 22.0735 4.29411 22.2822 4.28412 22.4904C4.27085 23.2096 4.26863 23.2095 4.97009 23.0856C5.89726 22.9219 5.94373 22.9683 5.79104 23.911C5.67598 24.6279 5.67598 24.6279 6.39072 24.5992L6.45932 24.5837Z" fill="#FEFDFD"/>
<path d="M18.5477 26.9934C18.5477 26.8894 18.5322 26.7854 18.5322 26.6814C18.5322 23.8424 18.5322 21.0033 18.5322 18.1643C18.5322 17.87 18.5942 17.7837 18.904 17.7859C23.6246 17.7963 28.3527 17.7963 33.0881 17.7859C33.2142 17.7859 33.3381 17.7859 33.4642 17.7859C33.4642 20.771 33.4642 23.7605 33.4642 26.7434C33.4642 26.9647 33.4222 27.0001 33.2076 27.0001C28.3202 26.9912 23.4336 26.989 18.5477 26.9934ZM25.9938 20.2178C25.7924 20.2045 25.6044 20.1957 25.4185 20.1757C25.2326 20.1558 25.1972 20.1758 25.2304 20.3661C25.2901 20.7467 25.3565 21.1251 25.3831 21.5123C25.3986 21.769 25.3101 21.8154 25.0866 21.7823C24.7148 21.7269 24.3408 21.6938 23.9802 21.6318C23.8053 21.603 23.7589 21.6318 23.7854 21.8132C23.8374 22.1861 23.8374 22.5645 23.7854 22.9374C23.7456 23.1963 23.854 23.1808 24.0377 23.1586C24.3873 23.1033 24.7436 23.0812 25.091 23.0192C25.361 22.9705 25.4141 23.0812 25.3831 23.3135C25.3344 23.6631 25.3167 24.0194 25.2459 24.3668C25.195 24.6169 25.2857 24.6412 25.4915 24.6191C25.8124 24.576 26.1376 24.576 26.4585 24.6191C26.7904 24.6766 26.786 24.5151 26.7395 24.2761C26.6768 23.9487 26.6361 23.6176 26.6178 23.2848C26.6068 23.0635 26.6466 22.9905 26.8834 23.0148C27.2573 23.0568 27.6313 23.09 27.9898 23.1653C28.1424 23.194 28.211 23.1653 28.211 22.986C28.1933 22.601 28.1911 22.2138 28.211 21.8287C28.211 21.6252 28.1557 21.6074 27.9898 21.6473C27.6114 21.7092 27.2241 21.7402 26.8435 21.7911C26.6577 21.8177 26.6223 21.7491 26.6223 21.5698C26.6388 21.1981 26.6839 20.8282 26.7572 20.4634C26.7971 20.2576 26.7705 20.147 26.5205 20.1913C26.3456 20.2112 26.1697 20.22 25.9938 20.2178Z" fill="#FEFDFD"/>
<path d="M7.24028 6.38501C7.18718 6.84306 7.14292 7.27013 7.08539 7.71269C7.05663 7.93397 7.10309 8.03798 7.36199 7.99151C7.72047 7.92734 8.08558 7.90299 8.44627 7.84767C8.61887 7.82112 8.71844 7.81449 8.68525 8.04905C8.63324 8.43232 8.63324 8.82085 8.68525 9.20412C8.70738 9.3723 8.65869 9.39664 8.5038 9.3723C8.12319 9.31255 7.73817 9.27714 7.35756 9.2196C7.13628 9.18641 7.06769 9.23952 7.07875 9.47408C7.09867 9.91664 7.20931 10.3592 7.24471 10.8372C6.76698 10.7941 6.28633 10.7941 5.8086 10.8372C5.61166 10.8549 5.7046 10.6889 5.71566 10.6159C5.78066 10.2253 5.82571 9.83166 5.85064 9.43648C5.85064 9.27052 5.81524 9.21519 5.64485 9.23068C5.25318 9.28157 4.85709 9.31699 4.46542 9.37894C4.30389 9.4055 4.24414 9.39443 4.24414 9.20634C4.26184 8.81246 4.26184 8.41416 4.24414 8.01806C4.24414 7.84104 4.30832 7.82998 4.4433 7.85653C4.81284 7.92734 5.1868 7.96273 5.5497 8.00699C5.80639 8.03575 5.844 7.95169 5.83073 7.72155C5.81216 7.38854 5.77001 7.05724 5.7046 6.73019C5.6537 6.49121 5.67362 6.35623 5.97456 6.4027C6.39633 6.42765 6.81937 6.42174 7.24028 6.38501Z" fill="#E71530"/>
<path d="M25.2157 10.8398C25.2555 10.3529 25.3684 9.91703 25.3839 9.46562C25.3839 9.26647 25.3507 9.18016 25.1316 9.21336C24.751 9.27089 24.366 9.29743 23.9854 9.36381C23.784 9.40143 23.7641 9.34832 23.7818 9.16465C23.8294 8.79146 23.8294 8.41375 23.7818 8.04056C23.7553 7.84583 23.8084 7.80157 23.992 7.83918C24.3712 7.91005 24.7538 7.96103 25.1383 7.99188C25.3308 8.00958 25.3905 7.96975 25.3839 7.7706C25.359 7.37549 25.3095 6.98231 25.2356 6.59337C25.2113 6.42077 25.2356 6.37211 25.4127 6.3876C25.7975 6.42521 26.1851 6.42521 26.5699 6.3876C26.7514 6.36989 26.7912 6.4407 26.7558 6.60888C26.682 6.99761 26.6347 7.39092 26.6142 7.78608C26.6142 7.96753 26.6496 8.02285 26.8355 8.00736C27.221 7.98052 27.6045 7.93028 27.9839 7.8569C28.1587 7.8215 28.2185 7.85691 28.2052 8.05385C28.1853 8.42781 28.1897 8.80398 28.2052 9.17794C28.2052 9.35276 28.1919 9.41693 27.9839 9.3771C27.6365 9.31072 27.2803 9.28858 26.9306 9.23326C26.6828 9.19343 26.5788 9.23326 26.6054 9.53199C26.6385 9.8971 26.6872 10.2578 26.747 10.6163C26.7757 10.7867 26.747 10.8685 26.5478 10.8376C26.1054 10.7828 25.6579 10.7836 25.2157 10.8398Z" fill="#E71530"/>
<path d="M6.45662 24.5837H6.38581C5.67107 24.6125 5.67107 24.6125 5.78614 23.8955C5.93882 22.9529 5.89235 22.9064 4.96518 23.0701C4.26372 23.1941 4.26594 23.194 4.27921 22.4749C4.2892 22.2667 4.28254 22.058 4.2593 21.8509C4.23053 21.6141 4.31683 21.6053 4.51819 21.6296C4.88552 21.696 5.2617 21.7203 5.6246 21.769C5.81047 21.7956 5.84588 21.7292 5.84588 21.5477C5.82616 21.1629 5.77958 20.7799 5.70647 20.4015C5.67328 20.2245 5.68877 20.1249 5.91448 20.1603C6.27641 20.2101 6.64345 20.2101 7.00539 20.1603C7.18905 20.136 7.25986 20.1603 7.22667 20.3816C7.15169 20.7599 7.10217 21.1429 7.07842 21.5278C7.07842 21.7491 7.1448 21.7956 7.34174 21.769C7.72234 21.7137 8.10737 21.6805 8.48797 21.6163C8.66057 21.5875 8.70926 21.6163 8.6827 21.7978C8.6318 22.1811 8.6318 22.5695 8.6827 22.9529C8.71368 23.1741 8.61632 23.1741 8.46142 23.1409C8.10295 23.0723 7.74005 23.0391 7.37715 22.9949C7.10718 22.9595 7.05408 23.0569 7.08727 23.2914C7.13595 23.641 7.15365 23.9973 7.22225 24.3447C7.27314 24.5926 7.18463 24.6235 6.97663 24.597C6.81509 24.5903 6.64692 24.5925 6.45662 24.5837Z" fill="#E71530"/>
<path d="M25.9943 20.2178C26.1668 20.2144 26.339 20.2004 26.5099 20.1758C26.7599 20.1315 26.7864 20.2422 26.7466 20.4479C26.6733 20.8127 26.6281 21.1826 26.6116 21.5544C26.6116 21.7336 26.6448 21.8022 26.8329 21.7756C27.2135 21.7247 27.6008 21.6938 27.9792 21.6318C28.154 21.603 28.2181 21.6097 28.2004 21.8132C28.1805 22.1983 28.1827 22.5855 28.2004 22.9705C28.2004 23.1608 28.1385 23.1785 27.9792 23.1498C27.6118 23.0745 27.2379 23.0413 26.8727 22.9993C26.636 22.975 26.5962 23.0524 26.6072 23.2693C26.6255 23.6021 26.6662 23.9333 26.7289 24.2606C26.7754 24.4996 26.7798 24.6611 26.4479 24.6036C26.127 24.5604 25.8018 24.5604 25.4809 24.6036C25.2751 24.6257 25.1844 24.6036 25.2353 24.3513C25.3061 24.0039 25.3238 23.6477 25.3725 23.298C25.4034 23.0768 25.3503 22.955 25.0804 23.0037C24.733 23.0657 24.3767 23.0878 24.0271 23.1431C23.8434 23.1719 23.735 23.1874 23.7748 22.9219C23.8268 22.549 23.8268 22.1707 23.7748 21.7978C23.7505 21.6185 23.7947 21.5875 23.9695 21.6163C24.3391 21.6783 24.713 21.7115 25.0759 21.7668C25.2972 21.8 25.388 21.7535 25.3725 21.4968C25.3459 21.1096 25.2795 20.7312 25.2198 20.3506C25.1888 20.1558 25.2552 20.1448 25.4079 20.1603C25.5606 20.1758 25.7929 20.2045 25.9943 20.2178Z" fill="#E71530"/>
</g>
<defs>
<clipPath id="clip0_710_71">
<rect width="32" height="32" rx="16" fill="white"/>
</clipPath>
</defs>
</svg>