<svg width="32" height="32" viewBox="0 0 32 32" fill="none" xmlns="http://www.w3.org/2000/svg">
<path d="M32 15.9777C32.0051 18.9849 31.1628 21.9326 29.5698 24.4826C27.9768 27.0327 25.6976 29.0818 22.9937 30.3948C20.2897 31.7078 17.2706 32.2316 14.2827 31.906C11.2948 31.5804 8.45917 30.4186 6.10113 28.554C5.99818 28.4755 5.90014 28.3921 5.79719 28.3038L5.6501 28.1812C5.59617 28.142 5.55208 28.0978 5.49816 28.0537L5.40007 27.9654L5.09123 27.6858L4.77262 27.3817L4.40495 27.0089L4.15984 26.7441L3.97355 26.5331L3.82645 26.3664C3.72841 26.2486 3.62547 26.126 3.53233 26.0034C3.34604 25.7778 3.16958 25.5472 3.0029 25.3118C1.05046 22.597 0 19.337 0 15.9924C0 12.6478 1.05046 9.38778 3.0029 6.67299C3.17448 6.43264 3.35094 6.18249 3.53233 5.97158L3.82645 5.61844L3.97355 5.44675L4.15984 5.24075L4.40986 4.97589C4.52751 4.84346 4.65007 4.72573 4.77262 4.60311L5.09613 4.2941L5.40007 4.01942C5.42949 3.98509 5.46874 3.96057 5.49816 3.93114L5.64519 3.80851L5.79228 3.68098L6.09622 3.43573C8.45327 1.57546 11.2864 0.417061 14.271 0.0932167C17.2556 -0.230627 20.2709 0.293168 22.9718 1.60464C25.6726 2.91611 27.9496 4.9622 29.542 7.50854C31.1344 10.0549 31.9778 12.9985 31.9755 16.0022L32 15.9777Z" fill="#03AEC9"/>
<path d="M5.54202 18.7294L5.16944 17.9593L4.89494 17.3854C4.87176 17.3285 4.84556 17.2728 4.81649 17.2186C4.772 17.125 4.74649 17.0235 4.74144 16.9199C4.73639 16.8164 4.75187 16.7129 4.78704 16.6153C4.82842 16.4993 4.91192 16.4031 5.02091 16.3459C5.1299 16.2886 5.25643 16.2745 5.37536 16.3063C5.44767 16.3245 5.51566 16.3568 5.57541 16.4014C5.63515 16.4461 5.68545 16.5021 5.7234 16.5663C5.78033 16.6484 5.81083 16.746 5.81083 16.8459C5.81083 16.9458 5.78033 17.0433 5.7234 17.1254C5.6932 17.1683 5.65374 17.2039 5.6079 17.2293C5.56206 17.2548 5.51101 17.2696 5.45866 17.2726C5.40994 17.281 5.35999 17.2784 5.31246 17.2648C5.26493 17.2512 5.22106 17.227 5.18416 17.1941C5.15911 17.1532 5.1409 17.1085 5.13024 17.0617C5.12282 17.0438 5.11899 17.0246 5.11899 17.0053C5.11899 16.9859 5.12282 16.9667 5.13024 16.9489C5.16456 16.8802 5.29691 16.8164 5.36554 16.8606C5.43417 16.9047 5.44396 17.0224 5.46847 17.0715V17.0274V16.9636C5.4709 16.9408 5.4709 16.9177 5.46847 16.8949C5.46847 16.8949 5.46847 16.8655 5.46847 16.8606L5.61556 16.8262C5.61556 16.8262 5.58127 16.7576 5.45381 16.7233C5.46078 16.6794 5.46078 16.6347 5.45381 16.5908C5.44791 16.571 5.43786 16.5526 5.42437 16.5369L5.38517 16.4927C5.38759 16.5172 5.38759 16.5418 5.38517 16.5663C5.38517 16.6301 5.30672 16.635 5.2528 16.6301C5.20015 16.6254 5.14718 16.6336 5.09846 16.6541C5.04975 16.6747 5.00676 16.7068 4.97333 16.7478C4.898 16.8491 4.86467 16.9756 4.88022 17.1009C4.88774 17.2162 4.94065 17.3238 5.02731 17.4001C5.13558 17.471 5.26082 17.5117 5.39008 17.5179C5.39008 17.5179 5.55675 17.5473 5.51263 17.5914C5.47196 17.6347 5.44175 17.6867 5.42437 17.7435C5.45378 17.7813 5.46973 17.8279 5.46973 17.8759C5.46973 17.9239 5.45378 17.9705 5.42437 18.0084C5.33612 18.1702 5.47828 18.0623 5.65967 18.0084C5.57633 18.8716 6.17934 18.8373 6.17934 18.8373C6.0583 18.6295 5.98145 18.399 5.95361 18.1601C5.92578 17.9213 5.94751 17.6792 6.01753 17.4492C6.11472 17.2433 6.15249 17.0143 6.1265 16.7881C6.10051 16.5619 6.01184 16.3475 5.87049 16.169C5.91981 16.1556 5.96557 16.1316 6.00454 16.0985C6.04351 16.0654 6.07473 16.0242 6.09598 15.9777C6.07444 15.9324 6.04298 15.8926 6.00394 15.8612C5.9649 15.8298 5.9193 15.8076 5.87049 15.7962C6.01175 15.6167 6.10029 15.4015 6.12626 15.1745C6.15223 14.9476 6.11458 14.7179 6.01753 14.5111C5.94768 14.2802 5.92602 14.0374 5.95385 13.7978C5.98168 13.5582 6.05844 13.3268 6.17934 13.1181C6.17934 13.1181 5.57633 13.0887 5.65967 13.9519C5.47828 13.9078 5.33612 13.795 5.42437 13.9519C5.45341 13.9909 5.46913 14.0382 5.46913 14.0868C5.46913 14.1355 5.45341 14.1827 5.42437 14.2217C5.44242 14.2767 5.4726 14.327 5.51263 14.3689C5.55675 14.4179 5.40969 14.4375 5.39008 14.4424C5.26041 14.4503 5.13518 14.4926 5.02731 14.5651C4.98412 14.6016 4.94877 14.6465 4.92348 14.6971C4.8982 14.7477 4.8835 14.8029 4.88022 14.8594C4.87157 14.9207 4.87535 14.9832 4.89135 15.043C4.90735 15.1028 4.93522 15.1588 4.97333 15.2076C5.00497 15.2509 5.04754 15.285 5.09661 15.3066C5.14568 15.3281 5.19955 15.3363 5.2528 15.3302C5.30672 15.3302 5.36556 15.3302 5.38517 15.394C5.38759 15.4185 5.38759 15.4431 5.38517 15.4676L5.42437 15.4283C5.43798 15.4109 5.44801 15.3909 5.45381 15.3695C5.46123 15.3273 5.46123 15.2841 5.45381 15.242C5.51853 15.2286 5.57607 15.1919 5.61556 15.1389L5.46847 15.0997C5.46847 15.0997 5.46847 15.0997 5.46847 15.0654C5.47073 15.0425 5.47073 15.0195 5.46847 14.9967V14.9329V14.8888C5.46847 14.9427 5.43417 15.0507 5.36554 15.0997C5.32219 15.1149 5.27492 15.1144 5.23191 15.0982C5.18891 15.0821 5.15292 15.0514 5.13024 15.0114C5.12282 14.9935 5.11899 14.9744 5.11899 14.955C5.11899 14.9356 5.12282 14.9165 5.13024 14.8986C5.14098 14.8534 5.1592 14.8103 5.18416 14.7711C5.22083 14.7376 5.26449 14.7127 5.31198 14.6983C5.35948 14.6839 5.40958 14.6803 5.45866 14.6877C5.51179 14.6897 5.56365 14.7046 5.60976 14.7311C5.65587 14.7576 5.69487 14.7949 5.7234 14.8397C5.77926 14.9214 5.80915 15.018 5.80915 15.1169C5.80915 15.2158 5.77926 15.3124 5.7234 15.394C5.64515 15.5223 5.52049 15.6154 5.37536 15.654C5.25705 15.686 5.13105 15.6726 5.02216 15.6163C4.91327 15.56 4.82935 15.4649 4.78704 15.3498C4.7516 15.2524 4.73597 15.1488 4.74102 15.0452C4.74607 14.9416 4.77173 14.8401 4.81649 14.7465L4.89494 14.5798C4.98808 14.3836 5.07629 14.1923 5.16944 14.001C5.26258 13.8097 5.41946 13.486 5.54202 13.2358C5.7185 12.863 5.90478 12.4952 6.08126 12.1273C6.2891 11.7995 6.40433 11.4215 6.41464 11.0335C6.40061 10.9389 6.37422 10.8466 6.33619 10.7588C6.26628 10.6188 6.15614 10.5028 6.01986 10.4259C5.88358 10.349 5.72742 10.3146 5.57146 10.3272C5.44989 10.4973 5.28948 10.6359 5.10361 10.7316C4.91774 10.8272 4.71174 10.8771 4.50273 10.8771C4.29372 10.8771 4.08772 10.8272 3.90185 10.7316C3.71598 10.6359 3.55564 10.4973 3.43406 10.3272C3.27749 10.3149 3.1208 10.3494 2.98381 10.4262C2.84681 10.503 2.73563 10.6188 2.66437 10.7588C2.62791 10.8468 2.60317 10.9391 2.59082 11.0335C2.59889 11.4219 2.7143 11.8005 2.9242 12.1273C3.10069 12.4952 3.28696 12.863 3.46344 13.2358L3.83112 14.001L4.11052 14.5798L4.18898 14.7465C4.23719 14.839 4.26481 14.9408 4.26988 15.045C4.27496 15.1491 4.25741 15.2531 4.21842 15.3498C4.17611 15.4649 4.09225 15.56 3.98336 15.6163C3.87447 15.6726 3.74841 15.686 3.63011 15.654C3.48633 15.6152 3.36329 15.5219 3.28697 15.394C3.23111 15.3124 3.20121 15.2158 3.20121 15.1169C3.20121 15.018 3.23111 14.9214 3.28697 14.8397C3.31684 14.7984 3.35488 14.7637 3.3987 14.7377C3.44251 14.7117 3.49118 14.695 3.54172 14.6885C3.59226 14.6821 3.64359 14.6861 3.69252 14.7003C3.74146 14.7145 3.78695 14.7386 3.82621 14.7711C3.85317 14.8092 3.87156 14.8527 3.88013 14.8986C3.88755 14.9165 3.89138 14.9356 3.89138 14.955C3.89138 14.9744 3.88755 14.9935 3.88013 15.0114C3.85745 15.0514 3.82146 15.0821 3.77846 15.0982C3.73545 15.1144 3.68817 15.1149 3.64483 15.0997C3.5762 15.0507 3.56151 14.9427 3.5419 14.8888V14.9329C3.5369 14.9539 3.5369 14.9757 3.5419 14.9967C3.5419 15.0212 3.5419 15.0458 3.5419 15.0654C3.5419 15.085 3.5419 15.0948 3.5419 15.0997L3.39971 15.1389C3.39971 15.1389 3.42426 15.2027 3.55662 15.242C3.55153 15.2843 3.55153 15.3271 3.55662 15.3695L3.59091 15.4283L3.63011 15.4676C3.62768 15.4431 3.62768 15.4185 3.63011 15.394C3.63011 15.3302 3.70855 15.3253 3.76248 15.3302C3.81572 15.3363 3.86959 15.3281 3.91867 15.3066C3.96774 15.285 4.0103 15.2509 4.04194 15.2076C4.11778 15.1083 4.15283 14.9837 4.13996 14.8594C4.12495 14.7466 4.0712 14.6426 3.98796 14.5651C3.87978 14.4933 3.75473 14.451 3.6252 14.4424C3.6252 14.4424 3.45852 14.4424 3.50264 14.3689C3.54268 14.327 3.57286 14.2767 3.59091 14.2217C3.56259 14.1824 3.54734 14.1353 3.54734 14.0868C3.54734 14.0384 3.56259 13.9912 3.59091 13.9519C3.68405 13.7901 3.5419 13.9029 3.36052 13.9519C3.44385 13.0887 2.84084 13.1181 2.84084 13.1181C2.96176 13.3268 3.03813 13.5584 3.06513 13.7982C3.09213 14.0379 3.06921 14.2807 2.99775 14.5111C2.90247 14.7186 2.86621 14.9483 2.89303 15.175C2.91984 15.4018 3.00866 15.6167 3.14969 15.7962C3.10053 15.8082 3.0545 15.8306 3.01475 15.8619C2.97499 15.8932 2.94246 15.9327 2.9193 15.9777C2.94188 16.0241 2.97411 16.0652 3.01385 16.0982C3.05358 16.1312 3.09989 16.1554 3.14969 16.169C3.00806 16.3472 2.91885 16.5614 2.89201 16.7875C2.86517 17.0136 2.90179 17.2427 2.99775 17.4492C3.06939 17.6788 3.09244 17.9208 3.06543 18.1597C3.03842 18.3987 2.96192 18.6295 2.84084 18.8373C2.84084 18.8373 3.44385 18.8716 3.36052 18.0084C3.5419 18.0574 3.68405 18.1653 3.59091 18.0084C3.56227 17.9701 3.54681 17.9237 3.54681 17.8759C3.54681 17.8281 3.56227 17.7817 3.59091 17.7435C3.57353 17.6867 3.54331 17.6347 3.50264 17.5914C3.45852 17.5473 3.60559 17.5228 3.6252 17.5179C3.75432 17.511 3.87939 17.4704 3.98796 17.4001C4.07221 17.3214 4.12605 17.2154 4.13996 17.1009C4.15412 16.9749 4.11901 16.8484 4.04194 16.7478C4.00852 16.7068 3.96552 16.6747 3.91681 16.6541C3.8681 16.6336 3.81512 16.6254 3.76248 16.6301C3.70855 16.6301 3.64481 16.6301 3.63011 16.5663C3.62768 16.5418 3.62768 16.5172 3.63011 16.4927L3.59091 16.5369L3.55662 16.5908C3.55188 16.6348 3.55188 16.6792 3.55662 16.7233C3.42426 16.7576 3.39971 16.8213 3.39971 16.8262L3.5419 16.8606C3.5419 16.8606 3.5419 16.8606 3.5419 16.8949C3.5419 16.9293 3.5419 16.9391 3.5419 16.9636C3.5369 16.9846 3.5369 17.0064 3.5419 17.0274V17.0715C3.5419 17.0224 3.5762 16.9096 3.64483 16.8606C3.71346 16.8115 3.85071 16.8606 3.88013 16.9489C3.88755 16.9667 3.89138 16.9859 3.89138 17.0053C3.89138 17.0246 3.88755 17.0438 3.88013 17.0617C3.87164 17.1091 3.85328 17.1542 3.82621 17.1941C3.7893 17.227 3.74544 17.2512 3.69791 17.2648C3.65037 17.2784 3.60042 17.281 3.55171 17.2726C3.49952 17.2689 3.44874 17.2538 3.403 17.2284C3.35727 17.203 3.31766 17.1678 3.28697 17.1254C3.23004 17.0433 3.19954 16.9458 3.19954 16.8459C3.19954 16.746 3.23004 16.6484 3.28697 16.5663C3.32394 16.5022 3.37333 16.4463 3.43227 16.4016C3.4912 16.357 3.55846 16.3245 3.63011 16.3063C3.74903 16.2745 3.87556 16.2886 3.98455 16.3459C4.09354 16.4031 4.17705 16.4993 4.21842 16.6153C4.25741 16.712 4.27496 16.8161 4.26988 16.9202C4.26481 17.0244 4.23719 17.1262 4.18898 17.2186C4.1599 17.2728 4.1337 17.3285 4.11052 17.3854L3.83112 17.9593L3.46344 18.7294C3.28696 19.0972 3.10069 19.4651 2.9242 19.833C2.7143 20.1598 2.59889 20.5384 2.59082 20.9268C2.60187 21.0214 2.62665 21.114 2.66437 21.2015C2.73491 21.3424 2.8458 21.4592 2.98285 21.5369C3.1199 21.6146 3.27696 21.6498 3.43406 21.638C3.55357 21.465 3.7132 21.3236 3.89934 21.2259C4.08548 21.1282 4.29254 21.0772 4.50273 21.0772C4.71292 21.0772 4.91998 21.1282 5.10612 21.2259C5.29227 21.3236 5.45195 21.465 5.57146 21.638C5.72785 21.6495 5.88413 21.6141 6.02034 21.5364C6.15655 21.4586 6.26648 21.342 6.33619 21.2015C6.37559 21.1142 6.40203 21.0217 6.41464 20.9268C6.40433 20.5387 6.2891 20.1608 6.08126 19.833C5.90478 19.4651 5.7185 19.1021 5.54202 18.7294ZM3.46835 12.4609C3.34579 12.2009 3.1938 11.9458 3.07614 11.6711C3.00774 11.5557 2.96809 11.4255 2.96041 11.2915C2.95273 11.1575 2.97727 11.0236 3.03204 10.9011C3.08148 10.8242 3.1498 10.7613 3.23048 10.7183C3.31116 10.6754 3.40153 10.6539 3.49289 10.6558C3.60543 10.6504 3.71727 10.6758 3.8164 10.7294C3.86625 10.7552 3.91056 10.7905 3.94673 10.8335C3.98291 10.8764 4.01026 10.926 4.02722 10.9795C4.04369 11.0295 4.04693 11.0829 4.03662 11.1345C4.02631 11.1861 4.0028 11.2341 3.9684 11.2738C3.93213 11.3128 3.88348 11.338 3.83076 11.3451C3.77804 11.3523 3.7245 11.341 3.67918 11.3131C3.63361 11.277 3.60091 11.2271 3.586 11.1708C3.5785 11.1139 3.5785 11.0561 3.586 10.9992C3.5463 11.007 3.50962 11.0259 3.48014 11.0537C3.45067 11.0815 3.42961 11.1169 3.41934 11.1561C3.41368 11.1995 3.4038 11.2422 3.3899 11.2837C3.38205 11.3017 3.36898 11.3169 3.35238 11.3274C3.33577 11.3379 3.31642 11.3432 3.29678 11.3425C3.25992 11.3487 3.22573 11.3658 3.1987 11.3916L3.13988 11.4553C3.184 11.5534 3.30657 11.5632 3.39971 11.5779C3.3947 11.6522 3.41359 11.7261 3.45363 11.7889C3.47066 11.821 3.49401 11.8494 3.52227 11.8723C3.52227 11.8723 3.60563 11.9262 3.60563 11.9115C3.59324 11.8521 3.59979 11.7903 3.62442 11.7348C3.64905 11.6794 3.69048 11.6331 3.74285 11.6025C3.78207 11.6025 3.84091 11.6025 3.88504 11.6025C4.0223 11.6025 4.14979 11.5142 4.28706 11.5142C4.28706 11.8183 4.28706 12.3529 4.28706 12.3529C4.23313 12.5835 4.02724 12.5393 3.79683 12.5001C3.84385 12.6167 3.92154 12.7184 4.02166 12.7944C4.12178 12.8704 4.24055 12.9178 4.36545 12.9317C4.27253 12.9752 4.19721 13.0492 4.15193 13.1413C4.10665 13.2334 4.09411 13.3382 4.11639 13.4384C4.13867 13.5386 4.19445 13.6282 4.27449 13.6925C4.35453 13.7567 4.45405 13.7917 4.55665 13.7917C4.65925 13.7917 4.75877 13.7567 4.83881 13.6925C4.91885 13.6282 4.97463 13.5386 4.99691 13.4384C5.01919 13.3382 5.00664 13.2334 4.96136 13.1413C4.91608 13.0492 4.84077 12.9752 4.74785 12.9317C4.87225 12.9163 4.9904 12.8683 5.09027 12.7925C5.19014 12.7167 5.2682 12.6158 5.31653 12.5001C5.06161 12.5393 4.85571 12.5835 4.8263 12.3529C4.8263 12.3529 4.8263 11.8183 4.8263 11.5142C4.96356 11.5142 5.0861 11.5927 5.22826 11.6025C5.27238 11.6025 5.32633 11.6025 5.37045 11.6025C5.42192 11.6338 5.46233 11.6804 5.48606 11.7358C5.50979 11.7912 5.51567 11.8526 5.50282 11.9115C5.50282 11.9115 5.58122 11.8772 5.59103 11.8723C5.61807 11.8468 5.6427 11.8189 5.66457 11.7889C5.69856 11.7239 5.71542 11.6513 5.71359 11.5779C5.81163 11.5779 5.9244 11.5779 5.97342 11.4553L5.9146 11.3916C5.88625 11.3649 5.85026 11.3477 5.81167 11.3425C5.79229 11.342 5.77336 11.3363 5.75697 11.3259C5.74058 11.3155 5.7273 11.3009 5.71849 11.2837C5.71849 11.2395 5.71852 11.1954 5.68911 11.1561C5.68031 11.1171 5.66027 11.0814 5.63154 11.0535C5.60281 11.0256 5.56659 11.0068 5.5273 10.9992C5.5348 11.0561 5.5348 11.1139 5.5273 11.1708C5.5142 11.2279 5.48119 11.2783 5.43418 11.3131C5.38961 11.3406 5.33682 11.3517 5.28493 11.3446C5.23305 11.3374 5.18533 11.3124 5.14987 11.2738C5.11546 11.2341 5.0919 11.1861 5.08159 11.1345C5.07128 11.0829 5.07451 11.0295 5.09098 10.9795C5.10688 10.9262 5.1333 10.8766 5.16866 10.8336C5.20402 10.7907 5.24763 10.7552 5.2969 10.7294C5.39603 10.6758 5.50793 10.6504 5.62047 10.6558C5.7167 10.6486 5.81308 10.6676 5.8994 10.7108C5.98571 10.754 6.05874 10.8197 6.1107 10.9011C6.16355 11.0243 6.18666 11.1582 6.17814 11.292C6.16963 11.4258 6.12974 11.5556 6.06169 11.6711C5.94894 11.9458 5.80184 12.2009 5.66948 12.4609C5.34103 13.1525 5.02238 13.844 4.68902 14.5405C4.66003 14.5823 4.63847 14.6288 4.62529 14.6779C4.61246 14.6277 4.58905 14.5809 4.55665 14.5405C4.13995 13.844 3.80171 13.1525 3.46835 12.4609ZM4.03213 15.9777C4.27234 15.9385 4.52236 15.6049 4.52236 15.6049C4.52236 15.6049 4.75277 15.9385 5.01259 15.9777C4.77728 16.0218 4.52236 16.3603 4.52236 16.3603C4.52236 16.3603 4.27234 16.0218 4.03213 15.9777ZM5.99305 21.0592C5.94056 21.1404 5.86758 21.2063 5.78151 21.2502C5.69543 21.2941 5.59931 21.3145 5.50282 21.3094C5.3905 21.3125 5.27918 21.2872 5.17925 21.2358C5.08172 21.1812 5.00822 21.0919 4.97333 20.9857C4.95636 20.9358 4.95289 20.8823 4.96322 20.8306C4.97355 20.7789 4.99732 20.7309 5.03216 20.6913C5.06643 20.6512 5.11397 20.6246 5.16615 20.6165C5.21832 20.6084 5.2717 20.6193 5.31653 20.6472C5.36264 20.6828 5.39541 20.7329 5.40964 20.7894C5.41687 20.8464 5.41687 20.9041 5.40964 20.9611C5.44831 20.9539 5.48408 20.9357 5.51275 20.9088C5.54142 20.8818 5.56183 20.8472 5.57146 20.8091C5.57146 20.7649 5.57143 20.7208 5.60084 20.6766C5.60988 20.6599 5.62336 20.646 5.6398 20.6365C5.65624 20.627 5.67503 20.6222 5.69402 20.6227C5.73383 20.6181 5.77049 20.5988 5.79695 20.5687L5.85577 20.505C5.80675 20.4069 5.69398 20.397 5.59593 20.3823C5.59714 20.3091 5.58032 20.2366 5.54692 20.1714C5.52505 20.1414 5.50042 20.1135 5.47338 20.088C5.47338 20.088 5.38517 20.039 5.38517 20.0488C5.39878 20.1077 5.39329 20.1694 5.36949 20.2249C5.34569 20.2805 5.30481 20.3271 5.2528 20.3578C5.20868 20.3578 5.15473 20.3578 5.11061 20.3578C4.96844 20.3578 4.84591 20.4461 4.70865 20.4461C4.70865 20.142 4.70865 19.6074 4.70865 19.6074C4.76257 19.3768 4.96847 19.421 5.19888 19.4602C5.15115 19.3445 5.07316 19.2438 4.97309 19.1688C4.87302 19.0937 4.75456 19.0469 4.6302 19.0335C4.72453 18.9899 4.80115 18.9154 4.84736 18.8222C4.89357 18.7291 4.90659 18.623 4.88429 18.5214C4.86198 18.4199 4.80567 18.329 4.72469 18.2639C4.64371 18.1987 4.54291 18.1632 4.439 18.1632C4.33509 18.1632 4.23429 18.1987 4.15331 18.2639C4.07233 18.329 4.01602 18.4199 3.99371 18.5214C3.9714 18.623 3.98442 18.7291 4.03063 18.8222C4.07684 18.9154 4.15347 18.9899 4.2478 19.0335C4.12294 19.0453 4.0038 19.0915 3.90347 19.1668C3.80313 19.2421 3.72553 19.3436 3.67918 19.4602C3.9341 19.421 4.13999 19.3768 4.16941 19.6074C4.16941 19.6074 4.16941 20.142 4.16941 20.4461C4.03214 20.4461 3.90465 20.3676 3.76739 20.3578C3.72326 20.3578 3.66442 20.3823 3.6252 20.3578C3.49774 20.3039 3.48308 20.1665 3.48798 20.0488C3.48798 20.0488 3.40952 20.088 3.40462 20.088C3.37636 20.1109 3.353 20.1393 3.33598 20.1714C3.29656 20.2344 3.27772 20.3081 3.28206 20.3823C3.18892 20.3823 3.06635 20.3823 3.02223 20.505C3.0391 20.5286 3.05886 20.55 3.08105 20.5687C3.10628 20.5978 3.14108 20.6169 3.17913 20.6227C3.22325 20.6227 3.25264 20.6227 3.27225 20.6766C3.2867 20.7196 3.29658 20.764 3.30169 20.8091C3.31323 20.8471 3.33477 20.8813 3.36411 20.908C3.39344 20.9348 3.42947 20.9531 3.46835 20.9611C3.46107 20.9041 3.46107 20.8464 3.46835 20.7894C3.48446 20.7338 3.51688 20.6842 3.56147 20.6472C3.60705 20.619 3.66124 20.6079 3.71424 20.616C3.76725 20.6241 3.81565 20.6508 3.85075 20.6913C3.88559 20.7309 3.90935 20.7789 3.91968 20.8306C3.93001 20.8823 3.92654 20.9358 3.90957 20.9857C3.87264 21.0923 3.79751 21.1814 3.69875 21.2358C3.59882 21.2872 3.4875 21.3125 3.37518 21.3094C3.28361 21.3094 3.19349 21.2866 3.11301 21.2429C3.03252 21.1992 2.96426 21.136 2.91439 21.0592C2.85962 20.9367 2.83502 20.8028 2.8427 20.6688C2.85038 20.5348 2.89009 20.4046 2.95849 20.2891C3.07615 20.0194 3.22814 19.7643 3.3507 19.4945C3.68406 18.8078 4.00271 18.1163 4.33116 17.4247C4.36279 17.382 4.38608 17.3337 4.3998 17.2824C4.41392 17.3327 4.4354 17.3806 4.46353 17.4247C4.78218 18.1163 5.10083 18.8078 5.44399 19.4945C5.57636 19.7643 5.72339 20.0194 5.83614 20.2891C5.91951 20.3978 5.9755 20.525 5.99939 20.6598C6.02328 20.7947 6.01439 20.9334 5.97342 21.0641L5.99305 21.0592Z" fill="#FDC41B"/>
<path d="M6.10107 8.52204C5.92459 8.15417 5.73831 7.78629 5.56183 7.41351C5.43927 7.15846 5.31671 6.92303 5.18925 6.65325C5.06179 6.38348 5.00783 6.26086 4.91469 6.06956C4.91469 6.01561 4.86571 5.96165 4.8363 5.90769C4.79155 5.81414 4.76589 5.7126 4.76084 5.60901C4.75578 5.50541 4.77142 5.40186 4.80685 5.30439C4.84916 5.1893 4.93302 5.09424 5.04192 5.03795C5.15081 4.98166 5.27686 4.96822 5.39517 5.00029C5.46748 5.01844 5.53547 5.05078 5.59522 5.0954C5.65497 5.14002 5.70526 5.19606 5.74321 5.26026C5.79907 5.34188 5.82897 5.43845 5.82897 5.53737C5.82897 5.63628 5.79907 5.73288 5.74321 5.8145C5.71383 5.85819 5.6745 5.89433 5.62849 5.91991C5.58248 5.94548 5.53107 5.95979 5.47847 5.96167C5.42977 5.97125 5.37952 5.96911 5.33179 5.95547C5.28407 5.94183 5.24026 5.91705 5.20397 5.88317C5.17819 5.84441 5.15991 5.80115 5.15005 5.75564C5.14263 5.73776 5.1388 5.7186 5.1388 5.69924C5.1388 5.67988 5.14263 5.66072 5.15005 5.64284C5.18437 5.57417 5.31672 5.51041 5.38535 5.55455C5.45398 5.59869 5.46377 5.71641 5.48828 5.76546V5.7213V5.65756C5.49071 5.63474 5.49071 5.61171 5.48828 5.58889C5.48828 5.58889 5.48828 5.55945 5.48828 5.55455L5.63537 5.5153C5.59589 5.46229 5.53828 5.42566 5.47356 5.41232C5.48051 5.37009 5.48051 5.32701 5.47356 5.28478C5.46776 5.2634 5.45779 5.2434 5.44418 5.22593L5.40492 5.18668C5.40735 5.21114 5.40735 5.2358 5.40492 5.26026C5.40492 5.32403 5.32653 5.32893 5.27261 5.31912C5.21945 5.31408 5.16586 5.32269 5.11696 5.34415C5.06806 5.36561 5.02544 5.3992 4.99314 5.44175C4.91781 5.54308 4.88448 5.66956 4.90003 5.79489C4.90908 5.90975 4.96166 6.01679 5.04706 6.09408C5.15533 6.16499 5.28058 6.20563 5.40983 6.2118C5.40983 6.2118 5.57651 6.24124 5.53239 6.28538C5.49235 6.32722 5.46223 6.37749 5.44418 6.43252C5.47322 6.47149 5.48888 6.51881 5.48888 6.56742C5.48888 6.61603 5.47322 6.66332 5.44418 6.70229C5.35594 6.86415 5.49809 6.75625 5.67948 6.70229C5.59614 7.57047 6.19909 7.53614 6.19909 7.53614C6.07805 7.32838 6.0012 7.09784 5.97337 6.85898C5.94553 6.62012 5.96732 6.37811 6.03734 6.14806C6.1344 5.94129 6.17204 5.71157 6.14607 5.48462C6.1201 5.25766 6.0315 5.0424 5.89024 4.86294C5.93952 4.85106 5.98545 4.82811 6.02453 4.79582C6.06361 4.76352 6.09484 4.72275 6.11579 4.67657H4.94413C4.70882 4.71581 4.4539 5.05915 4.4539 5.05915L4.38036 4.96595L4.13033 5.23081C4.1463 5.25367 4.15951 5.27838 4.16959 5.30439C4.20858 5.4011 4.22613 5.50512 4.22106 5.60928C4.21598 5.71343 4.18836 5.81524 4.14015 5.90769C4.11073 5.96165 4.08621 6.01561 4.06169 6.06956L3.78229 6.65325L3.41462 7.41351C3.23813 7.78629 3.05186 8.15417 2.87538 8.52204C2.66476 8.84853 2.5493 9.22731 2.54199 9.61583C2.55376 9.71034 2.57851 9.80277 2.61554 9.89051C2.6871 10.0306 2.79818 10.1467 2.93498 10.2243C3.07178 10.3018 3.22827 10.3376 3.38517 10.3271C3.50468 10.1541 3.66437 10.0126 3.85051 9.91497C4.03665 9.81729 4.24371 9.76627 4.4539 9.76627C4.66409 9.76627 4.87115 9.81729 5.0573 9.91497C5.24344 10.0126 5.40307 10.1541 5.52257 10.3271C5.67887 10.3379 5.83489 10.3022 5.97097 10.2245C6.10705 10.1469 6.21714 10.0306 6.28736 9.89051C6.32601 9.803 6.35242 9.71057 6.36581 9.61583C6.377 9.2341 6.28556 8.85636 6.10107 8.52204ZM5.99323 9.75318C5.93992 9.8329 5.86652 9.8971 5.78043 9.93931C5.69435 9.98151 5.59863 10.0002 5.503 9.99352C5.39108 9.9984 5.27974 9.97477 5.17943 9.92485C5.08062 9.86943 5.00688 9.77812 4.97352 9.66981C4.95704 9.61985 4.95381 9.56647 4.96412 9.51488C4.97443 9.4633 4.99793 9.41527 5.03234 9.37549C5.06781 9.33694 5.11558 9.31194 5.16747 9.30478C5.21935 9.29762 5.27214 9.30876 5.31671 9.33628C5.36177 9.37286 5.39429 9.42257 5.40983 9.47851C5.41706 9.5355 5.41706 9.59317 5.40983 9.65017C5.44849 9.64293 5.48427 9.62479 5.51294 9.59784C5.54161 9.57089 5.56201 9.53628 5.57164 9.49812C5.57164 9.45397 5.57161 9.40494 5.60102 9.3657C5.61057 9.34903 5.62405 9.33495 5.64028 9.32469C5.65652 9.31443 5.67505 9.30831 5.6942 9.30685C5.71419 9.30562 5.73367 9.30016 5.75141 9.29086C5.76915 9.28156 5.78474 9.26861 5.79713 9.25287L5.85595 9.19401C5.80693 9.09591 5.69416 9.0812 5.59612 9.07139C5.59674 8.99819 5.57995 8.92589 5.54711 8.86048C5.52784 8.82847 5.50291 8.80022 5.47356 8.7771C5.47356 8.7771 5.38535 8.72805 5.38535 8.73786C5.3982 8.79674 5.39233 8.85816 5.3686 8.91356C5.34487 8.96896 5.30446 9.01557 5.25298 9.04687C5.20886 9.04687 5.15492 9.04687 5.11079 9.04687C4.96863 9.04687 4.8461 9.13516 4.70883 9.13516C4.70883 8.83105 4.70883 8.29152 4.70883 8.29152C4.76276 8.06589 4.96865 8.11002 5.19906 8.14926C5.1516 8.03295 5.07379 7.93153 4.97375 7.8556C4.87372 7.77967 4.75511 7.73202 4.63038 7.71762C4.7233 7.6741 4.79862 7.6002 4.8439 7.50809C4.88918 7.41597 4.90172 7.31113 4.87944 7.21093C4.85716 7.11072 4.80138 7.02113 4.72134 6.95691C4.6413 6.89268 4.54178 6.85767 4.43918 6.85767C4.33658 6.85767 4.23706 6.89268 4.15702 6.95691C4.07698 7.02113 4.0212 7.11072 3.99892 7.21093C3.97664 7.31113 3.98919 7.41597 4.03447 7.50809C4.07975 7.6002 4.15506 7.6741 4.24798 7.71762C4.12292 7.73099 4.00386 7.77825 3.90365 7.85431C3.80344 7.93037 3.72593 8.03235 3.67936 8.14926C3.93428 8.11002 4.14018 8.06589 4.16959 8.29152C4.16959 8.29152 4.16959 8.83105 4.16959 9.13516C4.03233 9.13516 3.90483 9.05668 3.76757 9.04687C3.72345 9.04687 3.6646 9.04687 3.62538 9.04687C3.57301 9.01627 3.53159 8.96997 3.50695 8.91452C3.48232 8.85907 3.47577 8.79726 3.48816 8.73786C3.48816 8.73786 3.4097 8.7722 3.4048 8.7771C3.37439 8.79773 3.35056 8.82667 3.33616 8.86048C3.29733 8.92373 3.27854 8.99725 3.28224 9.07139C3.1891 9.07139 3.06653 9.09591 3.02241 9.19401C3.02241 9.19401 3.07143 9.25287 3.08123 9.25287C3.09308 9.26803 3.10789 9.28063 3.12474 9.2899C3.14159 9.29918 3.16018 9.30496 3.17932 9.30685C3.22344 9.30685 3.25282 9.30685 3.27243 9.3657C3.28739 9.40854 3.29729 9.45297 3.30187 9.49812C3.31341 9.53612 3.33495 9.57033 3.36429 9.59709C3.39362 9.62385 3.42965 9.64218 3.46853 9.65017C3.46125 9.59318 3.46125 9.5355 3.46853 9.47851C3.48591 9.42342 3.51811 9.37421 3.56165 9.33628C3.60698 9.3084 3.66057 9.29706 3.71329 9.30421C3.76601 9.31137 3.81466 9.33655 3.85093 9.37549C3.88534 9.41527 3.90884 9.4633 3.91915 9.51488C3.92946 9.56647 3.92623 9.61985 3.90975 9.66981C3.87431 9.77847 3.79894 9.86961 3.69893 9.92485C3.59863 9.97477 3.48728 9.9984 3.37536 9.99352C3.28453 9.99554 3.19471 9.97459 3.11415 9.93257C3.03359 9.89055 2.96493 9.82884 2.91457 9.75318C2.85975 9.62897 2.83515 9.4935 2.84282 9.35792C2.85049 9.22235 2.89019 9.09052 2.95868 8.97328C3.07633 8.70351 3.22833 8.44846 3.35088 8.1836C3.68424 7.4969 4.00289 6.80532 4.33134 6.11372C4.36223 6.06883 4.38544 6.01907 4.39998 5.96655C4.39998 6.00579 4.44901 6.07448 4.46372 6.11372C4.78237 6.80532 5.10102 7.4969 5.44418 8.1836C5.57654 8.44846 5.72357 8.70351 5.83633 8.97328C5.91902 9.08326 5.97458 9.21125 5.99844 9.34678C6.02229 9.48232 6.01378 9.62157 5.9736 9.75318H5.99323ZM4.03231 5.43193L3.88522 5.60359C3.88746 5.61492 3.88746 5.62659 3.88522 5.63793C3.89264 5.65581 3.89647 5.67497 3.89647 5.69433C3.89647 5.71369 3.89264 5.73288 3.88522 5.75076C3.87764 5.79696 3.85916 5.84065 3.8313 5.87826C3.79523 5.91248 3.75145 5.9375 3.70366 5.95116C3.65586 5.96482 3.6055 5.96675 3.5568 5.95676C3.37542 6.18729 3.1989 6.41782 3.02732 6.65816C3.0256 6.96529 2.94274 7.26649 2.78711 7.53123C2.78711 7.53123 3.39012 7.56559 3.30678 6.69741C3.48817 6.75137 3.63032 6.85927 3.53717 6.69741C3.50886 6.65814 3.49361 6.61094 3.49361 6.56251C3.49361 6.51409 3.50886 6.46688 3.53717 6.42762C3.51912 6.37258 3.48894 6.32231 3.44891 6.28047C3.40479 6.23633 3.55185 6.21182 3.57146 6.20692C3.70059 6.20005 3.82566 6.15944 3.93423 6.08917C4.02192 6.00616 4.07592 5.89371 4.08587 5.77333C4.09582 5.65296 4.06102 5.53314 3.98815 5.43684L4.03231 5.43193Z" fill="#FDC41B"/>
<path d="M5.70355 25.2676C5.52217 25.2136 5.38001 25.1057 5.46825 25.2676C5.4973 25.3066 5.51301 25.3539 5.51301 25.4025C5.51301 25.4511 5.4973 25.4984 5.46825 25.5374C5.48513 25.5929 5.51546 25.6435 5.55652 25.6845C5.60064 25.7336 5.45357 25.7532 5.43396 25.7581C5.30429 25.766 5.17907 25.8083 5.0712 25.8807C5.02844 25.9176 4.99339 25.9626 4.96815 26.0131C4.9429 26.0636 4.92793 26.1187 4.9241 26.175C4.90855 26.3003 4.94195 26.4268 5.01728 26.5282C5.04958 26.5707 5.09219 26.6043 5.14109 26.6257C5.18999 26.6472 5.24353 26.6558 5.29668 26.6508C5.35061 26.6508 5.40945 26.6508 5.42905 26.7097C5.43148 26.7341 5.43148 26.7588 5.42905 26.7832L5.46825 26.744C5.48285 26.7272 5.493 26.7069 5.49769 26.6851C5.50464 26.6429 5.50464 26.5998 5.49769 26.5576C5.56241 26.5443 5.61996 26.5076 5.65945 26.4546L5.51242 26.4203C5.51242 26.4203 5.51242 26.4203 5.51242 26.381C5.51468 26.3582 5.51468 26.3352 5.51242 26.3124V26.2486V26.2093C5.51242 26.2093 5.47806 26.3663 5.40943 26.4153C5.36608 26.4305 5.3188 26.43 5.2758 26.4139C5.2328 26.3977 5.19681 26.367 5.17413 26.3271C5.16671 26.3092 5.16287 26.29 5.16287 26.2707C5.16287 26.2513 5.16671 26.2321 5.17413 26.2143C5.18398 26.1687 5.20227 26.1255 5.22804 26.0867C5.26471 26.0533 5.30843 26.0284 5.35593 26.014C5.40342 25.9995 5.45352 25.9959 5.5026 26.0033C5.55555 26.0062 5.60706 26.0214 5.65305 26.0478C5.69903 26.0742 5.73816 26.1111 5.76728 26.1554C5.82421 26.2375 5.85477 26.3351 5.85477 26.435C5.85477 26.5349 5.82421 26.6325 5.76728 26.7146C5.68848 26.8413 5.56379 26.9327 5.41924 26.9696C5.30094 27.0017 5.17494 26.9882 5.06605 26.9319C4.95716 26.8757 4.8733 26.7806 4.83099 26.6655C4.79568 26.5672 4.7801 26.4628 4.78515 26.3585C4.7902 26.2541 4.81574 26.1518 4.86037 26.0573C4.88978 26.0033 4.91431 25.9445 4.93882 25.8905C5.03197 25.6992 5.12018 25.5079 5.21332 25.3117C5.30647 25.1155 5.46334 24.8212 5.5859 24.5466C5.76238 24.1787 5.94872 23.8108 6.1252 23.4429C6.33322 23.1134 6.44836 22.7338 6.45853 22.3442C6.44449 22.2496 6.41811 22.1573 6.38007 22.0696C6.30914 21.9304 6.19881 21.8152 6.06279 21.7384C5.92676 21.6616 5.77111 21.6267 5.61534 21.6379C5.49445 21.809 5.33429 21.9485 5.14833 22.0448C4.96237 22.1411 4.75601 22.1914 4.54662 22.1914C4.33722 22.1914 4.13092 22.1411 3.94496 22.0448C3.759 21.9485 3.59885 21.809 3.47795 21.6379C3.32147 21.6263 3.16504 21.6611 3.02817 21.7378C2.8913 21.8146 2.78002 21.93 2.70825 22.0696C2.67179 22.1575 2.64712 22.2499 2.63477 22.3442C2.6427 22.7342 2.75802 23.1144 2.96809 23.4429C3.14457 23.8108 3.33085 24.1787 3.50733 24.5466L3.875 25.3117L4.15447 25.8905C4.15447 25.9445 4.20345 26.0033 4.23286 26.0573C4.28087 26.1507 4.30834 26.2533 4.31341 26.3582C4.31848 26.4631 4.30107 26.5679 4.2623 26.6655C4.2623 26.69 4.23781 26.7146 4.22311 26.744L4.46822 27.0089C4.49654 26.978 4.52271 26.9452 4.54662 26.9107C4.54662 26.9107 4.77702 27.2541 5.03685 27.2934H6.2085C6.18755 27.2472 6.15638 27.2064 6.1173 27.1741C6.07823 27.1418 6.03229 27.1188 5.98302 27.107C6.12428 26.9275 6.21287 26.7122 6.23884 26.4853C6.26482 26.2583 6.22717 26.0286 6.13011 25.8219C6.06038 25.5918 6.03872 25.3498 6.06656 25.111C6.09439 24.8722 6.1711 24.6416 6.29186 24.4338C6.29186 24.4338 5.61041 24.4043 5.70355 25.2676ZM4.56624 25.8464C4.56624 25.8856 4.50251 25.9543 4.50251 25.9935C4.48796 25.941 4.46476 25.8913 4.43387 25.8464C4.12013 25.1597 3.80148 24.4632 3.45341 23.7765C3.33085 23.5067 3.17892 23.2566 3.06126 22.9868C2.99282 22.8704 2.95308 22.7394 2.94541 22.6046C2.93773 22.4699 2.96231 22.3352 3.0171 22.2118C3.06722 22.1356 3.13567 22.0732 3.2162 22.0303C3.29672 21.9875 3.38675 21.9655 3.47795 21.9666C3.59027 21.9634 3.70159 21.9887 3.80152 22.0401C3.85137 22.0659 3.89562 22.1013 3.93179 22.1442C3.96797 22.1871 3.99532 22.2368 4.01228 22.2903C4.02925 22.3402 4.03273 22.3937 4.0224 22.4454C4.01207 22.4971 3.9883 22.5451 3.95346 22.5846C3.91772 22.6244 3.86904 22.6502 3.81606 22.6574C3.76308 22.6645 3.70927 22.6527 3.66424 22.6238C3.61867 22.5877 3.58597 22.5378 3.57106 22.4816C3.56382 22.4262 3.56382 22.3702 3.57106 22.3148C3.53174 22.3218 3.49519 22.3397 3.46568 22.3667C3.43617 22.3936 3.41494 22.4283 3.4044 22.4669C3.3998 22.5104 3.3899 22.5532 3.37496 22.5944C3.37496 22.6435 3.32596 22.6434 3.28184 22.6483C3.24537 22.6584 3.2118 22.6769 3.18382 22.7023C3.16146 22.7227 3.14171 22.7457 3.125 22.771C3.16912 22.8642 3.29163 22.8789 3.38477 22.8887C3.37976 22.9629 3.39865 23.0369 3.43869 23.0996C3.45431 23.134 3.47783 23.1643 3.50733 23.1879C3.50733 23.1879 3.59069 23.2369 3.59069 23.2271C3.59069 23.1094 3.59071 22.9672 3.72797 22.9181C3.76719 22.9181 3.82598 22.9181 3.8701 22.9181C4.00736 22.9181 4.13485 22.8347 4.27212 22.8347C4.27212 23.1339 4.27212 23.6686 4.27212 23.6686C4.21819 23.904 4.0123 23.8599 3.78189 23.8157C3.82845 23.9326 3.90603 24.0346 4.00624 24.1107C4.10645 24.1867 4.2255 24.234 4.35057 24.2474C4.25765 24.2909 4.18227 24.3648 4.13699 24.4569C4.09171 24.549 4.07923 24.6539 4.10151 24.7541C4.12379 24.8543 4.17951 24.9439 4.25955 25.0081C4.33959 25.0723 4.43911 25.1073 4.54171 25.1073C4.64431 25.1073 4.74389 25.0723 4.82393 25.0081C4.90397 24.9439 4.95969 24.8543 4.98197 24.7541C5.00425 24.6539 4.9917 24.549 4.94642 24.4569C4.90114 24.3648 4.82583 24.2909 4.73291 24.2474C4.85764 24.233 4.97625 24.1853 5.07628 24.1094C5.17632 24.0335 5.25412 23.932 5.30159 23.8157C5.04667 23.8599 4.84077 23.904 4.81136 23.6686C4.81136 23.6686 4.81136 23.1339 4.81136 22.8347C4.94862 22.8347 5.07116 22.9083 5.21332 22.9181C5.25744 22.9181 5.31139 22.9181 5.35551 22.9181C5.40808 22.9483 5.4494 22.9948 5.47328 23.0505C5.49715 23.1062 5.5023 23.1682 5.48788 23.2271C5.48788 23.2271 5.56634 23.1879 5.57615 23.1879C5.6044 23.1618 5.62907 23.1321 5.64963 23.0996C5.68362 23.0346 5.70054 22.962 5.69871 22.8887C5.79675 22.8887 5.90946 22.8642 5.95848 22.771C5.95848 22.771 5.90456 22.7121 5.89966 22.7023C5.87051 22.6758 5.83509 22.6572 5.79673 22.6483C5.75751 22.6483 5.72806 22.6484 5.70355 22.5944C5.67904 22.5404 5.70358 22.511 5.67417 22.4669C5.66511 22.4284 5.64495 22.3935 5.61618 22.3665C5.58741 22.3394 5.55132 22.3215 5.51242 22.3148C5.5196 22.3702 5.5196 22.4262 5.51242 22.4816C5.49932 22.5386 5.46625 22.589 5.41924 22.6238C5.37496 22.6523 5.32196 22.664 5.26981 22.6568C5.21767 22.6496 5.16985 22.624 5.13493 22.5846C5.10009 22.5451 5.07626 22.4971 5.06593 22.4454C5.0556 22.3937 5.05914 22.3402 5.0761 22.2903C5.092 22.237 5.11842 22.1873 5.15378 22.1444C5.18914 22.1014 5.23269 22.066 5.28196 22.0401C5.38189 21.9887 5.49321 21.9634 5.60553 21.9666C5.70162 21.9604 5.79761 21.9798 5.88374 22.0229C5.96986 22.066 6.04304 22.1312 6.09576 22.2118C6.14827 22.3359 6.17117 22.4706 6.16266 22.6051C6.15416 22.7396 6.11449 22.8703 6.04675 22.9868C5.934 23.2566 5.7869 23.5067 5.65454 23.7765C5.20353 24.4632 4.88489 25.1597 4.56624 25.8464ZM3.94364 25.8807C3.83546 25.8089 3.71041 25.7667 3.58088 25.7581C3.58088 25.7581 3.4142 25.7336 3.45832 25.6845C3.49938 25.6435 3.52971 25.5929 3.54659 25.5374C3.51827 25.4981 3.50302 25.4509 3.50302 25.4025C3.50302 25.354 3.51827 25.3069 3.54659 25.2676C3.63973 25.1057 3.49752 25.2136 3.31613 25.2676C3.39947 24.4043 2.79652 24.4338 2.79652 24.4338C2.95169 24.7005 3.0345 25.0031 3.03673 25.3117C3.20341 25.5472 3.37987 25.7777 3.56616 26.0033C3.61523 25.9959 3.66539 25.9995 3.71289 26.014C3.76038 26.0284 3.80404 26.0533 3.84071 26.0867C3.86857 26.1243 3.88705 26.1681 3.89463 26.2143C3.90205 26.2321 3.90588 26.2513 3.90588 26.2707C3.90588 26.29 3.90205 26.3092 3.89463 26.3271C3.89703 26.34 3.89703 26.3533 3.89463 26.3663L4.04172 26.5331C4.11879 26.4325 4.1539 26.3059 4.13975 26.1799C4.11437 26.059 4.04433 25.9522 3.94364 25.8807Z" fill="#FDC41B"/>
<path d="M5.46851 27.8524L5.4195 27.9651L5.51758 28.0534C5.51686 27.9835 5.50004 27.9148 5.46851 27.8524ZM5.51758 28.0534C5.57151 28.0975 5.6156 28.1416 5.66952 28.1809C5.65624 28.149 5.63553 28.1208 5.60908 28.0986C5.58264 28.0764 5.55126 28.0609 5.51758 28.0534ZM5.85581 27.5632C5.89268 27.5404 5.93219 27.5223 5.97346 27.5092C6.05145 27.4645 6.11063 27.3931 6.14013 27.3082H4.96847C4.9067 27.3313 4.84755 27.3609 4.79199 27.3965L5.11065 27.7004C5.1674 27.6903 5.22547 27.6903 5.28222 27.7004C5.39012 27.6876 5.49921 27.7109 5.59239 27.7668C5.68556 27.8227 5.75755 27.908 5.79699 28.0093C5.82439 28.1154 5.82439 28.2267 5.79699 28.3328C5.89994 28.4211 5.99798 28.5044 6.10093 28.5828C6.17565 28.4068 6.19218 28.2115 6.14808 28.0254C6.10399 27.8394 6.00158 27.6722 5.85581 27.5484V27.5632Z" fill="#FDC41B"/>
<path d="M5.97337 4.47007C5.93272 4.45345 5.8934 4.43379 5.85572 4.41125C5.99374 4.29371 6.09289 4.13712 6.14015 3.9621C6.1874 3.78707 6.18057 3.60182 6.12046 3.43079L5.81652 3.6759C5.8437 3.78204 5.8437 3.89333 5.81652 3.99947C5.74299 4.20046 5.58119 4.29361 5.30175 4.30832C5.2466 4.31783 5.19024 4.31783 5.13509 4.30832L4.81152 4.61714C4.86639 4.65263 4.92573 4.68068 4.988 4.7005H6.15966C6.14747 4.65075 6.12448 4.6043 6.09227 4.56447C6.06007 4.52465 6.01946 4.49241 5.97337 4.47007ZM5.52233 3.90633C5.55434 3.89794 5.58411 3.88259 5.60952 3.86141C5.63494 3.84023 5.6554 3.81373 5.66943 3.78377L5.52233 3.90633ZM5.4194 3.99947L5.46842 4.10731C5.49938 4.04649 5.51619 3.97946 5.51749 3.91123C5.48807 3.94065 5.44882 3.96515 5.4194 3.99947Z" fill="#FDC41B"/>
<path d="M22.8867 13.4123C22.8867 14.264 22.6343 15.0966 22.1613 15.8048C21.6884 16.513 21.0162 17.065 20.2297 17.391C19.4432 17.7169 18.5777 17.8022 17.7428 17.6361C16.9079 17.4699 16.1409 17.0597 15.539 16.4574C14.937 15.8552 14.5271 15.0878 14.361 14.2524C14.1949 13.417 14.2802 12.5511 14.606 11.7642C14.9317 10.9773 15.4834 10.3047 16.1913 9.83149C16.8991 9.35828 17.7312 9.10571 18.5825 9.10571C19.7237 9.10701 20.8177 9.56115 21.6247 10.3685C22.4316 11.1759 22.8854 12.2705 22.8867 13.4123Z" fill="#FDC41B"/>
<path d="M18.9301 8.18383C18.9359 8.23336 18.9312 8.28359 18.9163 8.33118C18.9014 8.37877 18.8765 8.42265 18.8434 8.45994C18.8103 8.49723 18.7696 8.5271 18.7242 8.54754C18.6787 8.56798 18.6294 8.57852 18.5795 8.57852C18.5297 8.57852 18.4804 8.56798 18.4349 8.54754C18.3895 8.5271 18.3488 8.49723 18.3157 8.45994C18.2825 8.42265 18.2577 8.37877 18.2428 8.33118C18.2278 8.28359 18.2231 8.23336 18.229 8.18383C18.229 7.98763 18.582 6.71234 18.582 6.71234C18.582 6.71234 18.9301 7.98763 18.9301 8.18383Z" fill="#FDC41B"/>
<path d="M18.9301 8.18383C18.9359 8.23336 18.9312 8.28359 18.9163 8.33118C18.9014 8.37877 18.8765 8.42265 18.8434 8.45994C18.8103 8.49723 18.7696 8.5271 18.7242 8.54754C18.6787 8.56798 18.6294 8.57852 18.5795 8.57852C18.5297 8.57852 18.4804 8.56798 18.4349 8.54754C18.3895 8.5271 18.3488 8.49723 18.3157 8.45994C18.2825 8.42265 18.2577 8.37877 18.2428 8.33118C18.2278 8.28359 18.2231 8.23336 18.229 8.18383C18.229 7.98763 18.582 6.71234 18.582 6.71234C18.582 6.71234 18.9301 7.98763 18.9301 8.18383Z" fill="#FDC41B"/>
<path d="M17.9055 8.21248C17.9217 8.30307 17.9019 8.39641 17.8503 8.47259C17.7987 8.54877 17.7193 8.60177 17.6292 8.62031C17.539 8.63885 17.4452 8.62146 17.3677 8.57184C17.2902 8.52221 17.2352 8.44429 17.2143 8.35467C17.1751 8.15858 17.2732 6.83984 17.2732 6.83984C17.2732 6.83984 17.8663 8.02129 17.9055 8.21248Z" fill="#FDC41B"/>
<path d="M17.9055 8.21248C17.9217 8.30307 17.9019 8.39641 17.8503 8.47259C17.7987 8.54877 17.7193 8.60177 17.6292 8.62031C17.539 8.63885 17.4452 8.62146 17.3677 8.57184C17.2902 8.52221 17.2352 8.44429 17.2143 8.35467C17.1751 8.15858 17.2732 6.83984 17.2732 6.83984C17.2732 6.83984 17.8663 8.02129 17.9055 8.21248Z" fill="#FDC41B"/>
<path d="M16.8864 8.44801C16.9186 8.53378 16.9162 8.62871 16.8797 8.71276C16.8432 8.7968 16.7755 8.86334 16.6909 8.89836C16.6062 8.93337 16.5112 8.93409 16.4261 8.90036C16.3409 8.86663 16.2721 8.80112 16.2344 8.71763C16.1608 8.53625 15.999 7.21753 15.999 7.21753C15.999 7.21753 16.8324 8.26663 16.8864 8.44801Z" fill="#FDC41B"/>
<path d="M16.8864 8.44801C16.9186 8.53378 16.9162 8.62871 16.8797 8.71276C16.8432 8.7968 16.7755 8.86334 16.6909 8.89836C16.6062 8.93337 16.5112 8.93409 16.4261 8.90036C16.3409 8.86663 16.2721 8.80112 16.2344 8.71763C16.1608 8.53625 15.999 7.21753 15.999 7.21753C15.999 7.21753 16.8324 8.26663 16.8864 8.44801Z" fill="#FDC41B"/>
<path d="M15.9693 8.86498C16.0201 8.94333 16.0383 9.03846 16.02 9.13005C16.0017 9.22165 15.9483 9.30246 15.8713 9.35521C15.8324 9.3808 15.7888 9.39845 15.743 9.40713C15.6973 9.4158 15.6502 9.41535 15.6047 9.40578C15.5591 9.39621 15.5159 9.3777 15.4775 9.35135C15.4391 9.32501 15.4063 9.29133 15.381 9.25225C15.2732 9.09048 14.8564 7.83551 14.8564 7.83551C14.8564 7.83551 15.8614 8.70321 15.9693 8.86498Z" fill="#FDC41B"/>
<path d="M15.9693 8.86498C16.0201 8.94333 16.0383 9.03846 16.02 9.13005C16.0017 9.22165 15.9483 9.30246 15.8713 9.35521C15.8324 9.3808 15.7888 9.39845 15.743 9.40713C15.6973 9.4158 15.6502 9.41535 15.6047 9.40578C15.5591 9.39621 15.5159 9.3777 15.4775 9.35135C15.4391 9.32501 15.4063 9.29133 15.381 9.25225C15.2732 9.09048 14.8564 7.83551 14.8564 7.83551C14.8564 7.83551 15.8614 8.70321 15.9693 8.86498Z" fill="#FDC41B"/>
<path d="M15.136 9.46345C15.1973 9.53035 15.2313 9.61781 15.2313 9.70856C15.2313 9.79931 15.1973 9.88677 15.136 9.95368C15.0702 10.0172 14.9823 10.0527 14.8908 10.0527C14.7994 10.0527 14.7115 10.0172 14.6457 9.95368C14.5036 9.81641 13.8516 8.66437 13.8516 8.66437C13.8516 8.66437 14.9987 9.32618 15.136 9.46345Z" fill="#FDC41B"/>
<path d="M15.136 9.46345C15.1973 9.53035 15.2313 9.61781 15.2313 9.70856C15.2313 9.79931 15.1973 9.88677 15.136 9.95368C15.0702 10.0172 14.9823 10.0527 14.8908 10.0527C14.7994 10.0527 14.7115 10.0172 14.6457 9.95368C14.5036 9.81641 13.8516 8.66437 13.8516 8.66437C13.8516 8.66437 14.9987 9.32618 15.136 9.46345Z" fill="#FDC41B"/>
<path d="M14.4354 10.2141C14.4784 10.2377 14.5162 10.2699 14.5461 10.3088C14.576 10.3477 14.5974 10.3925 14.6091 10.4402C14.6207 10.4878 14.6223 10.5374 14.6137 10.5857C14.6051 10.6341 14.5865 10.6801 14.5591 10.7208C14.5317 10.7615 14.4961 10.7961 14.4546 10.8223C14.4131 10.8485 14.3666 10.8658 14.3181 10.873C14.2695 10.8802 14.22 10.8773 14.1726 10.8643C14.1253 10.8512 14.0812 10.8285 14.0431 10.7975C13.8814 10.6896 13.0137 9.68958 13.0137 9.68958C13.0137 9.68958 14.2687 10.1063 14.4354 10.2141Z" fill="#FDC41B"/>
<path d="M14.4354 10.2141C14.4784 10.2377 14.5162 10.2699 14.5461 10.3088C14.576 10.3477 14.5974 10.3925 14.6091 10.4402C14.6207 10.4878 14.6223 10.5374 14.6137 10.5857C14.6051 10.6341 14.5865 10.6801 14.5591 10.7208C14.5317 10.7615 14.4961 10.7961 14.4546 10.8223C14.4131 10.8485 14.3666 10.8658 14.3181 10.873C14.2695 10.8802 14.22 10.8773 14.1726 10.8643C14.1253 10.8512 14.0812 10.8285 14.0431 10.7975C13.8814 10.6896 13.0137 9.68958 13.0137 9.68958C13.0137 9.68958 14.2687 10.1063 14.4354 10.2141Z" fill="#FDC41B"/>
<path d="M13.8859 11.0825C13.929 11.1002 13.9682 11.1262 14.0013 11.1591C14.0344 11.1919 14.0606 11.231 14.0786 11.274C14.0966 11.317 14.1059 11.3632 14.1061 11.4098C14.1062 11.4564 14.0972 11.5026 14.0795 11.5457C14.0618 11.5889 14.0358 11.6281 14.0029 11.6612C13.97 11.6943 13.931 11.7205 13.8879 11.7385C13.8449 11.7565 13.7988 11.7658 13.7522 11.766C13.7055 11.7661 13.6593 11.7571 13.6162 11.7394C13.4348 11.661 12.3906 10.8472 12.3906 10.8472C12.3906 10.8472 13.7045 11.0139 13.8859 11.0825Z" fill="#FDC41B"/>
<path d="M13.8859 11.0825C13.929 11.1002 13.9682 11.1262 14.0013 11.1591C14.0344 11.1919 14.0606 11.231 14.0786 11.274C14.0966 11.317 14.1059 11.3632 14.1061 11.4098C14.1062 11.4564 14.0972 11.5026 14.0795 11.5457C14.0618 11.5889 14.0358 11.6281 14.0029 11.6612C13.97 11.6943 13.931 11.7205 13.8879 11.7385C13.8449 11.7565 13.7988 11.7658 13.7522 11.766C13.7055 11.7661 13.6593 11.7571 13.6162 11.7394C13.4348 11.661 12.3906 10.8472 12.3906 10.8472C12.3906 10.8472 13.7045 11.0139 13.8859 11.0825Z" fill="#FDC41B"/>
<path d="M13.5236 12.0487C13.5688 12.0575 13.6118 12.0752 13.6501 12.1007C13.6884 12.1262 13.7213 12.159 13.7468 12.1973C13.7723 12.2356 13.79 12.2786 13.7988 12.3238C13.8076 12.369 13.8074 12.4154 13.7981 12.4605C13.7803 12.5521 13.727 12.6328 13.6499 12.6851C13.5727 12.7375 13.4779 12.7572 13.3863 12.74C13.1951 12.7007 12.0088 12.1026 12.0088 12.1026C12.5125 12.059 13.0181 12.041 13.5236 12.0487Z" fill="#FDC41B"/>
<path d="M13.5236 12.0487C13.5688 12.0575 13.6118 12.0752 13.6501 12.1007C13.6884 12.1262 13.7213 12.159 13.7468 12.1973C13.7723 12.2356 13.79 12.2786 13.7988 12.3238C13.8076 12.369 13.8074 12.4154 13.7981 12.4605C13.7803 12.5521 13.727 12.6328 13.6499 12.6851C13.5727 12.7375 13.4779 12.7572 13.3863 12.74C13.1951 12.7007 12.0088 12.1026 12.0088 12.1026C12.5125 12.059 13.0181 12.041 13.5236 12.0487Z" fill="#FDC41B"/>
<path d="M13.3516 13.0593C13.4452 13.0593 13.5349 13.0964 13.6011 13.1626C13.6673 13.2288 13.7045 13.3186 13.7045 13.4122C13.7045 13.5059 13.6673 13.5956 13.6011 13.6618C13.5349 13.728 13.4452 13.7652 13.3516 13.7652C13.1604 13.7652 11.8809 13.4122 11.8809 13.4122C11.8809 13.4122 13.1604 13.0593 13.3516 13.0593Z" fill="#FDC41B"/>
<path d="M13.3516 13.0593C13.4452 13.0593 13.5349 13.0964 13.6011 13.1626C13.6673 13.2288 13.7045 13.3186 13.7045 13.4122C13.7045 13.5059 13.6673 13.5956 13.6011 13.6618C13.5349 13.728 13.4452 13.7652 13.3516 13.7652C13.1604 13.7652 11.8809 13.4122 11.8809 13.4122C11.8809 13.4122 13.1604 13.0593 13.3516 13.0593Z" fill="#FDC41B"/>
<path d="M13.3863 14.0844C13.4317 14.0751 13.4786 14.0751 13.524 14.0842C13.5695 14.0933 13.6126 14.1114 13.651 14.1374C13.6893 14.1635 13.7221 14.1969 13.7474 14.2358C13.7727 14.2746 13.7899 14.3182 13.7981 14.3638C13.8169 14.4555 13.7986 14.5508 13.7471 14.629C13.6956 14.7071 13.6152 14.7616 13.5236 14.7805C13.3324 14.8148 12.0088 14.7167 12.0088 14.7167C12.0088 14.7167 13.1951 14.1285 13.3863 14.0844Z" fill="#FDC41B"/>
<path d="M13.3863 14.0844C13.4317 14.0751 13.4786 14.0751 13.524 14.0842C13.5695 14.0933 13.6126 14.1114 13.651 14.1374C13.6893 14.1635 13.7221 14.1969 13.7474 14.2358C13.7727 14.2746 13.7899 14.3182 13.7981 14.3638C13.8169 14.4555 13.7986 14.5508 13.7471 14.629C13.6956 14.7071 13.6152 14.7616 13.5236 14.7805C13.3324 14.8148 12.0088 14.7167 12.0088 14.7167C12.0088 14.7167 13.1951 14.1285 13.3863 14.0844Z" fill="#FDC41B"/>
<path d="M13.6162 15.0899C13.6596 15.0654 13.7078 15.0504 13.7574 15.0459C13.8071 15.0414 13.8571 15.0475 13.9043 15.0637C13.9514 15.08 13.9946 15.106 14.031 15.1401C14.0673 15.1743 14.096 15.2157 14.1152 15.2617C14.1343 15.3077 14.1436 15.3573 14.1422 15.4071C14.1409 15.457 14.1289 15.506 14.1073 15.5509C14.0856 15.5958 14.0547 15.6356 14.0165 15.6676C13.9783 15.6997 13.9338 15.7234 13.8859 15.737C13.7045 15.8154 12.3906 15.9772 12.3906 15.9772C12.7839 15.6609 13.1929 15.3647 13.6162 15.0899Z" fill="#FDC41B"/>
<path d="M13.6162 15.0899C13.6596 15.0654 13.7078 15.0504 13.7574 15.0459C13.8071 15.0414 13.8571 15.0475 13.9043 15.0637C13.9514 15.08 13.9946 15.106 14.031 15.1401C14.0673 15.1743 14.096 15.2157 14.1152 15.2617C14.1343 15.3077 14.1436 15.3573 14.1422 15.4071C14.1409 15.457 14.1289 15.506 14.1073 15.5509C14.0856 15.5958 14.0547 15.6356 14.0165 15.6676C13.9783 15.6997 13.9338 15.7234 13.8859 15.737C13.7045 15.8154 12.3906 15.9772 12.3906 15.9772C12.7839 15.6609 13.1929 15.3647 13.6162 15.0899Z" fill="#FDC41B"/>
<path d="M14.0383 16.0218C14.1163 15.9698 14.2118 15.9509 14.3037 15.9693C14.3957 15.9877 14.4765 16.0419 14.5285 16.1199C14.5805 16.1979 14.5994 16.2934 14.581 16.3853C14.5626 16.4772 14.5085 16.5581 14.4305 16.6101C14.2687 16.7179 13.0088 17.1346 13.0088 17.1346C13.0088 17.1346 13.8765 16.1591 14.0383 16.0218Z" fill="#FDC41B"/>
<path d="M14.0383 16.0218C14.1163 15.9698 14.2118 15.9509 14.3037 15.9693C14.3957 15.9877 14.4765 16.0419 14.5285 16.1199C14.5805 16.1979 14.5994 16.2934 14.581 16.3853C14.5626 16.4772 14.5085 16.5581 14.4305 16.6101C14.2687 16.7179 13.0088 17.1346 13.0088 17.1346C13.0088 17.1346 13.8765 16.1591 14.0383 16.0218Z" fill="#FDC41B"/>
<path d="M14.636 16.8605C14.7018 16.797 14.7897 16.7615 14.8811 16.7615C14.9726 16.7615 15.0604 16.797 15.1262 16.8605C15.1876 16.9274 15.2216 17.0148 15.2216 17.1056C15.2216 17.1963 15.1876 17.2838 15.1262 17.3507C14.989 17.4879 13.832 18.1449 13.832 18.1449C13.832 18.1449 14.4938 16.9977 14.636 16.8605Z" fill="#FDC41B"/>
<path d="M14.636 16.8605C14.7018 16.797 14.7897 16.7615 14.8811 16.7615C14.9726 16.7615 15.0604 16.797 15.1262 16.8605C15.1876 16.9274 15.2216 17.0148 15.2216 17.1056C15.2216 17.1963 15.1876 17.2838 15.1262 17.3507C14.989 17.4879 13.832 18.1449 13.832 18.1449C13.832 18.1449 14.4938 16.9977 14.636 16.8605Z" fill="#FDC41B"/>
<path d="M15.381 17.5618C15.4337 17.4845 15.5149 17.4313 15.6068 17.4138C15.6987 17.3963 15.7939 17.4161 15.8713 17.4687C15.9105 17.494 15.9442 17.5268 15.9704 17.5654C15.9967 17.6039 16.0149 17.6473 16.024 17.6931C16.0332 17.7388 16.0331 17.7859 16.0237 17.8316C16.0143 17.8772 15.9958 17.9205 15.9693 17.9589C15.8614 18.1207 14.8564 18.9835 14.8564 18.9835C14.8564 18.9835 15.2732 17.7236 15.381 17.5618Z" fill="#FDC41B"/>
<path d="M15.381 17.5618C15.4337 17.4845 15.5149 17.4313 15.6068 17.4138C15.6987 17.3963 15.7939 17.4161 15.8713 17.4687C15.9105 17.494 15.9442 17.5268 15.9704 17.5654C15.9967 17.6039 16.0149 17.6473 16.024 17.6931C16.0332 17.7388 16.0331 17.7859 16.0237 17.8316C16.0143 17.8772 15.9958 17.9205 15.9693 17.9589C15.8614 18.1207 14.8564 18.9835 14.8564 18.9835C14.8564 18.9835 15.2732 17.7236 15.381 17.5618Z" fill="#FDC41B"/>
<path d="M16.2539 18.121C16.2916 18.0375 16.3603 17.972 16.4455 17.9382C16.5307 17.9045 16.6257 17.9052 16.7104 17.9402C16.7951 17.9753 16.8628 18.0418 16.8993 18.1258C16.9357 18.2099 16.9381 18.3048 16.9059 18.3906C16.8324 18.5671 16.0186 19.6162 16.0186 19.6162C16.0186 19.6162 16.1803 18.2876 16.2539 18.121Z" fill="#FDC41B"/>
<path d="M16.2539 18.121C16.2916 18.0375 16.3603 17.972 16.4455 17.9382C16.5307 17.9045 16.6257 17.9052 16.7104 17.9402C16.7951 17.9753 16.8628 18.0418 16.8993 18.1258C16.9357 18.2099 16.9381 18.3048 16.9059 18.3906C16.8324 18.5671 16.0186 19.6162 16.0186 19.6162C16.0186 19.6162 16.1803 18.2876 16.2539 18.121Z" fill="#FDC41B"/>
<path d="M17.2143 18.4741C17.2209 18.4264 17.2372 18.3807 17.2621 18.3395C17.287 18.2984 17.3201 18.2628 17.3593 18.2349C17.3985 18.207 17.4429 18.1874 17.4899 18.1773C17.5369 18.1673 17.5855 18.1669 17.6327 18.1763C17.6799 18.1856 17.7246 18.2045 17.7642 18.2318C17.8038 18.2591 17.8374 18.2942 17.863 18.3349C17.8885 18.3757 17.9055 18.4212 17.9128 18.4687C17.9201 18.5163 17.9176 18.5648 17.9055 18.6113C17.8712 18.8025 17.2732 19.9889 17.2732 19.9889C17.2732 19.9889 17.1751 18.6653 17.2143 18.4741Z" fill="#FDC41B"/>
<path d="M17.2143 18.4741C17.2209 18.4264 17.2372 18.3807 17.2621 18.3395C17.287 18.2984 17.3201 18.2628 17.3593 18.2349C17.3985 18.207 17.4429 18.1874 17.4899 18.1773C17.5369 18.1673 17.5855 18.1669 17.6327 18.1763C17.6799 18.1856 17.7246 18.2045 17.7642 18.2318C17.8038 18.2591 17.8374 18.2942 17.863 18.3349C17.8885 18.3757 17.9055 18.4212 17.9128 18.4687C17.9201 18.5163 17.9176 18.5648 17.9055 18.6113C17.8712 18.8025 17.2732 19.9889 17.2732 19.9889C17.2732 19.9889 17.1751 18.6653 17.2143 18.4741Z" fill="#FDC41B"/>
<path d="M18.229 18.6411C18.2231 18.5916 18.2278 18.5413 18.2428 18.4937C18.2577 18.4461 18.2825 18.4023 18.3157 18.365C18.3488 18.3277 18.3895 18.2978 18.4349 18.2774C18.4804 18.2569 18.5297 18.2464 18.5795 18.2464C18.6294 18.2464 18.6787 18.2569 18.7242 18.2774C18.7696 18.2978 18.8103 18.3277 18.8434 18.365C18.8765 18.4023 18.9014 18.4461 18.9163 18.4937C18.9312 18.5413 18.9359 18.5916 18.9301 18.6411C18.9301 18.8373 18.582 20.1126 18.582 20.1126C18.582 20.1126 18.229 18.8373 18.229 18.6411Z" fill="#FDC41B"/>
<path d="M18.229 18.6411C18.2231 18.5916 18.2278 18.5413 18.2428 18.4937C18.2577 18.4461 18.2825 18.4023 18.3157 18.365C18.3488 18.3277 18.3895 18.2978 18.4349 18.2774C18.4804 18.2569 18.5297 18.2464 18.5795 18.2464C18.6294 18.2464 18.6787 18.2569 18.7242 18.2774C18.7696 18.2978 18.8103 18.3277 18.8434 18.365C18.8765 18.4023 18.9014 18.4461 18.9163 18.4937C18.9312 18.5413 18.9359 18.5916 18.9301 18.6411C18.9301 18.8373 18.582 20.1126 18.582 20.1126C18.582 20.1126 18.229 18.8373 18.229 18.6411Z" fill="#FDC41B"/>
<path d="M19.2541 18.6115C19.2448 18.5657 19.2447 18.5186 19.2538 18.4729C19.2629 18.4271 19.2809 18.3836 19.3069 18.3448C19.3329 18.3061 19.3663 18.2729 19.4052 18.2471C19.4441 18.2213 19.4877 18.2036 19.5336 18.1948C19.579 18.1856 19.6258 18.1855 19.6713 18.1946C19.7167 18.2037 19.7599 18.2218 19.7982 18.2479C19.8366 18.2739 19.8693 18.3073 19.8946 18.3462C19.9198 18.385 19.9371 18.4286 19.9453 18.4742C19.9846 18.6654 19.8865 19.989 19.8865 19.989C19.8865 19.989 19.2933 18.8026 19.2541 18.6115Z" fill="#FDC41B"/>
<path d="M19.2541 18.6115C19.2448 18.5657 19.2447 18.5186 19.2538 18.4729C19.2629 18.4271 19.2809 18.3836 19.3069 18.3448C19.3329 18.3061 19.3663 18.2729 19.4052 18.2471C19.4441 18.2213 19.4877 18.2036 19.5336 18.1948C19.579 18.1856 19.6258 18.1855 19.6713 18.1946C19.7167 18.2037 19.7599 18.2218 19.7982 18.2479C19.8366 18.2739 19.8693 18.3073 19.8946 18.3462C19.9198 18.385 19.9371 18.4286 19.9453 18.4742C19.9846 18.6654 19.8865 19.989 19.8865 19.989C19.8865 19.989 19.2933 18.8026 19.2541 18.6115Z" fill="#FDC41B"/>
<path d="M20.254 18.3809C20.2345 18.3377 20.2239 18.2911 20.2228 18.2438C20.2216 18.1965 20.23 18.1495 20.2474 18.1055C20.2648 18.0615 20.2909 18.0214 20.3241 17.9877C20.3573 17.954 20.397 17.9273 20.4407 17.9092C20.4844 17.8912 20.5314 17.882 20.5787 17.8825C20.626 17.8829 20.6728 17.8928 20.7162 17.9116C20.7596 17.9305 20.7987 17.9579 20.8314 17.9922C20.864 18.0264 20.8893 18.0669 20.906 18.1112C20.9844 18.2877 21.1462 19.5819 21.1462 19.5819C21.1462 19.5819 20.3177 18.5573 20.254 18.3809Z" fill="#FDC41B"/>
<path d="M20.254 18.3809C20.2345 18.3377 20.2239 18.2911 20.2228 18.2438C20.2216 18.1965 20.23 18.1495 20.2474 18.1055C20.2648 18.0615 20.2909 18.0214 20.3241 17.9877C20.3573 17.954 20.397 17.9273 20.4407 17.9092C20.4844 17.8912 20.5314 17.882 20.5787 17.8825C20.626 17.8829 20.6728 17.8928 20.7162 17.9116C20.7596 17.9305 20.7987 17.9579 20.8314 17.9922C20.864 18.0264 20.8893 18.0669 20.906 18.1112C20.9844 18.2877 21.1462 19.5819 21.1462 19.5819C21.1462 19.5819 20.3177 18.5573 20.254 18.3809Z" fill="#FDC41B"/>
<path d="M21.1904 17.9589C21.1646 17.9203 21.1467 17.877 21.1376 17.8315C21.1286 17.7859 21.1286 17.739 21.1377 17.6935C21.1468 17.6479 21.1648 17.6046 21.1907 17.5661C21.2166 17.5275 21.2498 17.4944 21.2885 17.4687C21.3266 17.442 21.3696 17.4232 21.4151 17.4134C21.4606 17.4036 21.5076 17.4031 21.5533 17.4118C21.599 17.4204 21.6424 17.4382 21.6812 17.464C21.7199 17.4897 21.7531 17.523 21.7787 17.5618C21.8915 17.7236 22.3082 18.9835 22.3082 18.9835C22.3082 18.9835 21.2983 18.1207 21.1904 17.9589Z" fill="#FDC41B"/>
<path d="M21.1904 17.9589C21.1646 17.9203 21.1467 17.877 21.1376 17.8315C21.1286 17.7859 21.1286 17.739 21.1377 17.6935C21.1468 17.6479 21.1648 17.6046 21.1907 17.5661C21.2166 17.5275 21.2498 17.4944 21.2885 17.4687C21.3266 17.442 21.3696 17.4232 21.4151 17.4134C21.4606 17.4036 21.5076 17.4031 21.5533 17.4118C21.599 17.4204 21.6424 17.4382 21.6812 17.464C21.7199 17.4897 21.7531 17.523 21.7787 17.5618C21.8915 17.7236 22.3082 18.9835 22.3082 18.9835C22.3082 18.9835 21.2983 18.1207 21.1904 17.9589Z" fill="#FDC41B"/>
<path d="M22.0287 17.3605C21.964 17.2953 21.9277 17.2072 21.9277 17.1154C21.9277 17.0235 21.964 16.9354 22.0287 16.8702C22.0945 16.8067 22.1824 16.7712 22.2738 16.7712C22.3652 16.7712 22.4531 16.8067 22.5189 16.8702C22.6513 17.0075 23.3082 18.1645 23.3082 18.1645C23.3082 18.1645 22.166 17.4977 22.0287 17.3605Z" fill="#FDC41B"/>
<path d="M22.0287 17.3605C21.964 17.2953 21.9277 17.2072 21.9277 17.1154C21.9277 17.0235 21.964 16.9354 22.0287 16.8702C22.0945 16.8067 22.1824 16.7712 22.2738 16.7712C22.3652 16.7712 22.4531 16.8067 22.5189 16.8702C22.6513 17.0075 23.3082 18.1645 23.3082 18.1645C23.3082 18.1645 22.166 17.4977 22.0287 17.3605Z" fill="#FDC41B"/>
<path d="M22.7297 16.6101C22.6911 16.5843 22.6579 16.5512 22.632 16.5127C22.6062 16.4741 22.5883 16.4308 22.5791 16.3853C22.57 16.3398 22.57 16.2929 22.579 16.2474C22.588 16.2018 22.6059 16.1585 22.6316 16.1199C22.6574 16.0812 22.6905 16.0481 22.7291 16.0222C22.7676 15.9964 22.8109 15.9784 22.8565 15.9693C22.902 15.9602 22.9489 15.9602 22.9944 15.9692C23.0399 15.9782 23.0832 15.9961 23.1219 16.0218C23.2836 16.1346 24.1513 17.1346 24.1513 17.1346C24.1513 17.1346 22.8915 16.7179 22.7297 16.6101Z" fill="#FDC41B"/>
<path d="M22.7297 16.6101C22.6911 16.5843 22.6579 16.5512 22.632 16.5127C22.6062 16.4741 22.5883 16.4308 22.5791 16.3853C22.57 16.3398 22.57 16.2929 22.579 16.2474C22.588 16.2018 22.6059 16.1585 22.6316 16.1199C22.6574 16.0812 22.6905 16.0481 22.7291 16.0222C22.7676 15.9964 22.8109 15.9784 22.8565 15.9693C22.902 15.9602 22.9489 15.9602 22.9944 15.9692C23.0399 15.9782 23.0832 15.9961 23.1219 16.0218C23.2836 16.1346 24.1513 17.1346 24.1513 17.1346C24.1513 17.1346 22.8915 16.7179 22.7297 16.6101Z" fill="#FDC41B"/>
<path d="M23.2587 15.7369C23.2161 15.7197 23.1773 15.6942 23.1446 15.6619C23.1119 15.6296 23.0859 15.5912 23.0681 15.5488C23.0503 15.5064 23.0411 15.4609 23.041 15.415C23.0409 15.369 23.0499 15.3235 23.0675 15.281C23.0852 15.2376 23.1114 15.1982 23.1445 15.165C23.1776 15.1318 23.217 15.1056 23.2603 15.0878C23.3037 15.07 23.3501 15.061 23.397 15.0614C23.4438 15.0617 23.4902 15.0714 23.5333 15.0898C23.7098 15.1584 24.754 15.9771 24.754 15.9771C24.754 15.9771 23.4499 15.8153 23.2587 15.7369Z" fill="#FDC41B"/>
<path d="M23.2587 15.7369C23.2161 15.7197 23.1773 15.6942 23.1446 15.6619C23.1119 15.6296 23.0859 15.5912 23.0681 15.5488C23.0503 15.5064 23.0411 15.4609 23.041 15.415C23.0409 15.369 23.0499 15.3235 23.0675 15.281C23.0852 15.2376 23.1114 15.1982 23.1445 15.165C23.1776 15.1318 23.217 15.1056 23.2603 15.0878C23.3037 15.07 23.3501 15.061 23.397 15.0614C23.4438 15.0617 23.4902 15.0714 23.5333 15.0898C23.7098 15.1584 24.754 15.9771 24.754 15.9771C24.754 15.9771 23.4499 15.8153 23.2587 15.7369Z" fill="#FDC41B"/>
<path d="M23.6417 14.7805C23.5959 14.7718 23.5524 14.7542 23.5135 14.7287C23.4746 14.7031 23.4411 14.6702 23.4149 14.6317C23.3887 14.5933 23.3704 14.55 23.3609 14.5045C23.3515 14.4589 23.351 14.4119 23.3597 14.3662C23.3684 14.3205 23.386 14.277 23.4116 14.2381C23.4371 14.1992 23.47 14.1657 23.5085 14.1395C23.547 14.1133 23.5902 14.095 23.6358 14.0855C23.6813 14.0761 23.7283 14.0757 23.774 14.0844C23.9652 14.1285 25.1515 14.7167 25.1515 14.7167C25.1515 14.7167 23.8279 14.8148 23.6417 14.7805Z" fill="#FDC41B"/>
<path d="M23.6417 14.7805C23.5959 14.7718 23.5524 14.7542 23.5135 14.7287C23.4746 14.7031 23.4411 14.6702 23.4149 14.6317C23.3887 14.5933 23.3704 14.55 23.3609 14.5045C23.3515 14.4589 23.351 14.4119 23.3597 14.3662C23.3684 14.3205 23.386 14.277 23.4116 14.2381C23.4371 14.1992 23.47 14.1657 23.5085 14.1395C23.547 14.1133 23.5902 14.095 23.6358 14.0855C23.6813 14.0761 23.7283 14.0757 23.774 14.0844C23.9652 14.1285 25.1515 14.7167 25.1515 14.7167C25.1515 14.7167 23.8279 14.8148 23.6417 14.7805Z" fill="#FDC41B"/>
<path d="M23.808 13.7652C23.7144 13.7652 23.6246 13.728 23.5584 13.6618C23.4922 13.5956 23.4551 13.5059 23.4551 13.4122C23.4551 13.3186 23.4922 13.2288 23.5584 13.1626C23.6246 13.0964 23.7144 13.0593 23.808 13.0593C24.0041 13.0593 25.2787 13.4122 25.2787 13.4122C25.2787 13.4122 24.0041 13.7652 23.808 13.7652Z" fill="#FDC41B"/>
<path d="M23.808 13.7652C23.7144 13.7652 23.6246 13.728 23.5584 13.6618C23.4922 13.5956 23.4551 13.5059 23.4551 13.4122C23.4551 13.3186 23.4922 13.2288 23.5584 13.1626C23.6246 13.0964 23.7144 13.0593 23.808 13.0593C24.0041 13.0593 25.2787 13.4122 25.2787 13.4122C25.2787 13.4122 24.0041 13.7652 23.808 13.7652Z" fill="#FDC41B"/>
<path d="M23.7742 12.7253C23.6828 12.7412 23.5886 12.721 23.5118 12.6688C23.4349 12.6167 23.3814 12.5367 23.3624 12.4458C23.3532 12.4004 23.3532 12.3536 23.3623 12.3081C23.3714 12.2627 23.3895 12.2195 23.4155 12.1811C23.4416 12.1428 23.475 12.11 23.5139 12.0848C23.5527 12.0595 23.5962 12.0423 23.6419 12.034C24.1458 12.0264 24.6497 12.0444 25.1518 12.088C25.1518 12.088 23.9654 12.7253 23.7742 12.7253Z" fill="#FDC41B"/>
<path d="M23.7742 12.7253C23.6828 12.7412 23.5886 12.721 23.5118 12.6688C23.4349 12.6167 23.3814 12.5367 23.3624 12.4458C23.3532 12.4004 23.3532 12.3536 23.3623 12.3081C23.3714 12.2627 23.3895 12.2195 23.4155 12.1811C23.4416 12.1428 23.475 12.11 23.5139 12.0848C23.5527 12.0595 23.5962 12.0423 23.6419 12.034C24.1458 12.0264 24.6497 12.0444 25.1518 12.088C25.1518 12.088 23.9654 12.7253 23.7742 12.7253Z" fill="#FDC41B"/>
<path d="M23.5482 11.7443C23.4634 11.7699 23.3722 11.7631 23.2921 11.7253C23.212 11.6875 23.1487 11.6214 23.1146 11.5397C23.0804 11.458 23.0778 11.3665 23.1072 11.2829C23.1366 11.1994 23.1959 11.1297 23.2737 11.0874C23.4502 11.0187 24.7444 10.8521 24.7444 10.8521C24.7444 10.8521 23.7492 11.6609 23.5482 11.7443Z" fill="#FDC41B"/>
<path d="M23.5482 11.7443C23.4634 11.7699 23.3722 11.7631 23.2921 11.7253C23.212 11.6875 23.1487 11.6214 23.1146 11.5397C23.0804 11.458 23.0778 11.3665 23.1072 11.2829C23.1366 11.1994 23.1959 11.1297 23.2737 11.0874C23.4502 11.0187 24.7444 10.8521 24.7444 10.8521C24.7444 10.8521 23.7492 11.6609 23.5482 11.7443Z" fill="#FDC41B"/>
<path d="M23.1217 10.7975C23.0445 10.8397 22.9543 10.8515 22.8688 10.8306C22.7834 10.8097 22.7087 10.7577 22.6596 10.6846C22.6105 10.6116 22.5905 10.5229 22.6034 10.4358C22.6164 10.3488 22.6614 10.2697 22.7296 10.2141C22.8914 10.1063 24.1512 9.68958 24.1512 9.68958C24.1512 9.68958 23.2835 10.6896 23.1217 10.7975Z" fill="#FDC41B"/>
<path d="M23.1217 10.7975C23.0445 10.8397 22.9543 10.8515 22.8688 10.8306C22.7834 10.8097 22.7087 10.7577 22.6596 10.6846C22.6105 10.6116 22.5905 10.5229 22.6034 10.4358C22.6164 10.3488 22.6614 10.2697 22.7296 10.2141C22.8914 10.1063 24.1512 9.68958 24.1512 9.68958C24.1512 9.68958 23.2835 10.6896 23.1217 10.7975Z" fill="#FDC41B"/>
<path d="M22.5287 9.96364C22.4629 10.0271 22.375 10.0626 22.2836 10.0626C22.1921 10.0626 22.1043 10.0271 22.0385 9.96364C21.9738 9.89845 21.9375 9.81034 21.9375 9.71852C21.9375 9.6267 21.9738 9.5386 22.0385 9.47341C22.1757 9.33614 23.3278 8.68414 23.3278 8.68414C23.3278 8.68414 22.661 9.82637 22.5287 9.96364Z" fill="#FDC41B"/>
<path d="M22.5287 9.96364C22.4629 10.0271 22.375 10.0626 22.2836 10.0626C22.1921 10.0626 22.1043 10.0271 22.0385 9.96364C21.9738 9.89845 21.9375 9.81034 21.9375 9.71852C21.9375 9.6267 21.9738 9.5386 22.0385 9.47341C22.1757 9.33614 23.3278 8.68414 23.3278 8.68414C23.3278 8.68414 22.661 9.82637 22.5287 9.96364Z" fill="#FDC41B"/>
<path d="M21.7888 9.25714C21.7644 9.29728 21.7321 9.33198 21.6937 9.35911C21.6554 9.38625 21.6119 9.40524 21.566 9.41489C21.52 9.42454 21.4725 9.42464 21.4265 9.41522C21.3805 9.40579 21.337 9.38704 21.2985 9.3601C21.2224 9.30655 21.1698 9.22579 21.1516 9.13455C21.1333 9.04331 21.1509 8.94857 21.2005 8.86987C21.3084 8.70809 22.3133 7.84528 22.3133 7.84528C22.3133 7.84528 21.8868 9.09537 21.7888 9.25714Z" fill="#FDC41B"/>
<path d="M21.7888 9.25714C21.7644 9.29728 21.7321 9.33198 21.6937 9.35911C21.6554 9.38625 21.6119 9.40524 21.566 9.41489C21.52 9.42454 21.4725 9.42464 21.4265 9.41522C21.3805 9.40579 21.337 9.38704 21.2985 9.3601C21.2224 9.30655 21.1698 9.22579 21.1516 9.13455C21.1333 9.04331 21.1509 8.94857 21.2005 8.86987C21.3084 8.70809 22.3133 7.84528 22.3133 7.84528C22.3133 7.84528 21.8868 9.09537 21.7888 9.25714Z" fill="#FDC41B"/>
<path d="M20.906 8.71763C20.8682 8.80112 20.7995 8.86663 20.7143 8.90036C20.6291 8.93409 20.5342 8.93337 20.4495 8.89836C20.3648 8.86334 20.2971 8.7968 20.2606 8.71276C20.2242 8.62871 20.2218 8.53378 20.254 8.44801C20.3275 8.26663 21.1462 7.21753 21.1462 7.21753C21.1462 7.21753 20.9844 8.53625 20.906 8.71763Z" fill="#FDC41B"/>
<path d="M20.906 8.71763C20.8682 8.80112 20.7995 8.86663 20.7143 8.90036C20.6291 8.93409 20.5342 8.93337 20.4495 8.89836C20.3648 8.86334 20.2971 8.7968 20.2606 8.71276C20.2242 8.62871 20.2218 8.53378 20.254 8.44801C20.3275 8.26663 21.1462 7.21753 21.1462 7.21753C21.1462 7.21753 20.9844 8.53625 20.906 8.71763Z" fill="#FDC41B"/>
<path d="M19.9448 8.35467C19.9239 8.44429 19.8689 8.52221 19.7914 8.57184C19.7139 8.62146 19.62 8.63885 19.5299 8.62031C19.4398 8.60177 19.3605 8.54877 19.3088 8.47259C19.2572 8.39641 19.2374 8.30307 19.2535 8.21248C19.2928 8.02129 19.886 6.83984 19.886 6.83984C19.886 6.83984 19.984 8.15858 19.9448 8.35467Z" fill="#FDC41B"/>
<path d="M19.9448 8.35467C19.9239 8.44429 19.8689 8.52221 19.7914 8.57184C19.7139 8.62146 19.62 8.63885 19.5299 8.62031C19.4398 8.60177 19.3605 8.54877 19.3088 8.47259C19.2572 8.39641 19.2374 8.30307 19.2535 8.21248C19.2928 8.02129 19.886 6.83984 19.886 6.83984C19.886 6.83984 19.984 8.15858 19.9448 8.35467Z" fill="#FDC41B"/>
<path d="M18.9447 20.9465C18.8025 21.0054 18.675 21.2163 18.5819 21.3144C18.4201 21.4959 18.2583 21.6724 18.0917 21.8441C17.8081 22.145 17.4616 22.3795 17.0769 22.5308C16.8269 22.5847 16.5867 22.5308 16.4347 22.6828C16.2827 22.8349 16.1602 22.9477 16.1602 23.0262C16.1602 23.1047 15.8758 23.1537 15.8268 23.3205C15.7973 23.4513 15.7973 23.587 15.8268 23.7178C15.9328 23.6878 16.0313 23.636 16.1161 23.5657C16.17 23.5167 16.17 23.6295 16.17 23.6295H16.3612C16.6581 23.5451 16.9645 23.499 17.273 23.4922C17.7633 23.4922 18.7976 23.5903 19.028 23.5559C19.2584 23.5216 18.8221 23.4627 18.6653 23.4627C18.5084 23.4627 17.9839 23.3842 17.8809 23.3842C17.778 23.3842 17.4544 23.3842 17.4544 23.3548C17.4544 23.3254 17.6064 23.1341 17.6358 23.1047C17.6652 23.0752 17.2583 23.1439 17.5132 22.9869C17.7682 22.83 17.6848 22.7074 17.5524 22.7515C17.3227 22.8128 17.1007 22.9 16.8906 23.0115C16.8906 23.0654 16.6798 23.2813 16.621 23.2224C16.5633 23.183 16.4948 23.1624 16.4249 23.1635C16.4249 23.1635 16.3955 23.0654 16.5818 23.0017C16.7681 22.9379 16.6651 23.0311 16.9837 22.8545C17.6243 22.5205 18.2316 22.1263 18.7976 21.6773C19.1341 21.462 19.5175 21.3307 19.9154 21.2947C20.1948 21.2604 20.4791 21.2408 20.7586 21.2016C21.0352 21.202 21.306 21.1219 21.538 20.971C21.9185 20.5799 22.3628 20.2564 22.8518 20.0145C23.2068 19.8957 23.5446 19.7308 23.8568 19.524C24.2045 19.1667 24.5318 18.7901 24.8372 18.3959C25.0822 18.1569 25.3636 17.9583 25.6707 17.8073C25.7785 17.7534 26.4599 17.4149 26.3864 17.7779C26.272 18.0449 26.1201 18.2943 25.9354 18.5185C25.8961 18.5529 26.308 18.3567 26.3962 18.4401C26.43 18.4976 26.4422 18.5652 26.4305 18.6309C26.4188 18.6965 26.384 18.7559 26.3325 18.7981L25.9942 19.1415C25.9942 19.1415 26.3717 19.1071 26.3423 19.2347C26.3129 19.3622 25.5824 19.7252 25.5285 19.7742C25.4746 19.8233 25.5285 19.8576 25.5285 19.8968C25.5285 19.9361 25.4206 20.0048 25.3275 20.0979C25.2343 20.1911 24.9157 20.2941 24.9696 20.4266C25.0235 20.559 24.9696 20.4903 24.9157 20.5688C24.8618 20.6473 24.5677 20.6522 24.5677 20.7454C24.5677 20.8386 24.5971 20.9955 24.5677 21.0544C24.4372 21.1126 24.298 21.1491 24.1558 21.1623C24.1748 21.1995 24.1847 21.2407 24.1847 21.2825C24.1847 21.3243 24.1748 21.3654 24.1558 21.4027C23.6956 21.7117 23.2023 21.9684 22.6851 22.1678C22.6067 22.1678 22.4841 22.2414 22.5136 22.2414C23.0553 22.2434 23.5937 22.1556 24.1068 21.9814C24.5039 21.7509 24.8471 21.6724 24.9402 21.5792C25.0334 21.486 24.6167 21.4026 24.6167 21.2947C24.6167 21.1868 24.8618 21.0691 25.2932 21.0152C25.7246 20.9612 25.9403 20.9318 25.7491 20.8778C25.5579 20.8239 25.2588 20.8778 25.2588 20.7944C25.2588 20.7111 25.3079 20.7209 25.5138 20.662C25.7197 20.6031 26.2246 20.5541 26.2246 20.4364C26.2246 20.3186 25.8472 20.3628 25.7344 20.3236C25.6217 20.2843 25.7344 20.2843 26.1167 20.1519C26.4991 20.0195 26.8668 19.8723 26.8668 19.7889C26.8668 19.7056 26.4942 19.681 26.3766 19.681C26.2589 19.681 26.1952 19.681 26.406 19.5388C26.8322 19.3123 27.2276 19.032 27.5825 18.7049C27.7345 18.4695 27.862 18.342 27.7737 18.2537C27.6855 18.1654 27.3865 18.4744 27.1168 18.5185C26.8472 18.5627 26.759 18.6264 26.8423 18.5185C26.9257 18.4106 27.3031 18.1212 27.6806 17.7386C28.0581 17.3561 28.5826 16.9195 28.5826 16.7577C28.5826 16.5958 28.5826 16.429 28.3865 16.4781C28.1904 16.5271 27.8963 16.895 27.7688 17.0372C27.6414 17.1795 26.906 17.7289 26.906 17.7289C26.906 17.7289 27.3031 17.2383 27.7345 16.6498C28.0003 16.3398 28.214 15.9886 28.3669 15.6099C28.3661 15.5195 28.3443 15.4305 28.3032 15.3499C28.2297 15.3242 28.1499 15.3222 28.0751 15.3442C28.0004 15.3662 27.9344 15.4111 27.8865 15.4726C27.7002 15.6589 27.156 16.5222 26.9845 16.6399C26.8129 16.7577 26.6903 16.9293 26.808 16.7479C26.9929 16.3866 27.1566 16.0148 27.2982 15.6344C27.4285 15.3056 27.5143 14.9609 27.5531 14.6093C27.5531 14.4671 27.5286 14.1924 27.3816 14.1188C27.2345 14.0452 27.0776 14.1973 27.0629 14.3444C27.0216 14.6452 26.9627 14.9433 26.8864 15.2371C26.8445 15.3893 26.792 15.5385 26.7295 15.6835C26.6628 15.8155 26.5805 15.939 26.4844 16.0514C26.5335 15.8622 26.5728 15.6707 26.6021 15.4775C26.6177 15.2708 26.6062 15.0631 26.5678 14.8594C26.5678 14.781 26.5187 14.6829 26.4256 14.6927C26.2442 14.6927 26.1511 14.9036 26.1315 15.0606C26.0989 15.3028 26.0363 15.5401 25.9452 15.7669C25.8177 16.1102 25.6706 16.4437 25.5138 16.7724C24.8397 18.1196 23.7685 19.2274 22.4449 19.9459C21.3964 20.5236 20.2363 20.8698 19.0427 20.9612C19.0286 20.9514 19.0124 20.945 18.9954 20.9425C18.9784 20.9399 18.9611 20.9413 18.9447 20.9465Z" fill="#FDC41B"/>
<path d="M21.2985 23.0554C21.1907 23.0554 21.0485 22.9818 21.0485 23.1829C21.0539 23.2792 21.0268 23.3745 20.9717 23.4536C20.9167 23.5327 20.8367 23.5911 20.7446 23.6194C20.042 23.7521 19.3262 23.8014 18.6121 23.7666C18.3637 23.7327 18.1109 23.7596 17.8752 23.8451C17.6395 23.9305 17.4281 24.0719 17.259 24.2571C17.1708 24.4386 17.2051 24.6789 17.3963 24.5563C17.5977 24.4029 17.8126 24.2683 18.0385 24.1541C18.1316 24.1541 17.9404 24.5906 18.1463 24.5563C18.3522 24.5219 18.4944 24.2472 18.6709 24.208C18.8474 24.1688 18.8572 24.2865 18.7984 24.4238C18.7395 24.5612 18.7101 24.7574 19.0239 24.5121C19.3376 24.2669 19.4504 24.1246 19.4504 24.3258C19.4504 24.5269 19.5239 24.6102 19.7788 24.4435C20.0338 24.2767 19.9504 24.1541 20.0582 24.1541C20.1661 24.1541 20.1416 24.2522 20.2151 24.3306C20.2887 24.4091 20.4161 24.5317 20.7054 24.1835C20.7936 24.1001 20.8132 24.1148 20.8966 24.1835C20.9799 24.2522 20.9308 24.4434 21.1465 24.3012C21.3622 24.159 21.4603 23.9382 21.5927 23.9382C21.725 23.9382 21.6956 24.1933 21.8329 24.0854C21.8528 24.071 21.8695 24.0526 21.8819 24.0314C21.9456 23.9235 22.0241 23.6587 22.181 23.6587C22.3379 23.6587 22.4114 23.845 22.578 23.845C22.7447 23.845 22.9261 23.8451 22.9849 23.6194C23.0437 23.3938 23.0535 23.1289 23.181 23.2516C23.3085 23.3742 23.5634 23.5655 23.784 23.4036C23.886 23.3254 23.9614 23.2174 23.9997 23.0946C24.0071 23.0717 24.0093 23.0473 24.0062 23.0234C24.003 22.9995 23.9946 22.9766 23.9814 22.9564C23.9682 22.9361 23.9507 22.9191 23.9301 22.9066C23.9095 22.894 23.8864 22.8862 23.8624 22.8837C23.5095 22.8396 23.1565 22.8052 22.7987 22.7807L22.1761 22.7463C21.9791 22.7219 21.7798 22.7219 21.5829 22.7463C21.3622 22.8101 21.2985 23.0554 21.2985 23.0554Z" fill="#FDC41B"/>
<path d="M11.0962 17.248C11.2342 17.3627 11.3636 17.4873 11.4835 17.6208L11.9002 18.0476C12.2259 18.5208 12.5969 18.961 13.0081 19.3621C13.3476 19.5645 13.7015 19.7415 14.067 19.8918C14.3925 20.088 14.695 20.32 14.969 20.5834C15.3634 20.9122 15.8461 21.117 16.3564 21.172C16.7626 21.1287 17.1732 21.1704 17.5624 21.2946C17.6947 21.4271 18.0526 21.5497 18.1065 21.4712C18.204 21.3342 18.2908 21.1899 18.3663 21.0396C18.1923 20.9839 18.0095 20.9606 17.8271 20.9709C16.85 20.8895 15.902 20.5984 15.0475 20.1175C13.9213 19.5658 12.9494 18.7434 12.2188 17.7238C11.6869 16.8801 11.2729 15.9675 10.9884 15.0114C10.8903 14.6484 10.6158 14.6484 10.6158 15.1487C10.6158 15.649 10.8805 16.0463 10.807 16.1297C10.7334 16.2131 10.4393 15.546 10.4148 15.5019C10.2664 15.1349 10.1499 14.7559 10.0667 14.3688C10.0667 14.2806 10.0324 14.1236 9.92459 14.0893C9.81674 14.055 9.71868 14.1628 9.65985 14.256C9.62275 14.3708 9.62275 14.4944 9.65985 14.6092C9.68221 14.8154 9.72998 15.018 9.80203 15.2125C9.87557 15.4185 9.93927 15.6196 10.0128 15.8256C10.1207 16.1395 10.2383 16.4535 10.356 16.7674C10.356 16.7674 9.67452 15.8207 9.44412 15.5902L9.199 15.3597C9.14998 15.3204 8.98824 15.1684 8.93432 15.2763C8.92726 15.3036 8.92726 15.3323 8.93432 15.3597C8.95238 15.6871 9.05361 16.0044 9.22844 16.2818C9.47846 16.6791 10.2089 17.6208 10.2089 17.6208C10.2089 17.6208 9.71865 17.199 9.50785 16.9685C9.29705 16.738 8.52744 16.2033 8.57646 16.5614C8.62548 16.9194 10.0471 18.1849 10.1697 18.3811C10.1697 18.4253 10.2776 18.6264 10.1697 18.592C10.1373 18.5799 10.1086 18.5596 10.0863 18.5332C10.0012 18.4564 9.90929 18.3874 9.81179 18.3271C9.74475 18.2646 9.66153 18.2221 9.57158 18.2045C9.47354 18.2045 9.34608 18.3223 9.57158 18.5577C9.79709 18.7931 11.1207 19.4161 11.1207 19.5043C11.1207 19.5926 10.5521 19.5043 10.4001 19.5043C10.2481 19.5043 10.1648 19.5534 10.3364 19.6515C10.5826 19.7437 10.8349 19.8191 11.0913 19.8771C11.3168 19.9654 11.508 19.9311 11.4394 19.9948C11.3708 20.0586 11.2727 20.0488 11.2041 20.0586C11.1355 20.0684 10.9589 20.0586 10.8609 20.0586C10.7628 20.0586 10.7923 20.1125 10.8609 20.1714C11.008 20.3087 11.6306 20.3872 11.6747 20.4314C11.7188 20.4755 11.4786 20.5687 11.4149 20.5687C11.3511 20.5687 11.0668 20.5687 11.2825 20.6815C11.6152 20.793 11.9562 20.8783 12.3022 20.9366C12.3022 20.9366 11.8757 21.0886 11.8757 21.1622C11.8757 21.2358 12.0767 21.2799 12.0963 21.2995C12.1159 21.3192 14.0866 22.1873 14.871 22.1873C14.4347 22.0255 12.6012 21.3633 12.5375 21.2063C12.4738 21.0494 12.8022 21.0151 12.8022 20.9219C12.8022 20.8287 12.5522 20.8287 12.312 20.711C12.0718 20.5932 11.9982 20.5883 12.0816 20.5098C12.1649 20.4314 12.4199 20.4314 12.1895 20.3284C11.959 20.2254 11.6649 20.294 11.6992 20.1175C11.7335 19.9409 11.8904 20.0095 11.8512 19.8918C11.8119 19.7741 11.6649 19.7937 11.6306 19.6907C11.5963 19.5877 11.6306 19.5632 11.6306 19.4896C11.5374 19.3081 11.2433 19.2591 11.0766 19.1708C10.9845 19.1369 10.9009 19.0833 10.8315 19.0138C10.7433 18.8961 11.0423 18.8569 11.1207 18.8569C11.0472 18.8029 10.405 18.2585 10.5668 18.2094C10.6337 18.181 10.705 18.1644 10.7776 18.1604C10.8413 18.1604 10.9295 18.1849 10.9344 18.0917C10.9272 18.015 10.902 17.9411 10.8609 17.8759C10.753 17.6601 10.4638 17.2922 10.5668 17.253C10.6697 17.2137 10.8413 17.3952 10.9344 17.3216C10.9682 17.2795 10.9994 17.2353 11.0276 17.1892C11.0031 17.1892 11.0325 17.2088 11.0962 17.248Z" fill="#FDC41B"/>
</svg>