<svg width="32" height="32" viewBox="0 0 32 32" fill="none" xmlns="http://www.w3.org/2000/svg">
<path d="M16 32C24.8366 32 32 24.8366 32 16C32 7.16344 24.8366 0 16 0C7.16344 0 0 7.16344 0 16C0 24.8366 7.16344 32 16 32Z" fill="white"/>
<path d="M16 10.4853C14.9523 10.4859 13.9265 10.7844 13.042 11.346C12.1576 11.9075 11.4511 12.709 11.0049 13.6569C11.0049 14.2402 11.0441 16.0098 12.1519 16.7108C13.1323 17.3382 14.4412 17.6127 16 16C17.5588 14.3873 18.8921 14.701 19.5882 15.0196C20.2843 15.3382 21.2255 16.1618 20.9951 18.3333C21.3838 17.4927 21.5549 16.5678 21.4927 15.6437C21.4305 14.7196 21.137 13.8259 20.6391 13.0449C20.1412 12.264 19.455 11.6207 18.6435 11.1743C17.832 10.7278 16.9213 10.4926 15.9951 10.4902L16 10.4853Z" fill="#C60C30"/>
<path d="M20.995 18.348C21.2254 16.1765 20.2891 15.3676 19.5882 15.0343C18.8872 14.701 17.5636 14.3922 15.9999 16.0147C14.4362 17.6373 13.1421 17.3529 12.1519 16.7255C11.044 16.0245 10.9901 14.2745 11.0048 13.6716C10.4185 14.9911 10.3726 16.4879 10.877 17.8408C11.3813 19.1938 12.3958 20.2953 13.7028 20.909C15.0098 21.5228 16.5053 21.5999 17.8685 21.1239C19.2317 20.6479 20.3541 19.6567 20.995 18.3627V18.348Z" fill="#003478"/>
<path d="M7.57194 18.3123L6.81738 18.8153L9.87911 23.4079L10.6337 22.9049L7.57194 18.3123Z" fill="black"/>
<path d="M5.28288 19.8407L4.52832 20.3438L7.59004 24.9363L8.3446 24.4333L5.28288 19.8407Z" fill="black"/>
<path d="M6.42252 19.0759L5.66797 19.5789L7.06831 21.6794L7.82287 21.1764L6.42252 19.0759Z" fill="black"/>
<path d="M7.33301 22.0735L8.73007 24.1716L9.48987 23.6667L8.08301 21.5637L7.33301 22.0735Z" fill="black"/>
<path d="M26.72 19.8355L25.3311 21.9435L26.0883 22.4425L27.4773 20.3344L26.72 19.8355Z" fill="black"/>
<path d="M25.0643 22.3313L23.6709 24.4365L24.4271 24.937L25.8205 22.8318L25.0643 22.3313Z" fill="black"/>
<path d="M25.5743 19.0726L24.1787 21.1763L24.9344 21.6776L26.33 19.5739L25.5743 19.0726Z" fill="black"/>
<path d="M23.9188 21.5627L22.5254 23.6678L23.2816 24.1684L24.675 22.0632L23.9188 21.5627Z" fill="black"/>
<path d="M22.7724 20.8079L21.3721 22.9084L22.1266 23.4114L23.527 21.3109L22.7724 20.8079Z" fill="black"/>
<path d="M24.4258 18.3116L23.0303 20.4153L23.786 20.9166L25.1815 18.8129L24.4258 18.3116Z" fill="black"/>
<path d="M26.3283 12.4118L25.5734 12.9167L22.5293 8.31372L23.2842 7.81372L26.3283 12.4118Z" fill="black"/>
<path d="M26.0825 9.5461L25.3252 10.045L26.7142 12.1531L27.4714 11.6542L26.0825 9.5461Z" fill="black"/>
<path d="M24.4317 7.05396L23.6719 7.55395L25.064 9.6618L25.8238 9.1618L24.4317 7.05396Z" fill="black"/>
<path d="M23.7873 11.0689L23.0352 11.5668L24.4285 13.6719L25.1807 13.1741L23.7873 11.0689Z" fill="black"/>
<path d="M22.1335 8.57149L21.3789 9.07452L22.7793 11.175L23.5338 10.672L22.1335 8.57149Z" fill="black"/>
<path d="M7.56838 13.6765L6.81348 13.1666L9.8821 8.58331L10.6321 9.08822L7.56838 13.6765Z" fill="black"/>
<path d="M6.42189 12.9117L5.66699 12.4019L8.74052 7.8186L9.49052 8.32351L6.42189 12.9117Z" fill="black"/>
<path d="M5.2793 12.1471L4.5293 11.6373L7.59792 7.05396L8.35283 7.55886L5.2793 12.1471Z" fill="black"/>
</svg>