<svg width="32" height="32" viewBox="0 0 32 32" fill="none" xmlns="http://www.w3.org/2000/svg">
<path d="M15.9877 0C12.6798 0.00384991 9.4542 1.03153 6.75332 2.9421C4.05245 4.85266 2.00867 7.5525 0.902344 10.6712H31.073C29.9667 7.5525 27.9229 4.85266 25.222 2.9421C22.5212 1.03153 19.2955 0.00384991 15.9877 0Z" fill="#FCB81E"/>
<path d="M32 15.9945C32.0016 14.1774 31.6914 12.3735 31.0829 10.6614H0.912236C-0.304079 14.1144 -0.304079 17.8796 0.912236 21.3326H31.0829C31.6914 19.6187 32.0016 17.8132 32 15.9945Z" fill="#006944"/>
<path d="M0.902344 21.3325C2.0062 24.4525 4.04948 27.1535 6.75099 29.0639C9.4525 30.9742 12.6794 32 15.9877 32C19.2959 32 22.5229 30.9742 25.2244 29.0639C27.9259 27.1535 29.9692 24.4525 31.073 21.3325H0.902344Z" fill="#C0262C"/>
</svg>