<svg width="32" height="32" viewBox="0 0 32 32" fill="none" xmlns="http://www.w3.org/2000/svg">
<g clip-path="url(#clip0_710_235)">
<path d="M0.00585938 12.8154C0.00585938 8.68584 0.00585938 4.5573 0.00585938 0.429787C0.00585938 0.0829288 0.0413049 0.0123291 0.215635 0.0123291C10.7424 0.0246073 21.2702 0.0246073 31.799 0.0123291C31.9733 0.0123291 32.0088 0.0829288 32.0088 0.429787C32.0088 4.5573 32.0088 8.68584 32.0088 12.8154H0.00585938Z" fill="#851623"/>
<path d="M31.9971 19.2001C31.9971 23.3276 31.9971 27.4561 31.9971 31.5857C31.9971 31.9325 31.9616 32.0031 31.7873 32.0031C21.2585 31.9909 10.7307 31.9909 0.203935 32.0031C0.0296042 32.0031 -0.00585938 31.9325 -0.00585938 31.5857C-0.00585938 27.4561 -0.00585938 23.3276 -0.00585938 19.2001H31.9971Z" fill="#851623"/>
<rect y="10.7434" width="32.2068" height="9.20863" fill="white"/>
</g>
<defs>
<clipPath id="clip0_710_235">
<rect width="32" height="32" rx="16" fill="white"/>
</clipPath>
</defs>
</svg>