<svg width="32" height="32" viewBox="0 0 32 32" fill="none" xmlns="http://www.w3.org/2000/svg">
<g clip-path="url(#clip0_5622_1990)">
<path d="M16 32C24.8366 32 32 24.8366 32 16C32 7.16344 24.8366 0 16 0C7.16344 0 0 7.16344 0 16C0 24.8366 7.16344 32 16 32Z" fill="white"/>
<path d="M15.3047 16.0001H32.0003C32.0003 14.5559 31.8078 13.157 31.4491 11.8262H15.3047V16.0001Z" fill="#D80027"/>
<path d="M15.3047 7.65245H29.6519C28.6725 6.0542 27.4203 4.64152 25.9601 3.47852H15.3047V7.65245Z" fill="#D80027"/>
<path d="M15.9989 32.0007C19.7644 32.0007 23.2255 30.6992 25.9587 28.5225H6.03906C8.77225 30.6992 12.2333 32.0007 15.9989 32.0007Z" fill="#D80027"/>
<path d="M2.34797 24.3478H29.6512C30.4375 23.0648 31.0473 21.6622 31.4484 20.1738H0.550781C0.951844 21.6622 1.56166 23.0648 2.34797 24.3478Z" fill="#D80027"/>
<path d="M16 16C16 7.1635 16 6.12175 16 0C7.1635 0 0 7.1635 0 16H16Z" fill="#0052B4"/>
<path d="M10.6413 13.6951C8.45619 13.6951 6.68481 11.9237 6.68481 9.73864C6.68481 7.55358 8.45625 5.78214 10.6413 5.78214C11.3226 5.78214 11.9637 5.95445 12.5234 6.2577C11.6454 5.39914 10.4446 4.86914 9.11956 4.86914C6.43025 4.86914 4.25 7.04933 4.25 9.7387C4.25 12.4281 6.43025 14.6083 9.11956 14.6083C10.4446 14.6083 11.6454 14.0783 12.5234 13.2197C11.9637 13.5228 11.3227 13.6951 10.6413 13.6951Z" fill="#FFDA44"/>
<path d="M11.7566 6.95605L12.459 8.42493L14.0453 8.05843L13.335 9.52337L14.6107 10.5351L13.0223 10.8931L13.0268 12.5213L11.7566 11.5027L10.4863 12.5213L10.4907 10.8931L8.90234 10.5351L10.1781 9.52337L9.46766 8.05843L11.0541 8.42493L11.7566 6.95605Z" fill="#FFDA44"/>
</g>
<defs>
<clipPath id="clip0_5622_1990">
<rect width="32" height="32" fill="white"/>
</clipPath>
</defs>
</svg>