<svg width="32" height="32" viewBox="0 0 32 32" fill="none" xmlns="http://www.w3.org/2000/svg">
<g clip-path="url(#clip0_710_225)">
<path d="M0.00683594 21.3599V10.64C0.114311 10.64 0.218716 10.6615 0.313908 10.6615H31.666C31.7734 10.6615 31.8779 10.6615 31.973 10.64V21.3599C31.8656 21.3599 31.7612 21.3384 31.666 21.3384H0.313908C0.218716 21.3384 0.114311 21.3538 0.00683594 21.3599Z" fill="#FEFEFE"/>
<path d="M32.0063 10.64C31.8988 10.64 31.7944 10.6615 31.6992 10.6615H0.347111C0.239636 10.6615 0.135231 10.6615 0.0400391 10.64C0.0400391 7.19976 0.0400391 3.75745 0.0400391 0.313087C0.0400391 0.0521511 0.0768667 0.00610352 0.248827 0.00610352C10.7773 0.00610352 21.3058 0.00610352 31.8343 0.00610352C32.0062 0.00610352 32.0431 0.0582908 32.04 0.313087C32.0175 3.7554 32.0063 7.19771 32.0063 10.64Z" fill="#AD1C28"/>
<path d="M0.00642969 21.3599C0.113905 21.3599 0.21831 21.3384 0.313502 21.3384H31.6656C31.773 21.3384 31.8774 21.3537 31.9726 21.3599C31.9726 24.8042 31.9726 28.2476 31.9726 31.6899C31.9726 31.9477 31.9388 31.9969 31.7669 31.9969C21.2384 31.9969 10.7099 31.9969 0.181444 31.9969C0.00948393 31.9969 -0.0273438 31.9447 -0.0273438 31.6899C0.00131632 28.2455 0.0125711 24.8022 0.00642969 21.3599Z" fill="#21468A"/>
</g>
<defs>
<clipPath id="clip0_710_225">
<rect width="32" height="32" rx="16" fill="white"/>
</clipPath>
</defs>
</svg>