<svg width="32" height="32" viewBox="0 0 32 32" fill="none" xmlns="http://www.w3.org/2000/svg">
<path d="M31.9754 16C31.9754 20.2392 30.2943 24.3052 27.3013 27.305C24.3083 30.3049 20.2481 31.9935 16.0121 32H15.2085V31.9755C14.5812 31.9462 13.9561 31.8791 13.3368 31.7744C12.1339 31.5699 10.9584 31.2277 9.83354 30.7545C9.18874 30.4842 8.56336 30.1696 7.96185 29.8131C6.08259 28.7153 4.44622 27.2462 3.15238 25.4953C1.85854 23.7444 0.93428 21.7483 0.435874 19.6286C0.296472 19.0089 0.191781 18.3819 0.122292 17.7505C-0.00821199 16.5872 -0.00821199 15.4128 0.122292 14.2495C0.191382 13.618 0.296076 12.991 0.435874 12.3714C0.931417 10.2537 1.85191 8.25894 3.14144 6.50818C4.43097 4.75743 6.06264 3.28725 7.93735 2.18694C8.5378 1.82846 9.16332 1.51382 9.80904 1.24548C10.9332 0.770228 12.1089 0.427938 13.3123 0.225559C13.9313 0.118593 14.5565 0.0514414 15.184 0.0245174V0H16.0121C19.6209 0.00436469 23.1224 1.2286 25.9488 3.47417C28.7752 5.71975 30.7607 8.85498 31.5834 12.3714C31.8575 13.5616 31.9972 14.7787 31.9999 16H31.9754Z" fill="#EE2B2C"/>
<path d="M31.9755 16C31.9728 17.2213 31.8331 18.4385 31.559 19.6286H15.1841V31.9755C14.5568 31.9462 13.9317 31.8791 13.3124 31.7745C12.1095 31.5699 10.934 31.2277 9.80913 30.7545C9.16432 30.4842 8.53894 30.1696 7.93744 29.8131V19.6286H0.411464C0.272061 19.0089 0.167367 18.3819 0.0978781 17.7506C-0.032626 16.5872 -0.032626 15.4129 0.0978781 14.2495C0.166968 13.6181 0.271666 12.9911 0.411464 12.3715H7.93744V2.18696C8.53789 1.82848 9.16341 1.51384 9.80913 1.2455C10.9333 0.770247 12.109 0.427956 13.3124 0.225578C13.9314 0.118612 14.5566 0.0514601 15.1841 0.0245361V12.3715H31.559C31.8331 13.5616 31.9728 14.7787 31.9755 16Z" fill="white"/>
<path d="M31.9755 15.9998C31.975 16.5847 31.9423 17.1691 31.8775 17.7503H13.3124V31.7742C12.1095 31.5697 10.934 31.2274 9.80913 30.7543V17.7503H0.0978781C-0.032626 16.587 -0.032626 15.4126 0.0978781 14.2492H9.80913V1.24526C10.9333 0.77001 12.109 0.42772 13.3124 0.225342V14.2492H31.8775C31.9424 14.8305 31.9751 15.4149 31.9755 15.9998Z" fill="#032767"/>
</svg>