<svg width="32" height="33" viewBox="0 0 32 33" fill="none" xmlns="http://www.w3.org/2000/svg">
<path d="M31.9996 16.0008C31.9957 12.6933 30.9686 9.46795 29.059 6.76734C27.1495 4.06674 24.451 2.02315 21.334 0.916931V31.0895C24.4514 29.9824 27.15 27.9379 29.0595 25.2365C30.969 22.535 31.996 19.309 31.9996 16.0008Z" fill="#C50D2F"/>
<path d="M16.0042 32.0016C17.8199 32.0024 19.6224 31.6939 21.3345 31.0895V0.916901C17.8844 -0.305634 14.119 -0.305634 10.6689 0.916901V31.0895C12.3826 31.6944 14.1869 32.0028 16.0042 32.0016Z" fill="#FDCA16"/>
<path d="M10.6688 0.916931C7.54879 2.01966 4.84742 4.06263 2.93672 6.76445C1.02603 9.46628 0 12.6941 0 16.0032C0 19.3124 1.02603 22.5402 2.93672 25.242C4.84742 27.9438 7.54879 29.9868 10.6688 31.0895V0.916931Z" fill="#022663"/>
</svg>