<svg width="32" height="32" viewBox="0 0 32 32" fill="none" xmlns="http://www.w3.org/2000/svg">
<path d="M15.9955 0C12.6888 0.00241954 9.46397 1.02911 6.76406 2.93906C4.06414 4.84901 2.02158 7.54851 0.916992 10.6667H31.0739C29.9693 7.54851 27.9268 4.84901 25.2269 2.93906C22.527 1.02911 19.3021 0.00241954 15.9955 0Z" fill="white"/>
<path d="M32 16.0172C32.0016 14.2008 31.6916 12.3977 31.0833 10.6863H0.916574C-0.305525 14.1367 -0.305525 17.9025 0.916574 21.3529H31.0735C31.6846 19.6403 31.998 17.8356 32 16.0172Z" fill="#05539D"/>
<path d="M0.916992 21.3333C2.02034 24.452 4.0627 27.1518 6.76298 29.0614C9.46326 30.9709 12.6887 31.9962 15.9955 31.9962C19.3022 31.9962 22.5277 30.9709 25.2279 29.0614C27.9282 27.1518 29.9706 24.452 31.0739 21.3333H0.916992Z" fill="#DF3A3D"/>
</svg>