<svg width="32" height="32" viewBox="0 0 32 32" fill="none" xmlns="http://www.w3.org/2000/svg">
<g clip-path="url(#clip0_710_84)">
<path d="M31.9941 21.3599C31.9941 24.8035 31.9941 28.244 31.9941 31.6876C31.9941 31.948 31.9441 31.9939 31.7 31.9939C16.5573 31.9939 15.4397 31.9939 0.29702 31.9939C0.0499842 31.9939 0.00292969 31.9419 0.00292969 31.6876C0.00292969 28.244 0.00292969 24.8035 0.00292969 21.3599C0.182325 21.3599 0.361707 21.3385 0.541103 21.3385C3.55553 21.3385 -0.0470694 21.3385 2.95854 21.3385C3.98095 22.5088 5.19229 23.4835 6.53761 24.2184C6.73087 24.3422 6.95331 24.4078 7.1802 24.4078C7.40709 24.4078 7.62954 24.3422 7.82279 24.2184C9.17035 23.4872 10.3823 22.512 11.4019 21.3385C11.596 21.3385 11.7901 21.3385 11.99 21.3385H31.45C31.6294 21.3385 31.8147 21.3508 31.9941 21.3599Z" fill="#CD1126"/>
<path d="M11.4077 21.3292C10.3881 22.5028 9.17622 23.4779 7.82867 24.2091C7.63541 24.3329 7.41297 24.3985 7.18608 24.3985C6.95919 24.3985 6.73674 24.3329 6.54349 24.2091C5.19817 23.4743 3.98683 22.4996 2.96441 21.3292C1.57631 19.6013 0.905767 17.5763 0.691081 15.3612C0.5563 13.9588 0.549405 12.5463 0.670493 11.1426C0.705784 10.7167 0.564625 10.6432 0.197011 10.6524C-0.735256 10.6799 4.9554 10.6524 4.02019 10.6524L0.00878906 10.6309C0.00878906 7.18736 0.00878906 3.74381 0.00878906 0.303315C0.00878906 0.0429032 0.0617254 -0.00305176 0.30288 -0.00305176C15.4456 -0.00305176 16.5632 -0.00305176 31.7059 -0.00305176C31.9559 -0.00305176 32 0.0490306 32 0.303315C32 3.74381 32 7.18736 32 10.6309C31.8353 10.6309 31.6677 10.6524 31.5 10.6524C23.2478 10.6524 22.3832 10.6524 14.1487 10.6524C13.8105 10.6524 13.687 10.7167 13.7164 11.0966C13.7722 11.789 13.7987 12.4875 13.7987 13.186C13.7811 16.1486 13.3223 18.9733 11.4077 21.3292ZM11.6518 20.1651C11.7312 20.0456 11.8136 19.9292 11.8842 19.8066C12.8223 18.1859 13.1929 16.3998 13.284 14.5402C13.3811 12.5488 13.2076 10.5574 13.0899 8.58133C13.0605 8.06663 12.89 7.99618 12.4547 7.99924C10.3373 8.02375 8.2198 7.99924 6.09941 7.99924H1.66746C1.51454 7.99924 1.34103 7.93184 1.32044 8.22595C1.15575 10.6554 0.911656 13.088 1.17634 15.5267C1.30876 17.1805 1.84202 18.7723 2.72618 20.1528C3.58199 21.5774 4.84364 22.5302 6.1641 23.437C6.45505 23.6833 6.81852 23.8178 7.19342 23.8178C7.56832 23.8178 7.93179 23.6833 8.22274 23.437C9.53438 22.5425 10.7931 21.5866 11.6518 20.1651Z" fill="#FEFEFE"/>
<path d="M11.4082 21.3293C13.3227 18.9733 13.7815 16.1486 13.7874 13.1891C13.7874 12.4906 13.7609 11.7921 13.7051 11.0997C13.6756 10.7198 13.7992 10.6524 14.1374 10.6555C22.3925 10.6555 23.2542 10.6555 31.4887 10.6555C31.6564 10.6555 31.824 10.6555 31.9887 10.634V21.3569C31.8093 21.3569 31.6299 21.3354 31.4475 21.3354H11.9876C11.7964 21.3385 11.6023 21.3323 11.4082 21.3293Z" fill="#0138A7"/>
<path d="M0.00878906 10.6401L4.02019 10.6616C4.9554 10.6616 -0.735256 10.68 0.197011 10.6616C0.564625 10.6616 0.705784 10.7259 0.670493 11.1518C0.549406 12.5555 0.556301 13.9681 0.691081 15.3704C0.908709 17.5855 1.57337 19.6105 2.96441 21.3385C-0.0500147 21.3385 3.55259 21.3385 0.54698 21.3385C0.367585 21.3385 0.188184 21.3385 0.00878906 21.3599V10.6401Z" fill="#0138A7"/>
<path d="M2.72649 20.1651C1.84233 18.7845 1.30907 17.1928 1.17664 15.539C0.911962 13.088 1.15605 10.6677 1.32075 8.23823C1.34133 7.93186 1.51484 8.01152 1.66777 8.01152H6.09972C8.22011 8.01152 10.3376 8.01152 12.455 8.01152C12.8903 8.01152 13.0608 8.07893 13.0903 8.59362C13.2079 10.5789 13.3843 12.5611 13.2843 14.5524C13.1932 16.4121 12.8226 18.1982 11.8845 19.8189C11.8139 19.9414 11.7316 20.0579 11.6521 20.1773C11.7639 18.9029 10.3728 17.8582 9.03474 18.8937C8.93075 18.6099 8.77303 18.3508 8.57093 18.1318C8.36883 17.9129 8.1265 17.7385 7.85837 17.6192C7.85837 16.9789 7.85837 16.3416 7.85837 15.7013C7.85837 15.3949 7.9172 15.303 8.22012 15.3061C9.01008 15.3061 9.79813 15.3872 10.5728 15.5481C10.8669 15.6125 10.8993 15.5481 10.8228 15.2418C10.7119 14.8477 10.7119 14.4287 10.8228 14.0347C10.9404 13.6364 10.7758 13.6732 10.5111 13.7283C9.88355 13.8686 9.24419 13.9435 8.60243 13.952C7.8525 13.952 7.8525 13.952 7.8525 13.1554C7.8525 12.993 7.8525 12.849 7.8525 12.6744C7.83192 12.4446 7.91426 12.3681 8.14659 12.3864C8.74023 12.4156 9.33048 12.4966 9.91114 12.6285C10.1876 12.6897 10.264 12.6101 10.1846 12.3221C10.0743 11.929 10.0743 11.5112 10.1846 11.1181C10.2729 10.7933 10.1582 10.7474 9.89055 10.8117C9.35766 10.9231 8.81831 10.9978 8.27599 11.0354C7.95249 11.0629 7.84367 10.9925 7.86132 10.631C7.89073 9.96614 8.04659 9.31971 8.11717 8.60587C7.52097 8.81561 6.87612 8.82204 6.27616 8.62425C6.40718 9.31536 6.49755 10.0142 6.54674 10.7167C6.54674 11.0017 6.46733 11.0568 6.21442 11.0231C5.65799 10.9929 5.10452 10.9191 4.55869 10.8025C4.26459 10.729 4.12049 10.7688 4.22636 11.1487C4.33073 11.5135 4.33073 11.9021 4.22636 12.267C4.12931 12.6009 4.22636 12.6805 4.52045 12.604C5.09232 12.4745 5.67382 12.3966 6.25852 12.3711C6.48203 12.3711 6.55261 12.4293 6.55261 12.6591C6.53341 12.9651 6.53341 13.2722 6.55261 13.5782C6.5732 13.8509 6.50263 13.9458 6.21736 13.9489C5.43628 13.9559 4.65662 13.8778 3.89109 13.7161C3.62641 13.6579 3.46172 13.6242 3.57936 14.0224C3.6903 14.4165 3.6903 14.8355 3.57936 15.2295C3.5029 15.5114 3.52937 15.588 3.8264 15.5359C4.60596 15.3741 5.39896 15.2931 6.19383 15.2939C6.48792 15.2939 6.56732 15.395 6.5585 15.6891C6.53791 16.3294 6.5585 16.9666 6.5585 17.6069C6.28938 17.7246 6.04621 17.8984 5.84391 18.1175C5.64162 18.3367 5.48447 18.5967 5.38214 18.8814C3.98521 17.8428 2.61179 18.9059 2.72649 20.1651Z" fill="#CD1126"/>
<path d="M2.72645 20.1651C2.61175 18.9059 3.98516 17.8428 5.3468 18.8814C5.44914 18.5967 5.60629 18.3367 5.80858 18.1176C6.01088 17.8984 6.25405 17.7246 6.52317 17.6069C6.95225 17.4906 7.40279 17.4906 7.83187 17.6069C8.09999 17.7263 8.34231 17.9007 8.54441 18.1196C8.74651 18.3386 8.90425 18.5976 9.00823 18.8814C10.3463 17.8459 11.7374 18.8814 11.6256 20.1651C10.7669 21.5866 9.50818 22.5425 8.18771 23.4494C7.89676 23.6956 7.53329 23.8301 7.15839 23.8301C6.7835 23.8301 6.42003 23.6956 6.12908 23.4494C4.8439 22.5425 3.58225 21.5897 2.72645 20.1651Z" fill="#0138A7"/>
<path d="M7.84305 17.6069C7.41397 17.4905 6.96342 17.4905 6.53434 17.6069C6.53434 16.9666 6.5167 16.3293 6.53434 15.689C6.53434 15.3827 6.47259 15.2908 6.16967 15.2938C5.3748 15.293 4.5818 15.3741 3.80225 15.5358C3.50816 15.6002 3.47874 15.5358 3.5552 15.2295C3.66615 14.8354 3.66615 14.4165 3.5552 14.0224C3.43757 13.6241 3.60226 13.6578 3.86694 13.716C4.63246 13.8778 5.41212 13.9558 6.19321 13.9489C6.4873 13.9489 6.54906 13.8508 6.52847 13.5782C6.50927 13.2721 6.50927 12.9651 6.52847 12.6591C6.52847 12.4293 6.46672 12.3527 6.23438 12.3711C5.64968 12.3965 5.06816 12.4744 4.4963 12.6039C4.18162 12.6805 4.09633 12.6039 4.20221 12.2669C4.30657 11.9021 4.30657 11.5135 4.20221 11.1487C4.09633 10.7688 4.22868 10.729 4.53453 10.8025C5.08036 10.9191 5.63383 10.9928 6.19026 11.0231C6.44318 11.0415 6.52847 10.9863 6.52259 10.7167C6.47339 10.0141 6.38304 9.31532 6.25203 8.62422C6.85199 8.82201 7.49681 8.81557 8.09302 8.60583C8.02244 9.31967 7.86657 9.9661 7.83716 10.6309C7.81952 10.9924 7.92834 11.0629 8.25184 11.0353C8.79416 10.9978 9.33351 10.9231 9.86639 10.8117C10.1399 10.7504 10.2546 10.8117 10.1605 11.118C10.0501 11.5112 10.0501 11.929 10.1605 12.3221C10.2399 12.607 10.1605 12.6866 9.88698 12.6284C9.30632 12.4966 8.71608 12.4156 8.12244 12.3864C7.90187 12.3864 7.82835 12.4446 7.82835 12.6744C7.82835 12.8337 7.82835 12.9807 7.82835 13.1554C7.82835 13.9581 7.82835 13.9519 8.57828 13.9519C9.22004 13.9435 9.85939 13.8685 10.4869 13.7283C10.7516 13.6731 10.9163 13.6364 10.7987 14.0346C10.6877 14.4287 10.6877 14.8477 10.7987 15.2417C10.8751 15.5236 10.8457 15.6002 10.5487 15.5481C9.77397 15.3872 8.98593 15.3061 8.19596 15.3061C7.90187 15.3061 7.82541 15.4072 7.83424 15.7013C7.85776 16.3293 7.84305 16.9727 7.84305 17.6069Z" fill="#FEFEFE"/>
</g>
<defs>
<clipPath id="clip0_710_84">
<rect width="32" height="32" rx="16" fill="white"/>
</clipPath>
</defs>
</svg>