<svg width="32" height="32" viewBox="0 0 32 32" fill="none" xmlns="http://www.w3.org/2000/svg">
<path d="M15.9955 31.9963C12.6888 31.9939 9.46397 30.9672 6.76406 29.0573C4.06414 27.1473 2.02158 24.4478 0.916992 21.3297H31.0739C29.9693 24.4478 27.9268 27.1473 25.2269 29.0573C22.527 30.9672 19.3021 31.9939 15.9955 31.9963V31.9963Z" fill="white"/>
<path d="M32 15.9792C32.0016 17.7955 31.6916 19.5987 31.0833 21.3101H0.916574C-0.305525 17.8596 -0.305525 14.0938 0.916574 10.6434H31.0735C31.6846 12.356 31.998 14.1607 32 15.9792V15.9792Z" fill="#05539D"/>
<path d="M0.916992 10.663C2.02034 7.54431 4.0627 4.84445 6.76298 2.93491C9.46326 1.02537 12.6887 4.0371e-05 15.9955 4.0371e-05C19.3022 4.0371e-05 22.5277 1.02537 25.2279 2.93491C27.9282 4.84445 29.9706 7.54431 31.0739 10.663H0.916992Z" fill="#DF3A3D"/>
</svg>