<svg width="32" height="32" viewBox="0 0 32 32" fill="none" xmlns="http://www.w3.org/2000/svg">
<path d="M32 15.9976C32.0032 18.0995 31.5914 20.1815 30.7879 22.1241C29.9845 24.0668 28.8054 25.8319 27.318 27.3185C25.8307 28.805 24.0644 29.9837 22.1204 30.7871C20.1764 31.5904 18.0928 32.0026 15.9891 32C15.4983 32 15.0075 32 14.551 31.9363C12.3067 31.7328 10.1315 31.054 8.17019 29.9451C5.69182 28.5549 3.62864 26.5303 2.19274 24.0794C0.756845 21.6286 0 18.8399 0 16C0 13.1601 0.756845 10.3714 2.19274 7.9206C3.62864 5.46976 5.69182 3.44517 8.17019 2.05488C10.1315 0.946008 12.3067 0.267247 14.551 0.0637692C15.0418 0.0196313 15.5032 1.20583e-05 15.9891 1.20583e-05C18.0924 -0.00256971 20.1756 0.409454 22.1193 1.21249C24.063 2.01553 25.829 3.1938 27.3163 4.67982C28.8036 6.16584 29.9828 7.93044 30.7865 9.87251C31.5902 11.8146 32.0026 13.896 32 15.9976Z" fill="#006AA7"/>
<path d="M31.9996 15.9975C32.0012 17.073 31.8943 18.1459 31.6806 19.2H14.5506V31.9509C12.3063 31.7474 10.1311 31.0687 8.16982 29.9598V19.2H0.316532C-0.105511 17.0957 -0.105511 14.9287 0.316532 12.8245H8.16982V2.05483C10.1311 0.945959 12.3063 0.267198 14.5506 0.0637207V12.8147H31.6806C31.8931 13.8623 32 14.9286 31.9996 15.9975Z" fill="#FECC00"/>
</svg>