<svg width="32" height="32" viewBox="0 0 32 32" fill="none" xmlns="http://www.w3.org/2000/svg">
<g clip-path="url(#clip0_710_61)">
<path d="M31.9941 10.6421V21.361C31.8867 21.361 31.7823 21.3395 31.6871 21.3395H0.322638C0.218254 21.3395 0.110799 21.3395 0.015625 21.361V10.6421C0.12001 10.6421 0.227464 10.6636 0.322638 10.6636H31.6748C31.7823 10.6636 31.8867 10.6482 31.9941 10.6421Z" fill="#01257D"/>
<path d="M0.00683594 5.32722C0.00683594 3.6713 0.00683594 2.01537 0.00683594 0.359461C0.00683594 0.0522408 0.0436648 0 0.243223 0C8.80275 0.0122888 17.3623 0.0122888 25.9218 0C27.8806 0 29.8393 0 31.7981 0C31.97 0 32.0068 0.0522273 32.0068 0.30722C32.0068 1.97849 32.0068 3.64979 32.0068 5.32107H31.8042H0.209456L0.00683594 5.32722Z" fill="#DD1018"/>
<path d="M0.00683594 5.32727H0.209456H31.7919H31.9946V10.6421C31.8871 10.6421 31.7827 10.6637 31.6875 10.6637H0.32305C0.218665 10.6637 0.111211 10.6637 0.0160366 10.6421L0.00683594 5.32727Z" fill="#FEFDFD"/>
<path d="M0.00683594 21.361C0.11122 21.361 0.218675 21.3395 0.313849 21.3395H31.6752C31.7827 21.3395 31.8871 21.3395 31.9823 21.361V26.679H31.7796H0.209456H0.00683594V21.361Z" fill="#FEFDFD"/>
<path d="M0.00660506 26.679H0.209226H31.7917H31.9943C31.9943 28.3349 31.9943 29.9908 31.9943 31.6436C31.9943 31.9508 31.9544 32.003 31.7548 32.003C23.2055 32.003 14.6563 32.003 6.10696 32.003C4.139 32.003 2.17103 32.003 0.203079 32.003C0.0280817 32.003 -0.0087576 31.9508 -0.00568747 31.6958C0.0096632 30.0184 0.00660506 28.3472 0.00660506 26.679Z" fill="#DD1018"/>
</g>
<defs>
<clipPath id="clip0_710_61">
<rect width="32" height="32" rx="16" fill="white"/>
</clipPath>
</defs>
</svg>