<svg width="32" height="32" viewBox="0 0 32 32" fill="none" xmlns="http://www.w3.org/2000/svg">
<path d="M16 32C12.8355 32 9.74207 31.0616 7.11089 29.3035C4.4797 27.5454 2.42894 25.0466 1.21794 22.1229C0.00693915 19.1993 -0.309923 15.9823 0.30744 12.8786C0.924804 9.77486 2.44865 6.92393 4.68629 4.68629C6.92393 2.44865 9.77489 0.924804 12.8786 0.30744C15.9823 -0.309923 19.1993 0.00693915 22.123 1.21794C25.0466 2.42894 27.5454 4.4797 29.3035 7.11089C31.0616 9.74207 32 12.8355 32 16C31.9961 20.2423 30.3091 24.3097 27.3094 27.3094C24.3097 30.3092 20.2423 31.9961 16 32Z" fill="#E20C17"/>
<path d="M13.4413 22.0441C12.4386 22.047 11.4509 21.8015 10.5663 21.3294C9.68178 20.8573 8.92803 20.1735 8.37235 19.3389C7.81667 18.5043 7.47642 17.5451 7.38202 16.5469C7.28762 15.5487 7.44197 14.5427 7.83135 13.6188C8.22072 12.6948 8.83297 11.8818 9.61334 11.2522C10.3937 10.6227 11.3179 10.1963 12.3033 10.0112C13.2887 9.82613 14.3046 9.88805 15.2602 10.1915C16.2158 10.4949 17.0814 11.0304 17.7795 11.75C16.8717 10.4065 15.5567 9.38984 14.0279 8.84954C12.4992 8.30923 10.8374 8.27383 9.28698 8.74853C7.73659 9.22322 6.37945 10.183 5.41525 11.4866C4.45106 12.7902 3.93066 14.3688 3.93066 15.9902C3.93066 17.6117 4.45106 19.1903 5.41525 20.4939C6.37945 21.7975 7.73659 22.7572 9.28698 23.2319C10.8374 23.7066 12.4992 23.6712 14.0279 23.1309C15.5567 22.5906 16.8717 21.5739 17.7795 20.2304C17.2141 20.807 16.5389 21.2646 15.7938 21.5761C15.0487 21.8876 14.2488 22.0467 13.4413 22.0441Z" fill="white"/>
<path d="M24.3284 18.1863L21.7303 17.3383L20.1274 19.554L20.1225 16.8187L17.5195 15.9804L20.1176 15.1324V12.3971L21.7254 14.6079L24.3235 13.7598L22.7205 15.9706L24.3284 18.1863Z" fill="white"/>
</svg>