<svg width="32" height="32" viewBox="0 0 32 32" fill="none" xmlns="http://www.w3.org/2000/svg">
<path d="M16 32C24.8366 32 32 24.8366 32 16C32 7.16344 24.8366 0 16 0C7.16344 0 0 7.16344 0 16C0 24.8366 7.16344 32 16 32Z" fill="#DD2911"/>
<path d="M9.152 5.75488L10.0785 8.59802H13.0638L10.6471 10.3529L11.5687 13.1961L9.152 11.4363L6.73533 13.1961L7.6569 10.3529L5.24023 8.59802H8.23043L9.152 5.75488Z" fill="#FEDD19"/>
<path d="M16.4852 4.52454L16.3969 5.50983L17.3087 5.89709L16.343 6.12258L16.2499 7.10787L15.745 6.25983L14.7793 6.47552L15.4313 5.73042L14.9215 4.87748L15.8332 5.26963L16.4852 4.52454Z" fill="#FEDD19"/>
<path d="M19.6614 7.55881L19.1958 8.43626L19.8869 9.15195L18.9065 8.98038L18.4409 9.85293L18.3036 8.87254L17.333 8.70097L18.2203 8.26469L18.083 7.2843L18.7742 7.99509L19.6614 7.55881Z" fill="#FEDD19"/>
<path d="M19.9603 12.1323L19.176 12.7402L19.5093 13.6715L18.6907 13.1127L17.9064 13.7205L18.1858 12.7696L17.3672 12.2107L18.3574 12.1813L18.6368 11.2303L18.9701 12.1617L19.9603 12.1323Z" fill="#FEDD19"/>
<path d="M17.3233 15.3922L16.3674 15.6569L16.3184 16.6422L15.7742 15.8187L14.8184 16.0785L15.436 15.304L14.8968 14.4804L15.8184 14.8285L16.436 14.054L16.3968 15.0442L17.3233 15.3922Z" fill="#FEDD19"/>
</svg>